%TF.GenerationSoftware,KiCad,Pcbnew,6.0.11-2627ca5db0~126~ubuntu20.04.1*%
%TF.CreationDate,2023-03-15T01:56:06+01:00*%
%TF.ProjectId,IOB_V4,494f425f-5634-42e6-9b69-6361645f7063,rev?*%
%TF.SameCoordinates,Original*%
%TF.FileFunction,Drillmap*%
%TF.FilePolarity,Positive*%
%FSLAX45Y45*%
G04 Gerber Fmt 4.5, Leading zero omitted, Abs format (unit mm)*
G04 Created by KiCad (PCBNEW 6.0.11-2627ca5db0~126~ubuntu20.04.1) date 2023-03-15 01:56:06*
%MOMM*%
%LPD*%
G01*
G04 APERTURE LIST*
%ADD10C,0.100000*%
%ADD11C,0.200000*%
%ADD12C,0.020000*%
%ADD13C,0.030000*%
%ADD14C,0.040000*%
%ADD15C,0.050000*%
%ADD16C,0.109000*%
%ADD17C,0.120000*%
%ADD18C,0.140000*%
%ADD19C,0.150000*%
G04 APERTURE END LIST*
D10*
X7000000Y-16900000D02*
X7000000Y-3100711D01*
X7100711Y-3000000D02*
G75*
G03*
X7000000Y-3100711I719J-101430D01*
G01*
X7100711Y-3000000D02*
X14898995Y-3000000D01*
X14898995Y-17000000D02*
X7101005Y-17000000D01*
X7000005Y-16900000D02*
G75*
G03*
X7101005Y-17000000I102025J2040D01*
G01*
X15000000Y-3101005D02*
X15000000Y-16898995D01*
X15000000Y-3101005D02*
G75*
G03*
X14898995Y-3000000I-102020J-1015D01*
G01*
X14898995Y-17000000D02*
G75*
G03*
X15000000Y-16898995I-1015J102020D01*
G01*
D11*
D12*
X12755000Y-13787500D02*
X12775000Y-13807500D01*
X12775000Y-13787500D02*
X12755000Y-13807500D01*
X12755000Y-13912500D02*
X12775000Y-13932500D01*
X12775000Y-13912500D02*
X12755000Y-13932500D01*
X12880000Y-13787500D02*
X12900000Y-13807500D01*
X12900000Y-13787500D02*
X12880000Y-13807500D01*
X12880000Y-13912500D02*
X12900000Y-13932500D01*
X12900000Y-13912500D02*
X12880000Y-13932500D01*
D13*
X7165000Y-3107000D02*
G75*
G03*
X7165000Y-3107000I-15000J0D01*
G01*
X7165000Y-3350000D02*
G75*
G03*
X7165000Y-3350000I-15000J0D01*
G01*
X7165000Y-3600000D02*
G75*
G03*
X7165000Y-3600000I-15000J0D01*
G01*
X7165000Y-3850000D02*
G75*
G03*
X7165000Y-3850000I-15000J0D01*
G01*
X7165000Y-4100000D02*
G75*
G03*
X7165000Y-4100000I-15000J0D01*
G01*
X7165000Y-4350000D02*
G75*
G03*
X7165000Y-4350000I-15000J0D01*
G01*
X7165000Y-4600000D02*
G75*
G03*
X7165000Y-4600000I-15000J0D01*
G01*
X7165000Y-4850000D02*
G75*
G03*
X7165000Y-4850000I-15000J0D01*
G01*
X7165000Y-5100000D02*
G75*
G03*
X7165000Y-5100000I-15000J0D01*
G01*
X7165000Y-5350000D02*
G75*
G03*
X7165000Y-5350000I-15000J0D01*
G01*
X7165000Y-5600000D02*
G75*
G03*
X7165000Y-5600000I-15000J0D01*
G01*
X7165000Y-5850000D02*
G75*
G03*
X7165000Y-5850000I-15000J0D01*
G01*
X7165000Y-6100000D02*
G75*
G03*
X7165000Y-6100000I-15000J0D01*
G01*
X7165000Y-10101000D02*
G75*
G03*
X7165000Y-10101000I-15000J0D01*
G01*
X7165000Y-10350000D02*
G75*
G03*
X7165000Y-10350000I-15000J0D01*
G01*
X7165000Y-10600000D02*
G75*
G03*
X7165000Y-10600000I-15000J0D01*
G01*
X7165000Y-10850000D02*
G75*
G03*
X7165000Y-10850000I-15000J0D01*
G01*
X7165000Y-11100000D02*
G75*
G03*
X7165000Y-11100000I-15000J0D01*
G01*
X7165000Y-11350000D02*
G75*
G03*
X7165000Y-11350000I-15000J0D01*
G01*
X7165000Y-11600000D02*
G75*
G03*
X7165000Y-11600000I-15000J0D01*
G01*
X7165000Y-11850000D02*
G75*
G03*
X7165000Y-11850000I-15000J0D01*
G01*
X7165000Y-12100000D02*
G75*
G03*
X7165000Y-12100000I-15000J0D01*
G01*
X7165000Y-12350000D02*
G75*
G03*
X7165000Y-12350000I-15000J0D01*
G01*
X7165000Y-12600000D02*
G75*
G03*
X7165000Y-12600000I-15000J0D01*
G01*
X7165000Y-12851000D02*
G75*
G03*
X7165000Y-12851000I-15000J0D01*
G01*
X7165000Y-13101000D02*
G75*
G03*
X7165000Y-13101000I-15000J0D01*
G01*
X7165000Y-13350000D02*
G75*
G03*
X7165000Y-13350000I-15000J0D01*
G01*
X7165000Y-13600000D02*
G75*
G03*
X7165000Y-13600000I-15000J0D01*
G01*
X7165000Y-13850000D02*
G75*
G03*
X7165000Y-13850000I-15000J0D01*
G01*
X7165000Y-14100000D02*
G75*
G03*
X7165000Y-14100000I-15000J0D01*
G01*
X7165000Y-14350000D02*
G75*
G03*
X7165000Y-14350000I-15000J0D01*
G01*
X7165000Y-14600000D02*
G75*
G03*
X7165000Y-14600000I-15000J0D01*
G01*
X7165000Y-14850000D02*
G75*
G03*
X7165000Y-14850000I-15000J0D01*
G01*
X7165000Y-15100000D02*
G75*
G03*
X7165000Y-15100000I-15000J0D01*
G01*
X7165000Y-15350000D02*
G75*
G03*
X7165000Y-15350000I-15000J0D01*
G01*
X7165000Y-15599000D02*
G75*
G03*
X7165000Y-15599000I-15000J0D01*
G01*
X7165000Y-15849000D02*
G75*
G03*
X7165000Y-15849000I-15000J0D01*
G01*
X7165000Y-16100000D02*
G75*
G03*
X7165000Y-16100000I-15000J0D01*
G01*
X7165000Y-16350000D02*
G75*
G03*
X7165000Y-16350000I-15000J0D01*
G01*
X7165000Y-16600000D02*
G75*
G03*
X7165000Y-16600000I-15000J0D01*
G01*
X7165000Y-16850000D02*
G75*
G03*
X7165000Y-16850000I-15000J0D01*
G01*
X7354000Y-12645000D02*
G75*
G03*
X7354000Y-12645000I-15000J0D01*
G01*
X7414950Y-9600000D02*
G75*
G03*
X7414950Y-9600000I-15000J0D01*
G01*
X7414950Y-10100000D02*
G75*
G03*
X7414950Y-10100000I-15000J0D01*
G01*
X7414950Y-10350000D02*
G75*
G03*
X7414950Y-10350000I-15000J0D01*
G01*
X7415000Y-4850000D02*
G75*
G03*
X7415000Y-4850000I-15000J0D01*
G01*
X7415000Y-5100000D02*
G75*
G03*
X7415000Y-5100000I-15000J0D01*
G01*
X7415000Y-5600000D02*
G75*
G03*
X7415000Y-5600000I-15000J0D01*
G01*
X7415000Y-6850000D02*
G75*
G03*
X7415000Y-6850000I-15000J0D01*
G01*
X7415000Y-8850000D02*
G75*
G03*
X7415000Y-8850000I-15000J0D01*
G01*
X7415000Y-9100000D02*
G75*
G03*
X7415000Y-9100000I-15000J0D01*
G01*
X7415000Y-10600000D02*
G75*
G03*
X7415000Y-10600000I-15000J0D01*
G01*
X7415000Y-12850000D02*
G75*
G03*
X7415000Y-12850000I-15000J0D01*
G01*
X7415000Y-13100000D02*
G75*
G03*
X7415000Y-13100000I-15000J0D01*
G01*
X7415000Y-13350000D02*
G75*
G03*
X7415000Y-13350000I-15000J0D01*
G01*
X7415000Y-13599000D02*
G75*
G03*
X7415000Y-13599000I-15000J0D01*
G01*
X7415000Y-13849000D02*
G75*
G03*
X7415000Y-13849000I-15000J0D01*
G01*
X7415000Y-14099000D02*
G75*
G03*
X7415000Y-14099000I-15000J0D01*
G01*
X7415000Y-14349000D02*
G75*
G03*
X7415000Y-14349000I-15000J0D01*
G01*
X7415000Y-14599000D02*
G75*
G03*
X7415000Y-14599000I-15000J0D01*
G01*
X7415000Y-14850000D02*
G75*
G03*
X7415000Y-14850000I-15000J0D01*
G01*
X7415000Y-16850000D02*
G75*
G03*
X7415000Y-16850000I-15000J0D01*
G01*
X7468465Y-3390535D02*
G75*
G03*
X7468465Y-3390535I-15000J0D01*
G01*
X7468965Y-15388035D02*
G75*
G03*
X7468965Y-15388035I-15000J0D01*
G01*
X7469965Y-7389035D02*
G75*
G03*
X7469965Y-7389035I-15000J0D01*
G01*
X7479965Y-11392035D02*
G75*
G03*
X7479965Y-11392035I-15000J0D01*
G01*
X7493472Y-8162855D02*
G75*
G03*
X7493472Y-8162855I-15000J0D01*
G01*
X7494000Y-4169000D02*
G75*
G03*
X7494000Y-4169000I-15000J0D01*
G01*
X7509000Y-12165000D02*
G75*
G03*
X7509000Y-12165000I-15000J0D01*
G01*
X7512316Y-16166050D02*
G75*
G03*
X7512316Y-16166050I-15000J0D01*
G01*
X7665000Y-4850000D02*
G75*
G03*
X7665000Y-4850000I-15000J0D01*
G01*
X7665000Y-6850000D02*
G75*
G03*
X7665000Y-6850000I-15000J0D01*
G01*
X7665000Y-8850000D02*
G75*
G03*
X7665000Y-8850000I-15000J0D01*
G01*
X7665000Y-9100000D02*
G75*
G03*
X7665000Y-9100000I-15000J0D01*
G01*
X7665000Y-13599000D02*
G75*
G03*
X7665000Y-13599000I-15000J0D01*
G01*
X7665000Y-13849000D02*
G75*
G03*
X7665000Y-13849000I-15000J0D01*
G01*
X7665000Y-14099000D02*
G75*
G03*
X7665000Y-14099000I-15000J0D01*
G01*
X7665000Y-14349000D02*
G75*
G03*
X7665000Y-14349000I-15000J0D01*
G01*
X7665000Y-14850000D02*
G75*
G03*
X7665000Y-14850000I-15000J0D01*
G01*
X7665000Y-16850000D02*
G75*
G03*
X7665000Y-16850000I-15000J0D01*
G01*
X7810000Y-7417000D02*
G75*
G03*
X7810000Y-7417000I-15000J0D01*
G01*
X7812789Y-15404095D02*
G75*
G03*
X7812789Y-15404095I-15000J0D01*
G01*
X7815686Y-11409035D02*
G75*
G03*
X7815686Y-11409035I-15000J0D01*
G01*
X7818000Y-3425000D02*
G75*
G03*
X7818000Y-3425000I-15000J0D01*
G01*
X7915000Y-3107000D02*
G75*
G03*
X7915000Y-3107000I-15000J0D01*
G01*
X7915000Y-4850000D02*
G75*
G03*
X7915000Y-4850000I-15000J0D01*
G01*
X7915000Y-5600000D02*
G75*
G03*
X7915000Y-5600000I-15000J0D01*
G01*
X7915000Y-5850000D02*
G75*
G03*
X7915000Y-5850000I-15000J0D01*
G01*
X7915000Y-6100000D02*
G75*
G03*
X7915000Y-6100000I-15000J0D01*
G01*
X7915000Y-6350000D02*
G75*
G03*
X7915000Y-6350000I-15000J0D01*
G01*
X7915000Y-6600000D02*
G75*
G03*
X7915000Y-6600000I-15000J0D01*
G01*
X7915000Y-6850000D02*
G75*
G03*
X7915000Y-6850000I-15000J0D01*
G01*
X7915000Y-8850000D02*
G75*
G03*
X7915000Y-8850000I-15000J0D01*
G01*
X7915000Y-9100000D02*
G75*
G03*
X7915000Y-9100000I-15000J0D01*
G01*
X7915000Y-13599000D02*
G75*
G03*
X7915000Y-13599000I-15000J0D01*
G01*
X7915000Y-13849000D02*
G75*
G03*
X7915000Y-13849000I-15000J0D01*
G01*
X7915000Y-14099000D02*
G75*
G03*
X7915000Y-14099000I-15000J0D01*
G01*
X7915000Y-14349000D02*
G75*
G03*
X7915000Y-14349000I-15000J0D01*
G01*
X7915000Y-14850000D02*
G75*
G03*
X7915000Y-14850000I-15000J0D01*
G01*
X7915000Y-15099000D02*
G75*
G03*
X7915000Y-15099000I-15000J0D01*
G01*
X7915000Y-16850000D02*
G75*
G03*
X7915000Y-16850000I-15000J0D01*
G01*
X7920000Y-7436000D02*
G75*
G03*
X7920000Y-7436000I-15000J0D01*
G01*
X7922000Y-3438000D02*
G75*
G03*
X7922000Y-3438000I-15000J0D01*
G01*
X7922000Y-15434000D02*
G75*
G03*
X7922000Y-15434000I-15000J0D01*
G01*
X7924000Y-11435000D02*
G75*
G03*
X7924000Y-11435000I-15000J0D01*
G01*
X7942072Y-10158021D02*
G75*
G03*
X7942072Y-10158021I-15000J0D01*
G01*
X7948053Y-9560910D02*
G75*
G03*
X7948053Y-9560910I-15000J0D01*
G01*
X8032976Y-10156336D02*
G75*
G03*
X8032976Y-10156336I-15000J0D01*
G01*
X8037950Y-9564000D02*
G75*
G03*
X8037950Y-9564000I-15000J0D01*
G01*
X8067000Y-12812000D02*
G75*
G03*
X8067000Y-12812000I-15000J0D01*
G01*
X8165000Y-3107000D02*
G75*
G03*
X8165000Y-3107000I-15000J0D01*
G01*
X8165000Y-4850000D02*
G75*
G03*
X8165000Y-4850000I-15000J0D01*
G01*
X8165000Y-5600000D02*
G75*
G03*
X8165000Y-5600000I-15000J0D01*
G01*
X8165000Y-5850000D02*
G75*
G03*
X8165000Y-5850000I-15000J0D01*
G01*
X8165000Y-6100000D02*
G75*
G03*
X8165000Y-6100000I-15000J0D01*
G01*
X8165000Y-6350000D02*
G75*
G03*
X8165000Y-6350000I-15000J0D01*
G01*
X8165000Y-6600000D02*
G75*
G03*
X8165000Y-6600000I-15000J0D01*
G01*
X8165000Y-6850000D02*
G75*
G03*
X8165000Y-6850000I-15000J0D01*
G01*
X8165000Y-8850000D02*
G75*
G03*
X8165000Y-8850000I-15000J0D01*
G01*
X8165000Y-9350000D02*
G75*
G03*
X8165000Y-9350000I-15000J0D01*
G01*
X8165000Y-9597050D02*
G75*
G03*
X8165000Y-9597050I-15000J0D01*
G01*
X8165000Y-10350000D02*
G75*
G03*
X8165000Y-10350000I-15000J0D01*
G01*
X8165000Y-10850000D02*
G75*
G03*
X8165000Y-10850000I-15000J0D01*
G01*
X8165000Y-13599000D02*
G75*
G03*
X8165000Y-13599000I-15000J0D01*
G01*
X8165000Y-13849000D02*
G75*
G03*
X8165000Y-13849000I-15000J0D01*
G01*
X8165000Y-14099000D02*
G75*
G03*
X8165000Y-14099000I-15000J0D01*
G01*
X8165000Y-14349000D02*
G75*
G03*
X8165000Y-14349000I-15000J0D01*
G01*
X8165000Y-14850000D02*
G75*
G03*
X8165000Y-14850000I-15000J0D01*
G01*
X8165000Y-15099000D02*
G75*
G03*
X8165000Y-15099000I-15000J0D01*
G01*
X8165000Y-16850000D02*
G75*
G03*
X8165000Y-16850000I-15000J0D01*
G01*
X8190000Y-10735000D02*
G75*
G03*
X8190000Y-10735000I-15000J0D01*
G01*
X8381750Y-7480250D02*
G75*
G03*
X8381750Y-7480250I-15000J0D01*
G01*
X8383750Y-15481250D02*
G75*
G03*
X8383750Y-15481250I-15000J0D01*
G01*
X8389250Y-3487750D02*
G75*
G03*
X8389250Y-3487750I-15000J0D01*
G01*
X8389750Y-11483250D02*
G75*
G03*
X8389750Y-11483250I-15000J0D01*
G01*
X8410000Y-8602050D02*
G75*
G03*
X8410000Y-8602050I-15000J0D01*
G01*
X8414261Y-9597050D02*
G75*
G03*
X8414261Y-9597050I-15000J0D01*
G01*
X8415000Y-3107000D02*
G75*
G03*
X8415000Y-3107000I-15000J0D01*
G01*
X8415000Y-4850000D02*
G75*
G03*
X8415000Y-4850000I-15000J0D01*
G01*
X8415000Y-5100000D02*
G75*
G03*
X8415000Y-5100000I-15000J0D01*
G01*
X8415000Y-5350000D02*
G75*
G03*
X8415000Y-5350000I-15000J0D01*
G01*
X8415000Y-5600000D02*
G75*
G03*
X8415000Y-5600000I-15000J0D01*
G01*
X8415000Y-5850000D02*
G75*
G03*
X8415000Y-5850000I-15000J0D01*
G01*
X8415000Y-6100000D02*
G75*
G03*
X8415000Y-6100000I-15000J0D01*
G01*
X8415000Y-6350000D02*
G75*
G03*
X8415000Y-6350000I-15000J0D01*
G01*
X8415000Y-6600000D02*
G75*
G03*
X8415000Y-6600000I-15000J0D01*
G01*
X8415000Y-6850000D02*
G75*
G03*
X8415000Y-6850000I-15000J0D01*
G01*
X8415000Y-8850000D02*
G75*
G03*
X8415000Y-8850000I-15000J0D01*
G01*
X8415000Y-9350000D02*
G75*
G03*
X8415000Y-9350000I-15000J0D01*
G01*
X8415000Y-12850000D02*
G75*
G03*
X8415000Y-12850000I-15000J0D01*
G01*
X8415000Y-13350000D02*
G75*
G03*
X8415000Y-13350000I-15000J0D01*
G01*
X8415000Y-13599000D02*
G75*
G03*
X8415000Y-13599000I-15000J0D01*
G01*
X8415000Y-13849000D02*
G75*
G03*
X8415000Y-13849000I-15000J0D01*
G01*
X8415000Y-14099000D02*
G75*
G03*
X8415000Y-14099000I-15000J0D01*
G01*
X8415000Y-14349000D02*
G75*
G03*
X8415000Y-14349000I-15000J0D01*
G01*
X8415000Y-14850000D02*
G75*
G03*
X8415000Y-14850000I-15000J0D01*
G01*
X8415000Y-15100000D02*
G75*
G03*
X8415000Y-15100000I-15000J0D01*
G01*
X8415000Y-16850000D02*
G75*
G03*
X8415000Y-16850000I-15000J0D01*
G01*
X8455000Y-12595000D02*
G75*
G03*
X8455000Y-12595000I-15000J0D01*
G01*
X8465000Y-4579950D02*
G75*
G03*
X8465000Y-4579950I-15000J0D01*
G01*
X8475000Y-16615050D02*
G75*
G03*
X8475000Y-16615050I-15000J0D01*
G01*
X8529000Y-11166000D02*
G75*
G03*
X8529000Y-11166000I-15000J0D01*
G01*
X8556950Y-15991000D02*
G75*
G03*
X8556950Y-15991000I-15000J0D01*
G01*
X8560000Y-16168000D02*
G75*
G03*
X8560000Y-16168000I-15000J0D01*
G01*
X8562950Y-3982000D02*
G75*
G03*
X8562950Y-3982000I-15000J0D01*
G01*
X8562950Y-7994174D02*
G75*
G03*
X8562950Y-7994174I-15000J0D01*
G01*
X8565000Y-4175000D02*
G75*
G03*
X8565000Y-4175000I-15000J0D01*
G01*
X8566000Y-8169000D02*
G75*
G03*
X8566000Y-8169000I-15000J0D01*
G01*
X8566950Y-11991000D02*
G75*
G03*
X8566950Y-11991000I-15000J0D01*
G01*
X8566950Y-12168000D02*
G75*
G03*
X8566950Y-12168000I-15000J0D01*
G01*
X8575000Y-13004950D02*
G75*
G03*
X8575000Y-13004950I-15000J0D01*
G01*
X8575000Y-13120000D02*
G75*
G03*
X8575000Y-13120000I-15000J0D01*
G01*
X8585000Y-9749550D02*
G75*
G03*
X8585000Y-9749550I-15000J0D01*
G01*
X8591000Y-9543000D02*
G75*
G03*
X8591000Y-9543000I-15000J0D01*
G01*
X8605000Y-7140000D02*
G75*
G03*
X8605000Y-7140000I-15000J0D01*
G01*
X8605000Y-15100000D02*
G75*
G03*
X8605000Y-15100000I-15000J0D01*
G01*
X8665000Y-3107000D02*
G75*
G03*
X8665000Y-3107000I-15000J0D01*
G01*
X8665000Y-4850000D02*
G75*
G03*
X8665000Y-4850000I-15000J0D01*
G01*
X8665000Y-5100000D02*
G75*
G03*
X8665000Y-5100000I-15000J0D01*
G01*
X8665000Y-5350000D02*
G75*
G03*
X8665000Y-5350000I-15000J0D01*
G01*
X8665000Y-5600000D02*
G75*
G03*
X8665000Y-5600000I-15000J0D01*
G01*
X8665000Y-5850000D02*
G75*
G03*
X8665000Y-5850000I-15000J0D01*
G01*
X8665000Y-6100000D02*
G75*
G03*
X8665000Y-6100000I-15000J0D01*
G01*
X8665000Y-6350000D02*
G75*
G03*
X8665000Y-6350000I-15000J0D01*
G01*
X8665000Y-6600000D02*
G75*
G03*
X8665000Y-6600000I-15000J0D01*
G01*
X8665000Y-6850000D02*
G75*
G03*
X8665000Y-6850000I-15000J0D01*
G01*
X8665000Y-8850000D02*
G75*
G03*
X8665000Y-8850000I-15000J0D01*
G01*
X8665000Y-9350000D02*
G75*
G03*
X8665000Y-9350000I-15000J0D01*
G01*
X8665000Y-12850000D02*
G75*
G03*
X8665000Y-12850000I-15000J0D01*
G01*
X8665000Y-13599000D02*
G75*
G03*
X8665000Y-13599000I-15000J0D01*
G01*
X8665000Y-13849000D02*
G75*
G03*
X8665000Y-13849000I-15000J0D01*
G01*
X8665000Y-14100000D02*
G75*
G03*
X8665000Y-14100000I-15000J0D01*
G01*
X8665000Y-14350000D02*
G75*
G03*
X8665000Y-14350000I-15000J0D01*
G01*
X8665000Y-14850000D02*
G75*
G03*
X8665000Y-14850000I-15000J0D01*
G01*
X8665000Y-16850000D02*
G75*
G03*
X8665000Y-16850000I-15000J0D01*
G01*
X8705000Y-9745000D02*
G75*
G03*
X8705000Y-9745000I-15000J0D01*
G01*
X8914950Y-10850000D02*
G75*
G03*
X8914950Y-10850000I-15000J0D01*
G01*
X8914950Y-11350000D02*
G75*
G03*
X8914950Y-11350000I-15000J0D01*
G01*
X8915000Y-3107000D02*
G75*
G03*
X8915000Y-3107000I-15000J0D01*
G01*
X8915000Y-3357000D02*
G75*
G03*
X8915000Y-3357000I-15000J0D01*
G01*
X8915000Y-4350000D02*
G75*
G03*
X8915000Y-4350000I-15000J0D01*
G01*
X8915000Y-4600000D02*
G75*
G03*
X8915000Y-4600000I-15000J0D01*
G01*
X8915000Y-8350000D02*
G75*
G03*
X8915000Y-8350000I-15000J0D01*
G01*
X8915000Y-8600000D02*
G75*
G03*
X8915000Y-8600000I-15000J0D01*
G01*
X8915000Y-12350000D02*
G75*
G03*
X8915000Y-12350000I-15000J0D01*
G01*
X8915000Y-13350000D02*
G75*
G03*
X8915000Y-13350000I-15000J0D01*
G01*
X8915000Y-13600000D02*
G75*
G03*
X8915000Y-13600000I-15000J0D01*
G01*
X8915000Y-13850000D02*
G75*
G03*
X8915000Y-13850000I-15000J0D01*
G01*
X8915000Y-14100000D02*
G75*
G03*
X8915000Y-14100000I-15000J0D01*
G01*
X8915000Y-14350000D02*
G75*
G03*
X8915000Y-14350000I-15000J0D01*
G01*
X8915000Y-14600000D02*
G75*
G03*
X8915000Y-14600000I-15000J0D01*
G01*
X8915000Y-14850000D02*
G75*
G03*
X8915000Y-14850000I-15000J0D01*
G01*
X8915000Y-15100000D02*
G75*
G03*
X8915000Y-15100000I-15000J0D01*
G01*
X8915000Y-15350000D02*
G75*
G03*
X8915000Y-15350000I-15000J0D01*
G01*
X8915000Y-16350000D02*
G75*
G03*
X8915000Y-16350000I-15000J0D01*
G01*
X8915000Y-16600000D02*
G75*
G03*
X8915000Y-16600000I-15000J0D01*
G01*
X8915000Y-16850000D02*
G75*
G03*
X8915000Y-16850000I-15000J0D01*
G01*
X8951000Y-8922000D02*
G75*
G03*
X8951000Y-8922000I-15000J0D01*
G01*
X8973000Y-11225000D02*
G75*
G03*
X8973000Y-11225000I-15000J0D01*
G01*
X8985000Y-10365000D02*
G75*
G03*
X8985000Y-10365000I-15000J0D01*
G01*
X9113000Y-11095000D02*
G75*
G03*
X9113000Y-11095000I-15000J0D01*
G01*
X9117000Y-9436000D02*
G75*
G03*
X9117000Y-9436000I-15000J0D01*
G01*
X9164950Y-11350000D02*
G75*
G03*
X9164950Y-11350000I-15000J0D01*
G01*
X9165000Y-3107000D02*
G75*
G03*
X9165000Y-3107000I-15000J0D01*
G01*
X9165000Y-3357000D02*
G75*
G03*
X9165000Y-3357000I-15000J0D01*
G01*
X9165000Y-4100000D02*
G75*
G03*
X9165000Y-4100000I-15000J0D01*
G01*
X9165000Y-4350000D02*
G75*
G03*
X9165000Y-4350000I-15000J0D01*
G01*
X9165000Y-11600000D02*
G75*
G03*
X9165000Y-11600000I-15000J0D01*
G01*
X9165000Y-11850000D02*
G75*
G03*
X9165000Y-11850000I-15000J0D01*
G01*
X9165000Y-12100000D02*
G75*
G03*
X9165000Y-12100000I-15000J0D01*
G01*
X9165000Y-12350000D02*
G75*
G03*
X9165000Y-12350000I-15000J0D01*
G01*
X9165000Y-12600000D02*
G75*
G03*
X9165000Y-12600000I-15000J0D01*
G01*
X9165000Y-12850000D02*
G75*
G03*
X9165000Y-12850000I-15000J0D01*
G01*
X9165000Y-13100000D02*
G75*
G03*
X9165000Y-13100000I-15000J0D01*
G01*
X9165000Y-13350000D02*
G75*
G03*
X9165000Y-13350000I-15000J0D01*
G01*
X9165000Y-13599000D02*
G75*
G03*
X9165000Y-13599000I-15000J0D01*
G01*
X9165000Y-13849000D02*
G75*
G03*
X9165000Y-13849000I-15000J0D01*
G01*
X9165000Y-14099000D02*
G75*
G03*
X9165000Y-14099000I-15000J0D01*
G01*
X9165000Y-14349000D02*
G75*
G03*
X9165000Y-14349000I-15000J0D01*
G01*
X9165000Y-14599000D02*
G75*
G03*
X9165000Y-14599000I-15000J0D01*
G01*
X9165000Y-14850000D02*
G75*
G03*
X9165000Y-14850000I-15000J0D01*
G01*
X9165000Y-15100000D02*
G75*
G03*
X9165000Y-15100000I-15000J0D01*
G01*
X9165000Y-15350000D02*
G75*
G03*
X9165000Y-15350000I-15000J0D01*
G01*
X9165000Y-15600000D02*
G75*
G03*
X9165000Y-15600000I-15000J0D01*
G01*
X9165000Y-15850000D02*
G75*
G03*
X9165000Y-15850000I-15000J0D01*
G01*
X9165000Y-16100000D02*
G75*
G03*
X9165000Y-16100000I-15000J0D01*
G01*
X9165000Y-16350000D02*
G75*
G03*
X9165000Y-16350000I-15000J0D01*
G01*
X9165000Y-16600000D02*
G75*
G03*
X9165000Y-16600000I-15000J0D01*
G01*
X9165000Y-16850000D02*
G75*
G03*
X9165000Y-16850000I-15000J0D01*
G01*
X9167500Y-8947500D02*
G75*
G03*
X9167500Y-8947500I-15000J0D01*
G01*
X9272000Y-9436000D02*
G75*
G03*
X9272000Y-9436000I-15000J0D01*
G01*
X9347000Y-3996000D02*
G75*
G03*
X9347000Y-3996000I-15000J0D01*
G01*
X9380000Y-14845000D02*
G75*
G03*
X9380000Y-14845000I-15000J0D01*
G01*
X9380000Y-15600000D02*
G75*
G03*
X9380000Y-15600000I-15000J0D01*
G01*
X9380000Y-15850000D02*
G75*
G03*
X9380000Y-15850000I-15000J0D01*
G01*
X9380000Y-16100000D02*
G75*
G03*
X9380000Y-16100000I-15000J0D01*
G01*
X9380000Y-16350000D02*
G75*
G03*
X9380000Y-16350000I-15000J0D01*
G01*
X9380050Y-13599000D02*
G75*
G03*
X9380050Y-13599000I-15000J0D01*
G01*
X9380050Y-13849000D02*
G75*
G03*
X9380050Y-13849000I-15000J0D01*
G01*
X9380050Y-14099000D02*
G75*
G03*
X9380050Y-14099000I-15000J0D01*
G01*
X9380050Y-14349000D02*
G75*
G03*
X9380050Y-14349000I-15000J0D01*
G01*
X9380050Y-14599000D02*
G75*
G03*
X9380050Y-14599000I-15000J0D01*
G01*
X9380050Y-15100000D02*
G75*
G03*
X9380050Y-15100000I-15000J0D01*
G01*
X9380050Y-15350000D02*
G75*
G03*
X9380050Y-15350000I-15000J0D01*
G01*
X9415000Y-3107000D02*
G75*
G03*
X9415000Y-3107000I-15000J0D01*
G01*
X9415000Y-3357000D02*
G75*
G03*
X9415000Y-3357000I-15000J0D01*
G01*
X9415000Y-3607000D02*
G75*
G03*
X9415000Y-3607000I-15000J0D01*
G01*
X9415000Y-4100000D02*
G75*
G03*
X9415000Y-4100000I-15000J0D01*
G01*
X9415000Y-4350000D02*
G75*
G03*
X9415000Y-4350000I-15000J0D01*
G01*
X9415000Y-5100000D02*
G75*
G03*
X9415000Y-5100000I-15000J0D01*
G01*
X9415000Y-5350000D02*
G75*
G03*
X9415000Y-5350000I-15000J0D01*
G01*
X9415000Y-5600000D02*
G75*
G03*
X9415000Y-5600000I-15000J0D01*
G01*
X9415000Y-5850000D02*
G75*
G03*
X9415000Y-5850000I-15000J0D01*
G01*
X9415000Y-6100000D02*
G75*
G03*
X9415000Y-6100000I-15000J0D01*
G01*
X9415000Y-6350000D02*
G75*
G03*
X9415000Y-6350000I-15000J0D01*
G01*
X9415000Y-6600000D02*
G75*
G03*
X9415000Y-6600000I-15000J0D01*
G01*
X9415000Y-7350000D02*
G75*
G03*
X9415000Y-7350000I-15000J0D01*
G01*
X9415000Y-7600000D02*
G75*
G03*
X9415000Y-7600000I-15000J0D01*
G01*
X9415000Y-7850000D02*
G75*
G03*
X9415000Y-7850000I-15000J0D01*
G01*
X9415000Y-8100000D02*
G75*
G03*
X9415000Y-8100000I-15000J0D01*
G01*
X9415000Y-8350000D02*
G75*
G03*
X9415000Y-8350000I-15000J0D01*
G01*
X9415000Y-8600000D02*
G75*
G03*
X9415000Y-8600000I-15000J0D01*
G01*
X9415000Y-16850000D02*
G75*
G03*
X9415000Y-16850000I-15000J0D01*
G01*
X9518037Y-4870887D02*
G75*
G03*
X9518037Y-4870887I-15000J0D01*
G01*
X9519921Y-8916997D02*
G75*
G03*
X9519921Y-8916997I-15000J0D01*
G01*
X9538000Y-9418000D02*
G75*
G03*
X9538000Y-9418000I-15000J0D01*
G01*
X9665000Y-3107000D02*
G75*
G03*
X9665000Y-3107000I-15000J0D01*
G01*
X9665000Y-3357000D02*
G75*
G03*
X9665000Y-3357000I-15000J0D01*
G01*
X9665000Y-3607000D02*
G75*
G03*
X9665000Y-3607000I-15000J0D01*
G01*
X9665000Y-4100000D02*
G75*
G03*
X9665000Y-4100000I-15000J0D01*
G01*
X9665000Y-4350000D02*
G75*
G03*
X9665000Y-4350000I-15000J0D01*
G01*
X9665000Y-5100000D02*
G75*
G03*
X9665000Y-5100000I-15000J0D01*
G01*
X9665000Y-5350000D02*
G75*
G03*
X9665000Y-5350000I-15000J0D01*
G01*
X9665000Y-5600000D02*
G75*
G03*
X9665000Y-5600000I-15000J0D01*
G01*
X9665000Y-5850000D02*
G75*
G03*
X9665000Y-5850000I-15000J0D01*
G01*
X9665000Y-6100000D02*
G75*
G03*
X9665000Y-6100000I-15000J0D01*
G01*
X9665000Y-6350000D02*
G75*
G03*
X9665000Y-6350000I-15000J0D01*
G01*
X9665000Y-6600000D02*
G75*
G03*
X9665000Y-6600000I-15000J0D01*
G01*
X9665000Y-7350000D02*
G75*
G03*
X9665000Y-7350000I-15000J0D01*
G01*
X9665000Y-7600000D02*
G75*
G03*
X9665000Y-7600000I-15000J0D01*
G01*
X9665000Y-7850000D02*
G75*
G03*
X9665000Y-7850000I-15000J0D01*
G01*
X9665000Y-8100000D02*
G75*
G03*
X9665000Y-8100000I-15000J0D01*
G01*
X9665000Y-8350000D02*
G75*
G03*
X9665000Y-8350000I-15000J0D01*
G01*
X9665000Y-8600000D02*
G75*
G03*
X9665000Y-8600000I-15000J0D01*
G01*
X9665000Y-15100000D02*
G75*
G03*
X9665000Y-15100000I-15000J0D01*
G01*
X9665000Y-15350000D02*
G75*
G03*
X9665000Y-15350000I-15000J0D01*
G01*
X9665000Y-15600000D02*
G75*
G03*
X9665000Y-15600000I-15000J0D01*
G01*
X9665000Y-15850000D02*
G75*
G03*
X9665000Y-15850000I-15000J0D01*
G01*
X9665000Y-16100000D02*
G75*
G03*
X9665000Y-16100000I-15000J0D01*
G01*
X9665000Y-16350000D02*
G75*
G03*
X9665000Y-16350000I-15000J0D01*
G01*
X9665000Y-16600000D02*
G75*
G03*
X9665000Y-16600000I-15000J0D01*
G01*
X9665000Y-16850000D02*
G75*
G03*
X9665000Y-16850000I-15000J0D01*
G01*
X9667018Y-3851950D02*
G75*
G03*
X9667018Y-3851950I-15000J0D01*
G01*
X9681000Y-9451000D02*
G75*
G03*
X9681000Y-9451000I-15000J0D01*
G01*
X9735000Y-9795050D02*
G75*
G03*
X9735000Y-9795050I-15000J0D01*
G01*
X9769950Y-10472000D02*
G75*
G03*
X9769950Y-10472000I-15000J0D01*
G01*
X9778000Y-10935000D02*
G75*
G03*
X9778000Y-10935000I-15000J0D01*
G01*
X9815000Y-10380000D02*
G75*
G03*
X9815000Y-10380000I-15000J0D01*
G01*
X9855000Y-10000000D02*
G75*
G03*
X9855000Y-10000000I-15000J0D01*
G01*
X9890189Y-9692736D02*
G75*
G03*
X9890189Y-9692736I-15000J0D01*
G01*
X9914950Y-11100000D02*
G75*
G03*
X9914950Y-11100000I-15000J0D01*
G01*
X9914950Y-11350000D02*
G75*
G03*
X9914950Y-11350000I-15000J0D01*
G01*
X9915000Y-3107000D02*
G75*
G03*
X9915000Y-3107000I-15000J0D01*
G01*
X9915000Y-3357000D02*
G75*
G03*
X9915000Y-3357000I-15000J0D01*
G01*
X9915000Y-4600000D02*
G75*
G03*
X9915000Y-4600000I-15000J0D01*
G01*
X9915000Y-5100000D02*
G75*
G03*
X9915000Y-5100000I-15000J0D01*
G01*
X9915000Y-5350000D02*
G75*
G03*
X9915000Y-5350000I-15000J0D01*
G01*
X9915000Y-5600000D02*
G75*
G03*
X9915000Y-5600000I-15000J0D01*
G01*
X9915000Y-5850000D02*
G75*
G03*
X9915000Y-5850000I-15000J0D01*
G01*
X9915000Y-6100000D02*
G75*
G03*
X9915000Y-6100000I-15000J0D01*
G01*
X9915000Y-6350000D02*
G75*
G03*
X9915000Y-6350000I-15000J0D01*
G01*
X9915000Y-6600000D02*
G75*
G03*
X9915000Y-6600000I-15000J0D01*
G01*
X9915000Y-7350000D02*
G75*
G03*
X9915000Y-7350000I-15000J0D01*
G01*
X9915000Y-7600000D02*
G75*
G03*
X9915000Y-7600000I-15000J0D01*
G01*
X9915000Y-7850000D02*
G75*
G03*
X9915000Y-7850000I-15000J0D01*
G01*
X9915000Y-8100000D02*
G75*
G03*
X9915000Y-8100000I-15000J0D01*
G01*
X9915000Y-8350000D02*
G75*
G03*
X9915000Y-8350000I-15000J0D01*
G01*
X9915000Y-8600000D02*
G75*
G03*
X9915000Y-8600000I-15000J0D01*
G01*
X9915000Y-11600000D02*
G75*
G03*
X9915000Y-11600000I-15000J0D01*
G01*
X9915000Y-11850000D02*
G75*
G03*
X9915000Y-11850000I-15000J0D01*
G01*
X9915000Y-12100000D02*
G75*
G03*
X9915000Y-12100000I-15000J0D01*
G01*
X9915000Y-12350000D02*
G75*
G03*
X9915000Y-12350000I-15000J0D01*
G01*
X9915000Y-12600000D02*
G75*
G03*
X9915000Y-12600000I-15000J0D01*
G01*
X9915000Y-12850000D02*
G75*
G03*
X9915000Y-12850000I-15000J0D01*
G01*
X9915000Y-13100000D02*
G75*
G03*
X9915000Y-13100000I-15000J0D01*
G01*
X9915000Y-13350000D02*
G75*
G03*
X9915000Y-13350000I-15000J0D01*
G01*
X9915000Y-13599000D02*
G75*
G03*
X9915000Y-13599000I-15000J0D01*
G01*
X9915000Y-13849000D02*
G75*
G03*
X9915000Y-13849000I-15000J0D01*
G01*
X9915000Y-14100000D02*
G75*
G03*
X9915000Y-14100000I-15000J0D01*
G01*
X9915000Y-14350000D02*
G75*
G03*
X9915000Y-14350000I-15000J0D01*
G01*
X9915000Y-14600000D02*
G75*
G03*
X9915000Y-14600000I-15000J0D01*
G01*
X9915000Y-15100000D02*
G75*
G03*
X9915000Y-15100000I-15000J0D01*
G01*
X9915000Y-15350000D02*
G75*
G03*
X9915000Y-15350000I-15000J0D01*
G01*
X9915000Y-15600000D02*
G75*
G03*
X9915000Y-15600000I-15000J0D01*
G01*
X9915000Y-15850000D02*
G75*
G03*
X9915000Y-15850000I-15000J0D01*
G01*
X9915000Y-16100000D02*
G75*
G03*
X9915000Y-16100000I-15000J0D01*
G01*
X9915000Y-16350000D02*
G75*
G03*
X9915000Y-16350000I-15000J0D01*
G01*
X9915000Y-16600000D02*
G75*
G03*
X9915000Y-16600000I-15000J0D01*
G01*
X9915000Y-16850000D02*
G75*
G03*
X9915000Y-16850000I-15000J0D01*
G01*
X9967000Y-9506000D02*
G75*
G03*
X9967000Y-9506000I-15000J0D01*
G01*
X10038000Y-9721000D02*
G75*
G03*
X10038000Y-9721000I-15000J0D01*
G01*
X10058333Y-9500370D02*
G75*
G03*
X10058333Y-9500370I-15000J0D01*
G01*
X10064357Y-9595719D02*
G75*
G03*
X10064357Y-9595719I-15000J0D01*
G01*
X10114000Y-9086706D02*
G75*
G03*
X10114000Y-9086706I-15000J0D01*
G01*
X10155000Y-11350000D02*
G75*
G03*
X10155000Y-11350000I-15000J0D01*
G01*
X10155050Y-11600000D02*
G75*
G03*
X10155050Y-11600000I-15000J0D01*
G01*
X10155050Y-11850000D02*
G75*
G03*
X10155050Y-11850000I-15000J0D01*
G01*
X10155050Y-12100000D02*
G75*
G03*
X10155050Y-12100000I-15000J0D01*
G01*
X10155050Y-12350000D02*
G75*
G03*
X10155050Y-12350000I-15000J0D01*
G01*
X10155050Y-12600000D02*
G75*
G03*
X10155050Y-12600000I-15000J0D01*
G01*
X10165000Y-3107000D02*
G75*
G03*
X10165000Y-3107000I-15000J0D01*
G01*
X10165000Y-3357000D02*
G75*
G03*
X10165000Y-3357000I-15000J0D01*
G01*
X10165000Y-3607000D02*
G75*
G03*
X10165000Y-3607000I-15000J0D01*
G01*
X10165000Y-3850000D02*
G75*
G03*
X10165000Y-3850000I-15000J0D01*
G01*
X10165000Y-4100000D02*
G75*
G03*
X10165000Y-4100000I-15000J0D01*
G01*
X10165000Y-4350000D02*
G75*
G03*
X10165000Y-4350000I-15000J0D01*
G01*
X10165000Y-4600000D02*
G75*
G03*
X10165000Y-4600000I-15000J0D01*
G01*
X10165000Y-5100000D02*
G75*
G03*
X10165000Y-5100000I-15000J0D01*
G01*
X10165000Y-5350000D02*
G75*
G03*
X10165000Y-5350000I-15000J0D01*
G01*
X10165000Y-5600000D02*
G75*
G03*
X10165000Y-5600000I-15000J0D01*
G01*
X10165000Y-5850000D02*
G75*
G03*
X10165000Y-5850000I-15000J0D01*
G01*
X10165000Y-6100000D02*
G75*
G03*
X10165000Y-6100000I-15000J0D01*
G01*
X10165000Y-6350000D02*
G75*
G03*
X10165000Y-6350000I-15000J0D01*
G01*
X10165000Y-6600000D02*
G75*
G03*
X10165000Y-6600000I-15000J0D01*
G01*
X10165000Y-6850000D02*
G75*
G03*
X10165000Y-6850000I-15000J0D01*
G01*
X10165000Y-7350000D02*
G75*
G03*
X10165000Y-7350000I-15000J0D01*
G01*
X10165000Y-7600000D02*
G75*
G03*
X10165000Y-7600000I-15000J0D01*
G01*
X10165000Y-7850000D02*
G75*
G03*
X10165000Y-7850000I-15000J0D01*
G01*
X10165000Y-8100000D02*
G75*
G03*
X10165000Y-8100000I-15000J0D01*
G01*
X10165000Y-8350000D02*
G75*
G03*
X10165000Y-8350000I-15000J0D01*
G01*
X10165000Y-8600000D02*
G75*
G03*
X10165000Y-8600000I-15000J0D01*
G01*
X10165000Y-12850000D02*
G75*
G03*
X10165000Y-12850000I-15000J0D01*
G01*
X10165000Y-13100000D02*
G75*
G03*
X10165000Y-13100000I-15000J0D01*
G01*
X10165000Y-13350000D02*
G75*
G03*
X10165000Y-13350000I-15000J0D01*
G01*
X10165000Y-13599000D02*
G75*
G03*
X10165000Y-13599000I-15000J0D01*
G01*
X10165000Y-13850000D02*
G75*
G03*
X10165000Y-13850000I-15000J0D01*
G01*
X10165000Y-14100000D02*
G75*
G03*
X10165000Y-14100000I-15000J0D01*
G01*
X10165000Y-14350000D02*
G75*
G03*
X10165000Y-14350000I-15000J0D01*
G01*
X10165000Y-14600000D02*
G75*
G03*
X10165000Y-14600000I-15000J0D01*
G01*
X10165000Y-15100000D02*
G75*
G03*
X10165000Y-15100000I-15000J0D01*
G01*
X10165000Y-15350000D02*
G75*
G03*
X10165000Y-15350000I-15000J0D01*
G01*
X10165000Y-15600000D02*
G75*
G03*
X10165000Y-15600000I-15000J0D01*
G01*
X10165000Y-15850000D02*
G75*
G03*
X10165000Y-15850000I-15000J0D01*
G01*
X10165000Y-16100000D02*
G75*
G03*
X10165000Y-16100000I-15000J0D01*
G01*
X10165000Y-16350000D02*
G75*
G03*
X10165000Y-16350000I-15000J0D01*
G01*
X10165000Y-16600000D02*
G75*
G03*
X10165000Y-16600000I-15000J0D01*
G01*
X10165000Y-16850000D02*
G75*
G03*
X10165000Y-16850000I-15000J0D01*
G01*
X10165164Y-4856950D02*
G75*
G03*
X10165164Y-4856950I-15000J0D01*
G01*
X10211000Y-9171000D02*
G75*
G03*
X10211000Y-9171000I-15000J0D01*
G01*
X10223000Y-10487000D02*
G75*
G03*
X10223000Y-10487000I-15000J0D01*
G01*
X10345901Y-11271000D02*
G75*
G03*
X10345901Y-11271000I-15000J0D01*
G01*
X10351000Y-12461000D02*
G75*
G03*
X10351000Y-12461000I-15000J0D01*
G01*
X10355000Y-9178053D02*
G75*
G03*
X10355000Y-9178053I-15000J0D01*
G01*
X10415000Y-5100000D02*
G75*
G03*
X10415000Y-5100000I-15000J0D01*
G01*
X10415000Y-5350000D02*
G75*
G03*
X10415000Y-5350000I-15000J0D01*
G01*
X10415000Y-5600000D02*
G75*
G03*
X10415000Y-5600000I-15000J0D01*
G01*
X10415000Y-5850000D02*
G75*
G03*
X10415000Y-5850000I-15000J0D01*
G01*
X10415000Y-6100000D02*
G75*
G03*
X10415000Y-6100000I-15000J0D01*
G01*
X10415000Y-6350000D02*
G75*
G03*
X10415000Y-6350000I-15000J0D01*
G01*
X10415000Y-12850000D02*
G75*
G03*
X10415000Y-12850000I-15000J0D01*
G01*
X10415000Y-13100000D02*
G75*
G03*
X10415000Y-13100000I-15000J0D01*
G01*
X10415000Y-13350000D02*
G75*
G03*
X10415000Y-13350000I-15000J0D01*
G01*
X10415000Y-13600000D02*
G75*
G03*
X10415000Y-13600000I-15000J0D01*
G01*
X10415000Y-13849000D02*
G75*
G03*
X10415000Y-13849000I-15000J0D01*
G01*
X10415000Y-14099000D02*
G75*
G03*
X10415000Y-14099000I-15000J0D01*
G01*
X10415000Y-14349000D02*
G75*
G03*
X10415000Y-14349000I-15000J0D01*
G01*
X10415000Y-14599000D02*
G75*
G03*
X10415000Y-14599000I-15000J0D01*
G01*
X10415000Y-16850000D02*
G75*
G03*
X10415000Y-16850000I-15000J0D01*
G01*
X10420156Y-4856950D02*
G75*
G03*
X10420156Y-4856950I-15000J0D01*
G01*
X10443964Y-9191339D02*
G75*
G03*
X10443964Y-9191339I-15000J0D01*
G01*
X10465465Y-15382535D02*
G75*
G03*
X10465465Y-15382535I-15000J0D01*
G01*
X10471465Y-3395535D02*
G75*
G03*
X10471465Y-3395535I-15000J0D01*
G01*
X10472965Y-7391035D02*
G75*
G03*
X10472965Y-7391035I-15000J0D01*
G01*
X10486202Y-4171743D02*
G75*
G03*
X10486202Y-4171743I-15000J0D01*
G01*
X10489000Y-8163000D02*
G75*
G03*
X10489000Y-8163000I-15000J0D01*
G01*
X10490057Y-9290178D02*
G75*
G03*
X10490057Y-9290178I-15000J0D01*
G01*
X10511000Y-16168000D02*
G75*
G03*
X10511000Y-16168000I-15000J0D01*
G01*
X10517280Y-12167050D02*
G75*
G03*
X10517280Y-12167050I-15000J0D01*
G01*
X10665000Y-5100000D02*
G75*
G03*
X10665000Y-5100000I-15000J0D01*
G01*
X10665000Y-5350000D02*
G75*
G03*
X10665000Y-5350000I-15000J0D01*
G01*
X10665000Y-5600000D02*
G75*
G03*
X10665000Y-5600000I-15000J0D01*
G01*
X10665000Y-5850000D02*
G75*
G03*
X10665000Y-5850000I-15000J0D01*
G01*
X10665000Y-6100000D02*
G75*
G03*
X10665000Y-6100000I-15000J0D01*
G01*
X10665000Y-6350000D02*
G75*
G03*
X10665000Y-6350000I-15000J0D01*
G01*
X10665000Y-12850000D02*
G75*
G03*
X10665000Y-12850000I-15000J0D01*
G01*
X10665000Y-13100000D02*
G75*
G03*
X10665000Y-13100000I-15000J0D01*
G01*
X10665000Y-13350000D02*
G75*
G03*
X10665000Y-13350000I-15000J0D01*
G01*
X10665000Y-13599000D02*
G75*
G03*
X10665000Y-13599000I-15000J0D01*
G01*
X10665000Y-13849000D02*
G75*
G03*
X10665000Y-13849000I-15000J0D01*
G01*
X10665000Y-14099000D02*
G75*
G03*
X10665000Y-14099000I-15000J0D01*
G01*
X10665000Y-14349000D02*
G75*
G03*
X10665000Y-14349000I-15000J0D01*
G01*
X10665000Y-14599000D02*
G75*
G03*
X10665000Y-14599000I-15000J0D01*
G01*
X10665000Y-16850000D02*
G75*
G03*
X10665000Y-16850000I-15000J0D01*
G01*
X10690711Y-4856950D02*
G75*
G03*
X10690711Y-4856950I-15000J0D01*
G01*
X10700950Y-9294050D02*
G75*
G03*
X10700950Y-9294050I-15000J0D01*
G01*
X10807000Y-3421000D02*
G75*
G03*
X10807000Y-3421000I-15000J0D01*
G01*
X10813000Y-15410000D02*
G75*
G03*
X10813000Y-15410000I-15000J0D01*
G01*
X10813571Y-7405938D02*
G75*
G03*
X10813571Y-7405938I-15000J0D01*
G01*
X10815030Y-11410656D02*
G75*
G03*
X10815030Y-11410656I-15000J0D01*
G01*
X10816000Y-9191000D02*
G75*
G03*
X10816000Y-9191000I-15000J0D01*
G01*
X10915000Y-3104000D02*
G75*
G03*
X10915000Y-3104000I-15000J0D01*
G01*
X10915000Y-5100000D02*
G75*
G03*
X10915000Y-5100000I-15000J0D01*
G01*
X10915000Y-5350000D02*
G75*
G03*
X10915000Y-5350000I-15000J0D01*
G01*
X10915000Y-5600000D02*
G75*
G03*
X10915000Y-5600000I-15000J0D01*
G01*
X10915000Y-5850000D02*
G75*
G03*
X10915000Y-5850000I-15000J0D01*
G01*
X10915000Y-6100000D02*
G75*
G03*
X10915000Y-6100000I-15000J0D01*
G01*
X10915000Y-6350000D02*
G75*
G03*
X10915000Y-6350000I-15000J0D01*
G01*
X10915000Y-12850000D02*
G75*
G03*
X10915000Y-12850000I-15000J0D01*
G01*
X10915000Y-13100000D02*
G75*
G03*
X10915000Y-13100000I-15000J0D01*
G01*
X10915000Y-13350000D02*
G75*
G03*
X10915000Y-13350000I-15000J0D01*
G01*
X10915000Y-13599000D02*
G75*
G03*
X10915000Y-13599000I-15000J0D01*
G01*
X10915000Y-13850000D02*
G75*
G03*
X10915000Y-13850000I-15000J0D01*
G01*
X10915000Y-14100000D02*
G75*
G03*
X10915000Y-14100000I-15000J0D01*
G01*
X10915000Y-14350000D02*
G75*
G03*
X10915000Y-14350000I-15000J0D01*
G01*
X10915000Y-14600000D02*
G75*
G03*
X10915000Y-14600000I-15000J0D01*
G01*
X10915000Y-16850000D02*
G75*
G03*
X10915000Y-16850000I-15000J0D01*
G01*
X10915462Y-15099538D02*
G75*
G03*
X10915462Y-15099538I-15000J0D01*
G01*
X10917018Y-4851950D02*
G75*
G03*
X10917018Y-4851950I-15000J0D01*
G01*
X10919000Y-3438000D02*
G75*
G03*
X10919000Y-3438000I-15000J0D01*
G01*
X10919000Y-15431000D02*
G75*
G03*
X10919000Y-15431000I-15000J0D01*
G01*
X10921000Y-7431000D02*
G75*
G03*
X10921000Y-7431000I-15000J0D01*
G01*
X10921000Y-11437000D02*
G75*
G03*
X10921000Y-11437000I-15000J0D01*
G01*
X10987000Y-10673000D02*
G75*
G03*
X10987000Y-10673000I-15000J0D01*
G01*
X11165000Y-3104000D02*
G75*
G03*
X11165000Y-3104000I-15000J0D01*
G01*
X11165000Y-4850000D02*
G75*
G03*
X11165000Y-4850000I-15000J0D01*
G01*
X11165000Y-5100000D02*
G75*
G03*
X11165000Y-5100000I-15000J0D01*
G01*
X11165000Y-5350000D02*
G75*
G03*
X11165000Y-5350000I-15000J0D01*
G01*
X11165000Y-5600000D02*
G75*
G03*
X11165000Y-5600000I-15000J0D01*
G01*
X11165000Y-5850000D02*
G75*
G03*
X11165000Y-5850000I-15000J0D01*
G01*
X11165000Y-6100000D02*
G75*
G03*
X11165000Y-6100000I-15000J0D01*
G01*
X11165000Y-6350000D02*
G75*
G03*
X11165000Y-6350000I-15000J0D01*
G01*
X11165000Y-12850000D02*
G75*
G03*
X11165000Y-12850000I-15000J0D01*
G01*
X11165000Y-13100000D02*
G75*
G03*
X11165000Y-13100000I-15000J0D01*
G01*
X11165000Y-13350000D02*
G75*
G03*
X11165000Y-13350000I-15000J0D01*
G01*
X11165000Y-13600000D02*
G75*
G03*
X11165000Y-13600000I-15000J0D01*
G01*
X11165000Y-13850000D02*
G75*
G03*
X11165000Y-13850000I-15000J0D01*
G01*
X11165000Y-14100000D02*
G75*
G03*
X11165000Y-14100000I-15000J0D01*
G01*
X11165000Y-14350000D02*
G75*
G03*
X11165000Y-14350000I-15000J0D01*
G01*
X11165000Y-14600000D02*
G75*
G03*
X11165000Y-14600000I-15000J0D01*
G01*
X11165000Y-15100000D02*
G75*
G03*
X11165000Y-15100000I-15000J0D01*
G01*
X11165000Y-16850000D02*
G75*
G03*
X11165000Y-16850000I-15000J0D01*
G01*
X11286000Y-10677000D02*
G75*
G03*
X11286000Y-10677000I-15000J0D01*
G01*
X11373500Y-7500500D02*
G75*
G03*
X11373500Y-7500500I-15000J0D01*
G01*
X11374000Y-15492000D02*
G75*
G03*
X11374000Y-15492000I-15000J0D01*
G01*
X11377000Y-3485000D02*
G75*
G03*
X11377000Y-3485000I-15000J0D01*
G01*
X11383750Y-11482250D02*
G75*
G03*
X11383750Y-11482250I-15000J0D01*
G01*
X11415000Y-3104000D02*
G75*
G03*
X11415000Y-3104000I-15000J0D01*
G01*
X11415000Y-4850000D02*
G75*
G03*
X11415000Y-4850000I-15000J0D01*
G01*
X11415000Y-5100000D02*
G75*
G03*
X11415000Y-5100000I-15000J0D01*
G01*
X11415000Y-12850000D02*
G75*
G03*
X11415000Y-12850000I-15000J0D01*
G01*
X11415000Y-13100000D02*
G75*
G03*
X11415000Y-13100000I-15000J0D01*
G01*
X11415000Y-13350000D02*
G75*
G03*
X11415000Y-13350000I-15000J0D01*
G01*
X11415000Y-13600000D02*
G75*
G03*
X11415000Y-13600000I-15000J0D01*
G01*
X11415000Y-13850000D02*
G75*
G03*
X11415000Y-13850000I-15000J0D01*
G01*
X11415000Y-14100000D02*
G75*
G03*
X11415000Y-14100000I-15000J0D01*
G01*
X11415000Y-14350000D02*
G75*
G03*
X11415000Y-14350000I-15000J0D01*
G01*
X11415000Y-14600000D02*
G75*
G03*
X11415000Y-14600000I-15000J0D01*
G01*
X11415000Y-15100000D02*
G75*
G03*
X11415000Y-15100000I-15000J0D01*
G01*
X11415000Y-16850000D02*
G75*
G03*
X11415000Y-16850000I-15000J0D01*
G01*
X11420000Y-4640000D02*
G75*
G03*
X11420000Y-4640000I-15000J0D01*
G01*
X11420000Y-8625000D02*
G75*
G03*
X11420000Y-8625000I-15000J0D01*
G01*
X11475500Y-12580500D02*
G75*
G03*
X11475500Y-12580500I-15000J0D01*
G01*
X11500000Y-16598050D02*
G75*
G03*
X11500000Y-16598050I-15000J0D01*
G01*
X11560950Y-8169000D02*
G75*
G03*
X11560950Y-8169000I-15000J0D01*
G01*
X11561000Y-3997000D02*
G75*
G03*
X11561000Y-3997000I-15000J0D01*
G01*
X11561950Y-7994174D02*
G75*
G03*
X11561950Y-7994174I-15000J0D01*
G01*
X11562950Y-12001000D02*
G75*
G03*
X11562950Y-12001000I-15000J0D01*
G01*
X11562950Y-12175000D02*
G75*
G03*
X11562950Y-12175000I-15000J0D01*
G01*
X11562950Y-16174000D02*
G75*
G03*
X11562950Y-16174000I-15000J0D01*
G01*
X11563450Y-15993174D02*
G75*
G03*
X11563450Y-15993174I-15000J0D01*
G01*
X11564000Y-4176000D02*
G75*
G03*
X11564000Y-4176000I-15000J0D01*
G01*
X11605000Y-7148950D02*
G75*
G03*
X11605000Y-7148950I-15000J0D01*
G01*
X11610000Y-11133000D02*
G75*
G03*
X11610000Y-11133000I-15000J0D01*
G01*
X11663099Y-15099000D02*
G75*
G03*
X11663099Y-15099000I-15000J0D01*
G01*
X11665000Y-3104000D02*
G75*
G03*
X11665000Y-3104000I-15000J0D01*
G01*
X11665000Y-4850000D02*
G75*
G03*
X11665000Y-4850000I-15000J0D01*
G01*
X11665000Y-12850000D02*
G75*
G03*
X11665000Y-12850000I-15000J0D01*
G01*
X11665000Y-13100000D02*
G75*
G03*
X11665000Y-13100000I-15000J0D01*
G01*
X11665000Y-13350000D02*
G75*
G03*
X11665000Y-13350000I-15000J0D01*
G01*
X11665000Y-13600000D02*
G75*
G03*
X11665000Y-13600000I-15000J0D01*
G01*
X11665000Y-13850000D02*
G75*
G03*
X11665000Y-13850000I-15000J0D01*
G01*
X11665000Y-14100000D02*
G75*
G03*
X11665000Y-14100000I-15000J0D01*
G01*
X11665000Y-14350000D02*
G75*
G03*
X11665000Y-14350000I-15000J0D01*
G01*
X11665000Y-14600000D02*
G75*
G03*
X11665000Y-14600000I-15000J0D01*
G01*
X11665000Y-16850000D02*
G75*
G03*
X11665000Y-16850000I-15000J0D01*
G01*
X11865000Y-5081000D02*
G75*
G03*
X11865000Y-5081000I-15000J0D01*
G01*
X11915000Y-3104000D02*
G75*
G03*
X11915000Y-3104000I-15000J0D01*
G01*
X11915000Y-3352000D02*
G75*
G03*
X11915000Y-3352000I-15000J0D01*
G01*
X11915000Y-4348000D02*
G75*
G03*
X11915000Y-4348000I-15000J0D01*
G01*
X11915000Y-4598000D02*
G75*
G03*
X11915000Y-4598000I-15000J0D01*
G01*
X11915000Y-5600000D02*
G75*
G03*
X11915000Y-5600000I-15000J0D01*
G01*
X11915000Y-5850000D02*
G75*
G03*
X11915000Y-5850000I-15000J0D01*
G01*
X11915000Y-7098000D02*
G75*
G03*
X11915000Y-7098000I-15000J0D01*
G01*
X11915000Y-7348000D02*
G75*
G03*
X11915000Y-7348000I-15000J0D01*
G01*
X11915000Y-8348000D02*
G75*
G03*
X11915000Y-8348000I-15000J0D01*
G01*
X11915000Y-10850000D02*
G75*
G03*
X11915000Y-10850000I-15000J0D01*
G01*
X11915000Y-11100000D02*
G75*
G03*
X11915000Y-11100000I-15000J0D01*
G01*
X11915000Y-11350000D02*
G75*
G03*
X11915000Y-11350000I-15000J0D01*
G01*
X11915000Y-12350000D02*
G75*
G03*
X11915000Y-12350000I-15000J0D01*
G01*
X11915000Y-12600000D02*
G75*
G03*
X11915000Y-12600000I-15000J0D01*
G01*
X11915000Y-12850000D02*
G75*
G03*
X11915000Y-12850000I-15000J0D01*
G01*
X11915000Y-13600000D02*
G75*
G03*
X11915000Y-13600000I-15000J0D01*
G01*
X11915000Y-13850000D02*
G75*
G03*
X11915000Y-13850000I-15000J0D01*
G01*
X11915000Y-14600000D02*
G75*
G03*
X11915000Y-14600000I-15000J0D01*
G01*
X11915000Y-16850000D02*
G75*
G03*
X11915000Y-16850000I-15000J0D01*
G01*
X11935000Y-10155000D02*
G75*
G03*
X11935000Y-10155000I-15000J0D01*
G01*
X12165000Y-3102000D02*
G75*
G03*
X12165000Y-3102000I-15000J0D01*
G01*
X12165000Y-3602000D02*
G75*
G03*
X12165000Y-3602000I-15000J0D01*
G01*
X12165000Y-4100000D02*
G75*
G03*
X12165000Y-4100000I-15000J0D01*
G01*
X12165000Y-4350000D02*
G75*
G03*
X12165000Y-4350000I-15000J0D01*
G01*
X12165000Y-4600000D02*
G75*
G03*
X12165000Y-4600000I-15000J0D01*
G01*
X12165000Y-4850000D02*
G75*
G03*
X12165000Y-4850000I-15000J0D01*
G01*
X12165000Y-5600000D02*
G75*
G03*
X12165000Y-5600000I-15000J0D01*
G01*
X12165000Y-5850000D02*
G75*
G03*
X12165000Y-5850000I-15000J0D01*
G01*
X12165000Y-10358950D02*
G75*
G03*
X12165000Y-10358950I-15000J0D01*
G01*
X12165000Y-10600000D02*
G75*
G03*
X12165000Y-10600000I-15000J0D01*
G01*
X12165000Y-11100000D02*
G75*
G03*
X12165000Y-11100000I-15000J0D01*
G01*
X12165000Y-11350000D02*
G75*
G03*
X12165000Y-11350000I-15000J0D01*
G01*
X12165000Y-11600000D02*
G75*
G03*
X12165000Y-11600000I-15000J0D01*
G01*
X12165000Y-11850000D02*
G75*
G03*
X12165000Y-11850000I-15000J0D01*
G01*
X12165000Y-12100000D02*
G75*
G03*
X12165000Y-12100000I-15000J0D01*
G01*
X12165000Y-12350000D02*
G75*
G03*
X12165000Y-12350000I-15000J0D01*
G01*
X12165000Y-12600000D02*
G75*
G03*
X12165000Y-12600000I-15000J0D01*
G01*
X12165000Y-12850000D02*
G75*
G03*
X12165000Y-12850000I-15000J0D01*
G01*
X12165000Y-13100000D02*
G75*
G03*
X12165000Y-13100000I-15000J0D01*
G01*
X12165000Y-13600000D02*
G75*
G03*
X12165000Y-13600000I-15000J0D01*
G01*
X12165000Y-13850000D02*
G75*
G03*
X12165000Y-13850000I-15000J0D01*
G01*
X12165000Y-14100000D02*
G75*
G03*
X12165000Y-14100000I-15000J0D01*
G01*
X12165000Y-14600000D02*
G75*
G03*
X12165000Y-14600000I-15000J0D01*
G01*
X12165000Y-14850000D02*
G75*
G03*
X12165000Y-14850000I-15000J0D01*
G01*
X12165000Y-15100000D02*
G75*
G03*
X12165000Y-15100000I-15000J0D01*
G01*
X12165000Y-15351000D02*
G75*
G03*
X12165000Y-15351000I-15000J0D01*
G01*
X12165000Y-15600000D02*
G75*
G03*
X12165000Y-15600000I-15000J0D01*
G01*
X12165000Y-15850000D02*
G75*
G03*
X12165000Y-15850000I-15000J0D01*
G01*
X12165000Y-16100000D02*
G75*
G03*
X12165000Y-16100000I-15000J0D01*
G01*
X12165000Y-16350000D02*
G75*
G03*
X12165000Y-16350000I-15000J0D01*
G01*
X12165000Y-16600000D02*
G75*
G03*
X12165000Y-16600000I-15000J0D01*
G01*
X12165000Y-16850000D02*
G75*
G03*
X12165000Y-16850000I-15000J0D01*
G01*
X12415000Y-3102000D02*
G75*
G03*
X12415000Y-3102000I-15000J0D01*
G01*
X12415000Y-3352000D02*
G75*
G03*
X12415000Y-3352000I-15000J0D01*
G01*
X12415000Y-3602000D02*
G75*
G03*
X12415000Y-3602000I-15000J0D01*
G01*
X12415000Y-3850000D02*
G75*
G03*
X12415000Y-3850000I-15000J0D01*
G01*
X12415000Y-4100000D02*
G75*
G03*
X12415000Y-4100000I-15000J0D01*
G01*
X12415000Y-4350000D02*
G75*
G03*
X12415000Y-4350000I-15000J0D01*
G01*
X12415000Y-4600000D02*
G75*
G03*
X12415000Y-4600000I-15000J0D01*
G01*
X12415000Y-4850000D02*
G75*
G03*
X12415000Y-4850000I-15000J0D01*
G01*
X12415000Y-5600000D02*
G75*
G03*
X12415000Y-5600000I-15000J0D01*
G01*
X12415000Y-9600000D02*
G75*
G03*
X12415000Y-9600000I-15000J0D01*
G01*
X12415000Y-10358950D02*
G75*
G03*
X12415000Y-10358950I-15000J0D01*
G01*
X12415000Y-10600000D02*
G75*
G03*
X12415000Y-10600000I-15000J0D01*
G01*
X12415000Y-11100000D02*
G75*
G03*
X12415000Y-11100000I-15000J0D01*
G01*
X12415000Y-11350000D02*
G75*
G03*
X12415000Y-11350000I-15000J0D01*
G01*
X12415000Y-11600000D02*
G75*
G03*
X12415000Y-11600000I-15000J0D01*
G01*
X12415000Y-11850000D02*
G75*
G03*
X12415000Y-11850000I-15000J0D01*
G01*
X12415000Y-12100000D02*
G75*
G03*
X12415000Y-12100000I-15000J0D01*
G01*
X12415000Y-12350000D02*
G75*
G03*
X12415000Y-12350000I-15000J0D01*
G01*
X12415000Y-12600000D02*
G75*
G03*
X12415000Y-12600000I-15000J0D01*
G01*
X12415000Y-12850000D02*
G75*
G03*
X12415000Y-12850000I-15000J0D01*
G01*
X12415000Y-13100000D02*
G75*
G03*
X12415000Y-13100000I-15000J0D01*
G01*
X12415000Y-13350000D02*
G75*
G03*
X12415000Y-13350000I-15000J0D01*
G01*
X12415000Y-14600000D02*
G75*
G03*
X12415000Y-14600000I-15000J0D01*
G01*
X12415000Y-14850000D02*
G75*
G03*
X12415000Y-14850000I-15000J0D01*
G01*
X12415000Y-15100000D02*
G75*
G03*
X12415000Y-15100000I-15000J0D01*
G01*
X12415000Y-15351000D02*
G75*
G03*
X12415000Y-15351000I-15000J0D01*
G01*
X12415000Y-15600000D02*
G75*
G03*
X12415000Y-15600000I-15000J0D01*
G01*
X12415000Y-15850000D02*
G75*
G03*
X12415000Y-15850000I-15000J0D01*
G01*
X12415000Y-16100000D02*
G75*
G03*
X12415000Y-16100000I-15000J0D01*
G01*
X12415000Y-16350000D02*
G75*
G03*
X12415000Y-16350000I-15000J0D01*
G01*
X12415000Y-16600000D02*
G75*
G03*
X12415000Y-16600000I-15000J0D01*
G01*
X12415000Y-16850000D02*
G75*
G03*
X12415000Y-16850000I-15000J0D01*
G01*
X12455000Y-14277500D02*
G75*
G03*
X12455000Y-14277500I-15000J0D01*
G01*
X12565000Y-14277500D02*
G75*
G03*
X12565000Y-14277500I-15000J0D01*
G01*
X12595000Y-13882500D02*
G75*
G03*
X12595000Y-13882500I-15000J0D01*
G01*
X12665000Y-3102000D02*
G75*
G03*
X12665000Y-3102000I-15000J0D01*
G01*
X12665000Y-3352000D02*
G75*
G03*
X12665000Y-3352000I-15000J0D01*
G01*
X12665000Y-3602000D02*
G75*
G03*
X12665000Y-3602000I-15000J0D01*
G01*
X12665000Y-3850000D02*
G75*
G03*
X12665000Y-3850000I-15000J0D01*
G01*
X12665000Y-4100000D02*
G75*
G03*
X12665000Y-4100000I-15000J0D01*
G01*
X12665000Y-4350000D02*
G75*
G03*
X12665000Y-4350000I-15000J0D01*
G01*
X12665000Y-4600000D02*
G75*
G03*
X12665000Y-4600000I-15000J0D01*
G01*
X12665000Y-4850000D02*
G75*
G03*
X12665000Y-4850000I-15000J0D01*
G01*
X12665000Y-5100000D02*
G75*
G03*
X12665000Y-5100000I-15000J0D01*
G01*
X12665000Y-5350000D02*
G75*
G03*
X12665000Y-5350000I-15000J0D01*
G01*
X12665000Y-5850000D02*
G75*
G03*
X12665000Y-5850000I-15000J0D01*
G01*
X12665000Y-9600000D02*
G75*
G03*
X12665000Y-9600000I-15000J0D01*
G01*
X12665000Y-10350000D02*
G75*
G03*
X12665000Y-10350000I-15000J0D01*
G01*
X12665000Y-10600000D02*
G75*
G03*
X12665000Y-10600000I-15000J0D01*
G01*
X12665000Y-11100000D02*
G75*
G03*
X12665000Y-11100000I-15000J0D01*
G01*
X12665000Y-11350000D02*
G75*
G03*
X12665000Y-11350000I-15000J0D01*
G01*
X12665000Y-11600000D02*
G75*
G03*
X12665000Y-11600000I-15000J0D01*
G01*
X12665000Y-11850000D02*
G75*
G03*
X12665000Y-11850000I-15000J0D01*
G01*
X12665000Y-12100000D02*
G75*
G03*
X12665000Y-12100000I-15000J0D01*
G01*
X12665000Y-12350000D02*
G75*
G03*
X12665000Y-12350000I-15000J0D01*
G01*
X12665000Y-12600000D02*
G75*
G03*
X12665000Y-12600000I-15000J0D01*
G01*
X12665000Y-12850000D02*
G75*
G03*
X12665000Y-12850000I-15000J0D01*
G01*
X12665000Y-13100000D02*
G75*
G03*
X12665000Y-13100000I-15000J0D01*
G01*
X12665000Y-13350000D02*
G75*
G03*
X12665000Y-13350000I-15000J0D01*
G01*
X12665000Y-14600000D02*
G75*
G03*
X12665000Y-14600000I-15000J0D01*
G01*
X12665000Y-14850000D02*
G75*
G03*
X12665000Y-14850000I-15000J0D01*
G01*
X12665000Y-15100000D02*
G75*
G03*
X12665000Y-15100000I-15000J0D01*
G01*
X12665000Y-15350000D02*
G75*
G03*
X12665000Y-15350000I-15000J0D01*
G01*
X12665000Y-15600000D02*
G75*
G03*
X12665000Y-15600000I-15000J0D01*
G01*
X12665000Y-16100000D02*
G75*
G03*
X12665000Y-16100000I-15000J0D01*
G01*
X12665000Y-16600000D02*
G75*
G03*
X12665000Y-16600000I-15000J0D01*
G01*
X12665000Y-16850000D02*
G75*
G03*
X12665000Y-16850000I-15000J0D01*
G01*
X12685000Y-14310000D02*
G75*
G03*
X12685000Y-14310000I-15000J0D01*
G01*
X12845000Y-14310000D02*
G75*
G03*
X12845000Y-14310000I-15000J0D01*
G01*
X12915000Y-3102000D02*
G75*
G03*
X12915000Y-3102000I-15000J0D01*
G01*
X12915000Y-3352000D02*
G75*
G03*
X12915000Y-3352000I-15000J0D01*
G01*
X12915000Y-3602000D02*
G75*
G03*
X12915000Y-3602000I-15000J0D01*
G01*
X12915000Y-3850000D02*
G75*
G03*
X12915000Y-3850000I-15000J0D01*
G01*
X12915000Y-4100000D02*
G75*
G03*
X12915000Y-4100000I-15000J0D01*
G01*
X12915000Y-4350000D02*
G75*
G03*
X12915000Y-4350000I-15000J0D01*
G01*
X12915000Y-4600000D02*
G75*
G03*
X12915000Y-4600000I-15000J0D01*
G01*
X12915000Y-4850000D02*
G75*
G03*
X12915000Y-4850000I-15000J0D01*
G01*
X12915000Y-5100000D02*
G75*
G03*
X12915000Y-5100000I-15000J0D01*
G01*
X12915000Y-5350000D02*
G75*
G03*
X12915000Y-5350000I-15000J0D01*
G01*
X12915000Y-10350000D02*
G75*
G03*
X12915000Y-10350000I-15000J0D01*
G01*
X12915000Y-10600000D02*
G75*
G03*
X12915000Y-10600000I-15000J0D01*
G01*
X12915000Y-11100000D02*
G75*
G03*
X12915000Y-11100000I-15000J0D01*
G01*
X12915000Y-11350000D02*
G75*
G03*
X12915000Y-11350000I-15000J0D01*
G01*
X12915000Y-11600000D02*
G75*
G03*
X12915000Y-11600000I-15000J0D01*
G01*
X12915000Y-11850000D02*
G75*
G03*
X12915000Y-11850000I-15000J0D01*
G01*
X12915000Y-12100000D02*
G75*
G03*
X12915000Y-12100000I-15000J0D01*
G01*
X12915000Y-12350000D02*
G75*
G03*
X12915000Y-12350000I-15000J0D01*
G01*
X12915000Y-12600000D02*
G75*
G03*
X12915000Y-12600000I-15000J0D01*
G01*
X12915000Y-12850000D02*
G75*
G03*
X12915000Y-12850000I-15000J0D01*
G01*
X12915000Y-13100000D02*
G75*
G03*
X12915000Y-13100000I-15000J0D01*
G01*
X12915000Y-13350000D02*
G75*
G03*
X12915000Y-13350000I-15000J0D01*
G01*
X12915000Y-14600000D02*
G75*
G03*
X12915000Y-14600000I-15000J0D01*
G01*
X12915000Y-14850000D02*
G75*
G03*
X12915000Y-14850000I-15000J0D01*
G01*
X12915000Y-15100000D02*
G75*
G03*
X12915000Y-15100000I-15000J0D01*
G01*
X12915000Y-15350000D02*
G75*
G03*
X12915000Y-15350000I-15000J0D01*
G01*
X12915000Y-15600000D02*
G75*
G03*
X12915000Y-15600000I-15000J0D01*
G01*
X12915000Y-15850000D02*
G75*
G03*
X12915000Y-15850000I-15000J0D01*
G01*
X12915000Y-16100000D02*
G75*
G03*
X12915000Y-16100000I-15000J0D01*
G01*
X12915000Y-16350000D02*
G75*
G03*
X12915000Y-16350000I-15000J0D01*
G01*
X12915000Y-16600000D02*
G75*
G03*
X12915000Y-16600000I-15000J0D01*
G01*
X12915000Y-16850000D02*
G75*
G03*
X12915000Y-16850000I-15000J0D01*
G01*
X12954000Y-9752000D02*
G75*
G03*
X12954000Y-9752000I-15000J0D01*
G01*
X13000000Y-14312500D02*
G75*
G03*
X13000000Y-14312500I-15000J0D01*
G01*
X13070000Y-5775000D02*
G75*
G03*
X13070000Y-5775000I-15000J0D01*
G01*
X13127500Y-14470000D02*
G75*
G03*
X13127500Y-14470000I-15000J0D01*
G01*
X13165000Y-3102000D02*
G75*
G03*
X13165000Y-3102000I-15000J0D01*
G01*
X13165000Y-3352000D02*
G75*
G03*
X13165000Y-3352000I-15000J0D01*
G01*
X13165000Y-3602000D02*
G75*
G03*
X13165000Y-3602000I-15000J0D01*
G01*
X13165000Y-3850000D02*
G75*
G03*
X13165000Y-3850000I-15000J0D01*
G01*
X13165000Y-4100000D02*
G75*
G03*
X13165000Y-4100000I-15000J0D01*
G01*
X13165000Y-4350000D02*
G75*
G03*
X13165000Y-4350000I-15000J0D01*
G01*
X13165000Y-4600000D02*
G75*
G03*
X13165000Y-4600000I-15000J0D01*
G01*
X13165000Y-4850000D02*
G75*
G03*
X13165000Y-4850000I-15000J0D01*
G01*
X13165000Y-5100000D02*
G75*
G03*
X13165000Y-5100000I-15000J0D01*
G01*
X13165000Y-7098000D02*
G75*
G03*
X13165000Y-7098000I-15000J0D01*
G01*
X13165000Y-7348000D02*
G75*
G03*
X13165000Y-7348000I-15000J0D01*
G01*
X13165000Y-7598000D02*
G75*
G03*
X13165000Y-7598000I-15000J0D01*
G01*
X13165000Y-7848000D02*
G75*
G03*
X13165000Y-7848000I-15000J0D01*
G01*
X13165000Y-8098000D02*
G75*
G03*
X13165000Y-8098000I-15000J0D01*
G01*
X13165000Y-8348000D02*
G75*
G03*
X13165000Y-8348000I-15000J0D01*
G01*
X13165000Y-8598000D02*
G75*
G03*
X13165000Y-8598000I-15000J0D01*
G01*
X13165000Y-9600000D02*
G75*
G03*
X13165000Y-9600000I-15000J0D01*
G01*
X13165000Y-10350000D02*
G75*
G03*
X13165000Y-10350000I-15000J0D01*
G01*
X13165000Y-10600000D02*
G75*
G03*
X13165000Y-10600000I-15000J0D01*
G01*
X13165000Y-11350000D02*
G75*
G03*
X13165000Y-11350000I-15000J0D01*
G01*
X13165000Y-11600000D02*
G75*
G03*
X13165000Y-11600000I-15000J0D01*
G01*
X13165000Y-11850000D02*
G75*
G03*
X13165000Y-11850000I-15000J0D01*
G01*
X13165000Y-12100000D02*
G75*
G03*
X13165000Y-12100000I-15000J0D01*
G01*
X13165000Y-12350000D02*
G75*
G03*
X13165000Y-12350000I-15000J0D01*
G01*
X13165000Y-12600000D02*
G75*
G03*
X13165000Y-12600000I-15000J0D01*
G01*
X13165000Y-12850000D02*
G75*
G03*
X13165000Y-12850000I-15000J0D01*
G01*
X13165000Y-13100000D02*
G75*
G03*
X13165000Y-13100000I-15000J0D01*
G01*
X13165000Y-13350000D02*
G75*
G03*
X13165000Y-13350000I-15000J0D01*
G01*
X13165000Y-14100000D02*
G75*
G03*
X13165000Y-14100000I-15000J0D01*
G01*
X13165000Y-14600000D02*
G75*
G03*
X13165000Y-14600000I-15000J0D01*
G01*
X13165000Y-14850000D02*
G75*
G03*
X13165000Y-14850000I-15000J0D01*
G01*
X13165000Y-15100000D02*
G75*
G03*
X13165000Y-15100000I-15000J0D01*
G01*
X13165000Y-15351000D02*
G75*
G03*
X13165000Y-15351000I-15000J0D01*
G01*
X13165000Y-15601000D02*
G75*
G03*
X13165000Y-15601000I-15000J0D01*
G01*
X13165000Y-15850000D02*
G75*
G03*
X13165000Y-15850000I-15000J0D01*
G01*
X13165000Y-16100000D02*
G75*
G03*
X13165000Y-16100000I-15000J0D01*
G01*
X13165000Y-16350000D02*
G75*
G03*
X13165000Y-16350000I-15000J0D01*
G01*
X13165000Y-16600000D02*
G75*
G03*
X13165000Y-16600000I-15000J0D01*
G01*
X13165000Y-16850000D02*
G75*
G03*
X13165000Y-16850000I-15000J0D01*
G01*
X13166000Y-9851000D02*
G75*
G03*
X13166000Y-9851000I-15000J0D01*
G01*
X13195000Y-13560000D02*
G75*
G03*
X13195000Y-13560000I-15000J0D01*
G01*
X13225000Y-14470000D02*
G75*
G03*
X13225000Y-14470000I-15000J0D01*
G01*
X13245000Y-13725000D02*
G75*
G03*
X13245000Y-13725000I-15000J0D01*
G01*
X13317500Y-14470000D02*
G75*
G03*
X13317500Y-14470000I-15000J0D01*
G01*
X13329000Y-8438000D02*
G75*
G03*
X13329000Y-8438000I-15000J0D01*
G01*
X13343000Y-4439000D02*
G75*
G03*
X13343000Y-4439000I-15000J0D01*
G01*
X13344000Y-12447000D02*
G75*
G03*
X13344000Y-12447000I-15000J0D01*
G01*
X13415000Y-4850000D02*
G75*
G03*
X13415000Y-4850000I-15000J0D01*
G01*
X13415000Y-5100000D02*
G75*
G03*
X13415000Y-5100000I-15000J0D01*
G01*
X13415000Y-9600000D02*
G75*
G03*
X13415000Y-9600000I-15000J0D01*
G01*
X13415000Y-9850000D02*
G75*
G03*
X13415000Y-9850000I-15000J0D01*
G01*
X13415000Y-10100000D02*
G75*
G03*
X13415000Y-10100000I-15000J0D01*
G01*
X13415000Y-10350000D02*
G75*
G03*
X13415000Y-10350000I-15000J0D01*
G01*
X13415000Y-10600000D02*
G75*
G03*
X13415000Y-10600000I-15000J0D01*
G01*
X13415000Y-12850000D02*
G75*
G03*
X13415000Y-12850000I-15000J0D01*
G01*
X13415000Y-13100000D02*
G75*
G03*
X13415000Y-13100000I-15000J0D01*
G01*
X13415000Y-13350000D02*
G75*
G03*
X13415000Y-13350000I-15000J0D01*
G01*
X13415000Y-13600000D02*
G75*
G03*
X13415000Y-13600000I-15000J0D01*
G01*
X13415000Y-14100000D02*
G75*
G03*
X13415000Y-14100000I-15000J0D01*
G01*
X13415000Y-14350000D02*
G75*
G03*
X13415000Y-14350000I-15000J0D01*
G01*
X13415000Y-14600000D02*
G75*
G03*
X13415000Y-14600000I-15000J0D01*
G01*
X13415000Y-14850000D02*
G75*
G03*
X13415000Y-14850000I-15000J0D01*
G01*
X13415000Y-16850000D02*
G75*
G03*
X13415000Y-16850000I-15000J0D01*
G01*
X13447000Y-11145000D02*
G75*
G03*
X13447000Y-11145000I-15000J0D01*
G01*
X13463465Y-7383535D02*
G75*
G03*
X13463465Y-7383535I-15000J0D01*
G01*
X13463965Y-3388035D02*
G75*
G03*
X13463965Y-3388035I-15000J0D01*
G01*
X13475965Y-15393035D02*
G75*
G03*
X13475965Y-15393035I-15000J0D01*
G01*
X13487000Y-4163000D02*
G75*
G03*
X13487000Y-4163000I-15000J0D01*
G01*
X13492000Y-8166000D02*
G75*
G03*
X13492000Y-8166000I-15000J0D01*
G01*
X13495736Y-16162926D02*
G75*
G03*
X13495736Y-16162926I-15000J0D01*
G01*
X13502000Y-12162000D02*
G75*
G03*
X13502000Y-12162000I-15000J0D01*
G01*
X13665000Y-4850000D02*
G75*
G03*
X13665000Y-4850000I-15000J0D01*
G01*
X13665000Y-5100000D02*
G75*
G03*
X13665000Y-5100000I-15000J0D01*
G01*
X13665000Y-9600000D02*
G75*
G03*
X13665000Y-9600000I-15000J0D01*
G01*
X13665000Y-9850000D02*
G75*
G03*
X13665000Y-9850000I-15000J0D01*
G01*
X13665000Y-10100000D02*
G75*
G03*
X13665000Y-10100000I-15000J0D01*
G01*
X13665000Y-10600000D02*
G75*
G03*
X13665000Y-10600000I-15000J0D01*
G01*
X13665000Y-12850000D02*
G75*
G03*
X13665000Y-12850000I-15000J0D01*
G01*
X13665000Y-13100000D02*
G75*
G03*
X13665000Y-13100000I-15000J0D01*
G01*
X13665000Y-13350000D02*
G75*
G03*
X13665000Y-13350000I-15000J0D01*
G01*
X13665000Y-13600000D02*
G75*
G03*
X13665000Y-13600000I-15000J0D01*
G01*
X13665000Y-14350000D02*
G75*
G03*
X13665000Y-14350000I-15000J0D01*
G01*
X13665000Y-14600000D02*
G75*
G03*
X13665000Y-14600000I-15000J0D01*
G01*
X13665000Y-14850000D02*
G75*
G03*
X13665000Y-14850000I-15000J0D01*
G01*
X13665000Y-16850000D02*
G75*
G03*
X13665000Y-16850000I-15000J0D01*
G01*
X13809000Y-11423000D02*
G75*
G03*
X13809000Y-11423000I-15000J0D01*
G01*
X13815649Y-15408921D02*
G75*
G03*
X13815649Y-15408921I-15000J0D01*
G01*
X13815884Y-7411924D02*
G75*
G03*
X13815884Y-7411924I-15000J0D01*
G01*
X13819000Y-3436000D02*
G75*
G03*
X13819000Y-3436000I-15000J0D01*
G01*
X13909000Y-3436000D02*
G75*
G03*
X13909000Y-3436000I-15000J0D01*
G01*
X13915000Y-4850000D02*
G75*
G03*
X13915000Y-4850000I-15000J0D01*
G01*
X13915000Y-5100000D02*
G75*
G03*
X13915000Y-5100000I-15000J0D01*
G01*
X13915000Y-5350000D02*
G75*
G03*
X13915000Y-5350000I-15000J0D01*
G01*
X13915000Y-7098000D02*
G75*
G03*
X13915000Y-7098000I-15000J0D01*
G01*
X13915000Y-10350000D02*
G75*
G03*
X13915000Y-10350000I-15000J0D01*
G01*
X13915000Y-12850000D02*
G75*
G03*
X13915000Y-12850000I-15000J0D01*
G01*
X13915000Y-13100000D02*
G75*
G03*
X13915000Y-13100000I-15000J0D01*
G01*
X13915000Y-13350000D02*
G75*
G03*
X13915000Y-13350000I-15000J0D01*
G01*
X13915000Y-14100000D02*
G75*
G03*
X13915000Y-14100000I-15000J0D01*
G01*
X13915000Y-14350000D02*
G75*
G03*
X13915000Y-14350000I-15000J0D01*
G01*
X13915000Y-14600000D02*
G75*
G03*
X13915000Y-14600000I-15000J0D01*
G01*
X13915000Y-14850000D02*
G75*
G03*
X13915000Y-14850000I-15000J0D01*
G01*
X13915000Y-15100000D02*
G75*
G03*
X13915000Y-15100000I-15000J0D01*
G01*
X13915000Y-16850000D02*
G75*
G03*
X13915000Y-16850000I-15000J0D01*
G01*
X13920000Y-15433000D02*
G75*
G03*
X13920000Y-15433000I-15000J0D01*
G01*
X13924000Y-11426000D02*
G75*
G03*
X13924000Y-11426000I-15000J0D01*
G01*
X13927000Y-7439000D02*
G75*
G03*
X13927000Y-7439000I-15000J0D01*
G01*
X13985000Y-3170000D02*
G75*
G03*
X13985000Y-3170000I-15000J0D01*
G01*
X14165000Y-4850000D02*
G75*
G03*
X14165000Y-4850000I-15000J0D01*
G01*
X14165000Y-5100000D02*
G75*
G03*
X14165000Y-5100000I-15000J0D01*
G01*
X14165000Y-7098000D02*
G75*
G03*
X14165000Y-7098000I-15000J0D01*
G01*
X14165000Y-10600000D02*
G75*
G03*
X14165000Y-10600000I-15000J0D01*
G01*
X14165000Y-12850000D02*
G75*
G03*
X14165000Y-12850000I-15000J0D01*
G01*
X14165000Y-13100000D02*
G75*
G03*
X14165000Y-13100000I-15000J0D01*
G01*
X14165000Y-13350000D02*
G75*
G03*
X14165000Y-13350000I-15000J0D01*
G01*
X14165000Y-13600000D02*
G75*
G03*
X14165000Y-13600000I-15000J0D01*
G01*
X14165000Y-14350000D02*
G75*
G03*
X14165000Y-14350000I-15000J0D01*
G01*
X14165000Y-14600000D02*
G75*
G03*
X14165000Y-14600000I-15000J0D01*
G01*
X14165000Y-14850000D02*
G75*
G03*
X14165000Y-14850000I-15000J0D01*
G01*
X14165000Y-16850000D02*
G75*
G03*
X14165000Y-16850000I-15000J0D01*
G01*
X14376250Y-3479750D02*
G75*
G03*
X14376250Y-3479750I-15000J0D01*
G01*
X14376250Y-15469750D02*
G75*
G03*
X14376250Y-15469750I-15000J0D01*
G01*
X14381250Y-11476750D02*
G75*
G03*
X14381250Y-11476750I-15000J0D01*
G01*
X14385750Y-7483250D02*
G75*
G03*
X14385750Y-7483250I-15000J0D01*
G01*
X14390500Y-12575500D02*
G75*
G03*
X14390500Y-12575500I-15000J0D01*
G01*
X14415000Y-4850000D02*
G75*
G03*
X14415000Y-4850000I-15000J0D01*
G01*
X14415000Y-5100000D02*
G75*
G03*
X14415000Y-5100000I-15000J0D01*
G01*
X14415000Y-7098000D02*
G75*
G03*
X14415000Y-7098000I-15000J0D01*
G01*
X14415000Y-10600000D02*
G75*
G03*
X14415000Y-10600000I-15000J0D01*
G01*
X14415000Y-12850000D02*
G75*
G03*
X14415000Y-12850000I-15000J0D01*
G01*
X14415000Y-13100000D02*
G75*
G03*
X14415000Y-13100000I-15000J0D01*
G01*
X14415000Y-14100000D02*
G75*
G03*
X14415000Y-14100000I-15000J0D01*
G01*
X14415000Y-14850000D02*
G75*
G03*
X14415000Y-14850000I-15000J0D01*
G01*
X14415000Y-15100000D02*
G75*
G03*
X14415000Y-15100000I-15000J0D01*
G01*
X14415000Y-16850000D02*
G75*
G03*
X14415000Y-16850000I-15000J0D01*
G01*
X14425000Y-16620000D02*
G75*
G03*
X14425000Y-16620000I-15000J0D01*
G01*
X14450000Y-4580000D02*
G75*
G03*
X14450000Y-4580000I-15000J0D01*
G01*
X14465500Y-8583500D02*
G75*
G03*
X14465500Y-8583500I-15000J0D01*
G01*
X14557950Y-3997000D02*
G75*
G03*
X14557950Y-3997000I-15000J0D01*
G01*
X14557950Y-4180000D02*
G75*
G03*
X14557950Y-4180000I-15000J0D01*
G01*
X14560950Y-12001000D02*
G75*
G03*
X14560950Y-12001000I-15000J0D01*
G01*
X14563450Y-15984000D02*
G75*
G03*
X14563450Y-15984000I-15000J0D01*
G01*
X14565000Y-16190000D02*
G75*
G03*
X14565000Y-16190000I-15000J0D01*
G01*
X14565950Y-7988000D02*
G75*
G03*
X14565950Y-7988000I-15000J0D01*
G01*
X14607500Y-11136500D02*
G75*
G03*
X14607500Y-11136500I-15000J0D01*
G01*
X14665000Y-3102000D02*
G75*
G03*
X14665000Y-3102000I-15000J0D01*
G01*
X14665000Y-4850000D02*
G75*
G03*
X14665000Y-4850000I-15000J0D01*
G01*
X14665000Y-5100000D02*
G75*
G03*
X14665000Y-5100000I-15000J0D01*
G01*
X14665000Y-6848000D02*
G75*
G03*
X14665000Y-6848000I-15000J0D01*
G01*
X14665000Y-7098000D02*
G75*
G03*
X14665000Y-7098000I-15000J0D01*
G01*
X14665000Y-12850000D02*
G75*
G03*
X14665000Y-12850000I-15000J0D01*
G01*
X14665000Y-13100000D02*
G75*
G03*
X14665000Y-13100000I-15000J0D01*
G01*
X14665000Y-13350000D02*
G75*
G03*
X14665000Y-13350000I-15000J0D01*
G01*
X14665000Y-13600000D02*
G75*
G03*
X14665000Y-13600000I-15000J0D01*
G01*
X14665000Y-13850000D02*
G75*
G03*
X14665000Y-13850000I-15000J0D01*
G01*
X14665000Y-14100000D02*
G75*
G03*
X14665000Y-14100000I-15000J0D01*
G01*
X14665000Y-14350000D02*
G75*
G03*
X14665000Y-14350000I-15000J0D01*
G01*
X14665000Y-14600000D02*
G75*
G03*
X14665000Y-14600000I-15000J0D01*
G01*
X14665000Y-14850000D02*
G75*
G03*
X14665000Y-14850000I-15000J0D01*
G01*
X14665000Y-15100000D02*
G75*
G03*
X14665000Y-15100000I-15000J0D01*
G01*
X14665000Y-16850000D02*
G75*
G03*
X14665000Y-16850000I-15000J0D01*
G01*
X14915000Y-3102000D02*
G75*
G03*
X14915000Y-3102000I-15000J0D01*
G01*
X14915000Y-3348000D02*
G75*
G03*
X14915000Y-3348000I-15000J0D01*
G01*
X14915000Y-13600000D02*
G75*
G03*
X14915000Y-13600000I-15000J0D01*
G01*
X14915000Y-13850000D02*
G75*
G03*
X14915000Y-13850000I-15000J0D01*
G01*
X14915000Y-14100000D02*
G75*
G03*
X14915000Y-14100000I-15000J0D01*
G01*
X14915000Y-14350000D02*
G75*
G03*
X14915000Y-14350000I-15000J0D01*
G01*
X14915000Y-14600000D02*
G75*
G03*
X14915000Y-14600000I-15000J0D01*
G01*
X14915000Y-14850000D02*
G75*
G03*
X14915000Y-14850000I-15000J0D01*
G01*
X14915000Y-16350000D02*
G75*
G03*
X14915000Y-16350000I-15000J0D01*
G01*
X14915000Y-16600000D02*
G75*
G03*
X14915000Y-16600000I-15000J0D01*
G01*
X14915000Y-16850000D02*
G75*
G03*
X14915000Y-16850000I-15000J0D01*
G01*
D14*
X7105000Y-10715000D02*
X7105000Y-10755000D01*
X7085000Y-10735000D02*
X7125000Y-10735000D01*
X7345000Y-10695000D02*
X7345000Y-10735000D01*
X7325000Y-10715000D02*
X7365000Y-10715000D01*
X7355000Y-9785000D02*
X7355000Y-9825000D01*
X7335000Y-9805000D02*
X7375000Y-9805000D01*
X7400000Y-5830000D02*
X7400000Y-5870000D01*
X7380000Y-5850000D02*
X7420000Y-5850000D01*
X7400000Y-6080000D02*
X7400000Y-6120000D01*
X7380000Y-6100000D02*
X7420000Y-6100000D01*
X7400000Y-6330000D02*
X7400000Y-6370000D01*
X7380000Y-6350000D02*
X7420000Y-6350000D01*
X7400000Y-6580000D02*
X7400000Y-6620000D01*
X7380000Y-6600000D02*
X7420000Y-6600000D01*
X7485000Y-10465000D02*
X7485000Y-10505000D01*
X7465000Y-10485000D02*
X7505000Y-10485000D01*
X7495000Y-11000000D02*
X7495000Y-11040000D01*
X7475000Y-11020000D02*
X7515000Y-11020000D01*
X7570000Y-10910000D02*
X7570000Y-10950000D01*
X7550000Y-10930000D02*
X7590000Y-10930000D01*
X7640000Y-10720000D02*
X7640000Y-10760000D01*
X7620000Y-10740000D02*
X7660000Y-10740000D01*
X7838108Y-9539870D02*
X7838108Y-9579870D01*
X7818108Y-9559870D02*
X7858108Y-9559870D01*
X7855000Y-9385000D02*
X7855000Y-9425000D01*
X7835000Y-9405000D02*
X7875000Y-9405000D01*
X7855000Y-12850000D02*
X7855000Y-12890000D01*
X7835000Y-12870000D02*
X7875000Y-12870000D01*
X7865000Y-10495000D02*
X7865000Y-10535000D01*
X7845000Y-10515000D02*
X7885000Y-10515000D01*
X7870000Y-10230000D02*
X7870000Y-10270000D01*
X7850000Y-10250000D02*
X7890000Y-10250000D01*
X7880000Y-10970000D02*
X7880000Y-11010000D01*
X7860000Y-10990000D02*
X7900000Y-10990000D01*
X7884796Y-11098801D02*
X7884796Y-11138801D01*
X7864796Y-11118801D02*
X7904796Y-11118801D01*
X7905000Y-5145000D02*
X7905000Y-5185000D01*
X7885000Y-5165000D02*
X7925000Y-5165000D01*
X7930000Y-5435000D02*
X7930000Y-5475000D01*
X7910000Y-5455000D02*
X7950000Y-5455000D01*
X7964000Y-7184000D02*
X7964000Y-7224000D01*
X7944000Y-7204000D02*
X7984000Y-7204000D01*
X7969000Y-11184000D02*
X7969000Y-11224000D01*
X7949000Y-11204000D02*
X7989000Y-11204000D01*
X8120000Y-10160000D02*
X8120000Y-10200000D01*
X8100000Y-10180000D02*
X8140000Y-10180000D01*
X8125000Y-13425000D02*
X8125000Y-13465000D01*
X8105000Y-13445000D02*
X8145000Y-13445000D01*
X8395000Y-13455000D02*
X8395000Y-13495000D01*
X8375000Y-13475000D02*
X8415000Y-13475000D01*
X8480000Y-10425000D02*
X8480000Y-10465000D01*
X8460000Y-10445000D02*
X8500000Y-10445000D01*
X8706000Y-10736000D02*
X8706000Y-10776000D01*
X8686000Y-10756000D02*
X8726000Y-10756000D01*
X8710000Y-11750000D02*
X8710000Y-11790000D01*
X8690000Y-11770000D02*
X8730000Y-11770000D01*
X8740000Y-4950000D02*
X8740000Y-4990000D01*
X8720000Y-4970000D02*
X8760000Y-4970000D01*
X8750000Y-4535000D02*
X8750000Y-4575000D01*
X8730000Y-4555000D02*
X8770000Y-4555000D01*
X8765000Y-12485000D02*
X8765000Y-12525000D01*
X8745000Y-12505000D02*
X8785000Y-12505000D01*
X8770000Y-16315000D02*
X8770000Y-16355000D01*
X8750000Y-16335000D02*
X8790000Y-16335000D01*
X8780000Y-4300000D02*
X8780000Y-4340000D01*
X8760000Y-4320000D02*
X8800000Y-4320000D01*
X8780000Y-10870000D02*
X8780000Y-10910000D01*
X8760000Y-10890000D02*
X8800000Y-10890000D01*
X8780000Y-11250000D02*
X8780000Y-11290000D01*
X8760000Y-11270000D02*
X8800000Y-11270000D01*
X8800000Y-8330000D02*
X8800000Y-8370000D01*
X8780000Y-8350000D02*
X8820000Y-8350000D01*
X8800000Y-12290000D02*
X8800000Y-12330000D01*
X8780000Y-12310000D02*
X8820000Y-12310000D01*
X8800000Y-15740000D02*
X8800000Y-15780000D01*
X8780000Y-15760000D02*
X8820000Y-15760000D01*
X8810000Y-7745050D02*
X8810000Y-7785050D01*
X8790000Y-7765050D02*
X8830000Y-7765050D01*
X8820000Y-3755050D02*
X8820000Y-3795050D01*
X8800000Y-3775050D02*
X8840000Y-3775050D01*
X8850000Y-7360000D02*
X8850000Y-7400000D01*
X8830000Y-7380000D02*
X8870000Y-7380000D01*
X8880000Y-8800000D02*
X8880000Y-8840000D01*
X8860000Y-8820000D02*
X8900000Y-8820000D01*
X8880000Y-11150000D02*
X8880000Y-11190000D01*
X8860000Y-11170000D02*
X8900000Y-11170000D01*
X8916000Y-12984950D02*
X8916000Y-13024950D01*
X8896000Y-13004950D02*
X8936000Y-13004950D01*
X9050000Y-10990000D02*
X9050000Y-11030000D01*
X9030000Y-11010000D02*
X9070000Y-11010000D01*
X9150000Y-8810000D02*
X9150000Y-8850000D01*
X9130000Y-8830000D02*
X9170000Y-8830000D01*
X9180000Y-10315000D02*
X9180000Y-10355000D01*
X9160000Y-10335000D02*
X9200000Y-10335000D01*
X9290000Y-11090000D02*
X9290000Y-11130000D01*
X9270000Y-11110000D02*
X9310000Y-11110000D01*
X9397634Y-9422634D02*
X9397634Y-9462634D01*
X9377634Y-9442634D02*
X9417634Y-9442634D01*
X9465000Y-10340000D02*
X9465000Y-10380000D01*
X9445000Y-10360000D02*
X9485000Y-10360000D01*
X9595000Y-8810000D02*
X9595000Y-8850000D01*
X9575000Y-8830000D02*
X9615000Y-8830000D01*
X9750000Y-11130000D02*
X9750000Y-11170000D01*
X9730000Y-11150000D02*
X9770000Y-11150000D01*
X9760000Y-3220000D02*
X9760000Y-3260000D01*
X9740000Y-3240000D02*
X9780000Y-3240000D01*
X9820000Y-9785050D02*
X9820000Y-9825050D01*
X9800000Y-9805050D02*
X9840000Y-9805050D01*
X9935000Y-9970000D02*
X9935000Y-10010000D01*
X9915000Y-9990000D02*
X9955000Y-9990000D01*
X10170000Y-10560000D02*
X10170000Y-10600000D01*
X10150000Y-10580000D02*
X10190000Y-10580000D01*
X10170000Y-10705000D02*
X10170000Y-10745000D01*
X10150000Y-10725000D02*
X10190000Y-10725000D01*
X10280000Y-9080000D02*
X10280000Y-9120000D01*
X10260000Y-9100000D02*
X10300000Y-9100000D01*
X10330000Y-9260000D02*
X10330000Y-9300000D01*
X10310000Y-9280000D02*
X10350000Y-9280000D01*
X10570000Y-9269050D02*
X10570000Y-9309050D01*
X10550000Y-9289050D02*
X10590000Y-9289050D01*
X10797500Y-10062500D02*
X10797500Y-10102500D01*
X10777500Y-10082500D02*
X10817500Y-10082500D01*
X10902000Y-10247000D02*
X10902000Y-10287000D01*
X10882000Y-10267000D02*
X10922000Y-10267000D01*
X10964000Y-11186000D02*
X10964000Y-11226000D01*
X10944000Y-11206000D02*
X10984000Y-11206000D01*
X10996000Y-7155000D02*
X10996000Y-7195000D01*
X10976000Y-7175000D02*
X11016000Y-7175000D01*
X11110002Y-9520950D02*
X11110002Y-9560950D01*
X11090002Y-9540950D02*
X11130002Y-9540950D01*
X11216000Y-10077000D02*
X11216000Y-10117000D01*
X11196000Y-10097000D02*
X11236000Y-10097000D01*
X11217000Y-9518000D02*
X11217000Y-9558000D01*
X11197000Y-9538000D02*
X11237000Y-9538000D01*
X11235000Y-11100000D02*
X11235000Y-11140000D01*
X11215000Y-11120000D02*
X11255000Y-11120000D01*
X11291000Y-10167050D02*
X11291000Y-10207050D01*
X11271000Y-10187050D02*
X11311000Y-10187050D01*
X11330000Y-9500000D02*
X11330000Y-9540000D01*
X11310000Y-9520000D02*
X11350000Y-9520000D01*
X11400000Y-10090000D02*
X11400000Y-10130000D01*
X11380000Y-10110000D02*
X11420000Y-10110000D01*
X11695000Y-15690000D02*
X11695000Y-15730000D01*
X11675000Y-15710000D02*
X11715000Y-15710000D01*
X11770000Y-4345000D02*
X11770000Y-4385000D01*
X11750000Y-4365000D02*
X11790000Y-4365000D01*
X11780000Y-16305000D02*
X11780000Y-16345000D01*
X11760000Y-16325000D02*
X11800000Y-16325000D01*
X11790000Y-8350000D02*
X11790000Y-8390000D01*
X11770000Y-8370000D02*
X11810000Y-8370000D01*
X11790000Y-12325000D02*
X11790000Y-12365000D01*
X11770000Y-12345000D02*
X11810000Y-12345000D01*
X11810000Y-3755050D02*
X11810000Y-3795050D01*
X11790000Y-3775050D02*
X11830000Y-3775050D01*
X11818581Y-7279148D02*
X11818581Y-7319148D01*
X11798581Y-7299148D02*
X11838581Y-7299148D01*
X11820000Y-7730000D02*
X11820000Y-7770000D01*
X11800000Y-7750000D02*
X11840000Y-7750000D01*
X11830000Y-11760000D02*
X11830000Y-11800000D01*
X11810000Y-11780000D02*
X11850000Y-11780000D01*
X11880000Y-15240000D02*
X11880000Y-15280000D01*
X11860000Y-15260000D02*
X11900000Y-15260000D01*
X12025000Y-14365000D02*
X12025000Y-14405000D01*
X12005000Y-14385000D02*
X12045000Y-14385000D01*
X12025000Y-14470000D02*
X12025000Y-14510000D01*
X12005000Y-14490000D02*
X12045000Y-14490000D01*
X12037000Y-9072000D02*
X12037000Y-9112000D01*
X12017000Y-9092000D02*
X12057000Y-9092000D01*
X12150000Y-3332000D02*
X12150000Y-3372000D01*
X12130000Y-3352000D02*
X12170000Y-3352000D01*
X12150000Y-3830000D02*
X12150000Y-3870000D01*
X12130000Y-3850000D02*
X12170000Y-3850000D01*
X12200000Y-6485000D02*
X12200000Y-6525000D01*
X12180000Y-6505000D02*
X12220000Y-6505000D01*
X12255000Y-8840000D02*
X12255000Y-8880000D01*
X12235000Y-8860000D02*
X12275000Y-8860000D01*
X12290000Y-9525000D02*
X12290000Y-9565000D01*
X12270000Y-9545000D02*
X12310000Y-9545000D01*
X12290000Y-14600000D02*
X12290000Y-14640000D01*
X12270000Y-14620000D02*
X12310000Y-14620000D01*
X12505000Y-9235000D02*
X12505000Y-9275000D01*
X12485000Y-9255000D02*
X12525000Y-9255000D01*
X12520000Y-15835000D02*
X12520000Y-15875000D01*
X12500000Y-15855000D02*
X12540000Y-15855000D01*
X12590000Y-6705000D02*
X12590000Y-6745000D01*
X12570000Y-6725000D02*
X12610000Y-6725000D01*
X12730000Y-8770000D02*
X12730000Y-8810000D01*
X12710000Y-8790000D02*
X12750000Y-8790000D01*
X12780000Y-3830000D02*
X12780000Y-3870000D01*
X12760000Y-3850000D02*
X12800000Y-3850000D01*
X12780000Y-11830000D02*
X12780000Y-11870000D01*
X12760000Y-11850000D02*
X12800000Y-11850000D01*
X12900000Y-5830000D02*
X12900000Y-5870000D01*
X12880000Y-5850000D02*
X12920000Y-5850000D01*
X12915000Y-9015000D02*
X12915000Y-9055000D01*
X12895000Y-9035000D02*
X12935000Y-9035000D01*
X12990000Y-7850000D02*
X12990000Y-7890000D01*
X12970000Y-7870000D02*
X13010000Y-7870000D01*
X13020000Y-9070000D02*
X13020000Y-9110000D01*
X13000000Y-9090000D02*
X13040000Y-9090000D01*
X13025000Y-15830000D02*
X13025000Y-15870000D01*
X13005000Y-15850000D02*
X13045000Y-15850000D01*
X13407500Y-5992500D02*
X13407500Y-6032500D01*
X13387500Y-6012500D02*
X13427500Y-6012500D01*
X13962000Y-11181000D02*
X13962000Y-11221000D01*
X13942000Y-11201000D02*
X13982000Y-11201000D01*
X13975000Y-9160000D02*
X13975000Y-9200000D01*
X13955000Y-9180000D02*
X13995000Y-9180000D01*
X13985000Y-13955000D02*
X13985000Y-13995000D01*
X13965000Y-13975000D02*
X14005000Y-13975000D01*
X14010000Y-6680000D02*
X14010000Y-6720000D01*
X13990000Y-6700000D02*
X14030000Y-6700000D01*
X14100000Y-5515000D02*
X14100000Y-5555000D01*
X14080000Y-5535000D02*
X14120000Y-5535000D01*
X14140000Y-8745000D02*
X14140000Y-8785000D01*
X14120000Y-8765000D02*
X14160000Y-8765000D01*
X14145000Y-6045000D02*
X14145000Y-6085000D01*
X14125000Y-6065000D02*
X14165000Y-6065000D01*
X14150000Y-6295000D02*
X14150000Y-6335000D01*
X14130000Y-6315000D02*
X14170000Y-6315000D01*
X14155000Y-6565000D02*
X14155000Y-6605000D01*
X14135000Y-6585000D02*
X14175000Y-6585000D01*
X14180000Y-15080000D02*
X14180000Y-15120000D01*
X14160000Y-15100000D02*
X14200000Y-15100000D01*
X14190000Y-11025000D02*
X14190000Y-11065000D01*
X14170000Y-11045000D02*
X14210000Y-11045000D01*
X14450000Y-6605000D02*
X14450000Y-6645000D01*
X14430000Y-6625000D02*
X14470000Y-6625000D01*
X14550950Y-12180000D02*
X14550950Y-12220000D01*
X14530950Y-12200000D02*
X14570950Y-12200000D01*
X14560000Y-8155000D02*
X14560000Y-8195000D01*
X14540000Y-8175000D02*
X14580000Y-8175000D01*
X14623000Y-10027000D02*
X14623000Y-10067000D01*
X14603000Y-10047000D02*
X14643000Y-10047000D01*
X14655000Y-6265000D02*
X14655000Y-6305000D01*
X14635000Y-6285000D02*
X14675000Y-6285000D01*
X14670000Y-5995000D02*
X14670000Y-6035000D01*
X14650000Y-6015000D02*
X14690000Y-6015000D01*
X14688950Y-3705000D02*
X14688950Y-3745000D01*
X14668950Y-3725000D02*
X14708950Y-3725000D01*
X14693450Y-11697486D02*
X14693450Y-11737486D01*
X14673450Y-11717486D02*
X14713450Y-11717486D01*
X14695050Y-15685931D02*
X14695050Y-15725931D01*
X14675050Y-15705931D02*
X14715050Y-15705931D01*
X14697450Y-7674821D02*
X14697450Y-7714821D01*
X14677450Y-7694821D02*
X14717450Y-7694821D01*
X14730000Y-7240000D02*
X14730000Y-7280000D01*
X14710000Y-7260000D02*
X14750000Y-7260000D01*
X14732401Y-16042122D02*
X14732401Y-16082122D01*
X14712401Y-16062122D02*
X14752401Y-16062122D01*
X14732450Y-12365272D02*
X14732450Y-12405272D01*
X14712450Y-12385272D02*
X14752450Y-12385272D01*
X14755050Y-11240000D02*
X14755050Y-11280000D01*
X14735050Y-11260000D02*
X14775050Y-11260000D01*
X14774950Y-4415000D02*
X14774950Y-4455000D01*
X14754950Y-4435000D02*
X14794950Y-4435000D01*
X14775000Y-5400000D02*
X14775000Y-5440000D01*
X14755000Y-5420000D02*
X14795000Y-5420000D01*
X14777450Y-8450000D02*
X14777450Y-8490000D01*
X14757450Y-8470000D02*
X14797450Y-8470000D01*
X14780000Y-5535000D02*
X14780000Y-5575000D01*
X14760000Y-5555000D02*
X14800000Y-5555000D01*
X14785000Y-14570000D02*
X14785000Y-14610000D01*
X14765000Y-14590000D02*
X14805000Y-14590000D01*
X14800000Y-3220000D02*
X14800000Y-3260000D01*
X14780000Y-3240000D02*
X14820000Y-3240000D01*
X14804950Y-16330000D02*
X14804950Y-16370000D01*
X14784950Y-16350000D02*
X14824950Y-16350000D01*
X14870000Y-15540000D02*
X14870000Y-15580000D01*
X14850000Y-15560000D02*
X14890000Y-15560000D01*
X14870207Y-4001180D02*
X14870207Y-4041180D01*
X14850207Y-4021180D02*
X14890207Y-4021180D01*
X14880000Y-15205000D02*
X14880000Y-15245000D01*
X14860000Y-15225000D02*
X14900000Y-15225000D01*
X14910000Y-3600000D02*
X14910000Y-3640000D01*
X14890000Y-3620000D02*
X14930000Y-3620000D01*
X14915000Y-7080000D02*
X14915000Y-7120000D01*
X14895000Y-7100000D02*
X14935000Y-7100000D01*
X14920000Y-7270000D02*
X14920000Y-7310000D01*
X14900000Y-7290000D02*
X14940000Y-7290000D01*
D15*
X11519678Y-6812678D02*
X11519678Y-6777322D01*
X11484322Y-6777322D01*
X11484322Y-6812678D01*
X11519678Y-6812678D01*
X12285178Y-15881678D02*
X12285178Y-15846322D01*
X12249822Y-15846322D01*
X12249822Y-15881678D01*
X12285178Y-15881678D01*
X12285178Y-16307678D02*
X12285178Y-16272322D01*
X12249822Y-16272322D01*
X12249822Y-16307678D01*
X12285178Y-16307678D01*
X12687678Y-15881678D02*
X12687678Y-15846322D01*
X12652322Y-15846322D01*
X12652322Y-15881678D01*
X12687678Y-15881678D01*
X12687678Y-16312678D02*
X12687678Y-16277322D01*
X12652322Y-16277322D01*
X12652322Y-16312678D01*
X12687678Y-16312678D01*
D10*
X7640000Y-6056000D02*
X7690000Y-6006000D01*
X7640000Y-5956000D01*
X7590000Y-6006000D01*
X7640000Y-6056000D01*
X7640000Y-6310000D02*
X7690000Y-6260000D01*
X7640000Y-6210000D01*
X7590000Y-6260000D01*
X7640000Y-6310000D01*
X7640000Y-6564000D02*
X7690000Y-6514000D01*
X7640000Y-6464000D01*
X7590000Y-6514000D01*
X7640000Y-6564000D01*
X9778000Y-6842000D02*
X9828000Y-6792000D01*
X9778000Y-6742000D01*
X9728000Y-6792000D01*
X9778000Y-6842000D01*
X10032000Y-6842000D02*
X10082000Y-6792000D01*
X10032000Y-6742000D01*
X9982000Y-6792000D01*
X10032000Y-6842000D01*
X10768000Y-6842000D02*
X10818000Y-6792000D01*
X10768000Y-6742000D01*
X10718000Y-6792000D01*
X10768000Y-6842000D01*
X11022000Y-6842000D02*
X11072000Y-6792000D01*
X11022000Y-6742000D01*
X10972000Y-6792000D01*
X11022000Y-6842000D01*
X11894500Y-6295000D02*
X11944500Y-6245000D01*
X11894500Y-6195000D01*
X11844500Y-6245000D01*
X11894500Y-6295000D01*
X12148500Y-6295000D02*
X12198500Y-6245000D01*
X12148500Y-6195000D01*
X12098500Y-6245000D01*
X12148500Y-6295000D01*
X12402500Y-6295000D02*
X12452500Y-6245000D01*
X12402500Y-6195000D01*
X12352500Y-6245000D01*
X12402500Y-6295000D01*
X12656500Y-6295000D02*
X12706500Y-6245000D01*
X12656500Y-6195000D01*
X12606500Y-6245000D01*
X12656500Y-6295000D01*
X12910500Y-6295000D02*
X12960500Y-6245000D01*
X12910500Y-6195000D01*
X12860500Y-6245000D01*
X12910500Y-6295000D01*
X13164500Y-6295000D02*
X13214500Y-6245000D01*
X13164500Y-6195000D01*
X13114500Y-6245000D01*
X13164500Y-6295000D01*
X13418500Y-6295000D02*
X13468500Y-6245000D01*
X13418500Y-6195000D01*
X13368500Y-6245000D01*
X13418500Y-6295000D01*
X13672500Y-6295000D02*
X13722500Y-6245000D01*
X13672500Y-6195000D01*
X13622500Y-6245000D01*
X13672500Y-6295000D01*
X14257250Y-5480000D02*
X14307250Y-5430000D01*
X14257250Y-5380000D01*
X14207250Y-5430000D01*
X14257250Y-5480000D01*
X14257250Y-5734000D02*
X14307250Y-5684000D01*
X14257250Y-5634000D01*
X14207250Y-5684000D01*
X14257250Y-5734000D01*
X14257250Y-5988000D02*
X14307250Y-5938000D01*
X14257250Y-5888000D01*
X14207250Y-5938000D01*
X14257250Y-5988000D01*
X14257250Y-6242000D02*
X14307250Y-6192000D01*
X14257250Y-6142000D01*
X14207250Y-6192000D01*
X14257250Y-6242000D01*
X14257250Y-6496000D02*
X14307250Y-6446000D01*
X14257250Y-6396000D01*
X14207250Y-6446000D01*
X14257250Y-6496000D01*
X14261250Y-9465000D02*
X14311250Y-9415000D01*
X14261250Y-9365000D01*
X14211250Y-9415000D01*
X14261250Y-9465000D01*
X14261250Y-9719000D02*
X14311250Y-9669000D01*
X14261250Y-9619000D01*
X14211250Y-9669000D01*
X14261250Y-9719000D01*
X14261250Y-9973000D02*
X14311250Y-9923000D01*
X14261250Y-9873000D01*
X14211250Y-9923000D01*
X14261250Y-9973000D01*
X14261250Y-10227000D02*
X14311250Y-10177000D01*
X14261250Y-10127000D01*
X14211250Y-10177000D01*
X14261250Y-10227000D01*
X14261250Y-10481000D02*
X14311250Y-10431000D01*
X14261250Y-10381000D01*
X14211250Y-10431000D01*
X14261250Y-10481000D01*
X14511250Y-5480000D02*
X14561250Y-5430000D01*
X14511250Y-5380000D01*
X14461250Y-5430000D01*
X14511250Y-5480000D01*
X14511250Y-5734000D02*
X14561250Y-5684000D01*
X14511250Y-5634000D01*
X14461250Y-5684000D01*
X14511250Y-5734000D01*
X14511250Y-5988000D02*
X14561250Y-5938000D01*
X14511250Y-5888000D01*
X14461250Y-5938000D01*
X14511250Y-5988000D01*
X14511250Y-6242000D02*
X14561250Y-6192000D01*
X14511250Y-6142000D01*
X14461250Y-6192000D01*
X14511250Y-6242000D01*
X14511250Y-6496000D02*
X14561250Y-6446000D01*
X14511250Y-6396000D01*
X14461250Y-6446000D01*
X14511250Y-6496000D01*
X14515250Y-9465000D02*
X14565250Y-9415000D01*
X14515250Y-9365000D01*
X14465250Y-9415000D01*
X14515250Y-9465000D01*
X14515250Y-9719000D02*
X14565250Y-9669000D01*
X14515250Y-9619000D01*
X14465250Y-9669000D01*
X14515250Y-9719000D01*
X14515250Y-9973000D02*
X14565250Y-9923000D01*
X14515250Y-9873000D01*
X14465250Y-9923000D01*
X14515250Y-9973000D01*
X14515250Y-10227000D02*
X14565250Y-10177000D01*
X14515250Y-10127000D01*
X14465250Y-10177000D01*
X14515250Y-10227000D01*
X14515250Y-10481000D02*
X14565250Y-10431000D01*
X14515250Y-10381000D01*
X14465250Y-10431000D01*
X14515250Y-10481000D01*
D16*
X7500500Y-9474500D02*
X7609500Y-9583500D01*
X7609500Y-9474500D02*
X7500500Y-9583500D01*
X7609500Y-9529000D02*
G75*
G03*
X7609500Y-9529000I-54500J0D01*
G01*
X7500500Y-9728500D02*
X7609500Y-9837500D01*
X7609500Y-9728500D02*
X7500500Y-9837500D01*
X7609500Y-9783000D02*
G75*
G03*
X7609500Y-9783000I-54500J0D01*
G01*
X7500500Y-9982500D02*
X7609500Y-10091500D01*
X7609500Y-9982500D02*
X7500500Y-10091500D01*
X7609500Y-10037000D02*
G75*
G03*
X7609500Y-10037000I-54500J0D01*
G01*
X7500500Y-10236500D02*
X7609500Y-10345500D01*
X7609500Y-10236500D02*
X7500500Y-10345500D01*
X7609500Y-10291000D02*
G75*
G03*
X7609500Y-10291000I-54500J0D01*
G01*
X7703500Y-14645500D02*
X7812500Y-14754500D01*
X7812500Y-14645500D02*
X7703500Y-14754500D01*
X7812500Y-14700000D02*
G75*
G03*
X7812500Y-14700000I-54500J0D01*
G01*
X7705500Y-13671500D02*
X7814500Y-13780500D01*
X7814500Y-13671500D02*
X7705500Y-13780500D01*
X7814500Y-13726000D02*
G75*
G03*
X7814500Y-13726000I-54500J0D01*
G01*
X7957500Y-14645500D02*
X8066500Y-14754500D01*
X8066500Y-14645500D02*
X7957500Y-14754500D01*
X8066500Y-14700000D02*
G75*
G03*
X8066500Y-14700000I-54500J0D01*
G01*
X7959500Y-13671500D02*
X8068500Y-13780500D01*
X8068500Y-13671500D02*
X7959500Y-13780500D01*
X8068500Y-13726000D02*
G75*
G03*
X8068500Y-13726000I-54500J0D01*
G01*
X8211500Y-14645500D02*
X8320500Y-14754500D01*
X8320500Y-14645500D02*
X8211500Y-14754500D01*
X8320500Y-14700000D02*
G75*
G03*
X8320500Y-14700000I-54500J0D01*
G01*
X8213500Y-13671500D02*
X8322500Y-13780500D01*
X8322500Y-13671500D02*
X8213500Y-13780500D01*
X8322500Y-13726000D02*
G75*
G03*
X8322500Y-13726000I-54500J0D01*
G01*
X8465500Y-14645500D02*
X8574500Y-14754500D01*
X8574500Y-14645500D02*
X8465500Y-14754500D01*
X8574500Y-14700000D02*
G75*
G03*
X8574500Y-14700000I-54500J0D01*
G01*
X8467500Y-13671500D02*
X8576500Y-13780500D01*
X8576500Y-13671500D02*
X8467500Y-13780500D01*
X8576500Y-13726000D02*
G75*
G03*
X8576500Y-13726000I-54500J0D01*
G01*
D17*
X7640000Y-5260000D02*
X7760000Y-5380000D01*
X7760000Y-5260000D02*
X7640000Y-5380000D01*
X7700000Y-5260000D02*
X7700000Y-5380000D01*
X7640000Y-5320000D02*
X7760000Y-5320000D01*
X7640000Y-5510000D02*
X7760000Y-5630000D01*
X7760000Y-5510000D02*
X7640000Y-5630000D01*
X7700000Y-5510000D02*
X7700000Y-5630000D01*
X7640000Y-5570000D02*
X7760000Y-5570000D01*
D18*
X7753223Y-3753223D02*
X7893223Y-3893223D01*
X7893223Y-3753223D02*
X7753223Y-3893223D01*
X7872721Y-3872721D02*
X7872721Y-3773725D01*
X7773725Y-3773725D01*
X7773725Y-3872721D01*
X7872721Y-3872721D01*
X7753223Y-4106777D02*
X7893223Y-4246777D01*
X7893223Y-4106777D02*
X7753223Y-4246777D01*
X7872721Y-4226275D02*
X7872721Y-4127279D01*
X7773725Y-4127279D01*
X7773725Y-4226275D01*
X7872721Y-4226275D01*
X7753223Y-15753223D02*
X7893223Y-15893223D01*
X7893223Y-15753223D02*
X7753223Y-15893223D01*
X7872721Y-15872721D02*
X7872721Y-15773725D01*
X7773725Y-15773725D01*
X7773725Y-15872721D01*
X7872721Y-15872721D01*
X7753223Y-16106777D02*
X7893223Y-16246777D01*
X7893223Y-16106777D02*
X7753223Y-16246777D01*
X7872721Y-16226275D02*
X7872721Y-16127279D01*
X7773725Y-16127279D01*
X7773725Y-16226275D01*
X7872721Y-16226275D01*
X7754223Y-7753223D02*
X7894223Y-7893223D01*
X7894223Y-7753223D02*
X7754223Y-7893223D01*
X7873721Y-7872721D02*
X7873721Y-7773725D01*
X7774725Y-7773725D01*
X7774725Y-7872721D01*
X7873721Y-7872721D01*
X7754223Y-8106777D02*
X7894223Y-8246777D01*
X7894223Y-8106777D02*
X7754223Y-8246777D01*
X7873721Y-8226275D02*
X7873721Y-8127279D01*
X7774725Y-8127279D01*
X7774725Y-8226275D01*
X7873721Y-8226275D01*
X7754223Y-11753223D02*
X7894223Y-11893223D01*
X7894223Y-11753223D02*
X7754223Y-11893223D01*
X7873721Y-11872721D02*
X7873721Y-11773725D01*
X7774725Y-11773725D01*
X7774725Y-11872721D01*
X7873721Y-11872721D01*
X7754223Y-12106777D02*
X7894223Y-12246777D01*
X7894223Y-12106777D02*
X7754223Y-12246777D01*
X7873721Y-12226275D02*
X7873721Y-12127279D01*
X7774725Y-12127279D01*
X7774725Y-12226275D01*
X7873721Y-12226275D01*
X8106777Y-3753223D02*
X8246777Y-3893223D01*
X8246777Y-3753223D02*
X8106777Y-3893223D01*
X8226275Y-3872721D02*
X8226275Y-3773725D01*
X8127279Y-3773725D01*
X8127279Y-3872721D01*
X8226275Y-3872721D01*
X8106777Y-4106777D02*
X8246777Y-4246777D01*
X8246777Y-4106777D02*
X8106777Y-4246777D01*
X8226275Y-4226275D02*
X8226275Y-4127279D01*
X8127279Y-4127279D01*
X8127279Y-4226275D01*
X8226275Y-4226275D01*
X8106777Y-15753223D02*
X8246777Y-15893223D01*
X8246777Y-15753223D02*
X8106777Y-15893223D01*
X8226275Y-15872721D02*
X8226275Y-15773725D01*
X8127279Y-15773725D01*
X8127279Y-15872721D01*
X8226275Y-15872721D01*
X8106777Y-16106777D02*
X8246777Y-16246777D01*
X8246777Y-16106777D02*
X8106777Y-16246777D01*
X8226275Y-16226275D02*
X8226275Y-16127279D01*
X8127279Y-16127279D01*
X8127279Y-16226275D01*
X8226275Y-16226275D01*
X8107777Y-7753223D02*
X8247777Y-7893223D01*
X8247777Y-7753223D02*
X8107777Y-7893223D01*
X8227275Y-7872721D02*
X8227275Y-7773725D01*
X8128279Y-7773725D01*
X8128279Y-7872721D01*
X8227275Y-7872721D01*
X8107777Y-8106777D02*
X8247777Y-8246777D01*
X8247777Y-8106777D02*
X8107777Y-8246777D01*
X8227275Y-8226275D02*
X8227275Y-8127279D01*
X8128279Y-8127279D01*
X8128279Y-8226275D01*
X8227275Y-8226275D01*
X8107777Y-11753223D02*
X8247777Y-11893223D01*
X8247777Y-11753223D02*
X8107777Y-11893223D01*
X8227275Y-11872721D02*
X8227275Y-11773725D01*
X8128279Y-11773725D01*
X8128279Y-11872721D01*
X8227275Y-11872721D01*
X8107777Y-12106777D02*
X8247777Y-12246777D01*
X8247777Y-12106777D02*
X8107777Y-12246777D01*
X8227275Y-12226275D02*
X8227275Y-12127279D01*
X8128279Y-12127279D01*
X8128279Y-12226275D01*
X8227275Y-12226275D01*
X10753223Y-3753223D02*
X10893223Y-3893223D01*
X10893223Y-3753223D02*
X10753223Y-3893223D01*
X10872721Y-3872721D02*
X10872721Y-3773725D01*
X10773725Y-3773725D01*
X10773725Y-3872721D01*
X10872721Y-3872721D01*
X10753223Y-4106777D02*
X10893223Y-4246777D01*
X10893223Y-4106777D02*
X10753223Y-4246777D01*
X10872721Y-4226275D02*
X10872721Y-4127279D01*
X10773725Y-4127279D01*
X10773725Y-4226275D01*
X10872721Y-4226275D01*
X10753223Y-7753223D02*
X10893223Y-7893223D01*
X10893223Y-7753223D02*
X10753223Y-7893223D01*
X10872721Y-7872721D02*
X10872721Y-7773725D01*
X10773725Y-7773725D01*
X10773725Y-7872721D01*
X10872721Y-7872721D01*
X10753223Y-8106777D02*
X10893223Y-8246777D01*
X10893223Y-8106777D02*
X10753223Y-8246777D01*
X10872721Y-8226275D02*
X10872721Y-8127279D01*
X10773725Y-8127279D01*
X10773725Y-8226275D01*
X10872721Y-8226275D01*
X10753223Y-15753223D02*
X10893223Y-15893223D01*
X10893223Y-15753223D02*
X10753223Y-15893223D01*
X10872721Y-15872721D02*
X10872721Y-15773725D01*
X10773725Y-15773725D01*
X10773725Y-15872721D01*
X10872721Y-15872721D01*
X10753223Y-16106777D02*
X10893223Y-16246777D01*
X10893223Y-16106777D02*
X10753223Y-16246777D01*
X10872721Y-16226275D02*
X10872721Y-16127279D01*
X10773725Y-16127279D01*
X10773725Y-16226275D01*
X10872721Y-16226275D01*
X10754223Y-11753223D02*
X10894223Y-11893223D01*
X10894223Y-11753223D02*
X10754223Y-11893223D01*
X10873721Y-11872721D02*
X10873721Y-11773725D01*
X10774725Y-11773725D01*
X10774725Y-11872721D01*
X10873721Y-11872721D01*
X10754223Y-12106777D02*
X10894223Y-12246777D01*
X10894223Y-12106777D02*
X10754223Y-12246777D01*
X10873721Y-12226275D02*
X10873721Y-12127279D01*
X10774725Y-12127279D01*
X10774725Y-12226275D01*
X10873721Y-12226275D01*
X11106777Y-3753223D02*
X11246777Y-3893223D01*
X11246777Y-3753223D02*
X11106777Y-3893223D01*
X11226275Y-3872721D02*
X11226275Y-3773725D01*
X11127279Y-3773725D01*
X11127279Y-3872721D01*
X11226275Y-3872721D01*
X11106777Y-4106777D02*
X11246777Y-4246777D01*
X11246777Y-4106777D02*
X11106777Y-4246777D01*
X11226275Y-4226275D02*
X11226275Y-4127279D01*
X11127279Y-4127279D01*
X11127279Y-4226275D01*
X11226275Y-4226275D01*
X11106777Y-7753223D02*
X11246777Y-7893223D01*
X11246777Y-7753223D02*
X11106777Y-7893223D01*
X11226275Y-7872721D02*
X11226275Y-7773725D01*
X11127279Y-7773725D01*
X11127279Y-7872721D01*
X11226275Y-7872721D01*
X11106777Y-8106777D02*
X11246777Y-8246777D01*
X11246777Y-8106777D02*
X11106777Y-8246777D01*
X11226275Y-8226275D02*
X11226275Y-8127279D01*
X11127279Y-8127279D01*
X11127279Y-8226275D01*
X11226275Y-8226275D01*
X11106777Y-15753223D02*
X11246777Y-15893223D01*
X11246777Y-15753223D02*
X11106777Y-15893223D01*
X11226275Y-15872721D02*
X11226275Y-15773725D01*
X11127279Y-15773725D01*
X11127279Y-15872721D01*
X11226275Y-15872721D01*
X11106777Y-16106777D02*
X11246777Y-16246777D01*
X11246777Y-16106777D02*
X11106777Y-16246777D01*
X11226275Y-16226275D02*
X11226275Y-16127279D01*
X11127279Y-16127279D01*
X11127279Y-16226275D01*
X11226275Y-16226275D01*
X11107777Y-11753223D02*
X11247777Y-11893223D01*
X11247777Y-11753223D02*
X11107777Y-11893223D01*
X11227275Y-11872721D02*
X11227275Y-11773725D01*
X11128279Y-11773725D01*
X11128279Y-11872721D01*
X11227275Y-11872721D01*
X11107777Y-12106777D02*
X11247777Y-12246777D01*
X11247777Y-12106777D02*
X11107777Y-12246777D01*
X11227275Y-12226275D02*
X11227275Y-12127279D01*
X11128279Y-12127279D01*
X11128279Y-12226275D01*
X11227275Y-12226275D01*
X13753223Y-3753223D02*
X13893223Y-3893223D01*
X13893223Y-3753223D02*
X13753223Y-3893223D01*
X13872721Y-3872721D02*
X13872721Y-3773725D01*
X13773725Y-3773725D01*
X13773725Y-3872721D01*
X13872721Y-3872721D01*
X13753223Y-4106777D02*
X13893223Y-4246777D01*
X13893223Y-4106777D02*
X13753223Y-4246777D01*
X13872721Y-4226275D02*
X13872721Y-4127279D01*
X13773725Y-4127279D01*
X13773725Y-4226275D01*
X13872721Y-4226275D01*
X13753223Y-7754223D02*
X13893223Y-7894223D01*
X13893223Y-7754223D02*
X13753223Y-7894223D01*
X13872721Y-7873721D02*
X13872721Y-7774725D01*
X13773725Y-7774725D01*
X13773725Y-7873721D01*
X13872721Y-7873721D01*
X13753223Y-8107777D02*
X13893223Y-8247777D01*
X13893223Y-8107777D02*
X13753223Y-8247777D01*
X13872721Y-8227275D02*
X13872721Y-8128279D01*
X13773725Y-8128279D01*
X13773725Y-8227275D01*
X13872721Y-8227275D01*
X13753223Y-11753223D02*
X13893223Y-11893223D01*
X13893223Y-11753223D02*
X13753223Y-11893223D01*
X13872721Y-11872721D02*
X13872721Y-11773725D01*
X13773725Y-11773725D01*
X13773725Y-11872721D01*
X13872721Y-11872721D01*
X13753223Y-12106777D02*
X13893223Y-12246777D01*
X13893223Y-12106777D02*
X13753223Y-12246777D01*
X13872721Y-12226275D02*
X13872721Y-12127279D01*
X13773725Y-12127279D01*
X13773725Y-12226275D01*
X13872721Y-12226275D01*
X13753223Y-15753223D02*
X13893223Y-15893223D01*
X13893223Y-15753223D02*
X13753223Y-15893223D01*
X13872721Y-15872721D02*
X13872721Y-15773725D01*
X13773725Y-15773725D01*
X13773725Y-15872721D01*
X13872721Y-15872721D01*
X13753223Y-16106777D02*
X13893223Y-16246777D01*
X13893223Y-16106777D02*
X13753223Y-16246777D01*
X13872721Y-16226275D02*
X13872721Y-16127279D01*
X13773725Y-16127279D01*
X13773725Y-16226275D01*
X13872721Y-16226275D01*
X14106777Y-3753223D02*
X14246777Y-3893223D01*
X14246777Y-3753223D02*
X14106777Y-3893223D01*
X14226275Y-3872721D02*
X14226275Y-3773725D01*
X14127279Y-3773725D01*
X14127279Y-3872721D01*
X14226275Y-3872721D01*
X14106777Y-4106777D02*
X14246777Y-4246777D01*
X14246777Y-4106777D02*
X14106777Y-4246777D01*
X14226275Y-4226275D02*
X14226275Y-4127279D01*
X14127279Y-4127279D01*
X14127279Y-4226275D01*
X14226275Y-4226275D01*
X14106777Y-7754223D02*
X14246777Y-7894223D01*
X14246777Y-7754223D02*
X14106777Y-7894223D01*
X14226275Y-7873721D02*
X14226275Y-7774725D01*
X14127279Y-7774725D01*
X14127279Y-7873721D01*
X14226275Y-7873721D01*
X14106777Y-8107777D02*
X14246777Y-8247777D01*
X14246777Y-8107777D02*
X14106777Y-8247777D01*
X14226275Y-8227275D02*
X14226275Y-8128279D01*
X14127279Y-8128279D01*
X14127279Y-8227275D01*
X14226275Y-8227275D01*
X14106777Y-11753223D02*
X14246777Y-11893223D01*
X14246777Y-11753223D02*
X14106777Y-11893223D01*
X14226275Y-11872721D02*
X14226275Y-11773725D01*
X14127279Y-11773725D01*
X14127279Y-11872721D01*
X14226275Y-11872721D01*
X14106777Y-12106777D02*
X14246777Y-12246777D01*
X14246777Y-12106777D02*
X14106777Y-12246777D01*
X14226275Y-12226275D02*
X14226275Y-12127279D01*
X14127279Y-12127279D01*
X14127279Y-12226275D01*
X14226275Y-12226275D01*
X14106777Y-15753223D02*
X14246777Y-15893223D01*
X14246777Y-15753223D02*
X14106777Y-15893223D01*
X14226275Y-15872721D02*
X14226275Y-15773725D01*
X14127279Y-15773725D01*
X14127279Y-15872721D01*
X14226275Y-15872721D01*
X14106777Y-16106777D02*
X14246777Y-16246777D01*
X14246777Y-16106777D02*
X14106777Y-16246777D01*
X14226275Y-16226275D02*
X14226275Y-16127279D01*
X14127279Y-16127279D01*
X14127279Y-16226275D01*
X14226275Y-16226275D01*
D19*
X8060000Y-5245000D02*
X8210000Y-5395000D01*
X8210000Y-5245000D02*
X8060000Y-5395000D01*
X8135000Y-5395000D02*
X8210000Y-5320000D01*
X8135000Y-5245000D01*
X8060000Y-5320000D01*
X8135000Y-5395000D01*
D11*
X7252619Y-17315476D02*
X7252619Y-17115476D01*
X7300238Y-17115476D01*
X7328809Y-17125000D01*
X7347857Y-17144048D01*
X7357381Y-17163095D01*
X7366905Y-17201190D01*
X7366905Y-17229762D01*
X7357381Y-17267857D01*
X7347857Y-17286905D01*
X7328809Y-17305952D01*
X7300238Y-17315476D01*
X7252619Y-17315476D01*
X7452619Y-17315476D02*
X7452619Y-17182143D01*
X7452619Y-17220238D02*
X7462143Y-17201190D01*
X7471667Y-17191667D01*
X7490714Y-17182143D01*
X7509762Y-17182143D01*
X7576428Y-17315476D02*
X7576428Y-17182143D01*
X7576428Y-17115476D02*
X7566905Y-17125000D01*
X7576428Y-17134524D01*
X7585952Y-17125000D01*
X7576428Y-17115476D01*
X7576428Y-17134524D01*
X7700238Y-17315476D02*
X7681190Y-17305952D01*
X7671667Y-17286905D01*
X7671667Y-17115476D01*
X7805000Y-17315476D02*
X7785952Y-17305952D01*
X7776428Y-17286905D01*
X7776428Y-17115476D01*
X8033571Y-17315476D02*
X8033571Y-17115476D01*
X8100238Y-17258333D01*
X8166905Y-17115476D01*
X8166905Y-17315476D01*
X8347857Y-17315476D02*
X8347857Y-17210714D01*
X8338333Y-17191667D01*
X8319286Y-17182143D01*
X8281190Y-17182143D01*
X8262143Y-17191667D01*
X8347857Y-17305952D02*
X8328809Y-17315476D01*
X8281190Y-17315476D01*
X8262143Y-17305952D01*
X8252619Y-17286905D01*
X8252619Y-17267857D01*
X8262143Y-17248810D01*
X8281190Y-17239286D01*
X8328809Y-17239286D01*
X8347857Y-17229762D01*
X8443095Y-17182143D02*
X8443095Y-17382143D01*
X8443095Y-17191667D02*
X8462143Y-17182143D01*
X8500238Y-17182143D01*
X8519286Y-17191667D01*
X8528810Y-17201190D01*
X8538333Y-17220238D01*
X8538333Y-17277381D01*
X8528810Y-17296429D01*
X8519286Y-17305952D01*
X8500238Y-17315476D01*
X8462143Y-17315476D01*
X8443095Y-17305952D01*
X8624048Y-17296429D02*
X8633571Y-17305952D01*
X8624048Y-17315476D01*
X8614524Y-17305952D01*
X8624048Y-17296429D01*
X8624048Y-17315476D01*
X8624048Y-17191667D02*
X8633571Y-17201190D01*
X8624048Y-17210714D01*
X8614524Y-17201190D01*
X8624048Y-17191667D01*
X8624048Y-17210714D01*
D12*
X6975000Y-17635000D02*
X6995000Y-17655000D01*
X6995000Y-17635000D02*
X6975000Y-17655000D01*
D11*
X7290714Y-17535476D02*
X7309762Y-17535476D01*
X7328809Y-17545000D01*
X7338333Y-17554524D01*
X7347857Y-17573571D01*
X7357381Y-17611667D01*
X7357381Y-17659286D01*
X7347857Y-17697381D01*
X7338333Y-17716429D01*
X7328809Y-17725952D01*
X7309762Y-17735476D01*
X7290714Y-17735476D01*
X7271667Y-17725952D01*
X7262143Y-17716429D01*
X7252619Y-17697381D01*
X7243095Y-17659286D01*
X7243095Y-17611667D01*
X7252619Y-17573571D01*
X7262143Y-17554524D01*
X7271667Y-17545000D01*
X7290714Y-17535476D01*
X7443095Y-17716429D02*
X7452619Y-17725952D01*
X7443095Y-17735476D01*
X7433571Y-17725952D01*
X7443095Y-17716429D01*
X7443095Y-17735476D01*
X7528809Y-17554524D02*
X7538333Y-17545000D01*
X7557381Y-17535476D01*
X7605000Y-17535476D01*
X7624048Y-17545000D01*
X7633571Y-17554524D01*
X7643095Y-17573571D01*
X7643095Y-17592619D01*
X7633571Y-17621190D01*
X7519286Y-17735476D01*
X7643095Y-17735476D01*
X7766905Y-17535476D02*
X7785952Y-17535476D01*
X7805000Y-17545000D01*
X7814524Y-17554524D01*
X7824048Y-17573571D01*
X7833571Y-17611667D01*
X7833571Y-17659286D01*
X7824048Y-17697381D01*
X7814524Y-17716429D01*
X7805000Y-17725952D01*
X7785952Y-17735476D01*
X7766905Y-17735476D01*
X7747857Y-17725952D01*
X7738333Y-17716429D01*
X7728809Y-17697381D01*
X7719286Y-17659286D01*
X7719286Y-17611667D01*
X7728809Y-17573571D01*
X7738333Y-17554524D01*
X7747857Y-17545000D01*
X7766905Y-17535476D01*
X7957381Y-17535476D02*
X7976428Y-17535476D01*
X7995476Y-17545000D01*
X8005000Y-17554524D01*
X8014524Y-17573571D01*
X8024048Y-17611667D01*
X8024048Y-17659286D01*
X8014524Y-17697381D01*
X8005000Y-17716429D01*
X7995476Y-17725952D01*
X7976428Y-17735476D01*
X7957381Y-17735476D01*
X7938333Y-17725952D01*
X7928809Y-17716429D01*
X7919286Y-17697381D01*
X7909762Y-17659286D01*
X7909762Y-17611667D01*
X7919286Y-17573571D01*
X7928809Y-17554524D01*
X7938333Y-17545000D01*
X7957381Y-17535476D01*
X8109762Y-17735476D02*
X8109762Y-17602143D01*
X8109762Y-17621190D02*
X8119286Y-17611667D01*
X8138333Y-17602143D01*
X8166905Y-17602143D01*
X8185952Y-17611667D01*
X8195476Y-17630714D01*
X8195476Y-17735476D01*
X8195476Y-17630714D02*
X8205000Y-17611667D01*
X8224048Y-17602143D01*
X8252619Y-17602143D01*
X8271667Y-17611667D01*
X8281190Y-17630714D01*
X8281190Y-17735476D01*
X8376428Y-17735476D02*
X8376428Y-17602143D01*
X8376428Y-17621190D02*
X8385952Y-17611667D01*
X8405000Y-17602143D01*
X8433571Y-17602143D01*
X8452619Y-17611667D01*
X8462143Y-17630714D01*
X8462143Y-17735476D01*
X8462143Y-17630714D02*
X8471667Y-17611667D01*
X8490714Y-17602143D01*
X8519286Y-17602143D01*
X8538333Y-17611667D01*
X8547857Y-17630714D01*
X8547857Y-17735476D01*
X8938333Y-17525952D02*
X8766905Y-17783095D01*
X9195476Y-17535476D02*
X9214524Y-17535476D01*
X9233571Y-17545000D01*
X9243095Y-17554524D01*
X9252619Y-17573571D01*
X9262143Y-17611667D01*
X9262143Y-17659286D01*
X9252619Y-17697381D01*
X9243095Y-17716429D01*
X9233571Y-17725952D01*
X9214524Y-17735476D01*
X9195476Y-17735476D01*
X9176429Y-17725952D01*
X9166905Y-17716429D01*
X9157381Y-17697381D01*
X9147857Y-17659286D01*
X9147857Y-17611667D01*
X9157381Y-17573571D01*
X9166905Y-17554524D01*
X9176429Y-17545000D01*
X9195476Y-17535476D01*
X9347857Y-17716429D02*
X9357381Y-17725952D01*
X9347857Y-17735476D01*
X9338333Y-17725952D01*
X9347857Y-17716429D01*
X9347857Y-17735476D01*
X9481190Y-17535476D02*
X9500238Y-17535476D01*
X9519286Y-17545000D01*
X9528810Y-17554524D01*
X9538333Y-17573571D01*
X9547857Y-17611667D01*
X9547857Y-17659286D01*
X9538333Y-17697381D01*
X9528810Y-17716429D01*
X9519286Y-17725952D01*
X9500238Y-17735476D01*
X9481190Y-17735476D01*
X9462143Y-17725952D01*
X9452619Y-17716429D01*
X9443095Y-17697381D01*
X9433571Y-17659286D01*
X9433571Y-17611667D01*
X9443095Y-17573571D01*
X9452619Y-17554524D01*
X9462143Y-17545000D01*
X9481190Y-17535476D01*
X9671667Y-17535476D02*
X9690714Y-17535476D01*
X9709762Y-17545000D01*
X9719286Y-17554524D01*
X9728810Y-17573571D01*
X9738333Y-17611667D01*
X9738333Y-17659286D01*
X9728810Y-17697381D01*
X9719286Y-17716429D01*
X9709762Y-17725952D01*
X9690714Y-17735476D01*
X9671667Y-17735476D01*
X9652619Y-17725952D01*
X9643095Y-17716429D01*
X9633571Y-17697381D01*
X9624048Y-17659286D01*
X9624048Y-17611667D01*
X9633571Y-17573571D01*
X9643095Y-17554524D01*
X9652619Y-17545000D01*
X9671667Y-17535476D01*
X9805000Y-17535476D02*
X9938333Y-17535476D01*
X9852619Y-17735476D01*
X10024048Y-17735476D02*
X10062143Y-17735476D01*
X10081190Y-17725952D01*
X10090714Y-17716429D01*
X10109762Y-17687857D01*
X10119286Y-17649762D01*
X10119286Y-17573571D01*
X10109762Y-17554524D01*
X10100238Y-17545000D01*
X10081190Y-17535476D01*
X10043095Y-17535476D01*
X10024048Y-17545000D01*
X10014524Y-17554524D01*
X10005000Y-17573571D01*
X10005000Y-17621190D01*
X10014524Y-17640238D01*
X10024048Y-17649762D01*
X10043095Y-17659286D01*
X10081190Y-17659286D01*
X10100238Y-17649762D01*
X10109762Y-17640238D01*
X10119286Y-17621190D01*
X10195476Y-17535476D02*
X10195476Y-17573571D01*
X10271667Y-17535476D02*
X10271667Y-17573571D01*
X10566905Y-17811667D02*
X10557381Y-17802143D01*
X10538333Y-17773571D01*
X10528810Y-17754524D01*
X10519286Y-17725952D01*
X10509762Y-17678333D01*
X10509762Y-17640238D01*
X10519286Y-17592619D01*
X10528810Y-17564048D01*
X10538333Y-17545000D01*
X10557381Y-17516429D01*
X10566905Y-17506905D01*
X10728810Y-17602143D02*
X10728810Y-17735476D01*
X10681190Y-17525952D02*
X10633571Y-17668810D01*
X10757381Y-17668810D01*
X10985952Y-17735476D02*
X10985952Y-17535476D01*
X11071667Y-17735476D02*
X11071667Y-17630714D01*
X11062143Y-17611667D01*
X11043095Y-17602143D01*
X11014524Y-17602143D01*
X10995476Y-17611667D01*
X10985952Y-17621190D01*
X11195476Y-17735476D02*
X11176429Y-17725952D01*
X11166905Y-17716429D01*
X11157381Y-17697381D01*
X11157381Y-17640238D01*
X11166905Y-17621190D01*
X11176429Y-17611667D01*
X11195476Y-17602143D01*
X11224048Y-17602143D01*
X11243095Y-17611667D01*
X11252619Y-17621190D01*
X11262143Y-17640238D01*
X11262143Y-17697381D01*
X11252619Y-17716429D01*
X11243095Y-17725952D01*
X11224048Y-17735476D01*
X11195476Y-17735476D01*
X11376428Y-17735476D02*
X11357381Y-17725952D01*
X11347857Y-17706905D01*
X11347857Y-17535476D01*
X11528809Y-17725952D02*
X11509762Y-17735476D01*
X11471667Y-17735476D01*
X11452619Y-17725952D01*
X11443095Y-17706905D01*
X11443095Y-17630714D01*
X11452619Y-17611667D01*
X11471667Y-17602143D01*
X11509762Y-17602143D01*
X11528809Y-17611667D01*
X11538333Y-17630714D01*
X11538333Y-17649762D01*
X11443095Y-17668810D01*
X11614524Y-17725952D02*
X11633571Y-17735476D01*
X11671667Y-17735476D01*
X11690714Y-17725952D01*
X11700238Y-17706905D01*
X11700238Y-17697381D01*
X11690714Y-17678333D01*
X11671667Y-17668810D01*
X11643095Y-17668810D01*
X11624048Y-17659286D01*
X11614524Y-17640238D01*
X11614524Y-17630714D01*
X11624048Y-17611667D01*
X11643095Y-17602143D01*
X11671667Y-17602143D01*
X11690714Y-17611667D01*
X11766905Y-17811667D02*
X11776428Y-17802143D01*
X11795476Y-17773571D01*
X11805000Y-17754524D01*
X11814524Y-17725952D01*
X11824048Y-17678333D01*
X11824048Y-17640238D01*
X11814524Y-17592619D01*
X11805000Y-17564048D01*
X11795476Y-17545000D01*
X11776428Y-17516429D01*
X11766905Y-17506905D01*
D13*
X6995000Y-17909000D02*
G75*
G03*
X6995000Y-17909000I-15000J0D01*
G01*
D11*
X7290714Y-17799476D02*
X7309762Y-17799476D01*
X7328809Y-17809000D01*
X7338333Y-17818524D01*
X7347857Y-17837571D01*
X7357381Y-17875667D01*
X7357381Y-17923286D01*
X7347857Y-17961381D01*
X7338333Y-17980429D01*
X7328809Y-17989952D01*
X7309762Y-17999476D01*
X7290714Y-17999476D01*
X7271667Y-17989952D01*
X7262143Y-17980429D01*
X7252619Y-17961381D01*
X7243095Y-17923286D01*
X7243095Y-17875667D01*
X7252619Y-17837571D01*
X7262143Y-17818524D01*
X7271667Y-17809000D01*
X7290714Y-17799476D01*
X7443095Y-17980429D02*
X7452619Y-17989952D01*
X7443095Y-17999476D01*
X7433571Y-17989952D01*
X7443095Y-17980429D01*
X7443095Y-17999476D01*
X7519286Y-17799476D02*
X7643095Y-17799476D01*
X7576428Y-17875667D01*
X7605000Y-17875667D01*
X7624048Y-17885190D01*
X7633571Y-17894714D01*
X7643095Y-17913762D01*
X7643095Y-17961381D01*
X7633571Y-17980429D01*
X7624048Y-17989952D01*
X7605000Y-17999476D01*
X7547857Y-17999476D01*
X7528809Y-17989952D01*
X7519286Y-17980429D01*
X7766905Y-17799476D02*
X7785952Y-17799476D01*
X7805000Y-17809000D01*
X7814524Y-17818524D01*
X7824048Y-17837571D01*
X7833571Y-17875667D01*
X7833571Y-17923286D01*
X7824048Y-17961381D01*
X7814524Y-17980429D01*
X7805000Y-17989952D01*
X7785952Y-17999476D01*
X7766905Y-17999476D01*
X7747857Y-17989952D01*
X7738333Y-17980429D01*
X7728809Y-17961381D01*
X7719286Y-17923286D01*
X7719286Y-17875667D01*
X7728809Y-17837571D01*
X7738333Y-17818524D01*
X7747857Y-17809000D01*
X7766905Y-17799476D01*
X7957381Y-17799476D02*
X7976428Y-17799476D01*
X7995476Y-17809000D01*
X8005000Y-17818524D01*
X8014524Y-17837571D01*
X8024048Y-17875667D01*
X8024048Y-17923286D01*
X8014524Y-17961381D01*
X8005000Y-17980429D01*
X7995476Y-17989952D01*
X7976428Y-17999476D01*
X7957381Y-17999476D01*
X7938333Y-17989952D01*
X7928809Y-17980429D01*
X7919286Y-17961381D01*
X7909762Y-17923286D01*
X7909762Y-17875667D01*
X7919286Y-17837571D01*
X7928809Y-17818524D01*
X7938333Y-17809000D01*
X7957381Y-17799476D01*
X8109762Y-17999476D02*
X8109762Y-17866143D01*
X8109762Y-17885190D02*
X8119286Y-17875667D01*
X8138333Y-17866143D01*
X8166905Y-17866143D01*
X8185952Y-17875667D01*
X8195476Y-17894714D01*
X8195476Y-17999476D01*
X8195476Y-17894714D02*
X8205000Y-17875667D01*
X8224048Y-17866143D01*
X8252619Y-17866143D01*
X8271667Y-17875667D01*
X8281190Y-17894714D01*
X8281190Y-17999476D01*
X8376428Y-17999476D02*
X8376428Y-17866143D01*
X8376428Y-17885190D02*
X8385952Y-17875667D01*
X8405000Y-17866143D01*
X8433571Y-17866143D01*
X8452619Y-17875667D01*
X8462143Y-17894714D01*
X8462143Y-17999476D01*
X8462143Y-17894714D02*
X8471667Y-17875667D01*
X8490714Y-17866143D01*
X8519286Y-17866143D01*
X8538333Y-17875667D01*
X8547857Y-17894714D01*
X8547857Y-17999476D01*
X8938333Y-17789952D02*
X8766905Y-18047095D01*
X9195476Y-17799476D02*
X9214524Y-17799476D01*
X9233571Y-17809000D01*
X9243095Y-17818524D01*
X9252619Y-17837571D01*
X9262143Y-17875667D01*
X9262143Y-17923286D01*
X9252619Y-17961381D01*
X9243095Y-17980429D01*
X9233571Y-17989952D01*
X9214524Y-17999476D01*
X9195476Y-17999476D01*
X9176429Y-17989952D01*
X9166905Y-17980429D01*
X9157381Y-17961381D01*
X9147857Y-17923286D01*
X9147857Y-17875667D01*
X9157381Y-17837571D01*
X9166905Y-17818524D01*
X9176429Y-17809000D01*
X9195476Y-17799476D01*
X9347857Y-17980429D02*
X9357381Y-17989952D01*
X9347857Y-17999476D01*
X9338333Y-17989952D01*
X9347857Y-17980429D01*
X9347857Y-17999476D01*
X9481190Y-17799476D02*
X9500238Y-17799476D01*
X9519286Y-17809000D01*
X9528810Y-17818524D01*
X9538333Y-17837571D01*
X9547857Y-17875667D01*
X9547857Y-17923286D01*
X9538333Y-17961381D01*
X9528810Y-17980429D01*
X9519286Y-17989952D01*
X9500238Y-17999476D01*
X9481190Y-17999476D01*
X9462143Y-17989952D01*
X9452619Y-17980429D01*
X9443095Y-17961381D01*
X9433571Y-17923286D01*
X9433571Y-17875667D01*
X9443095Y-17837571D01*
X9452619Y-17818524D01*
X9462143Y-17809000D01*
X9481190Y-17799476D01*
X9738333Y-17999476D02*
X9624048Y-17999476D01*
X9681190Y-17999476D02*
X9681190Y-17799476D01*
X9662143Y-17828048D01*
X9643095Y-17847095D01*
X9624048Y-17856619D01*
X9928810Y-17999476D02*
X9814524Y-17999476D01*
X9871667Y-17999476D02*
X9871667Y-17799476D01*
X9852619Y-17828048D01*
X9833571Y-17847095D01*
X9814524Y-17856619D01*
X10043095Y-17885190D02*
X10024048Y-17875667D01*
X10014524Y-17866143D01*
X10005000Y-17847095D01*
X10005000Y-17837571D01*
X10014524Y-17818524D01*
X10024048Y-17809000D01*
X10043095Y-17799476D01*
X10081190Y-17799476D01*
X10100238Y-17809000D01*
X10109762Y-17818524D01*
X10119286Y-17837571D01*
X10119286Y-17847095D01*
X10109762Y-17866143D01*
X10100238Y-17875667D01*
X10081190Y-17885190D01*
X10043095Y-17885190D01*
X10024048Y-17894714D01*
X10014524Y-17904238D01*
X10005000Y-17923286D01*
X10005000Y-17961381D01*
X10014524Y-17980429D01*
X10024048Y-17989952D01*
X10043095Y-17999476D01*
X10081190Y-17999476D01*
X10100238Y-17989952D01*
X10109762Y-17980429D01*
X10119286Y-17961381D01*
X10119286Y-17923286D01*
X10109762Y-17904238D01*
X10100238Y-17894714D01*
X10081190Y-17885190D01*
X10195476Y-17799476D02*
X10195476Y-17837571D01*
X10271667Y-17799476D02*
X10271667Y-17837571D01*
X10566905Y-18075667D02*
X10557381Y-18066143D01*
X10538333Y-18037571D01*
X10528810Y-18018524D01*
X10519286Y-17989952D01*
X10509762Y-17942333D01*
X10509762Y-17904238D01*
X10519286Y-17856619D01*
X10528810Y-17828048D01*
X10538333Y-17809000D01*
X10557381Y-17780429D01*
X10566905Y-17770905D01*
X10671667Y-17885190D02*
X10652619Y-17875667D01*
X10643095Y-17866143D01*
X10633571Y-17847095D01*
X10633571Y-17837571D01*
X10643095Y-17818524D01*
X10652619Y-17809000D01*
X10671667Y-17799476D01*
X10709762Y-17799476D01*
X10728810Y-17809000D01*
X10738333Y-17818524D01*
X10747857Y-17837571D01*
X10747857Y-17847095D01*
X10738333Y-17866143D01*
X10728810Y-17875667D01*
X10709762Y-17885190D01*
X10671667Y-17885190D01*
X10652619Y-17894714D01*
X10643095Y-17904238D01*
X10633571Y-17923286D01*
X10633571Y-17961381D01*
X10643095Y-17980429D01*
X10652619Y-17989952D01*
X10671667Y-17999476D01*
X10709762Y-17999476D01*
X10728810Y-17989952D01*
X10738333Y-17980429D01*
X10747857Y-17961381D01*
X10747857Y-17923286D01*
X10738333Y-17904238D01*
X10728810Y-17894714D01*
X10709762Y-17885190D01*
X10814524Y-17799476D02*
X10947857Y-17799476D01*
X10862143Y-17999476D01*
X11119286Y-17799476D02*
X11024048Y-17799476D01*
X11014524Y-17894714D01*
X11024048Y-17885190D01*
X11043095Y-17875667D01*
X11090714Y-17875667D01*
X11109762Y-17885190D01*
X11119286Y-17894714D01*
X11128810Y-17913762D01*
X11128810Y-17961381D01*
X11119286Y-17980429D01*
X11109762Y-17989952D01*
X11090714Y-17999476D01*
X11043095Y-17999476D01*
X11024048Y-17989952D01*
X11014524Y-17980429D01*
X11366905Y-17999476D02*
X11366905Y-17799476D01*
X11452619Y-17999476D02*
X11452619Y-17894714D01*
X11443095Y-17875667D01*
X11424048Y-17866143D01*
X11395476Y-17866143D01*
X11376428Y-17875667D01*
X11366905Y-17885190D01*
X11576428Y-17999476D02*
X11557381Y-17989952D01*
X11547857Y-17980429D01*
X11538333Y-17961381D01*
X11538333Y-17904238D01*
X11547857Y-17885190D01*
X11557381Y-17875667D01*
X11576428Y-17866143D01*
X11605000Y-17866143D01*
X11624048Y-17875667D01*
X11633571Y-17885190D01*
X11643095Y-17904238D01*
X11643095Y-17961381D01*
X11633571Y-17980429D01*
X11624048Y-17989952D01*
X11605000Y-17999476D01*
X11576428Y-17999476D01*
X11757381Y-17999476D02*
X11738333Y-17989952D01*
X11728809Y-17970905D01*
X11728809Y-17799476D01*
X11909762Y-17989952D02*
X11890714Y-17999476D01*
X11852619Y-17999476D01*
X11833571Y-17989952D01*
X11824048Y-17970905D01*
X11824048Y-17894714D01*
X11833571Y-17875667D01*
X11852619Y-17866143D01*
X11890714Y-17866143D01*
X11909762Y-17875667D01*
X11919286Y-17894714D01*
X11919286Y-17913762D01*
X11824048Y-17932810D01*
X11995476Y-17989952D02*
X12014524Y-17999476D01*
X12052619Y-17999476D01*
X12071667Y-17989952D01*
X12081190Y-17970905D01*
X12081190Y-17961381D01*
X12071667Y-17942333D01*
X12052619Y-17932810D01*
X12024048Y-17932810D01*
X12005000Y-17923286D01*
X11995476Y-17904238D01*
X11995476Y-17894714D01*
X12005000Y-17875667D01*
X12024048Y-17866143D01*
X12052619Y-17866143D01*
X12071667Y-17875667D01*
X12147857Y-18075667D02*
X12157381Y-18066143D01*
X12176428Y-18037571D01*
X12185952Y-18018524D01*
X12195476Y-17989952D01*
X12205000Y-17942333D01*
X12205000Y-17904238D01*
X12195476Y-17856619D01*
X12185952Y-17828048D01*
X12176428Y-17809000D01*
X12157381Y-17780429D01*
X12147857Y-17770905D01*
D14*
X6975000Y-18153000D02*
X6975000Y-18193000D01*
X6955000Y-18173000D02*
X6995000Y-18173000D01*
D11*
X7290714Y-18063476D02*
X7309762Y-18063476D01*
X7328809Y-18073000D01*
X7338333Y-18082524D01*
X7347857Y-18101571D01*
X7357381Y-18139667D01*
X7357381Y-18187286D01*
X7347857Y-18225381D01*
X7338333Y-18244429D01*
X7328809Y-18253952D01*
X7309762Y-18263476D01*
X7290714Y-18263476D01*
X7271667Y-18253952D01*
X7262143Y-18244429D01*
X7252619Y-18225381D01*
X7243095Y-18187286D01*
X7243095Y-18139667D01*
X7252619Y-18101571D01*
X7262143Y-18082524D01*
X7271667Y-18073000D01*
X7290714Y-18063476D01*
X7443095Y-18244429D02*
X7452619Y-18253952D01*
X7443095Y-18263476D01*
X7433571Y-18253952D01*
X7443095Y-18244429D01*
X7443095Y-18263476D01*
X7624048Y-18130143D02*
X7624048Y-18263476D01*
X7576428Y-18053952D02*
X7528809Y-18196810D01*
X7652619Y-18196810D01*
X7766905Y-18063476D02*
X7785952Y-18063476D01*
X7805000Y-18073000D01*
X7814524Y-18082524D01*
X7824048Y-18101571D01*
X7833571Y-18139667D01*
X7833571Y-18187286D01*
X7824048Y-18225381D01*
X7814524Y-18244429D01*
X7805000Y-18253952D01*
X7785952Y-18263476D01*
X7766905Y-18263476D01*
X7747857Y-18253952D01*
X7738333Y-18244429D01*
X7728809Y-18225381D01*
X7719286Y-18187286D01*
X7719286Y-18139667D01*
X7728809Y-18101571D01*
X7738333Y-18082524D01*
X7747857Y-18073000D01*
X7766905Y-18063476D01*
X7957381Y-18063476D02*
X7976428Y-18063476D01*
X7995476Y-18073000D01*
X8005000Y-18082524D01*
X8014524Y-18101571D01*
X8024048Y-18139667D01*
X8024048Y-18187286D01*
X8014524Y-18225381D01*
X8005000Y-18244429D01*
X7995476Y-18253952D01*
X7976428Y-18263476D01*
X7957381Y-18263476D01*
X7938333Y-18253952D01*
X7928809Y-18244429D01*
X7919286Y-18225381D01*
X7909762Y-18187286D01*
X7909762Y-18139667D01*
X7919286Y-18101571D01*
X7928809Y-18082524D01*
X7938333Y-18073000D01*
X7957381Y-18063476D01*
X8109762Y-18263476D02*
X8109762Y-18130143D01*
X8109762Y-18149190D02*
X8119286Y-18139667D01*
X8138333Y-18130143D01*
X8166905Y-18130143D01*
X8185952Y-18139667D01*
X8195476Y-18158714D01*
X8195476Y-18263476D01*
X8195476Y-18158714D02*
X8205000Y-18139667D01*
X8224048Y-18130143D01*
X8252619Y-18130143D01*
X8271667Y-18139667D01*
X8281190Y-18158714D01*
X8281190Y-18263476D01*
X8376428Y-18263476D02*
X8376428Y-18130143D01*
X8376428Y-18149190D02*
X8385952Y-18139667D01*
X8405000Y-18130143D01*
X8433571Y-18130143D01*
X8452619Y-18139667D01*
X8462143Y-18158714D01*
X8462143Y-18263476D01*
X8462143Y-18158714D02*
X8471667Y-18139667D01*
X8490714Y-18130143D01*
X8519286Y-18130143D01*
X8538333Y-18139667D01*
X8547857Y-18158714D01*
X8547857Y-18263476D01*
X8938333Y-18053952D02*
X8766905Y-18311095D01*
X9195476Y-18063476D02*
X9214524Y-18063476D01*
X9233571Y-18073000D01*
X9243095Y-18082524D01*
X9252619Y-18101571D01*
X9262143Y-18139667D01*
X9262143Y-18187286D01*
X9252619Y-18225381D01*
X9243095Y-18244429D01*
X9233571Y-18253952D01*
X9214524Y-18263476D01*
X9195476Y-18263476D01*
X9176429Y-18253952D01*
X9166905Y-18244429D01*
X9157381Y-18225381D01*
X9147857Y-18187286D01*
X9147857Y-18139667D01*
X9157381Y-18101571D01*
X9166905Y-18082524D01*
X9176429Y-18073000D01*
X9195476Y-18063476D01*
X9347857Y-18244429D02*
X9357381Y-18253952D01*
X9347857Y-18263476D01*
X9338333Y-18253952D01*
X9347857Y-18244429D01*
X9347857Y-18263476D01*
X9481190Y-18063476D02*
X9500238Y-18063476D01*
X9519286Y-18073000D01*
X9528810Y-18082524D01*
X9538333Y-18101571D01*
X9547857Y-18139667D01*
X9547857Y-18187286D01*
X9538333Y-18225381D01*
X9528810Y-18244429D01*
X9519286Y-18253952D01*
X9500238Y-18263476D01*
X9481190Y-18263476D01*
X9462143Y-18253952D01*
X9452619Y-18244429D01*
X9443095Y-18225381D01*
X9433571Y-18187286D01*
X9433571Y-18139667D01*
X9443095Y-18101571D01*
X9452619Y-18082524D01*
X9462143Y-18073000D01*
X9481190Y-18063476D01*
X9738333Y-18263476D02*
X9624048Y-18263476D01*
X9681190Y-18263476D02*
X9681190Y-18063476D01*
X9662143Y-18092048D01*
X9643095Y-18111095D01*
X9624048Y-18120619D01*
X9919286Y-18063476D02*
X9824048Y-18063476D01*
X9814524Y-18158714D01*
X9824048Y-18149190D01*
X9843095Y-18139667D01*
X9890714Y-18139667D01*
X9909762Y-18149190D01*
X9919286Y-18158714D01*
X9928810Y-18177762D01*
X9928810Y-18225381D01*
X9919286Y-18244429D01*
X9909762Y-18253952D01*
X9890714Y-18263476D01*
X9843095Y-18263476D01*
X9824048Y-18253952D01*
X9814524Y-18244429D01*
X9995476Y-18063476D02*
X10128810Y-18063476D01*
X10043095Y-18263476D01*
X10195476Y-18063476D02*
X10195476Y-18101571D01*
X10271667Y-18063476D02*
X10271667Y-18101571D01*
X10566905Y-18339667D02*
X10557381Y-18330143D01*
X10538333Y-18301571D01*
X10528810Y-18282524D01*
X10519286Y-18253952D01*
X10509762Y-18206333D01*
X10509762Y-18168238D01*
X10519286Y-18120619D01*
X10528810Y-18092048D01*
X10538333Y-18073000D01*
X10557381Y-18044429D01*
X10566905Y-18034905D01*
X10747857Y-18263476D02*
X10633571Y-18263476D01*
X10690714Y-18263476D02*
X10690714Y-18063476D01*
X10671667Y-18092048D01*
X10652619Y-18111095D01*
X10633571Y-18120619D01*
X10919286Y-18130143D02*
X10919286Y-18263476D01*
X10871667Y-18053952D02*
X10824048Y-18196810D01*
X10947857Y-18196810D01*
X11062143Y-18063476D02*
X11081190Y-18063476D01*
X11100238Y-18073000D01*
X11109762Y-18082524D01*
X11119286Y-18101571D01*
X11128810Y-18139667D01*
X11128810Y-18187286D01*
X11119286Y-18225381D01*
X11109762Y-18244429D01*
X11100238Y-18253952D01*
X11081190Y-18263476D01*
X11062143Y-18263476D01*
X11043095Y-18253952D01*
X11033571Y-18244429D01*
X11024048Y-18225381D01*
X11014524Y-18187286D01*
X11014524Y-18139667D01*
X11024048Y-18101571D01*
X11033571Y-18082524D01*
X11043095Y-18073000D01*
X11062143Y-18063476D01*
X11366905Y-18263476D02*
X11366905Y-18063476D01*
X11452619Y-18263476D02*
X11452619Y-18158714D01*
X11443095Y-18139667D01*
X11424048Y-18130143D01*
X11395476Y-18130143D01*
X11376428Y-18139667D01*
X11366905Y-18149190D01*
X11576428Y-18263476D02*
X11557381Y-18253952D01*
X11547857Y-18244429D01*
X11538333Y-18225381D01*
X11538333Y-18168238D01*
X11547857Y-18149190D01*
X11557381Y-18139667D01*
X11576428Y-18130143D01*
X11605000Y-18130143D01*
X11624048Y-18139667D01*
X11633571Y-18149190D01*
X11643095Y-18168238D01*
X11643095Y-18225381D01*
X11633571Y-18244429D01*
X11624048Y-18253952D01*
X11605000Y-18263476D01*
X11576428Y-18263476D01*
X11757381Y-18263476D02*
X11738333Y-18253952D01*
X11728809Y-18234905D01*
X11728809Y-18063476D01*
X11909762Y-18253952D02*
X11890714Y-18263476D01*
X11852619Y-18263476D01*
X11833571Y-18253952D01*
X11824048Y-18234905D01*
X11824048Y-18158714D01*
X11833571Y-18139667D01*
X11852619Y-18130143D01*
X11890714Y-18130143D01*
X11909762Y-18139667D01*
X11919286Y-18158714D01*
X11919286Y-18177762D01*
X11824048Y-18196810D01*
X11995476Y-18253952D02*
X12014524Y-18263476D01*
X12052619Y-18263476D01*
X12071667Y-18253952D01*
X12081190Y-18234905D01*
X12081190Y-18225381D01*
X12071667Y-18206333D01*
X12052619Y-18196810D01*
X12024048Y-18196810D01*
X12005000Y-18187286D01*
X11995476Y-18168238D01*
X11995476Y-18158714D01*
X12005000Y-18139667D01*
X12024048Y-18130143D01*
X12052619Y-18130143D01*
X12071667Y-18139667D01*
X12147857Y-18339667D02*
X12157381Y-18330143D01*
X12176428Y-18301571D01*
X12185952Y-18282524D01*
X12195476Y-18253952D01*
X12205000Y-18206333D01*
X12205000Y-18168238D01*
X12195476Y-18120619D01*
X12185952Y-18092048D01*
X12176428Y-18073000D01*
X12157381Y-18044429D01*
X12147857Y-18034905D01*
D15*
X6987678Y-18454678D02*
X6987678Y-18419322D01*
X6952322Y-18419322D01*
X6952322Y-18454678D01*
X6987678Y-18454678D01*
D11*
X7290714Y-18327476D02*
X7309762Y-18327476D01*
X7328809Y-18337000D01*
X7338333Y-18346524D01*
X7347857Y-18365571D01*
X7357381Y-18403667D01*
X7357381Y-18451286D01*
X7347857Y-18489381D01*
X7338333Y-18508429D01*
X7328809Y-18517952D01*
X7309762Y-18527476D01*
X7290714Y-18527476D01*
X7271667Y-18517952D01*
X7262143Y-18508429D01*
X7252619Y-18489381D01*
X7243095Y-18451286D01*
X7243095Y-18403667D01*
X7252619Y-18365571D01*
X7262143Y-18346524D01*
X7271667Y-18337000D01*
X7290714Y-18327476D01*
X7443095Y-18508429D02*
X7452619Y-18517952D01*
X7443095Y-18527476D01*
X7433571Y-18517952D01*
X7443095Y-18508429D01*
X7443095Y-18527476D01*
X7633571Y-18327476D02*
X7538333Y-18327476D01*
X7528809Y-18422714D01*
X7538333Y-18413190D01*
X7557381Y-18403667D01*
X7605000Y-18403667D01*
X7624048Y-18413190D01*
X7633571Y-18422714D01*
X7643095Y-18441762D01*
X7643095Y-18489381D01*
X7633571Y-18508429D01*
X7624048Y-18517952D01*
X7605000Y-18527476D01*
X7557381Y-18527476D01*
X7538333Y-18517952D01*
X7528809Y-18508429D01*
X7766905Y-18327476D02*
X7785952Y-18327476D01*
X7805000Y-18337000D01*
X7814524Y-18346524D01*
X7824048Y-18365571D01*
X7833571Y-18403667D01*
X7833571Y-18451286D01*
X7824048Y-18489381D01*
X7814524Y-18508429D01*
X7805000Y-18517952D01*
X7785952Y-18527476D01*
X7766905Y-18527476D01*
X7747857Y-18517952D01*
X7738333Y-18508429D01*
X7728809Y-18489381D01*
X7719286Y-18451286D01*
X7719286Y-18403667D01*
X7728809Y-18365571D01*
X7738333Y-18346524D01*
X7747857Y-18337000D01*
X7766905Y-18327476D01*
X7957381Y-18327476D02*
X7976428Y-18327476D01*
X7995476Y-18337000D01*
X8005000Y-18346524D01*
X8014524Y-18365571D01*
X8024048Y-18403667D01*
X8024048Y-18451286D01*
X8014524Y-18489381D01*
X8005000Y-18508429D01*
X7995476Y-18517952D01*
X7976428Y-18527476D01*
X7957381Y-18527476D01*
X7938333Y-18517952D01*
X7928809Y-18508429D01*
X7919286Y-18489381D01*
X7909762Y-18451286D01*
X7909762Y-18403667D01*
X7919286Y-18365571D01*
X7928809Y-18346524D01*
X7938333Y-18337000D01*
X7957381Y-18327476D01*
X8109762Y-18527476D02*
X8109762Y-18394143D01*
X8109762Y-18413190D02*
X8119286Y-18403667D01*
X8138333Y-18394143D01*
X8166905Y-18394143D01*
X8185952Y-18403667D01*
X8195476Y-18422714D01*
X8195476Y-18527476D01*
X8195476Y-18422714D02*
X8205000Y-18403667D01*
X8224048Y-18394143D01*
X8252619Y-18394143D01*
X8271667Y-18403667D01*
X8281190Y-18422714D01*
X8281190Y-18527476D01*
X8376428Y-18527476D02*
X8376428Y-18394143D01*
X8376428Y-18413190D02*
X8385952Y-18403667D01*
X8405000Y-18394143D01*
X8433571Y-18394143D01*
X8452619Y-18403667D01*
X8462143Y-18422714D01*
X8462143Y-18527476D01*
X8462143Y-18422714D02*
X8471667Y-18403667D01*
X8490714Y-18394143D01*
X8519286Y-18394143D01*
X8538333Y-18403667D01*
X8547857Y-18422714D01*
X8547857Y-18527476D01*
X8938333Y-18317952D02*
X8766905Y-18575095D01*
X9195476Y-18327476D02*
X9214524Y-18327476D01*
X9233571Y-18337000D01*
X9243095Y-18346524D01*
X9252619Y-18365571D01*
X9262143Y-18403667D01*
X9262143Y-18451286D01*
X9252619Y-18489381D01*
X9243095Y-18508429D01*
X9233571Y-18517952D01*
X9214524Y-18527476D01*
X9195476Y-18527476D01*
X9176429Y-18517952D01*
X9166905Y-18508429D01*
X9157381Y-18489381D01*
X9147857Y-18451286D01*
X9147857Y-18403667D01*
X9157381Y-18365571D01*
X9166905Y-18346524D01*
X9176429Y-18337000D01*
X9195476Y-18327476D01*
X9347857Y-18508429D02*
X9357381Y-18517952D01*
X9347857Y-18527476D01*
X9338333Y-18517952D01*
X9347857Y-18508429D01*
X9347857Y-18527476D01*
X9481190Y-18327476D02*
X9500238Y-18327476D01*
X9519286Y-18337000D01*
X9528810Y-18346524D01*
X9538333Y-18365571D01*
X9547857Y-18403667D01*
X9547857Y-18451286D01*
X9538333Y-18489381D01*
X9528810Y-18508429D01*
X9519286Y-18517952D01*
X9500238Y-18527476D01*
X9481190Y-18527476D01*
X9462143Y-18517952D01*
X9452619Y-18508429D01*
X9443095Y-18489381D01*
X9433571Y-18451286D01*
X9433571Y-18403667D01*
X9443095Y-18365571D01*
X9452619Y-18346524D01*
X9462143Y-18337000D01*
X9481190Y-18327476D01*
X9738333Y-18527476D02*
X9624048Y-18527476D01*
X9681190Y-18527476D02*
X9681190Y-18327476D01*
X9662143Y-18356048D01*
X9643095Y-18375095D01*
X9624048Y-18384619D01*
X9833571Y-18527476D02*
X9871667Y-18527476D01*
X9890714Y-18517952D01*
X9900238Y-18508429D01*
X9919286Y-18479857D01*
X9928810Y-18441762D01*
X9928810Y-18365571D01*
X9919286Y-18346524D01*
X9909762Y-18337000D01*
X9890714Y-18327476D01*
X9852619Y-18327476D01*
X9833571Y-18337000D01*
X9824048Y-18346524D01*
X9814524Y-18365571D01*
X9814524Y-18413190D01*
X9824048Y-18432238D01*
X9833571Y-18441762D01*
X9852619Y-18451286D01*
X9890714Y-18451286D01*
X9909762Y-18441762D01*
X9919286Y-18432238D01*
X9928810Y-18413190D01*
X9995476Y-18327476D02*
X10128810Y-18327476D01*
X10043095Y-18527476D01*
X10195476Y-18327476D02*
X10195476Y-18365571D01*
X10271667Y-18327476D02*
X10271667Y-18365571D01*
X10566905Y-18603667D02*
X10557381Y-18594143D01*
X10538333Y-18565571D01*
X10528810Y-18546524D01*
X10519286Y-18517952D01*
X10509762Y-18470333D01*
X10509762Y-18432238D01*
X10519286Y-18384619D01*
X10528810Y-18356048D01*
X10538333Y-18337000D01*
X10557381Y-18308429D01*
X10566905Y-18298905D01*
X10738333Y-18327476D02*
X10643095Y-18327476D01*
X10633571Y-18422714D01*
X10643095Y-18413190D01*
X10662143Y-18403667D01*
X10709762Y-18403667D01*
X10728810Y-18413190D01*
X10738333Y-18422714D01*
X10747857Y-18441762D01*
X10747857Y-18489381D01*
X10738333Y-18508429D01*
X10728810Y-18517952D01*
X10709762Y-18527476D01*
X10662143Y-18527476D01*
X10643095Y-18517952D01*
X10633571Y-18508429D01*
X10985952Y-18527476D02*
X10985952Y-18327476D01*
X11071667Y-18527476D02*
X11071667Y-18422714D01*
X11062143Y-18403667D01*
X11043095Y-18394143D01*
X11014524Y-18394143D01*
X10995476Y-18403667D01*
X10985952Y-18413190D01*
X11195476Y-18527476D02*
X11176429Y-18517952D01*
X11166905Y-18508429D01*
X11157381Y-18489381D01*
X11157381Y-18432238D01*
X11166905Y-18413190D01*
X11176429Y-18403667D01*
X11195476Y-18394143D01*
X11224048Y-18394143D01*
X11243095Y-18403667D01*
X11252619Y-18413190D01*
X11262143Y-18432238D01*
X11262143Y-18489381D01*
X11252619Y-18508429D01*
X11243095Y-18517952D01*
X11224048Y-18527476D01*
X11195476Y-18527476D01*
X11376428Y-18527476D02*
X11357381Y-18517952D01*
X11347857Y-18498905D01*
X11347857Y-18327476D01*
X11528809Y-18517952D02*
X11509762Y-18527476D01*
X11471667Y-18527476D01*
X11452619Y-18517952D01*
X11443095Y-18498905D01*
X11443095Y-18422714D01*
X11452619Y-18403667D01*
X11471667Y-18394143D01*
X11509762Y-18394143D01*
X11528809Y-18403667D01*
X11538333Y-18422714D01*
X11538333Y-18441762D01*
X11443095Y-18460810D01*
X11614524Y-18517952D02*
X11633571Y-18527476D01*
X11671667Y-18527476D01*
X11690714Y-18517952D01*
X11700238Y-18498905D01*
X11700238Y-18489381D01*
X11690714Y-18470333D01*
X11671667Y-18460810D01*
X11643095Y-18460810D01*
X11624048Y-18451286D01*
X11614524Y-18432238D01*
X11614524Y-18422714D01*
X11624048Y-18403667D01*
X11643095Y-18394143D01*
X11671667Y-18394143D01*
X11690714Y-18403667D01*
X11766905Y-18603667D02*
X11776428Y-18594143D01*
X11795476Y-18565571D01*
X11805000Y-18546524D01*
X11814524Y-18517952D01*
X11824048Y-18470333D01*
X11824048Y-18432238D01*
X11814524Y-18384619D01*
X11805000Y-18356048D01*
X11795476Y-18337000D01*
X11776428Y-18308429D01*
X11766905Y-18298905D01*
D10*
X6945000Y-18751000D02*
X6995000Y-18701000D01*
X6945000Y-18651000D01*
X6895000Y-18701000D01*
X6945000Y-18751000D01*
D11*
X7357381Y-18791476D02*
X7243095Y-18791476D01*
X7300238Y-18791476D02*
X7300238Y-18591476D01*
X7281190Y-18620048D01*
X7262143Y-18639095D01*
X7243095Y-18648619D01*
X7443095Y-18772429D02*
X7452619Y-18781952D01*
X7443095Y-18791476D01*
X7433571Y-18781952D01*
X7443095Y-18772429D01*
X7443095Y-18791476D01*
X7576428Y-18591476D02*
X7595476Y-18591476D01*
X7614524Y-18601000D01*
X7624048Y-18610524D01*
X7633571Y-18629571D01*
X7643095Y-18667667D01*
X7643095Y-18715286D01*
X7633571Y-18753381D01*
X7624048Y-18772429D01*
X7614524Y-18781952D01*
X7595476Y-18791476D01*
X7576428Y-18791476D01*
X7557381Y-18781952D01*
X7547857Y-18772429D01*
X7538333Y-18753381D01*
X7528809Y-18715286D01*
X7528809Y-18667667D01*
X7538333Y-18629571D01*
X7547857Y-18610524D01*
X7557381Y-18601000D01*
X7576428Y-18591476D01*
X7766905Y-18591476D02*
X7785952Y-18591476D01*
X7805000Y-18601000D01*
X7814524Y-18610524D01*
X7824048Y-18629571D01*
X7833571Y-18667667D01*
X7833571Y-18715286D01*
X7824048Y-18753381D01*
X7814524Y-18772429D01*
X7805000Y-18781952D01*
X7785952Y-18791476D01*
X7766905Y-18791476D01*
X7747857Y-18781952D01*
X7738333Y-18772429D01*
X7728809Y-18753381D01*
X7719286Y-18715286D01*
X7719286Y-18667667D01*
X7728809Y-18629571D01*
X7738333Y-18610524D01*
X7747857Y-18601000D01*
X7766905Y-18591476D01*
X7957381Y-18591476D02*
X7976428Y-18591476D01*
X7995476Y-18601000D01*
X8005000Y-18610524D01*
X8014524Y-18629571D01*
X8024048Y-18667667D01*
X8024048Y-18715286D01*
X8014524Y-18753381D01*
X8005000Y-18772429D01*
X7995476Y-18781952D01*
X7976428Y-18791476D01*
X7957381Y-18791476D01*
X7938333Y-18781952D01*
X7928809Y-18772429D01*
X7919286Y-18753381D01*
X7909762Y-18715286D01*
X7909762Y-18667667D01*
X7919286Y-18629571D01*
X7928809Y-18610524D01*
X7938333Y-18601000D01*
X7957381Y-18591476D01*
X8109762Y-18791476D02*
X8109762Y-18658143D01*
X8109762Y-18677190D02*
X8119286Y-18667667D01*
X8138333Y-18658143D01*
X8166905Y-18658143D01*
X8185952Y-18667667D01*
X8195476Y-18686714D01*
X8195476Y-18791476D01*
X8195476Y-18686714D02*
X8205000Y-18667667D01*
X8224048Y-18658143D01*
X8252619Y-18658143D01*
X8271667Y-18667667D01*
X8281190Y-18686714D01*
X8281190Y-18791476D01*
X8376428Y-18791476D02*
X8376428Y-18658143D01*
X8376428Y-18677190D02*
X8385952Y-18667667D01*
X8405000Y-18658143D01*
X8433571Y-18658143D01*
X8452619Y-18667667D01*
X8462143Y-18686714D01*
X8462143Y-18791476D01*
X8462143Y-18686714D02*
X8471667Y-18667667D01*
X8490714Y-18658143D01*
X8519286Y-18658143D01*
X8538333Y-18667667D01*
X8547857Y-18686714D01*
X8547857Y-18791476D01*
X8938333Y-18581952D02*
X8766905Y-18839095D01*
X9195476Y-18591476D02*
X9214524Y-18591476D01*
X9233571Y-18601000D01*
X9243095Y-18610524D01*
X9252619Y-18629571D01*
X9262143Y-18667667D01*
X9262143Y-18715286D01*
X9252619Y-18753381D01*
X9243095Y-18772429D01*
X9233571Y-18781952D01*
X9214524Y-18791476D01*
X9195476Y-18791476D01*
X9176429Y-18781952D01*
X9166905Y-18772429D01*
X9157381Y-18753381D01*
X9147857Y-18715286D01*
X9147857Y-18667667D01*
X9157381Y-18629571D01*
X9166905Y-18610524D01*
X9176429Y-18601000D01*
X9195476Y-18591476D01*
X9347857Y-18772429D02*
X9357381Y-18781952D01*
X9347857Y-18791476D01*
X9338333Y-18781952D01*
X9347857Y-18772429D01*
X9347857Y-18791476D01*
X9481190Y-18591476D02*
X9500238Y-18591476D01*
X9519286Y-18601000D01*
X9528810Y-18610524D01*
X9538333Y-18629571D01*
X9547857Y-18667667D01*
X9547857Y-18715286D01*
X9538333Y-18753381D01*
X9528810Y-18772429D01*
X9519286Y-18781952D01*
X9500238Y-18791476D01*
X9481190Y-18791476D01*
X9462143Y-18781952D01*
X9452619Y-18772429D01*
X9443095Y-18753381D01*
X9433571Y-18715286D01*
X9433571Y-18667667D01*
X9443095Y-18629571D01*
X9452619Y-18610524D01*
X9462143Y-18601000D01*
X9481190Y-18591476D01*
X9614524Y-18591476D02*
X9738333Y-18591476D01*
X9671667Y-18667667D01*
X9700238Y-18667667D01*
X9719286Y-18677190D01*
X9728810Y-18686714D01*
X9738333Y-18705762D01*
X9738333Y-18753381D01*
X9728810Y-18772429D01*
X9719286Y-18781952D01*
X9700238Y-18791476D01*
X9643095Y-18791476D01*
X9624048Y-18781952D01*
X9614524Y-18772429D01*
X9833571Y-18791476D02*
X9871667Y-18791476D01*
X9890714Y-18781952D01*
X9900238Y-18772429D01*
X9919286Y-18743857D01*
X9928810Y-18705762D01*
X9928810Y-18629571D01*
X9919286Y-18610524D01*
X9909762Y-18601000D01*
X9890714Y-18591476D01*
X9852619Y-18591476D01*
X9833571Y-18601000D01*
X9824048Y-18610524D01*
X9814524Y-18629571D01*
X9814524Y-18677190D01*
X9824048Y-18696238D01*
X9833571Y-18705762D01*
X9852619Y-18715286D01*
X9890714Y-18715286D01*
X9909762Y-18705762D01*
X9919286Y-18696238D01*
X9928810Y-18677190D01*
X10100238Y-18658143D02*
X10100238Y-18791476D01*
X10052619Y-18581952D02*
X10005000Y-18724810D01*
X10128810Y-18724810D01*
X10195476Y-18591476D02*
X10195476Y-18629571D01*
X10271667Y-18591476D02*
X10271667Y-18629571D01*
X10566905Y-18867667D02*
X10557381Y-18858143D01*
X10538333Y-18829571D01*
X10528810Y-18810524D01*
X10519286Y-18781952D01*
X10509762Y-18734333D01*
X10509762Y-18696238D01*
X10519286Y-18648619D01*
X10528810Y-18620048D01*
X10538333Y-18601000D01*
X10557381Y-18572429D01*
X10566905Y-18562905D01*
X10624048Y-18591476D02*
X10747857Y-18591476D01*
X10681190Y-18667667D01*
X10709762Y-18667667D01*
X10728810Y-18677190D01*
X10738333Y-18686714D01*
X10747857Y-18705762D01*
X10747857Y-18753381D01*
X10738333Y-18772429D01*
X10728810Y-18781952D01*
X10709762Y-18791476D01*
X10652619Y-18791476D01*
X10633571Y-18781952D01*
X10624048Y-18772429D01*
X10928810Y-18591476D02*
X10833571Y-18591476D01*
X10824048Y-18686714D01*
X10833571Y-18677190D01*
X10852619Y-18667667D01*
X10900238Y-18667667D01*
X10919286Y-18677190D01*
X10928810Y-18686714D01*
X10938333Y-18705762D01*
X10938333Y-18753381D01*
X10928810Y-18772429D01*
X10919286Y-18781952D01*
X10900238Y-18791476D01*
X10852619Y-18791476D01*
X10833571Y-18781952D01*
X10824048Y-18772429D01*
X11176429Y-18791476D02*
X11176429Y-18591476D01*
X11262143Y-18791476D02*
X11262143Y-18686714D01*
X11252619Y-18667667D01*
X11233571Y-18658143D01*
X11205000Y-18658143D01*
X11185952Y-18667667D01*
X11176429Y-18677190D01*
X11385952Y-18791476D02*
X11366905Y-18781952D01*
X11357381Y-18772429D01*
X11347857Y-18753381D01*
X11347857Y-18696238D01*
X11357381Y-18677190D01*
X11366905Y-18667667D01*
X11385952Y-18658143D01*
X11414524Y-18658143D01*
X11433571Y-18667667D01*
X11443095Y-18677190D01*
X11452619Y-18696238D01*
X11452619Y-18753381D01*
X11443095Y-18772429D01*
X11433571Y-18781952D01*
X11414524Y-18791476D01*
X11385952Y-18791476D01*
X11566905Y-18791476D02*
X11547857Y-18781952D01*
X11538333Y-18762905D01*
X11538333Y-18591476D01*
X11719286Y-18781952D02*
X11700238Y-18791476D01*
X11662143Y-18791476D01*
X11643095Y-18781952D01*
X11633571Y-18762905D01*
X11633571Y-18686714D01*
X11643095Y-18667667D01*
X11662143Y-18658143D01*
X11700238Y-18658143D01*
X11719286Y-18667667D01*
X11728809Y-18686714D01*
X11728809Y-18705762D01*
X11633571Y-18724810D01*
X11805000Y-18781952D02*
X11824048Y-18791476D01*
X11862143Y-18791476D01*
X11881190Y-18781952D01*
X11890714Y-18762905D01*
X11890714Y-18753381D01*
X11881190Y-18734333D01*
X11862143Y-18724810D01*
X11833571Y-18724810D01*
X11814524Y-18715286D01*
X11805000Y-18696238D01*
X11805000Y-18686714D01*
X11814524Y-18667667D01*
X11833571Y-18658143D01*
X11862143Y-18658143D01*
X11881190Y-18667667D01*
X11957381Y-18867667D02*
X11966905Y-18858143D01*
X11985952Y-18829571D01*
X11995476Y-18810524D01*
X12005000Y-18781952D01*
X12014524Y-18734333D01*
X12014524Y-18696238D01*
X12005000Y-18648619D01*
X11995476Y-18620048D01*
X11985952Y-18601000D01*
X11966905Y-18572429D01*
X11957381Y-18562905D01*
D16*
X6886000Y-18910500D02*
X6995000Y-19019500D01*
X6995000Y-18910500D02*
X6886000Y-19019500D01*
X6995000Y-18965000D02*
G75*
G03*
X6995000Y-18965000I-54500J0D01*
G01*
D11*
X7357381Y-19055476D02*
X7243095Y-19055476D01*
X7300238Y-19055476D02*
X7300238Y-18855476D01*
X7281190Y-18884048D01*
X7262143Y-18903095D01*
X7243095Y-18912619D01*
X7443095Y-19036429D02*
X7452619Y-19045952D01*
X7443095Y-19055476D01*
X7433571Y-19045952D01*
X7443095Y-19036429D01*
X7443095Y-19055476D01*
X7576428Y-18855476D02*
X7595476Y-18855476D01*
X7614524Y-18865000D01*
X7624048Y-18874524D01*
X7633571Y-18893571D01*
X7643095Y-18931667D01*
X7643095Y-18979286D01*
X7633571Y-19017381D01*
X7624048Y-19036429D01*
X7614524Y-19045952D01*
X7595476Y-19055476D01*
X7576428Y-19055476D01*
X7557381Y-19045952D01*
X7547857Y-19036429D01*
X7538333Y-19017381D01*
X7528809Y-18979286D01*
X7528809Y-18931667D01*
X7538333Y-18893571D01*
X7547857Y-18874524D01*
X7557381Y-18865000D01*
X7576428Y-18855476D01*
X7738333Y-19055476D02*
X7776428Y-19055476D01*
X7795476Y-19045952D01*
X7805000Y-19036429D01*
X7824048Y-19007857D01*
X7833571Y-18969762D01*
X7833571Y-18893571D01*
X7824048Y-18874524D01*
X7814524Y-18865000D01*
X7795476Y-18855476D01*
X7757381Y-18855476D01*
X7738333Y-18865000D01*
X7728809Y-18874524D01*
X7719286Y-18893571D01*
X7719286Y-18941190D01*
X7728809Y-18960238D01*
X7738333Y-18969762D01*
X7757381Y-18979286D01*
X7795476Y-18979286D01*
X7814524Y-18969762D01*
X7824048Y-18960238D01*
X7833571Y-18941190D01*
X7957381Y-18855476D02*
X7976428Y-18855476D01*
X7995476Y-18865000D01*
X8005000Y-18874524D01*
X8014524Y-18893571D01*
X8024048Y-18931667D01*
X8024048Y-18979286D01*
X8014524Y-19017381D01*
X8005000Y-19036429D01*
X7995476Y-19045952D01*
X7976428Y-19055476D01*
X7957381Y-19055476D01*
X7938333Y-19045952D01*
X7928809Y-19036429D01*
X7919286Y-19017381D01*
X7909762Y-18979286D01*
X7909762Y-18931667D01*
X7919286Y-18893571D01*
X7928809Y-18874524D01*
X7938333Y-18865000D01*
X7957381Y-18855476D01*
X8109762Y-19055476D02*
X8109762Y-18922143D01*
X8109762Y-18941190D02*
X8119286Y-18931667D01*
X8138333Y-18922143D01*
X8166905Y-18922143D01*
X8185952Y-18931667D01*
X8195476Y-18950714D01*
X8195476Y-19055476D01*
X8195476Y-18950714D02*
X8205000Y-18931667D01*
X8224048Y-18922143D01*
X8252619Y-18922143D01*
X8271667Y-18931667D01*
X8281190Y-18950714D01*
X8281190Y-19055476D01*
X8376428Y-19055476D02*
X8376428Y-18922143D01*
X8376428Y-18941190D02*
X8385952Y-18931667D01*
X8405000Y-18922143D01*
X8433571Y-18922143D01*
X8452619Y-18931667D01*
X8462143Y-18950714D01*
X8462143Y-19055476D01*
X8462143Y-18950714D02*
X8471667Y-18931667D01*
X8490714Y-18922143D01*
X8519286Y-18922143D01*
X8538333Y-18931667D01*
X8547857Y-18950714D01*
X8547857Y-19055476D01*
X8938333Y-18845952D02*
X8766905Y-19103095D01*
X9195476Y-18855476D02*
X9214524Y-18855476D01*
X9233571Y-18865000D01*
X9243095Y-18874524D01*
X9252619Y-18893571D01*
X9262143Y-18931667D01*
X9262143Y-18979286D01*
X9252619Y-19017381D01*
X9243095Y-19036429D01*
X9233571Y-19045952D01*
X9214524Y-19055476D01*
X9195476Y-19055476D01*
X9176429Y-19045952D01*
X9166905Y-19036429D01*
X9157381Y-19017381D01*
X9147857Y-18979286D01*
X9147857Y-18931667D01*
X9157381Y-18893571D01*
X9166905Y-18874524D01*
X9176429Y-18865000D01*
X9195476Y-18855476D01*
X9347857Y-19036429D02*
X9357381Y-19045952D01*
X9347857Y-19055476D01*
X9338333Y-19045952D01*
X9347857Y-19036429D01*
X9347857Y-19055476D01*
X9481190Y-18855476D02*
X9500238Y-18855476D01*
X9519286Y-18865000D01*
X9528810Y-18874524D01*
X9538333Y-18893571D01*
X9547857Y-18931667D01*
X9547857Y-18979286D01*
X9538333Y-19017381D01*
X9528810Y-19036429D01*
X9519286Y-19045952D01*
X9500238Y-19055476D01*
X9481190Y-19055476D01*
X9462143Y-19045952D01*
X9452619Y-19036429D01*
X9443095Y-19017381D01*
X9433571Y-18979286D01*
X9433571Y-18931667D01*
X9443095Y-18893571D01*
X9452619Y-18874524D01*
X9462143Y-18865000D01*
X9481190Y-18855476D01*
X9719286Y-18922143D02*
X9719286Y-19055476D01*
X9671667Y-18845952D02*
X9624048Y-18988810D01*
X9747857Y-18988810D01*
X9814524Y-18874524D02*
X9824048Y-18865000D01*
X9843095Y-18855476D01*
X9890714Y-18855476D01*
X9909762Y-18865000D01*
X9919286Y-18874524D01*
X9928810Y-18893571D01*
X9928810Y-18912619D01*
X9919286Y-18941190D01*
X9805000Y-19055476D01*
X9928810Y-19055476D01*
X10024048Y-19055476D02*
X10062143Y-19055476D01*
X10081190Y-19045952D01*
X10090714Y-19036429D01*
X10109762Y-19007857D01*
X10119286Y-18969762D01*
X10119286Y-18893571D01*
X10109762Y-18874524D01*
X10100238Y-18865000D01*
X10081190Y-18855476D01*
X10043095Y-18855476D01*
X10024048Y-18865000D01*
X10014524Y-18874524D01*
X10005000Y-18893571D01*
X10005000Y-18941190D01*
X10014524Y-18960238D01*
X10024048Y-18969762D01*
X10043095Y-18979286D01*
X10081190Y-18979286D01*
X10100238Y-18969762D01*
X10109762Y-18960238D01*
X10119286Y-18941190D01*
X10195476Y-18855476D02*
X10195476Y-18893571D01*
X10271667Y-18855476D02*
X10271667Y-18893571D01*
X10566905Y-19131667D02*
X10557381Y-19122143D01*
X10538333Y-19093571D01*
X10528810Y-19074524D01*
X10519286Y-19045952D01*
X10509762Y-18998333D01*
X10509762Y-18960238D01*
X10519286Y-18912619D01*
X10528810Y-18884048D01*
X10538333Y-18865000D01*
X10557381Y-18836429D01*
X10566905Y-18826905D01*
X10747857Y-19055476D02*
X10633571Y-19055476D01*
X10690714Y-19055476D02*
X10690714Y-18855476D01*
X10671667Y-18884048D01*
X10652619Y-18903095D01*
X10633571Y-18912619D01*
X10824048Y-18874524D02*
X10833571Y-18865000D01*
X10852619Y-18855476D01*
X10900238Y-18855476D01*
X10919286Y-18865000D01*
X10928810Y-18874524D01*
X10938333Y-18893571D01*
X10938333Y-18912619D01*
X10928810Y-18941190D01*
X10814524Y-19055476D01*
X10938333Y-19055476D01*
X11176429Y-19055476D02*
X11176429Y-18855476D01*
X11262143Y-19055476D02*
X11262143Y-18950714D01*
X11252619Y-18931667D01*
X11233571Y-18922143D01*
X11205000Y-18922143D01*
X11185952Y-18931667D01*
X11176429Y-18941190D01*
X11385952Y-19055476D02*
X11366905Y-19045952D01*
X11357381Y-19036429D01*
X11347857Y-19017381D01*
X11347857Y-18960238D01*
X11357381Y-18941190D01*
X11366905Y-18931667D01*
X11385952Y-18922143D01*
X11414524Y-18922143D01*
X11433571Y-18931667D01*
X11443095Y-18941190D01*
X11452619Y-18960238D01*
X11452619Y-19017381D01*
X11443095Y-19036429D01*
X11433571Y-19045952D01*
X11414524Y-19055476D01*
X11385952Y-19055476D01*
X11566905Y-19055476D02*
X11547857Y-19045952D01*
X11538333Y-19026905D01*
X11538333Y-18855476D01*
X11719286Y-19045952D02*
X11700238Y-19055476D01*
X11662143Y-19055476D01*
X11643095Y-19045952D01*
X11633571Y-19026905D01*
X11633571Y-18950714D01*
X11643095Y-18931667D01*
X11662143Y-18922143D01*
X11700238Y-18922143D01*
X11719286Y-18931667D01*
X11728809Y-18950714D01*
X11728809Y-18969762D01*
X11633571Y-18988810D01*
X11805000Y-19045952D02*
X11824048Y-19055476D01*
X11862143Y-19055476D01*
X11881190Y-19045952D01*
X11890714Y-19026905D01*
X11890714Y-19017381D01*
X11881190Y-18998333D01*
X11862143Y-18988810D01*
X11833571Y-18988810D01*
X11814524Y-18979286D01*
X11805000Y-18960238D01*
X11805000Y-18950714D01*
X11814524Y-18931667D01*
X11833571Y-18922143D01*
X11862143Y-18922143D01*
X11881190Y-18931667D01*
X11957381Y-19131667D02*
X11966905Y-19122143D01*
X11985952Y-19093571D01*
X11995476Y-19074524D01*
X12005000Y-19045952D01*
X12014524Y-18998333D01*
X12014524Y-18960238D01*
X12005000Y-18912619D01*
X11995476Y-18884048D01*
X11985952Y-18865000D01*
X11966905Y-18836429D01*
X11957381Y-18826905D01*
D17*
X6875000Y-19169000D02*
X6995000Y-19289000D01*
X6995000Y-19169000D02*
X6875000Y-19289000D01*
X6935000Y-19169000D02*
X6935000Y-19289000D01*
X6875000Y-19229000D02*
X6995000Y-19229000D01*
D11*
X7357381Y-19319476D02*
X7243095Y-19319476D01*
X7300238Y-19319476D02*
X7300238Y-19119476D01*
X7281190Y-19148048D01*
X7262143Y-19167095D01*
X7243095Y-19176619D01*
X7443095Y-19300429D02*
X7452619Y-19309952D01*
X7443095Y-19319476D01*
X7433571Y-19309952D01*
X7443095Y-19300429D01*
X7443095Y-19319476D01*
X7528809Y-19138524D02*
X7538333Y-19129000D01*
X7557381Y-19119476D01*
X7605000Y-19119476D01*
X7624048Y-19129000D01*
X7633571Y-19138524D01*
X7643095Y-19157571D01*
X7643095Y-19176619D01*
X7633571Y-19205190D01*
X7519286Y-19319476D01*
X7643095Y-19319476D01*
X7766905Y-19119476D02*
X7785952Y-19119476D01*
X7805000Y-19129000D01*
X7814524Y-19138524D01*
X7824048Y-19157571D01*
X7833571Y-19195667D01*
X7833571Y-19243286D01*
X7824048Y-19281381D01*
X7814524Y-19300429D01*
X7805000Y-19309952D01*
X7785952Y-19319476D01*
X7766905Y-19319476D01*
X7747857Y-19309952D01*
X7738333Y-19300429D01*
X7728809Y-19281381D01*
X7719286Y-19243286D01*
X7719286Y-19195667D01*
X7728809Y-19157571D01*
X7738333Y-19138524D01*
X7747857Y-19129000D01*
X7766905Y-19119476D01*
X7957381Y-19119476D02*
X7976428Y-19119476D01*
X7995476Y-19129000D01*
X8005000Y-19138524D01*
X8014524Y-19157571D01*
X8024048Y-19195667D01*
X8024048Y-19243286D01*
X8014524Y-19281381D01*
X8005000Y-19300429D01*
X7995476Y-19309952D01*
X7976428Y-19319476D01*
X7957381Y-19319476D01*
X7938333Y-19309952D01*
X7928809Y-19300429D01*
X7919286Y-19281381D01*
X7909762Y-19243286D01*
X7909762Y-19195667D01*
X7919286Y-19157571D01*
X7928809Y-19138524D01*
X7938333Y-19129000D01*
X7957381Y-19119476D01*
X8109762Y-19319476D02*
X8109762Y-19186143D01*
X8109762Y-19205190D02*
X8119286Y-19195667D01*
X8138333Y-19186143D01*
X8166905Y-19186143D01*
X8185952Y-19195667D01*
X8195476Y-19214714D01*
X8195476Y-19319476D01*
X8195476Y-19214714D02*
X8205000Y-19195667D01*
X8224048Y-19186143D01*
X8252619Y-19186143D01*
X8271667Y-19195667D01*
X8281190Y-19214714D01*
X8281190Y-19319476D01*
X8376428Y-19319476D02*
X8376428Y-19186143D01*
X8376428Y-19205190D02*
X8385952Y-19195667D01*
X8405000Y-19186143D01*
X8433571Y-19186143D01*
X8452619Y-19195667D01*
X8462143Y-19214714D01*
X8462143Y-19319476D01*
X8462143Y-19214714D02*
X8471667Y-19195667D01*
X8490714Y-19186143D01*
X8519286Y-19186143D01*
X8538333Y-19195667D01*
X8547857Y-19214714D01*
X8547857Y-19319476D01*
X8938333Y-19109952D02*
X8766905Y-19367095D01*
X9195476Y-19119476D02*
X9214524Y-19119476D01*
X9233571Y-19129000D01*
X9243095Y-19138524D01*
X9252619Y-19157571D01*
X9262143Y-19195667D01*
X9262143Y-19243286D01*
X9252619Y-19281381D01*
X9243095Y-19300429D01*
X9233571Y-19309952D01*
X9214524Y-19319476D01*
X9195476Y-19319476D01*
X9176429Y-19309952D01*
X9166905Y-19300429D01*
X9157381Y-19281381D01*
X9147857Y-19243286D01*
X9147857Y-19195667D01*
X9157381Y-19157571D01*
X9166905Y-19138524D01*
X9176429Y-19129000D01*
X9195476Y-19119476D01*
X9347857Y-19300429D02*
X9357381Y-19309952D01*
X9347857Y-19319476D01*
X9338333Y-19309952D01*
X9347857Y-19300429D01*
X9347857Y-19319476D01*
X9481190Y-19119476D02*
X9500238Y-19119476D01*
X9519286Y-19129000D01*
X9528810Y-19138524D01*
X9538333Y-19157571D01*
X9547857Y-19195667D01*
X9547857Y-19243286D01*
X9538333Y-19281381D01*
X9528810Y-19300429D01*
X9519286Y-19309952D01*
X9500238Y-19319476D01*
X9481190Y-19319476D01*
X9462143Y-19309952D01*
X9452619Y-19300429D01*
X9443095Y-19281381D01*
X9433571Y-19243286D01*
X9433571Y-19195667D01*
X9443095Y-19157571D01*
X9452619Y-19138524D01*
X9462143Y-19129000D01*
X9481190Y-19119476D01*
X9719286Y-19186143D02*
X9719286Y-19319476D01*
X9671667Y-19109952D02*
X9624048Y-19252810D01*
X9747857Y-19252810D01*
X9805000Y-19119476D02*
X9938333Y-19119476D01*
X9852619Y-19319476D01*
X10005000Y-19138524D02*
X10014524Y-19129000D01*
X10033571Y-19119476D01*
X10081190Y-19119476D01*
X10100238Y-19129000D01*
X10109762Y-19138524D01*
X10119286Y-19157571D01*
X10119286Y-19176619D01*
X10109762Y-19205190D01*
X9995476Y-19319476D01*
X10119286Y-19319476D01*
X10195476Y-19119476D02*
X10195476Y-19157571D01*
X10271667Y-19119476D02*
X10271667Y-19157571D01*
X10566905Y-19395667D02*
X10557381Y-19386143D01*
X10538333Y-19357571D01*
X10528810Y-19338524D01*
X10519286Y-19309952D01*
X10509762Y-19262333D01*
X10509762Y-19224238D01*
X10519286Y-19176619D01*
X10528810Y-19148048D01*
X10538333Y-19129000D01*
X10557381Y-19100429D01*
X10566905Y-19090905D01*
X10633571Y-19138524D02*
X10643095Y-19129000D01*
X10662143Y-19119476D01*
X10709762Y-19119476D01*
X10728810Y-19129000D01*
X10738333Y-19138524D01*
X10747857Y-19157571D01*
X10747857Y-19176619D01*
X10738333Y-19205190D01*
X10624048Y-19319476D01*
X10747857Y-19319476D01*
X10985952Y-19319476D02*
X10985952Y-19119476D01*
X11071667Y-19319476D02*
X11071667Y-19214714D01*
X11062143Y-19195667D01*
X11043095Y-19186143D01*
X11014524Y-19186143D01*
X10995476Y-19195667D01*
X10985952Y-19205190D01*
X11195476Y-19319476D02*
X11176429Y-19309952D01*
X11166905Y-19300429D01*
X11157381Y-19281381D01*
X11157381Y-19224238D01*
X11166905Y-19205190D01*
X11176429Y-19195667D01*
X11195476Y-19186143D01*
X11224048Y-19186143D01*
X11243095Y-19195667D01*
X11252619Y-19205190D01*
X11262143Y-19224238D01*
X11262143Y-19281381D01*
X11252619Y-19300429D01*
X11243095Y-19309952D01*
X11224048Y-19319476D01*
X11195476Y-19319476D01*
X11376428Y-19319476D02*
X11357381Y-19309952D01*
X11347857Y-19290905D01*
X11347857Y-19119476D01*
X11528809Y-19309952D02*
X11509762Y-19319476D01*
X11471667Y-19319476D01*
X11452619Y-19309952D01*
X11443095Y-19290905D01*
X11443095Y-19214714D01*
X11452619Y-19195667D01*
X11471667Y-19186143D01*
X11509762Y-19186143D01*
X11528809Y-19195667D01*
X11538333Y-19214714D01*
X11538333Y-19233762D01*
X11443095Y-19252810D01*
X11614524Y-19309952D02*
X11633571Y-19319476D01*
X11671667Y-19319476D01*
X11690714Y-19309952D01*
X11700238Y-19290905D01*
X11700238Y-19281381D01*
X11690714Y-19262333D01*
X11671667Y-19252810D01*
X11643095Y-19252810D01*
X11624048Y-19243286D01*
X11614524Y-19224238D01*
X11614524Y-19214714D01*
X11624048Y-19195667D01*
X11643095Y-19186143D01*
X11671667Y-19186143D01*
X11690714Y-19195667D01*
X11766905Y-19395667D02*
X11776428Y-19386143D01*
X11795476Y-19357571D01*
X11805000Y-19338524D01*
X11814524Y-19309952D01*
X11824048Y-19262333D01*
X11824048Y-19224238D01*
X11814524Y-19176619D01*
X11805000Y-19148048D01*
X11795476Y-19129000D01*
X11776428Y-19100429D01*
X11766905Y-19090905D01*
D18*
X6855000Y-19423000D02*
X6995000Y-19563000D01*
X6995000Y-19423000D02*
X6855000Y-19563000D01*
X6974498Y-19542498D02*
X6974498Y-19443502D01*
X6875502Y-19443502D01*
X6875502Y-19542498D01*
X6974498Y-19542498D01*
D11*
X7357381Y-19583476D02*
X7243095Y-19583476D01*
X7300238Y-19583476D02*
X7300238Y-19383476D01*
X7281190Y-19412048D01*
X7262143Y-19431095D01*
X7243095Y-19440619D01*
X7443095Y-19564429D02*
X7452619Y-19573952D01*
X7443095Y-19583476D01*
X7433571Y-19573952D01*
X7443095Y-19564429D01*
X7443095Y-19583476D01*
X7624048Y-19450143D02*
X7624048Y-19583476D01*
X7576428Y-19373952D02*
X7528809Y-19516810D01*
X7652619Y-19516810D01*
X7766905Y-19383476D02*
X7785952Y-19383476D01*
X7805000Y-19393000D01*
X7814524Y-19402524D01*
X7824048Y-19421571D01*
X7833571Y-19459667D01*
X7833571Y-19507286D01*
X7824048Y-19545381D01*
X7814524Y-19564429D01*
X7805000Y-19573952D01*
X7785952Y-19583476D01*
X7766905Y-19583476D01*
X7747857Y-19573952D01*
X7738333Y-19564429D01*
X7728809Y-19545381D01*
X7719286Y-19507286D01*
X7719286Y-19459667D01*
X7728809Y-19421571D01*
X7738333Y-19402524D01*
X7747857Y-19393000D01*
X7766905Y-19383476D01*
X7957381Y-19383476D02*
X7976428Y-19383476D01*
X7995476Y-19393000D01*
X8005000Y-19402524D01*
X8014524Y-19421571D01*
X8024048Y-19459667D01*
X8024048Y-19507286D01*
X8014524Y-19545381D01*
X8005000Y-19564429D01*
X7995476Y-19573952D01*
X7976428Y-19583476D01*
X7957381Y-19583476D01*
X7938333Y-19573952D01*
X7928809Y-19564429D01*
X7919286Y-19545381D01*
X7909762Y-19507286D01*
X7909762Y-19459667D01*
X7919286Y-19421571D01*
X7928809Y-19402524D01*
X7938333Y-19393000D01*
X7957381Y-19383476D01*
X8109762Y-19583476D02*
X8109762Y-19450143D01*
X8109762Y-19469190D02*
X8119286Y-19459667D01*
X8138333Y-19450143D01*
X8166905Y-19450143D01*
X8185952Y-19459667D01*
X8195476Y-19478714D01*
X8195476Y-19583476D01*
X8195476Y-19478714D02*
X8205000Y-19459667D01*
X8224048Y-19450143D01*
X8252619Y-19450143D01*
X8271667Y-19459667D01*
X8281190Y-19478714D01*
X8281190Y-19583476D01*
X8376428Y-19583476D02*
X8376428Y-19450143D01*
X8376428Y-19469190D02*
X8385952Y-19459667D01*
X8405000Y-19450143D01*
X8433571Y-19450143D01*
X8452619Y-19459667D01*
X8462143Y-19478714D01*
X8462143Y-19583476D01*
X8462143Y-19478714D02*
X8471667Y-19459667D01*
X8490714Y-19450143D01*
X8519286Y-19450143D01*
X8538333Y-19459667D01*
X8547857Y-19478714D01*
X8547857Y-19583476D01*
X8938333Y-19373952D02*
X8766905Y-19631095D01*
X9195476Y-19383476D02*
X9214524Y-19383476D01*
X9233571Y-19393000D01*
X9243095Y-19402524D01*
X9252619Y-19421571D01*
X9262143Y-19459667D01*
X9262143Y-19507286D01*
X9252619Y-19545381D01*
X9243095Y-19564429D01*
X9233571Y-19573952D01*
X9214524Y-19583476D01*
X9195476Y-19583476D01*
X9176429Y-19573952D01*
X9166905Y-19564429D01*
X9157381Y-19545381D01*
X9147857Y-19507286D01*
X9147857Y-19459667D01*
X9157381Y-19421571D01*
X9166905Y-19402524D01*
X9176429Y-19393000D01*
X9195476Y-19383476D01*
X9347857Y-19564429D02*
X9357381Y-19573952D01*
X9347857Y-19583476D01*
X9338333Y-19573952D01*
X9347857Y-19564429D01*
X9347857Y-19583476D01*
X9481190Y-19383476D02*
X9500238Y-19383476D01*
X9519286Y-19393000D01*
X9528810Y-19402524D01*
X9538333Y-19421571D01*
X9547857Y-19459667D01*
X9547857Y-19507286D01*
X9538333Y-19545381D01*
X9528810Y-19564429D01*
X9519286Y-19573952D01*
X9500238Y-19583476D01*
X9481190Y-19583476D01*
X9462143Y-19573952D01*
X9452619Y-19564429D01*
X9443095Y-19545381D01*
X9433571Y-19507286D01*
X9433571Y-19459667D01*
X9443095Y-19421571D01*
X9452619Y-19402524D01*
X9462143Y-19393000D01*
X9481190Y-19383476D01*
X9728810Y-19383476D02*
X9633571Y-19383476D01*
X9624048Y-19478714D01*
X9633571Y-19469190D01*
X9652619Y-19459667D01*
X9700238Y-19459667D01*
X9719286Y-19469190D01*
X9728810Y-19478714D01*
X9738333Y-19497762D01*
X9738333Y-19545381D01*
X9728810Y-19564429D01*
X9719286Y-19573952D01*
X9700238Y-19583476D01*
X9652619Y-19583476D01*
X9633571Y-19573952D01*
X9624048Y-19564429D01*
X9919286Y-19383476D02*
X9824048Y-19383476D01*
X9814524Y-19478714D01*
X9824048Y-19469190D01*
X9843095Y-19459667D01*
X9890714Y-19459667D01*
X9909762Y-19469190D01*
X9919286Y-19478714D01*
X9928810Y-19497762D01*
X9928810Y-19545381D01*
X9919286Y-19564429D01*
X9909762Y-19573952D01*
X9890714Y-19583476D01*
X9843095Y-19583476D01*
X9824048Y-19573952D01*
X9814524Y-19564429D01*
X10119286Y-19583476D02*
X10005000Y-19583476D01*
X10062143Y-19583476D02*
X10062143Y-19383476D01*
X10043095Y-19412048D01*
X10024048Y-19431095D01*
X10005000Y-19440619D01*
X10195476Y-19383476D02*
X10195476Y-19421571D01*
X10271667Y-19383476D02*
X10271667Y-19421571D01*
X10566905Y-19659667D02*
X10557381Y-19650143D01*
X10538333Y-19621571D01*
X10528810Y-19602524D01*
X10519286Y-19573952D01*
X10509762Y-19526333D01*
X10509762Y-19488238D01*
X10519286Y-19440619D01*
X10528810Y-19412048D01*
X10538333Y-19393000D01*
X10557381Y-19364429D01*
X10566905Y-19354905D01*
X10728810Y-19450143D02*
X10728810Y-19583476D01*
X10681190Y-19373952D02*
X10633571Y-19516810D01*
X10757381Y-19516810D01*
X10862143Y-19469190D02*
X10843095Y-19459667D01*
X10833571Y-19450143D01*
X10824048Y-19431095D01*
X10824048Y-19421571D01*
X10833571Y-19402524D01*
X10843095Y-19393000D01*
X10862143Y-19383476D01*
X10900238Y-19383476D01*
X10919286Y-19393000D01*
X10928810Y-19402524D01*
X10938333Y-19421571D01*
X10938333Y-19431095D01*
X10928810Y-19450143D01*
X10919286Y-19459667D01*
X10900238Y-19469190D01*
X10862143Y-19469190D01*
X10843095Y-19478714D01*
X10833571Y-19488238D01*
X10824048Y-19507286D01*
X10824048Y-19545381D01*
X10833571Y-19564429D01*
X10843095Y-19573952D01*
X10862143Y-19583476D01*
X10900238Y-19583476D01*
X10919286Y-19573952D01*
X10928810Y-19564429D01*
X10938333Y-19545381D01*
X10938333Y-19507286D01*
X10928810Y-19488238D01*
X10919286Y-19478714D01*
X10900238Y-19469190D01*
X11176429Y-19583476D02*
X11176429Y-19383476D01*
X11262143Y-19583476D02*
X11262143Y-19478714D01*
X11252619Y-19459667D01*
X11233571Y-19450143D01*
X11205000Y-19450143D01*
X11185952Y-19459667D01*
X11176429Y-19469190D01*
X11385952Y-19583476D02*
X11366905Y-19573952D01*
X11357381Y-19564429D01*
X11347857Y-19545381D01*
X11347857Y-19488238D01*
X11357381Y-19469190D01*
X11366905Y-19459667D01*
X11385952Y-19450143D01*
X11414524Y-19450143D01*
X11433571Y-19459667D01*
X11443095Y-19469190D01*
X11452619Y-19488238D01*
X11452619Y-19545381D01*
X11443095Y-19564429D01*
X11433571Y-19573952D01*
X11414524Y-19583476D01*
X11385952Y-19583476D01*
X11566905Y-19583476D02*
X11547857Y-19573952D01*
X11538333Y-19554905D01*
X11538333Y-19383476D01*
X11719286Y-19573952D02*
X11700238Y-19583476D01*
X11662143Y-19583476D01*
X11643095Y-19573952D01*
X11633571Y-19554905D01*
X11633571Y-19478714D01*
X11643095Y-19459667D01*
X11662143Y-19450143D01*
X11700238Y-19450143D01*
X11719286Y-19459667D01*
X11728809Y-19478714D01*
X11728809Y-19497762D01*
X11633571Y-19516810D01*
X11805000Y-19573952D02*
X11824048Y-19583476D01*
X11862143Y-19583476D01*
X11881190Y-19573952D01*
X11890714Y-19554905D01*
X11890714Y-19545381D01*
X11881190Y-19526333D01*
X11862143Y-19516810D01*
X11833571Y-19516810D01*
X11814524Y-19507286D01*
X11805000Y-19488238D01*
X11805000Y-19478714D01*
X11814524Y-19459667D01*
X11833571Y-19450143D01*
X11862143Y-19450143D01*
X11881190Y-19459667D01*
X11957381Y-19659667D02*
X11966905Y-19650143D01*
X11985952Y-19621571D01*
X11995476Y-19602524D01*
X12005000Y-19573952D01*
X12014524Y-19526333D01*
X12014524Y-19488238D01*
X12005000Y-19440619D01*
X11995476Y-19412048D01*
X11985952Y-19393000D01*
X11966905Y-19364429D01*
X11957381Y-19354905D01*
D19*
X6845000Y-19682000D02*
X6995000Y-19832000D01*
X6995000Y-19682000D02*
X6845000Y-19832000D01*
X6920000Y-19832000D02*
X6995000Y-19757000D01*
X6920000Y-19682000D01*
X6845000Y-19757000D01*
X6920000Y-19832000D01*
D11*
X7357381Y-19847476D02*
X7243095Y-19847476D01*
X7300238Y-19847476D02*
X7300238Y-19647476D01*
X7281190Y-19676048D01*
X7262143Y-19695095D01*
X7243095Y-19704619D01*
X7443095Y-19828429D02*
X7452619Y-19837952D01*
X7443095Y-19847476D01*
X7433571Y-19837952D01*
X7443095Y-19828429D01*
X7443095Y-19847476D01*
X7633571Y-19647476D02*
X7538333Y-19647476D01*
X7528809Y-19742714D01*
X7538333Y-19733190D01*
X7557381Y-19723667D01*
X7605000Y-19723667D01*
X7624048Y-19733190D01*
X7633571Y-19742714D01*
X7643095Y-19761762D01*
X7643095Y-19809381D01*
X7633571Y-19828429D01*
X7624048Y-19837952D01*
X7605000Y-19847476D01*
X7557381Y-19847476D01*
X7538333Y-19837952D01*
X7528809Y-19828429D01*
X7766905Y-19647476D02*
X7785952Y-19647476D01*
X7805000Y-19657000D01*
X7814524Y-19666524D01*
X7824048Y-19685571D01*
X7833571Y-19723667D01*
X7833571Y-19771286D01*
X7824048Y-19809381D01*
X7814524Y-19828429D01*
X7805000Y-19837952D01*
X7785952Y-19847476D01*
X7766905Y-19847476D01*
X7747857Y-19837952D01*
X7738333Y-19828429D01*
X7728809Y-19809381D01*
X7719286Y-19771286D01*
X7719286Y-19723667D01*
X7728809Y-19685571D01*
X7738333Y-19666524D01*
X7747857Y-19657000D01*
X7766905Y-19647476D01*
X7957381Y-19647476D02*
X7976428Y-19647476D01*
X7995476Y-19657000D01*
X8005000Y-19666524D01*
X8014524Y-19685571D01*
X8024048Y-19723667D01*
X8024048Y-19771286D01*
X8014524Y-19809381D01*
X8005000Y-19828429D01*
X7995476Y-19837952D01*
X7976428Y-19847476D01*
X7957381Y-19847476D01*
X7938333Y-19837952D01*
X7928809Y-19828429D01*
X7919286Y-19809381D01*
X7909762Y-19771286D01*
X7909762Y-19723667D01*
X7919286Y-19685571D01*
X7928809Y-19666524D01*
X7938333Y-19657000D01*
X7957381Y-19647476D01*
X8109762Y-19847476D02*
X8109762Y-19714143D01*
X8109762Y-19733190D02*
X8119286Y-19723667D01*
X8138333Y-19714143D01*
X8166905Y-19714143D01*
X8185952Y-19723667D01*
X8195476Y-19742714D01*
X8195476Y-19847476D01*
X8195476Y-19742714D02*
X8205000Y-19723667D01*
X8224048Y-19714143D01*
X8252619Y-19714143D01*
X8271667Y-19723667D01*
X8281190Y-19742714D01*
X8281190Y-19847476D01*
X8376428Y-19847476D02*
X8376428Y-19714143D01*
X8376428Y-19733190D02*
X8385952Y-19723667D01*
X8405000Y-19714143D01*
X8433571Y-19714143D01*
X8452619Y-19723667D01*
X8462143Y-19742714D01*
X8462143Y-19847476D01*
X8462143Y-19742714D02*
X8471667Y-19723667D01*
X8490714Y-19714143D01*
X8519286Y-19714143D01*
X8538333Y-19723667D01*
X8547857Y-19742714D01*
X8547857Y-19847476D01*
X8938333Y-19637952D02*
X8766905Y-19895095D01*
X9195476Y-19647476D02*
X9214524Y-19647476D01*
X9233571Y-19657000D01*
X9243095Y-19666524D01*
X9252619Y-19685571D01*
X9262143Y-19723667D01*
X9262143Y-19771286D01*
X9252619Y-19809381D01*
X9243095Y-19828429D01*
X9233571Y-19837952D01*
X9214524Y-19847476D01*
X9195476Y-19847476D01*
X9176429Y-19837952D01*
X9166905Y-19828429D01*
X9157381Y-19809381D01*
X9147857Y-19771286D01*
X9147857Y-19723667D01*
X9157381Y-19685571D01*
X9166905Y-19666524D01*
X9176429Y-19657000D01*
X9195476Y-19647476D01*
X9347857Y-19828429D02*
X9357381Y-19837952D01*
X9347857Y-19847476D01*
X9338333Y-19837952D01*
X9347857Y-19828429D01*
X9347857Y-19847476D01*
X9481190Y-19647476D02*
X9500238Y-19647476D01*
X9519286Y-19657000D01*
X9528810Y-19666524D01*
X9538333Y-19685571D01*
X9547857Y-19723667D01*
X9547857Y-19771286D01*
X9538333Y-19809381D01*
X9528810Y-19828429D01*
X9519286Y-19837952D01*
X9500238Y-19847476D01*
X9481190Y-19847476D01*
X9462143Y-19837952D01*
X9452619Y-19828429D01*
X9443095Y-19809381D01*
X9433571Y-19771286D01*
X9433571Y-19723667D01*
X9443095Y-19685571D01*
X9452619Y-19666524D01*
X9462143Y-19657000D01*
X9481190Y-19647476D01*
X9728810Y-19647476D02*
X9633571Y-19647476D01*
X9624048Y-19742714D01*
X9633571Y-19733190D01*
X9652619Y-19723667D01*
X9700238Y-19723667D01*
X9719286Y-19733190D01*
X9728810Y-19742714D01*
X9738333Y-19761762D01*
X9738333Y-19809381D01*
X9728810Y-19828429D01*
X9719286Y-19837952D01*
X9700238Y-19847476D01*
X9652619Y-19847476D01*
X9633571Y-19837952D01*
X9624048Y-19828429D01*
X9833571Y-19847476D02*
X9871667Y-19847476D01*
X9890714Y-19837952D01*
X9900238Y-19828429D01*
X9919286Y-19799857D01*
X9928810Y-19761762D01*
X9928810Y-19685571D01*
X9919286Y-19666524D01*
X9909762Y-19657000D01*
X9890714Y-19647476D01*
X9852619Y-19647476D01*
X9833571Y-19657000D01*
X9824048Y-19666524D01*
X9814524Y-19685571D01*
X9814524Y-19733190D01*
X9824048Y-19752238D01*
X9833571Y-19761762D01*
X9852619Y-19771286D01*
X9890714Y-19771286D01*
X9909762Y-19761762D01*
X9919286Y-19752238D01*
X9928810Y-19733190D01*
X10119286Y-19847476D02*
X10005000Y-19847476D01*
X10062143Y-19847476D02*
X10062143Y-19647476D01*
X10043095Y-19676048D01*
X10024048Y-19695095D01*
X10005000Y-19704619D01*
X10195476Y-19647476D02*
X10195476Y-19685571D01*
X10271667Y-19647476D02*
X10271667Y-19685571D01*
X10566905Y-19923667D02*
X10557381Y-19914143D01*
X10538333Y-19885571D01*
X10528810Y-19866524D01*
X10519286Y-19837952D01*
X10509762Y-19790333D01*
X10509762Y-19752238D01*
X10519286Y-19704619D01*
X10528810Y-19676048D01*
X10538333Y-19657000D01*
X10557381Y-19628429D01*
X10566905Y-19618905D01*
X10747857Y-19847476D02*
X10633571Y-19847476D01*
X10690714Y-19847476D02*
X10690714Y-19647476D01*
X10671667Y-19676048D01*
X10652619Y-19695095D01*
X10633571Y-19704619D01*
X10985952Y-19847476D02*
X10985952Y-19647476D01*
X11071667Y-19847476D02*
X11071667Y-19742714D01*
X11062143Y-19723667D01*
X11043095Y-19714143D01*
X11014524Y-19714143D01*
X10995476Y-19723667D01*
X10985952Y-19733190D01*
X11195476Y-19847476D02*
X11176429Y-19837952D01*
X11166905Y-19828429D01*
X11157381Y-19809381D01*
X11157381Y-19752238D01*
X11166905Y-19733190D01*
X11176429Y-19723667D01*
X11195476Y-19714143D01*
X11224048Y-19714143D01*
X11243095Y-19723667D01*
X11252619Y-19733190D01*
X11262143Y-19752238D01*
X11262143Y-19809381D01*
X11252619Y-19828429D01*
X11243095Y-19837952D01*
X11224048Y-19847476D01*
X11195476Y-19847476D01*
X11376428Y-19847476D02*
X11357381Y-19837952D01*
X11347857Y-19818905D01*
X11347857Y-19647476D01*
X11528809Y-19837952D02*
X11509762Y-19847476D01*
X11471667Y-19847476D01*
X11452619Y-19837952D01*
X11443095Y-19818905D01*
X11443095Y-19742714D01*
X11452619Y-19723667D01*
X11471667Y-19714143D01*
X11509762Y-19714143D01*
X11528809Y-19723667D01*
X11538333Y-19742714D01*
X11538333Y-19761762D01*
X11443095Y-19780810D01*
X11605000Y-19923667D02*
X11614524Y-19914143D01*
X11633571Y-19885571D01*
X11643095Y-19866524D01*
X11652619Y-19837952D01*
X11662143Y-19790333D01*
X11662143Y-19752238D01*
X11652619Y-19704619D01*
X11643095Y-19676048D01*
X11633571Y-19657000D01*
X11614524Y-19628429D01*
X11605000Y-19618905D01*
M02*
