G04 #@! TF.GenerationSoftware,KiCad,Pcbnew,6.0.11-2627ca5db0~126~ubuntu20.04.1*
G04 #@! TF.CreationDate,2023-03-15T01:56:03+01:00*
G04 #@! TF.ProjectId,IOB_V4,494f425f-5634-42e6-9b69-6361645f7063,rev?*
G04 #@! TF.SameCoordinates,Original*
G04 #@! TF.FileFunction,Soldermask,Bot*
G04 #@! TF.FilePolarity,Negative*
%FSLAX46Y46*%
G04 Gerber Fmt 4.6, Leading zero omitted, Abs format (unit mm)*
G04 Created by KiCad (PCBNEW 6.0.11-2627ca5db0~126~ubuntu20.04.1) date 2023-03-15 01:56:03*
%MOMM*%
%LPD*%
G01*
G04 APERTURE LIST*
G04 Aperture macros list*
%AMRoundRect*
0 Rectangle with rounded corners*
0 $1 Rounding radius*
0 $2 $3 $4 $5 $6 $7 $8 $9 X,Y pos of 4 corners*
0 Add a 4 corners polygon primitive as box body*
4,1,4,$2,$3,$4,$5,$6,$7,$8,$9,$2,$3,0*
0 Add four circle primitives for the rounded corners*
1,1,$1+$1,$2,$3*
1,1,$1+$1,$4,$5*
1,1,$1+$1,$6,$7*
1,1,$1+$1,$8,$9*
0 Add four rect primitives between the rounded corners*
20,1,$1+$1,$2,$3,$4,$5,0*
20,1,$1+$1,$4,$5,$6,$7,0*
20,1,$1+$1,$6,$7,$8,$9,0*
20,1,$1+$1,$8,$9,$2,$3,0*%
%AMFreePoly0*
4,1,22,0.945671,0.830970,1.026777,0.776777,1.080970,0.695671,1.100000,0.600000,1.100000,-0.600000,1.080970,-0.695671,1.026777,-0.776777,0.945671,-0.830970,0.850000,-0.850000,-0.450000,-0.850000,-0.545671,-0.830970,-0.626779,-0.776774,-1.026777,-0.376777,-1.080970,-0.295671,-1.100000,-0.200000,-1.100000,0.600000,-1.080970,0.695671,-1.026777,0.776777,-0.945671,0.830970,-0.850000,0.850000,
0.850000,0.850000,0.945671,0.830970,0.945671,0.830970,$1*%
G04 Aperture macros list end*
%ADD10C,3.000000*%
%ADD11C,1.300000*%
%ADD12FreePoly0,0.000000*%
%ADD13O,2.200000X1.700000*%
%ADD14C,1.000000*%
%ADD15RoundRect,0.250000X0.600000X0.600000X-0.600000X0.600000X-0.600000X-0.600000X0.600000X-0.600000X0*%
%ADD16C,1.700000*%
%ADD17RoundRect,0.250000X0.620000X0.620000X-0.620000X0.620000X-0.620000X-0.620000X0.620000X-0.620000X0*%
%ADD18C,1.740000*%
%ADD19R,1.700000X1.700000*%
%ADD20O,1.700000X1.700000*%
%ADD21RoundRect,0.250000X-0.620000X0.620000X-0.620000X-0.620000X0.620000X-0.620000X0.620000X0.620000X0*%
%ADD22C,2.500000*%
G04 APERTURE END LIST*
D10*
X81350000Y-53200000D03*
D11*
X75660000Y-54450000D03*
D12*
X77000000Y-53200000D03*
D13*
X77000000Y-55700000D03*
D14*
X126700000Y-158640000D03*
D15*
X145112500Y-64460000D03*
D16*
X142572500Y-64460000D03*
X145112500Y-61920000D03*
X142572500Y-61920000D03*
X145112500Y-59380000D03*
X142572500Y-59380000D03*
X145112500Y-56840000D03*
X142572500Y-56840000D03*
X145112500Y-54300000D03*
X142572500Y-54300000D03*
D14*
X126700000Y-162950000D03*
D17*
X85220000Y-137260000D03*
D18*
X82680000Y-137260000D03*
X80140000Y-137260000D03*
X77600000Y-137260000D03*
D19*
X136725000Y-62450000D03*
D20*
X134185000Y-62450000D03*
X131645000Y-62450000D03*
X129105000Y-62450000D03*
X126565000Y-62450000D03*
X124025000Y-62450000D03*
X121485000Y-62450000D03*
X118945000Y-62450000D03*
D21*
X75550000Y-95290000D03*
D18*
X75550000Y-97830000D03*
X75550000Y-100370000D03*
X75550000Y-102910000D03*
D17*
X85200000Y-147000000D03*
D18*
X82660000Y-147000000D03*
X80120000Y-147000000D03*
X77580000Y-147000000D03*
D19*
X76400000Y-60060000D03*
D20*
X76400000Y-62600000D03*
X76400000Y-65140000D03*
D14*
X122675000Y-162900000D03*
X115020000Y-67950000D03*
D16*
X100320000Y-67920000D03*
X97780000Y-67920000D03*
D14*
X122675000Y-158640000D03*
D16*
X107680000Y-67920000D03*
X110220000Y-67920000D03*
D15*
X145152500Y-104310000D03*
D16*
X142612500Y-104310000D03*
X145152500Y-101770000D03*
X142612500Y-101770000D03*
X145152500Y-99230000D03*
X142612500Y-99230000D03*
X145152500Y-96690000D03*
X142612500Y-96690000D03*
X145152500Y-94150000D03*
X142612500Y-94150000D03*
D22*
X111777767Y-118232233D03*
X108242233Y-118232233D03*
X108242233Y-121767767D03*
X111777767Y-121767767D03*
X111767767Y-158232233D03*
X108232233Y-158232233D03*
X108232233Y-161767767D03*
X111767767Y-161767767D03*
X141767767Y-38232233D03*
X138232233Y-38232233D03*
X138232233Y-41767767D03*
X141767767Y-41767767D03*
X81777767Y-118232233D03*
X78242233Y-118232233D03*
X78242233Y-121767767D03*
X81777767Y-121767767D03*
X141767767Y-78242233D03*
X138232233Y-78242233D03*
X138232233Y-81777767D03*
X141767767Y-81777767D03*
X81767767Y-158232233D03*
X78232233Y-158232233D03*
X78232233Y-161767767D03*
X81767767Y-161767767D03*
X81767767Y-38232233D03*
X78232233Y-38232233D03*
X78232233Y-41767767D03*
X81767767Y-41767767D03*
X111767767Y-38232233D03*
X108232233Y-38232233D03*
X108232233Y-41767767D03*
X111767767Y-41767767D03*
X111767767Y-78232233D03*
X108232233Y-78232233D03*
X108232233Y-81767767D03*
X111767767Y-81767767D03*
X141767767Y-118232233D03*
X138232233Y-118232233D03*
X138232233Y-121767767D03*
X141767767Y-121767767D03*
X81777767Y-78232233D03*
X78242233Y-78232233D03*
X78242233Y-81767767D03*
X81777767Y-81767767D03*
X141767767Y-158232233D03*
X138232233Y-158232233D03*
X138232233Y-161767767D03*
X141767767Y-161767767D03*
M02*
