%TF.GenerationSoftware,KiCad,Pcbnew,6.0.11-2627ca5db0~126~ubuntu20.04.1*%
%TF.CreationDate,2023-03-15T01:56:06+01:00*%
%TF.ProjectId,IOB_V4,494f425f-5634-42e6-9b69-6361645f7063,rev?*%
%TF.SameCoordinates,Original*%
%TF.FileFunction,Drillmap*%
%TF.FilePolarity,Positive*%
%FSLAX45Y45*%
G04 Gerber Fmt 4.5, Leading zero omitted, Abs format (unit mm)*
G04 Created by KiCad (PCBNEW 6.0.11-2627ca5db0~126~ubuntu20.04.1) date 2023-03-15 01:56:06*
%MOMM*%
%LPD*%
G01*
G04 APERTURE LIST*
%ADD10C,0.100000*%
%ADD11C,0.200000*%
%ADD12C,0.130000*%
G04 APERTURE END LIST*
D10*
X7000000Y-16900000D02*
X7000000Y-3100711D01*
X7100711Y-3000000D02*
G75*
G03*
X7000000Y-3100711I719J-101430D01*
G01*
X7100711Y-3000000D02*
X14898995Y-3000000D01*
X14898995Y-17000000D02*
X7101005Y-17000000D01*
X7000005Y-16900000D02*
G75*
G03*
X7101005Y-17000000I102025J2040D01*
G01*
X15000000Y-3101005D02*
X15000000Y-16898995D01*
X15000000Y-3101005D02*
G75*
G03*
X14898995Y-3000000I-102020J-1015D01*
G01*
X14898995Y-17000000D02*
G75*
G03*
X15000000Y-16898995I-1015J102020D01*
G01*
D11*
D12*
X7501000Y-5380000D02*
X7631000Y-5510000D01*
X7631000Y-5380000D02*
X7501000Y-5510000D01*
D11*
X7252619Y-17315476D02*
X7252619Y-17115476D01*
X7300238Y-17115476D01*
X7328809Y-17125000D01*
X7347857Y-17144048D01*
X7357381Y-17163095D01*
X7366905Y-17201190D01*
X7366905Y-17229762D01*
X7357381Y-17267857D01*
X7347857Y-17286905D01*
X7328809Y-17305952D01*
X7300238Y-17315476D01*
X7252619Y-17315476D01*
X7452619Y-17315476D02*
X7452619Y-17182143D01*
X7452619Y-17220238D02*
X7462143Y-17201190D01*
X7471667Y-17191667D01*
X7490714Y-17182143D01*
X7509762Y-17182143D01*
X7576428Y-17315476D02*
X7576428Y-17182143D01*
X7576428Y-17115476D02*
X7566905Y-17125000D01*
X7576428Y-17134524D01*
X7585952Y-17125000D01*
X7576428Y-17115476D01*
X7576428Y-17134524D01*
X7700238Y-17315476D02*
X7681190Y-17305952D01*
X7671667Y-17286905D01*
X7671667Y-17115476D01*
X7805000Y-17315476D02*
X7785952Y-17305952D01*
X7776428Y-17286905D01*
X7776428Y-17115476D01*
X8033571Y-17315476D02*
X8033571Y-17115476D01*
X8100238Y-17258333D01*
X8166905Y-17115476D01*
X8166905Y-17315476D01*
X8347857Y-17315476D02*
X8347857Y-17210714D01*
X8338333Y-17191667D01*
X8319286Y-17182143D01*
X8281190Y-17182143D01*
X8262143Y-17191667D01*
X8347857Y-17305952D02*
X8328809Y-17315476D01*
X8281190Y-17315476D01*
X8262143Y-17305952D01*
X8252619Y-17286905D01*
X8252619Y-17267857D01*
X8262143Y-17248810D01*
X8281190Y-17239286D01*
X8328809Y-17239286D01*
X8347857Y-17229762D01*
X8443095Y-17182143D02*
X8443095Y-17382143D01*
X8443095Y-17191667D02*
X8462143Y-17182143D01*
X8500238Y-17182143D01*
X8519286Y-17191667D01*
X8528810Y-17201190D01*
X8538333Y-17220238D01*
X8538333Y-17277381D01*
X8528810Y-17296429D01*
X8519286Y-17305952D01*
X8500238Y-17315476D01*
X8462143Y-17315476D01*
X8443095Y-17305952D01*
X8624048Y-17296429D02*
X8633571Y-17305952D01*
X8624048Y-17315476D01*
X8614524Y-17305952D01*
X8624048Y-17296429D01*
X8624048Y-17315476D01*
X8624048Y-17191667D02*
X8633571Y-17201190D01*
X8624048Y-17210714D01*
X8614524Y-17201190D01*
X8624048Y-17191667D01*
X8624048Y-17210714D01*
D12*
X6865000Y-17580000D02*
X6995000Y-17710000D01*
X6995000Y-17580000D02*
X6865000Y-17710000D01*
D11*
X7357381Y-17735476D02*
X7243095Y-17735476D01*
X7300238Y-17735476D02*
X7300238Y-17535476D01*
X7281190Y-17564048D01*
X7262143Y-17583095D01*
X7243095Y-17592619D01*
X7443095Y-17716429D02*
X7452619Y-17725952D01*
X7443095Y-17735476D01*
X7433571Y-17725952D01*
X7443095Y-17716429D01*
X7443095Y-17735476D01*
X7519286Y-17535476D02*
X7643095Y-17535476D01*
X7576428Y-17611667D01*
X7605000Y-17611667D01*
X7624048Y-17621190D01*
X7633571Y-17630714D01*
X7643095Y-17649762D01*
X7643095Y-17697381D01*
X7633571Y-17716429D01*
X7624048Y-17725952D01*
X7605000Y-17735476D01*
X7547857Y-17735476D01*
X7528809Y-17725952D01*
X7519286Y-17716429D01*
X7766905Y-17535476D02*
X7785952Y-17535476D01*
X7805000Y-17545000D01*
X7814524Y-17554524D01*
X7824048Y-17573571D01*
X7833571Y-17611667D01*
X7833571Y-17659286D01*
X7824048Y-17697381D01*
X7814524Y-17716429D01*
X7805000Y-17725952D01*
X7785952Y-17735476D01*
X7766905Y-17735476D01*
X7747857Y-17725952D01*
X7738333Y-17716429D01*
X7728809Y-17697381D01*
X7719286Y-17659286D01*
X7719286Y-17611667D01*
X7728809Y-17573571D01*
X7738333Y-17554524D01*
X7747857Y-17545000D01*
X7766905Y-17535476D01*
X7957381Y-17535476D02*
X7976428Y-17535476D01*
X7995476Y-17545000D01*
X8005000Y-17554524D01*
X8014524Y-17573571D01*
X8024048Y-17611667D01*
X8024048Y-17659286D01*
X8014524Y-17697381D01*
X8005000Y-17716429D01*
X7995476Y-17725952D01*
X7976428Y-17735476D01*
X7957381Y-17735476D01*
X7938333Y-17725952D01*
X7928809Y-17716429D01*
X7919286Y-17697381D01*
X7909762Y-17659286D01*
X7909762Y-17611667D01*
X7919286Y-17573571D01*
X7928809Y-17554524D01*
X7938333Y-17545000D01*
X7957381Y-17535476D01*
X8109762Y-17735476D02*
X8109762Y-17602143D01*
X8109762Y-17621190D02*
X8119286Y-17611667D01*
X8138333Y-17602143D01*
X8166905Y-17602143D01*
X8185952Y-17611667D01*
X8195476Y-17630714D01*
X8195476Y-17735476D01*
X8195476Y-17630714D02*
X8205000Y-17611667D01*
X8224048Y-17602143D01*
X8252619Y-17602143D01*
X8271667Y-17611667D01*
X8281190Y-17630714D01*
X8281190Y-17735476D01*
X8376428Y-17735476D02*
X8376428Y-17602143D01*
X8376428Y-17621190D02*
X8385952Y-17611667D01*
X8405000Y-17602143D01*
X8433571Y-17602143D01*
X8452619Y-17611667D01*
X8462143Y-17630714D01*
X8462143Y-17735476D01*
X8462143Y-17630714D02*
X8471667Y-17611667D01*
X8490714Y-17602143D01*
X8519286Y-17602143D01*
X8538333Y-17611667D01*
X8547857Y-17630714D01*
X8547857Y-17735476D01*
X8938333Y-17525952D02*
X8766905Y-17783095D01*
X9195476Y-17535476D02*
X9214524Y-17535476D01*
X9233571Y-17545000D01*
X9243095Y-17554524D01*
X9252619Y-17573571D01*
X9262143Y-17611667D01*
X9262143Y-17659286D01*
X9252619Y-17697381D01*
X9243095Y-17716429D01*
X9233571Y-17725952D01*
X9214524Y-17735476D01*
X9195476Y-17735476D01*
X9176429Y-17725952D01*
X9166905Y-17716429D01*
X9157381Y-17697381D01*
X9147857Y-17659286D01*
X9147857Y-17611667D01*
X9157381Y-17573571D01*
X9166905Y-17554524D01*
X9176429Y-17545000D01*
X9195476Y-17535476D01*
X9347857Y-17716429D02*
X9357381Y-17725952D01*
X9347857Y-17735476D01*
X9338333Y-17725952D01*
X9347857Y-17716429D01*
X9347857Y-17735476D01*
X9481190Y-17535476D02*
X9500238Y-17535476D01*
X9519286Y-17545000D01*
X9528810Y-17554524D01*
X9538333Y-17573571D01*
X9547857Y-17611667D01*
X9547857Y-17659286D01*
X9538333Y-17697381D01*
X9528810Y-17716429D01*
X9519286Y-17725952D01*
X9500238Y-17735476D01*
X9481190Y-17735476D01*
X9462143Y-17725952D01*
X9452619Y-17716429D01*
X9443095Y-17697381D01*
X9433571Y-17659286D01*
X9433571Y-17611667D01*
X9443095Y-17573571D01*
X9452619Y-17554524D01*
X9462143Y-17545000D01*
X9481190Y-17535476D01*
X9728810Y-17535476D02*
X9633571Y-17535476D01*
X9624048Y-17630714D01*
X9633571Y-17621190D01*
X9652619Y-17611667D01*
X9700238Y-17611667D01*
X9719286Y-17621190D01*
X9728810Y-17630714D01*
X9738333Y-17649762D01*
X9738333Y-17697381D01*
X9728810Y-17716429D01*
X9719286Y-17725952D01*
X9700238Y-17735476D01*
X9652619Y-17735476D01*
X9633571Y-17725952D01*
X9624048Y-17716429D01*
X9928810Y-17735476D02*
X9814524Y-17735476D01*
X9871667Y-17735476D02*
X9871667Y-17535476D01*
X9852619Y-17564048D01*
X9833571Y-17583095D01*
X9814524Y-17592619D01*
X10005000Y-17554524D02*
X10014524Y-17545000D01*
X10033571Y-17535476D01*
X10081190Y-17535476D01*
X10100238Y-17545000D01*
X10109762Y-17554524D01*
X10119286Y-17573571D01*
X10119286Y-17592619D01*
X10109762Y-17621190D01*
X9995476Y-17735476D01*
X10119286Y-17735476D01*
X10195476Y-17535476D02*
X10195476Y-17573571D01*
X10271667Y-17535476D02*
X10271667Y-17573571D01*
X10566905Y-17811667D02*
X10557381Y-17802143D01*
X10538333Y-17773571D01*
X10528810Y-17754524D01*
X10519286Y-17725952D01*
X10509762Y-17678333D01*
X10509762Y-17640238D01*
X10519286Y-17592619D01*
X10528810Y-17564048D01*
X10538333Y-17545000D01*
X10557381Y-17516429D01*
X10566905Y-17506905D01*
X10747857Y-17735476D02*
X10633571Y-17735476D01*
X10690714Y-17735476D02*
X10690714Y-17535476D01*
X10671667Y-17564048D01*
X10652619Y-17583095D01*
X10633571Y-17592619D01*
X10985952Y-17735476D02*
X10985952Y-17535476D01*
X11071667Y-17735476D02*
X11071667Y-17630714D01*
X11062143Y-17611667D01*
X11043095Y-17602143D01*
X11014524Y-17602143D01*
X10995476Y-17611667D01*
X10985952Y-17621190D01*
X11195476Y-17735476D02*
X11176429Y-17725952D01*
X11166905Y-17716429D01*
X11157381Y-17697381D01*
X11157381Y-17640238D01*
X11166905Y-17621190D01*
X11176429Y-17611667D01*
X11195476Y-17602143D01*
X11224048Y-17602143D01*
X11243095Y-17611667D01*
X11252619Y-17621190D01*
X11262143Y-17640238D01*
X11262143Y-17697381D01*
X11252619Y-17716429D01*
X11243095Y-17725952D01*
X11224048Y-17735476D01*
X11195476Y-17735476D01*
X11376428Y-17735476D02*
X11357381Y-17725952D01*
X11347857Y-17706905D01*
X11347857Y-17535476D01*
X11528809Y-17725952D02*
X11509762Y-17735476D01*
X11471667Y-17735476D01*
X11452619Y-17725952D01*
X11443095Y-17706905D01*
X11443095Y-17630714D01*
X11452619Y-17611667D01*
X11471667Y-17602143D01*
X11509762Y-17602143D01*
X11528809Y-17611667D01*
X11538333Y-17630714D01*
X11538333Y-17649762D01*
X11443095Y-17668810D01*
X11605000Y-17811667D02*
X11614524Y-17802143D01*
X11633571Y-17773571D01*
X11643095Y-17754524D01*
X11652619Y-17725952D01*
X11662143Y-17678333D01*
X11662143Y-17640238D01*
X11652619Y-17592619D01*
X11643095Y-17564048D01*
X11633571Y-17545000D01*
X11614524Y-17516429D01*
X11605000Y-17506905D01*
X11966905Y-17811667D02*
X11957381Y-17802143D01*
X11938333Y-17773571D01*
X11928809Y-17754524D01*
X11919286Y-17725952D01*
X11909762Y-17678333D01*
X11909762Y-17640238D01*
X11919286Y-17592619D01*
X11928809Y-17564048D01*
X11938333Y-17545000D01*
X11957381Y-17516429D01*
X11966905Y-17506905D01*
X12043095Y-17602143D02*
X12043095Y-17735476D01*
X12043095Y-17621190D02*
X12052619Y-17611667D01*
X12071667Y-17602143D01*
X12100238Y-17602143D01*
X12119286Y-17611667D01*
X12128809Y-17630714D01*
X12128809Y-17735476D01*
X12252619Y-17735476D02*
X12233571Y-17725952D01*
X12224048Y-17716429D01*
X12214524Y-17697381D01*
X12214524Y-17640238D01*
X12224048Y-17621190D01*
X12233571Y-17611667D01*
X12252619Y-17602143D01*
X12281190Y-17602143D01*
X12300238Y-17611667D01*
X12309762Y-17621190D01*
X12319286Y-17640238D01*
X12319286Y-17697381D01*
X12309762Y-17716429D01*
X12300238Y-17725952D01*
X12281190Y-17735476D01*
X12252619Y-17735476D01*
X12376428Y-17602143D02*
X12452619Y-17602143D01*
X12405000Y-17535476D02*
X12405000Y-17706905D01*
X12414524Y-17725952D01*
X12433571Y-17735476D01*
X12452619Y-17735476D01*
X12671667Y-17602143D02*
X12671667Y-17802143D01*
X12671667Y-17611667D02*
X12690714Y-17602143D01*
X12728809Y-17602143D01*
X12747857Y-17611667D01*
X12757381Y-17621190D01*
X12766905Y-17640238D01*
X12766905Y-17697381D01*
X12757381Y-17716429D01*
X12747857Y-17725952D01*
X12728809Y-17735476D01*
X12690714Y-17735476D01*
X12671667Y-17725952D01*
X12881190Y-17735476D02*
X12862143Y-17725952D01*
X12852619Y-17706905D01*
X12852619Y-17535476D01*
X13043095Y-17735476D02*
X13043095Y-17630714D01*
X13033571Y-17611667D01*
X13014524Y-17602143D01*
X12976428Y-17602143D01*
X12957381Y-17611667D01*
X13043095Y-17725952D02*
X13024048Y-17735476D01*
X12976428Y-17735476D01*
X12957381Y-17725952D01*
X12947857Y-17706905D01*
X12947857Y-17687857D01*
X12957381Y-17668810D01*
X12976428Y-17659286D01*
X13024048Y-17659286D01*
X13043095Y-17649762D01*
X13109762Y-17602143D02*
X13185952Y-17602143D01*
X13138333Y-17535476D02*
X13138333Y-17706905D01*
X13147857Y-17725952D01*
X13166905Y-17735476D01*
X13185952Y-17735476D01*
X13328809Y-17725952D02*
X13309762Y-17735476D01*
X13271667Y-17735476D01*
X13252619Y-17725952D01*
X13243095Y-17706905D01*
X13243095Y-17630714D01*
X13252619Y-17611667D01*
X13271667Y-17602143D01*
X13309762Y-17602143D01*
X13328809Y-17611667D01*
X13338333Y-17630714D01*
X13338333Y-17649762D01*
X13243095Y-17668810D01*
X13509762Y-17735476D02*
X13509762Y-17535476D01*
X13509762Y-17725952D02*
X13490714Y-17735476D01*
X13452619Y-17735476D01*
X13433571Y-17725952D01*
X13424048Y-17716429D01*
X13414524Y-17697381D01*
X13414524Y-17640238D01*
X13424048Y-17621190D01*
X13433571Y-17611667D01*
X13452619Y-17602143D01*
X13490714Y-17602143D01*
X13509762Y-17611667D01*
X13585952Y-17811667D02*
X13595476Y-17802143D01*
X13614524Y-17773571D01*
X13624048Y-17754524D01*
X13633571Y-17725952D01*
X13643095Y-17678333D01*
X13643095Y-17640238D01*
X13633571Y-17592619D01*
X13624048Y-17564048D01*
X13614524Y-17545000D01*
X13595476Y-17516429D01*
X13585952Y-17506905D01*
M02*
