G04 #@! TF.GenerationSoftware,KiCad,Pcbnew,6.0.11-2627ca5db0~126~ubuntu20.04.1*
G04 #@! TF.CreationDate,2023-03-15T01:56:03+01:00*
G04 #@! TF.ProjectId,IOB_V4,494f425f-5634-42e6-9b69-6361645f7063,rev?*
G04 #@! TF.SameCoordinates,Original*
G04 #@! TF.FileFunction,Paste,Top*
G04 #@! TF.FilePolarity,Positive*
%FSLAX46Y46*%
G04 Gerber Fmt 4.6, Leading zero omitted, Abs format (unit mm)*
G04 Created by KiCad (PCBNEW 6.0.11-2627ca5db0~126~ubuntu20.04.1) date 2023-03-15 01:56:03*
%MOMM*%
%LPD*%
G01*
G04 APERTURE LIST*
G04 Aperture macros list*
%AMRoundRect*
0 Rectangle with rounded corners*
0 $1 Rounding radius*
0 $2 $3 $4 $5 $6 $7 $8 $9 X,Y pos of 4 corners*
0 Add a 4 corners polygon primitive as box body*
4,1,4,$2,$3,$4,$5,$6,$7,$8,$9,$2,$3,0*
0 Add four circle primitives for the rounded corners*
1,1,$1+$1,$2,$3*
1,1,$1+$1,$4,$5*
1,1,$1+$1,$6,$7*
1,1,$1+$1,$8,$9*
0 Add four rect primitives between the rounded corners*
20,1,$1+$1,$2,$3,$4,$5,0*
20,1,$1+$1,$4,$5,$6,$7,0*
20,1,$1+$1,$6,$7,$8,$9,0*
20,1,$1+$1,$8,$9,$2,$3,0*%
G04 Aperture macros list end*
%ADD10RoundRect,0.243750X-0.456250X0.243750X-0.456250X-0.243750X0.456250X-0.243750X0.456250X0.243750X0*%
%ADD11RoundRect,0.243750X0.243750X0.456250X-0.243750X0.456250X-0.243750X-0.456250X0.243750X-0.456250X0*%
%ADD12RoundRect,0.200000X-0.275000X0.200000X-0.275000X-0.200000X0.275000X-0.200000X0.275000X0.200000X0*%
%ADD13RoundRect,0.140000X-0.170000X0.140000X-0.170000X-0.140000X0.170000X-0.140000X0.170000X0.140000X0*%
%ADD14RoundRect,0.200000X0.275000X-0.200000X0.275000X0.200000X-0.275000X0.200000X-0.275000X-0.200000X0*%
%ADD15RoundRect,0.200000X-0.200000X-0.275000X0.200000X-0.275000X0.200000X0.275000X-0.200000X0.275000X0*%
%ADD16R,0.740000X2.400000*%
%ADD17RoundRect,0.218750X0.218750X0.256250X-0.218750X0.256250X-0.218750X-0.256250X0.218750X-0.256250X0*%
%ADD18RoundRect,0.140000X0.170000X-0.140000X0.170000X0.140000X-0.170000X0.140000X-0.170000X-0.140000X0*%
%ADD19RoundRect,0.200000X0.200000X0.275000X-0.200000X0.275000X-0.200000X-0.275000X0.200000X-0.275000X0*%
%ADD20RoundRect,0.225000X-0.250000X0.225000X-0.250000X-0.225000X0.250000X-0.225000X0.250000X0.225000X0*%
%ADD21R,0.340000X1.000000*%
%ADD22R,1.640000X0.500000*%
%ADD23R,2.290000X1.710000*%
%ADD24R,1.000000X0.500000*%
%ADD25R,3.500000X4.500000*%
%ADD26R,1.100000X1.100000*%
%ADD27RoundRect,0.150000X-0.150000X0.587500X-0.150000X-0.587500X0.150000X-0.587500X0.150000X0.587500X0*%
%ADD28R,0.450000X1.200000*%
%ADD29R,2.000000X4.200000*%
%ADD30RoundRect,0.250000X0.550000X-1.500000X0.550000X1.500000X-0.550000X1.500000X-0.550000X-1.500000X0*%
%ADD31RoundRect,0.225000X0.250000X-0.225000X0.250000X0.225000X-0.250000X0.225000X-0.250000X-0.225000X0*%
%ADD32RoundRect,0.225000X0.225000X0.250000X-0.225000X0.250000X-0.225000X-0.250000X0.225000X-0.250000X0*%
%ADD33R,0.760000X1.270000*%
%ADD34RoundRect,0.150000X-0.587500X-0.150000X0.587500X-0.150000X0.587500X0.150000X-0.587500X0.150000X0*%
%ADD35RoundRect,0.250000X0.475000X-0.250000X0.475000X0.250000X-0.475000X0.250000X-0.475000X-0.250000X0*%
%ADD36R,1.000000X0.340000*%
%ADD37R,0.500000X1.640000*%
%ADD38R,1.710000X2.290000*%
%ADD39R,2.540000X1.270000*%
%ADD40R,1.650000X3.430000*%
%ADD41R,4.200000X1.400000*%
%ADD42R,0.450000X1.750000*%
%ADD43R,0.600000X1.000000*%
%ADD44R,0.650000X0.350000*%
%ADD45RoundRect,0.190000X0.190000X0.190000X-0.190000X0.190000X-0.190000X-0.190000X0.190000X-0.190000X0*%
%ADD46RoundRect,0.062500X0.325000X0.062500X-0.325000X0.062500X-0.325000X-0.062500X0.325000X-0.062500X0*%
%ADD47RoundRect,0.062500X0.062500X0.325000X-0.062500X0.325000X-0.062500X-0.325000X0.062500X-0.325000X0*%
%ADD48R,1.500000X1.500000*%
%ADD49R,1.400000X1.200000*%
%ADD50RoundRect,0.062500X0.062500X-0.675000X0.062500X0.675000X-0.062500X0.675000X-0.062500X-0.675000X0*%
%ADD51RoundRect,0.062500X0.675000X-0.062500X0.675000X0.062500X-0.675000X0.062500X-0.675000X-0.062500X0*%
G04 APERTURE END LIST*
D10*
X148100000Y-37262500D03*
X148100000Y-39137500D03*
X88000000Y-156925000D03*
X88000000Y-158800000D03*
X118100000Y-156962500D03*
X118100000Y-158837500D03*
X148100000Y-157062500D03*
X148100000Y-158937500D03*
X88100000Y-116962500D03*
X88100000Y-118837500D03*
X118200000Y-117062500D03*
X118200000Y-118937500D03*
X148100000Y-116962500D03*
X148100000Y-118837500D03*
X88100000Y-76862500D03*
X88100000Y-78737500D03*
X118100000Y-76862500D03*
X118100000Y-78737500D03*
X148200000Y-76962500D03*
X148200000Y-78837500D03*
X88200000Y-36962500D03*
X88200000Y-38837500D03*
X118100000Y-36962500D03*
X118100000Y-38837500D03*
D11*
X136007500Y-138020000D03*
X134132500Y-138020000D03*
X144262500Y-41720000D03*
X146137500Y-41720000D03*
X146187500Y-39810000D03*
X144312500Y-39810000D03*
X86257500Y-161680000D03*
X84382500Y-161680000D03*
X86257500Y-159775000D03*
X84382500Y-159775000D03*
X116317500Y-161700000D03*
X114442500Y-161700000D03*
X116322500Y-159800000D03*
X114447500Y-159800000D03*
X146317500Y-161700000D03*
X144442500Y-161700000D03*
X146322500Y-159795000D03*
X144447500Y-159795000D03*
X86357500Y-121690000D03*
X84482500Y-121690000D03*
X86357500Y-119750000D03*
X84482500Y-119750000D03*
X116317500Y-121720000D03*
X114442500Y-121720000D03*
X116317500Y-119820000D03*
X114442500Y-119820000D03*
X146297500Y-121670000D03*
X144422500Y-121670000D03*
X146297500Y-119770000D03*
X144422500Y-119770000D03*
X86307500Y-81710000D03*
X84432500Y-81710000D03*
X86317500Y-79810000D03*
X84442500Y-79810000D03*
X116297500Y-81670000D03*
X114422500Y-81670000D03*
X116307500Y-79770000D03*
X114432500Y-79770000D03*
X146347500Y-81720000D03*
X144472500Y-81720000D03*
X146347500Y-79820000D03*
X144472500Y-79820000D03*
X86317500Y-41720000D03*
X84442500Y-41720000D03*
X86317500Y-39820000D03*
X84442500Y-39820000D03*
X116292500Y-41755000D03*
X114417500Y-41755000D03*
X116297500Y-39850000D03*
X114422500Y-39850000D03*
D12*
X147300000Y-33875000D03*
X147300000Y-35525000D03*
X87400000Y-153775000D03*
X87400000Y-155425000D03*
X117400000Y-153875000D03*
X117400000Y-155525000D03*
X147600000Y-153875000D03*
X147600000Y-155525000D03*
X87400000Y-113775000D03*
X87400000Y-115425000D03*
X117400000Y-113875000D03*
X117400000Y-115525000D03*
X147400000Y-113775000D03*
X147400000Y-115425000D03*
X87400000Y-73775000D03*
X87400000Y-75425000D03*
X117400000Y-73775000D03*
X117400000Y-75425000D03*
X147400000Y-73875000D03*
X147400000Y-75525000D03*
X87400000Y-35525000D03*
X87400000Y-33875000D03*
X117400000Y-33875000D03*
X117400000Y-35525000D03*
D13*
X88300000Y-106650000D03*
X88300000Y-107610000D03*
D14*
X137970000Y-45875000D03*
X137970000Y-44225000D03*
D15*
X114295000Y-155410000D03*
X115945000Y-155410000D03*
D16*
X131670000Y-57750000D03*
X131670000Y-53850000D03*
X132940000Y-57750000D03*
X132940000Y-53850000D03*
X134210000Y-57750000D03*
X134210000Y-53850000D03*
X135480000Y-57750000D03*
X135480000Y-53850000D03*
D17*
X124237500Y-54800000D03*
X122662500Y-54800000D03*
D18*
X86800000Y-104760000D03*
X86800000Y-103800000D03*
D19*
X127525000Y-135650000D03*
X125875000Y-135650000D03*
D20*
X82980000Y-84225000D03*
X82980000Y-85775000D03*
D14*
X79490000Y-165835000D03*
X79490000Y-164185000D03*
X109530000Y-85805000D03*
X109530000Y-84155000D03*
D12*
X81280000Y-124185000D03*
X81280000Y-125835000D03*
D14*
X77970000Y-165835000D03*
X77970000Y-164185000D03*
D21*
X112235000Y-112990000D03*
X112885000Y-112990000D03*
X111585000Y-112990000D03*
D22*
X112235000Y-113240000D03*
D21*
X110935000Y-112990000D03*
X112885000Y-115890000D03*
X111585000Y-115890000D03*
X110935000Y-115890000D03*
D23*
X111910000Y-114735000D03*
D21*
X112235000Y-115890000D03*
D17*
X124237500Y-51550000D03*
X122662500Y-51550000D03*
D14*
X79550000Y-45885000D03*
X79550000Y-44235000D03*
D15*
X144315000Y-72400000D03*
X145965000Y-72400000D03*
D24*
X119200000Y-106735000D03*
X119200000Y-105465000D03*
X119200000Y-104195000D03*
X119200000Y-102925000D03*
X111200000Y-102925000D03*
X111200000Y-104195000D03*
X111200000Y-105465000D03*
X111200000Y-106735000D03*
D25*
X115200000Y-104830000D03*
D19*
X85975000Y-33940000D03*
X84325000Y-33940000D03*
D12*
X111210000Y-84175000D03*
X111210000Y-85825000D03*
D19*
X145925000Y-113860000D03*
X144275000Y-113860000D03*
D20*
X82990000Y-44275000D03*
X82990000Y-45825000D03*
D12*
X141280000Y-84235000D03*
X141280000Y-85885000D03*
D26*
X136132500Y-165530000D03*
X133332500Y-165530000D03*
D27*
X108930000Y-100922500D03*
X107030000Y-100922500D03*
X107980000Y-102797500D03*
D22*
X112215000Y-33265000D03*
D21*
X112215000Y-33015000D03*
X111565000Y-33015000D03*
X112865000Y-33015000D03*
X110915000Y-33015000D03*
D23*
X111890000Y-34760000D03*
D21*
X110915000Y-35915000D03*
X112215000Y-35915000D03*
X112865000Y-35915000D03*
X111565000Y-35915000D03*
D14*
X139540000Y-125815000D03*
X139540000Y-124165000D03*
X108040000Y-165865000D03*
X108040000Y-164215000D03*
D26*
X136080000Y-45480000D03*
X133280000Y-45480000D03*
D18*
X121275000Y-143955000D03*
X121275000Y-142995000D03*
D15*
X84325000Y-32420000D03*
X85975000Y-32420000D03*
X114275000Y-72360000D03*
X115925000Y-72360000D03*
D12*
X141260000Y-164205000D03*
X141260000Y-165855000D03*
D15*
X114295000Y-112390000D03*
X115945000Y-112390000D03*
D14*
X138050000Y-85885000D03*
X138050000Y-84235000D03*
D15*
X84945000Y-102530000D03*
X86595000Y-102530000D03*
D28*
X107485000Y-115540000D03*
X108135000Y-115540000D03*
X108785000Y-115540000D03*
X109435000Y-115540000D03*
X109435000Y-113040000D03*
X108785000Y-113040000D03*
X108135000Y-113040000D03*
X107485000Y-113040000D03*
D12*
X111250000Y-164205000D03*
X111250000Y-165855000D03*
D18*
X95040000Y-91100000D03*
X95040000Y-90140000D03*
X84600000Y-131205000D03*
X84600000Y-130245000D03*
D19*
X85925000Y-73890000D03*
X84275000Y-73890000D03*
D29*
X91250000Y-38000000D03*
X99250000Y-38000000D03*
D21*
X141575000Y-152970000D03*
X142225000Y-152970000D03*
D22*
X142225000Y-153220000D03*
D21*
X142875000Y-152970000D03*
X140925000Y-152970000D03*
X142225000Y-155870000D03*
X140925000Y-155870000D03*
X142875000Y-155870000D03*
X141575000Y-155870000D03*
D23*
X141900000Y-154715000D03*
D19*
X145895000Y-33910000D03*
X144245000Y-33910000D03*
D15*
X119575000Y-53175000D03*
X121225000Y-53175000D03*
D30*
X118500000Y-141250000D03*
X118500000Y-135650000D03*
D15*
X144245000Y-32390000D03*
X145895000Y-32390000D03*
D31*
X132350000Y-139875000D03*
X132350000Y-138325000D03*
D26*
X136170000Y-85500000D03*
X133370000Y-85500000D03*
D21*
X112855000Y-152970000D03*
D22*
X112205000Y-153220000D03*
D21*
X112205000Y-152970000D03*
X111555000Y-152970000D03*
X110905000Y-152970000D03*
X112205000Y-155870000D03*
D23*
X111880000Y-154715000D03*
D21*
X111555000Y-155870000D03*
X112855000Y-155870000D03*
X110905000Y-155870000D03*
D14*
X78020000Y-45885000D03*
X78020000Y-44235000D03*
D32*
X124575000Y-141400000D03*
X123025000Y-141400000D03*
D14*
X138020000Y-125815000D03*
X138020000Y-124165000D03*
X79000000Y-132025000D03*
X79000000Y-130375000D03*
D15*
X84315000Y-112360000D03*
X85965000Y-112360000D03*
X114295000Y-152370000D03*
X115945000Y-152370000D03*
D14*
X92320000Y-49065000D03*
X92320000Y-47415000D03*
D21*
X82855000Y-33000000D03*
D22*
X82205000Y-33250000D03*
D21*
X82205000Y-33000000D03*
X81555000Y-33000000D03*
X80905000Y-33000000D03*
X82205000Y-35900000D03*
D23*
X81880000Y-34745000D03*
D21*
X81555000Y-35900000D03*
X82855000Y-35900000D03*
X80905000Y-35900000D03*
D20*
X82920000Y-164205000D03*
X82920000Y-165755000D03*
D28*
X77425000Y-155500000D03*
X78075000Y-155500000D03*
X78725000Y-155500000D03*
X79375000Y-155500000D03*
X79375000Y-153000000D03*
X78725000Y-153000000D03*
X78075000Y-153000000D03*
X77425000Y-153000000D03*
D19*
X115945000Y-153890000D03*
X114295000Y-153890000D03*
X115945000Y-113910000D03*
X114295000Y-113910000D03*
D14*
X109500000Y-45905000D03*
X109500000Y-44255000D03*
D20*
X112960000Y-84195000D03*
X112960000Y-85745000D03*
D28*
X107455000Y-155530000D03*
X108105000Y-155530000D03*
X108755000Y-155530000D03*
X109405000Y-155530000D03*
X109405000Y-153030000D03*
X108755000Y-153030000D03*
X108105000Y-153030000D03*
X107455000Y-153030000D03*
D33*
X122065000Y-107860000D03*
X123335000Y-107860000D03*
X124605000Y-107860000D03*
X125875000Y-107860000D03*
X127145000Y-107860000D03*
X128415000Y-107860000D03*
X129685000Y-107860000D03*
X130955000Y-107860000D03*
X130955000Y-100240000D03*
X129685000Y-100240000D03*
X128415000Y-100240000D03*
X127145000Y-100240000D03*
X125875000Y-100240000D03*
X124605000Y-100240000D03*
X123335000Y-100240000D03*
X122065000Y-100240000D03*
D15*
X114295000Y-115430000D03*
X115945000Y-115430000D03*
D21*
X112205000Y-72950000D03*
X112855000Y-72950000D03*
X111555000Y-72950000D03*
D22*
X112205000Y-73200000D03*
D21*
X110905000Y-72950000D03*
X112855000Y-75850000D03*
X112205000Y-75850000D03*
X110905000Y-75850000D03*
D23*
X111880000Y-74695000D03*
D21*
X111555000Y-75850000D03*
D15*
X84275000Y-155400000D03*
X85925000Y-155400000D03*
D14*
X139490000Y-45875000D03*
X139490000Y-44225000D03*
D15*
X119575000Y-51550000D03*
X121225000Y-51550000D03*
D19*
X115945000Y-33950000D03*
X114295000Y-33950000D03*
D34*
X122812500Y-142975000D03*
X122812500Y-144875000D03*
X124687500Y-143925000D03*
D15*
X119580000Y-49915000D03*
X121230000Y-49915000D03*
D28*
X77515000Y-115510000D03*
X78165000Y-115510000D03*
X78815000Y-115510000D03*
X79465000Y-115510000D03*
X79465000Y-113010000D03*
X78815000Y-113010000D03*
X78165000Y-113010000D03*
X77515000Y-113010000D03*
D14*
X108040000Y-125875000D03*
X108040000Y-124225000D03*
D15*
X84325000Y-35460000D03*
X85975000Y-35460000D03*
D20*
X142960000Y-44275000D03*
X142960000Y-45825000D03*
D35*
X138100000Y-138125000D03*
X138100000Y-136225000D03*
D15*
X144315000Y-75440000D03*
X145965000Y-75440000D03*
X144275000Y-115380000D03*
X145925000Y-115380000D03*
D12*
X81230000Y-84215000D03*
X81230000Y-85865000D03*
D28*
X107475000Y-75490000D03*
X108125000Y-75490000D03*
X108775000Y-75490000D03*
X109425000Y-75490000D03*
X109425000Y-72990000D03*
X108775000Y-72990000D03*
X108125000Y-72990000D03*
X107475000Y-72990000D03*
D26*
X136092500Y-125490000D03*
X133292500Y-125490000D03*
D15*
X114295000Y-35470000D03*
X115945000Y-35470000D03*
D26*
X106142500Y-165520000D03*
X103342500Y-165520000D03*
X106152500Y-125540000D03*
X103352500Y-125540000D03*
D36*
X91695000Y-45035000D03*
X91695000Y-44385000D03*
D37*
X91945000Y-45035000D03*
D36*
X91695000Y-45685000D03*
X91695000Y-46335000D03*
X94595000Y-45685000D03*
X94595000Y-44385000D03*
X94595000Y-46335000D03*
D38*
X93440000Y-45360000D03*
D36*
X94595000Y-45035000D03*
D17*
X124237500Y-53175000D03*
X122662500Y-53175000D03*
D12*
X141220000Y-44225000D03*
X141220000Y-45875000D03*
D19*
X85925000Y-153880000D03*
X84275000Y-153880000D03*
D28*
X77445000Y-75520000D03*
X78095000Y-75520000D03*
X78745000Y-75520000D03*
X79395000Y-75520000D03*
X79395000Y-73020000D03*
X78745000Y-73020000D03*
X78095000Y-73020000D03*
X77445000Y-73020000D03*
X137515000Y-75540000D03*
X138165000Y-75540000D03*
X138815000Y-75540000D03*
X139465000Y-75540000D03*
X139465000Y-73040000D03*
X138815000Y-73040000D03*
X138165000Y-73040000D03*
X137515000Y-73040000D03*
D14*
X109560000Y-165865000D03*
X109560000Y-164215000D03*
D12*
X141230000Y-124185000D03*
X141230000Y-125835000D03*
D14*
X78060000Y-125845000D03*
X78060000Y-124195000D03*
X139550000Y-165855000D03*
X139550000Y-164205000D03*
D39*
X140980000Y-138500000D03*
X140980000Y-141500000D03*
D40*
X144400000Y-134615000D03*
X144400000Y-145385000D03*
D21*
X82885000Y-72980000D03*
X82235000Y-72980000D03*
D22*
X82235000Y-73230000D03*
D21*
X81585000Y-72980000D03*
X80935000Y-72980000D03*
X82885000Y-75880000D03*
X81585000Y-75880000D03*
X80935000Y-75880000D03*
X82235000Y-75880000D03*
D23*
X81910000Y-74725000D03*
D12*
X81240000Y-44235000D03*
X81240000Y-45885000D03*
D18*
X79300000Y-128680000D03*
X79300000Y-127720000D03*
D41*
X128275000Y-141650000D03*
X128275000Y-144450000D03*
D14*
X78040000Y-85865000D03*
X78040000Y-84215000D03*
D31*
X124725000Y-138975000D03*
X124725000Y-137425000D03*
D20*
X143010000Y-84285000D03*
X143010000Y-85835000D03*
D42*
X128475000Y-90380000D03*
X127825000Y-90380000D03*
X127175000Y-90380000D03*
X126525000Y-90380000D03*
X125875000Y-90380000D03*
X125225000Y-90380000D03*
X124575000Y-90380000D03*
X123925000Y-90380000D03*
X123275000Y-90380000D03*
X122625000Y-90380000D03*
X121975000Y-90380000D03*
X121325000Y-90380000D03*
X121325000Y-97580000D03*
X121975000Y-97580000D03*
X122625000Y-97580000D03*
X123275000Y-97580000D03*
X123925000Y-97580000D03*
X124575000Y-97580000D03*
X125225000Y-97580000D03*
X125875000Y-97580000D03*
X126525000Y-97580000D03*
X127175000Y-97580000D03*
X127825000Y-97580000D03*
X128475000Y-97580000D03*
D14*
X79560000Y-85865000D03*
X79560000Y-84215000D03*
D15*
X144445000Y-155420000D03*
X146095000Y-155420000D03*
X114285000Y-32430000D03*
X115935000Y-32430000D03*
D43*
X82387500Y-130000000D03*
X81612500Y-131200000D03*
X81612500Y-130000000D03*
X82387500Y-131200000D03*
D44*
X83550000Y-131575000D03*
X83550000Y-130925000D03*
X83550000Y-130275000D03*
X83550000Y-129625000D03*
X80450000Y-129625000D03*
X80450000Y-130275000D03*
X80450000Y-130925000D03*
X80450000Y-131575000D03*
D45*
X127835000Y-138160000D03*
X128715000Y-139040000D03*
X127835000Y-139040000D03*
X128715000Y-138160000D03*
D46*
X129737500Y-139350000D03*
X129737500Y-138850000D03*
X129737500Y-138350000D03*
X129737500Y-137850000D03*
D47*
X129025000Y-137137500D03*
X128525000Y-137137500D03*
X128025000Y-137137500D03*
X127525000Y-137137500D03*
D46*
X126812500Y-137850000D03*
X126812500Y-138350000D03*
X126812500Y-138850000D03*
X126812500Y-139350000D03*
D47*
X127525000Y-140062500D03*
X128025000Y-140062500D03*
X128525000Y-140062500D03*
X129025000Y-140062500D03*
D26*
X76080000Y-165510000D03*
X73280000Y-165510000D03*
D19*
X145965000Y-73920000D03*
X144315000Y-73920000D03*
D12*
X111280000Y-124235000D03*
X111280000Y-125885000D03*
D15*
X144275000Y-112340000D03*
X145925000Y-112340000D03*
D18*
X100960000Y-92500000D03*
X100960000Y-91540000D03*
D15*
X128925000Y-135650000D03*
X130575000Y-135650000D03*
D26*
X96550000Y-45500000D03*
X96550000Y-48300000D03*
D28*
X137415000Y-35550000D03*
X138065000Y-35550000D03*
X138715000Y-35550000D03*
X139365000Y-35550000D03*
X139365000Y-33050000D03*
X138715000Y-33050000D03*
X138065000Y-33050000D03*
X137415000Y-33050000D03*
D20*
X112990000Y-164235000D03*
X112990000Y-165785000D03*
D19*
X85965000Y-113880000D03*
X84315000Y-113880000D03*
D28*
X77475000Y-35540000D03*
X78125000Y-35540000D03*
X78775000Y-35540000D03*
X79425000Y-35540000D03*
X79425000Y-33040000D03*
X78775000Y-33040000D03*
X78125000Y-33040000D03*
X77475000Y-33040000D03*
D19*
X115925000Y-73880000D03*
X114275000Y-73880000D03*
D28*
X137465000Y-155540000D03*
X138115000Y-155540000D03*
X138765000Y-155540000D03*
X139415000Y-155540000D03*
X139415000Y-153040000D03*
X138765000Y-153040000D03*
X138115000Y-153040000D03*
X137465000Y-153040000D03*
D20*
X83030000Y-124245000D03*
X83030000Y-125795000D03*
D13*
X89310000Y-106640000D03*
X89310000Y-107600000D03*
D14*
X108010000Y-85805000D03*
X108010000Y-84155000D03*
D26*
X76180000Y-125510000D03*
X73380000Y-125510000D03*
D18*
X130975000Y-139580000D03*
X130975000Y-138620000D03*
D15*
X144245000Y-35430000D03*
X145895000Y-35430000D03*
X114275000Y-75400000D03*
X115925000Y-75400000D03*
D48*
X102950000Y-67920000D03*
X95150000Y-67920000D03*
D26*
X76160000Y-45520000D03*
X73360000Y-45520000D03*
D21*
X141625000Y-72995000D03*
D22*
X142275000Y-73245000D03*
D21*
X142925000Y-72995000D03*
X142275000Y-72995000D03*
X140975000Y-72995000D03*
D23*
X141950000Y-74740000D03*
D21*
X141625000Y-75895000D03*
X142275000Y-75895000D03*
X142925000Y-75895000D03*
X140975000Y-75895000D03*
D26*
X106130000Y-85480000D03*
X103330000Y-85480000D03*
D12*
X93870000Y-47415000D03*
X93870000Y-49065000D03*
D13*
X136150000Y-139570000D03*
X136150000Y-140530000D03*
D14*
X79580000Y-125845000D03*
X79580000Y-124195000D03*
D21*
X142185000Y-32980000D03*
D22*
X142185000Y-33230000D03*
D21*
X141535000Y-32980000D03*
X142835000Y-32980000D03*
X140885000Y-32980000D03*
X141535000Y-35880000D03*
X142185000Y-35880000D03*
X142835000Y-35880000D03*
X140885000Y-35880000D03*
D23*
X141860000Y-34725000D03*
D49*
X83210000Y-108440000D03*
X85750000Y-108440000D03*
X85750000Y-106240000D03*
X83210000Y-106240000D03*
D20*
X131325000Y-141825000D03*
X131325000Y-143375000D03*
D28*
X137445000Y-115490000D03*
X138095000Y-115490000D03*
X138745000Y-115490000D03*
X139395000Y-115490000D03*
X139395000Y-112990000D03*
X138745000Y-112990000D03*
X138095000Y-112990000D03*
X137445000Y-112990000D03*
D21*
X142855000Y-112940000D03*
X142205000Y-112940000D03*
D22*
X142205000Y-113190000D03*
D21*
X141555000Y-112940000D03*
X140905000Y-112940000D03*
D23*
X141880000Y-114685000D03*
D21*
X142855000Y-115840000D03*
X140905000Y-115840000D03*
X141555000Y-115840000D03*
X142205000Y-115840000D03*
D20*
X142990000Y-164265000D03*
X142990000Y-165815000D03*
D14*
X109560000Y-125875000D03*
X109560000Y-124225000D03*
D15*
X144445000Y-152380000D03*
X146095000Y-152380000D03*
D20*
X112950000Y-44295000D03*
X112950000Y-45845000D03*
D17*
X124237500Y-49925000D03*
X122662500Y-49925000D03*
D15*
X84275000Y-75410000D03*
X85925000Y-75410000D03*
D26*
X137900000Y-139875000D03*
X137900000Y-142675000D03*
D14*
X138030000Y-165855000D03*
X138030000Y-164205000D03*
D26*
X106110000Y-45530000D03*
X103310000Y-45530000D03*
D14*
X107980000Y-45905000D03*
X107980000Y-44255000D03*
D20*
X112980000Y-124255000D03*
X112980000Y-125805000D03*
X132875000Y-141825000D03*
X132875000Y-143375000D03*
D18*
X86670000Y-95430000D03*
X86670000Y-94470000D03*
D20*
X142960000Y-124205000D03*
X142960000Y-125755000D03*
D14*
X139570000Y-85885000D03*
X139570000Y-84235000D03*
D15*
X119575000Y-54800000D03*
X121225000Y-54800000D03*
D50*
X90350000Y-106107500D03*
X90850000Y-106107500D03*
X91350000Y-106107500D03*
X91850000Y-106107500D03*
X92350000Y-106107500D03*
X92850000Y-106107500D03*
X93350000Y-106107500D03*
X93850000Y-106107500D03*
X94350000Y-106107500D03*
X94850000Y-106107500D03*
X95350000Y-106107500D03*
X95850000Y-106107500D03*
X96350000Y-106107500D03*
X96850000Y-106107500D03*
X97350000Y-106107500D03*
X97850000Y-106107500D03*
X98350000Y-106107500D03*
X98850000Y-106107500D03*
X99350000Y-106107500D03*
X99850000Y-106107500D03*
D51*
X101787500Y-104170000D03*
X101787500Y-103670000D03*
X101787500Y-103170000D03*
X101787500Y-102670000D03*
X101787500Y-102170000D03*
X101787500Y-101670000D03*
X101787500Y-101170000D03*
X101787500Y-100670000D03*
X101787500Y-100170000D03*
X101787500Y-99670000D03*
X101787500Y-99170000D03*
X101787500Y-98670000D03*
X101787500Y-98170000D03*
X101787500Y-97670000D03*
X101787500Y-97170000D03*
X101787500Y-96670000D03*
X101787500Y-96170000D03*
X101787500Y-95670000D03*
X101787500Y-95170000D03*
X101787500Y-94670000D03*
D50*
X99850000Y-92732500D03*
X99350000Y-92732500D03*
X98850000Y-92732500D03*
X98350000Y-92732500D03*
X97850000Y-92732500D03*
X97350000Y-92732500D03*
X96850000Y-92732500D03*
X96350000Y-92732500D03*
X95850000Y-92732500D03*
X95350000Y-92732500D03*
X94850000Y-92732500D03*
X94350000Y-92732500D03*
X93850000Y-92732500D03*
X93350000Y-92732500D03*
X92850000Y-92732500D03*
X92350000Y-92732500D03*
X91850000Y-92732500D03*
X91350000Y-92732500D03*
X90850000Y-92732500D03*
X90350000Y-92732500D03*
D51*
X88412500Y-94670000D03*
X88412500Y-95170000D03*
X88412500Y-95670000D03*
X88412500Y-96170000D03*
X88412500Y-96670000D03*
X88412500Y-97170000D03*
X88412500Y-97670000D03*
X88412500Y-98170000D03*
X88412500Y-98670000D03*
X88412500Y-99170000D03*
X88412500Y-99670000D03*
X88412500Y-100170000D03*
X88412500Y-100670000D03*
X88412500Y-101170000D03*
X88412500Y-101670000D03*
X88412500Y-102170000D03*
X88412500Y-102670000D03*
X88412500Y-103170000D03*
X88412500Y-103670000D03*
X88412500Y-104170000D03*
D21*
X81495000Y-152935000D03*
X82145000Y-152935000D03*
X82795000Y-152935000D03*
D22*
X82145000Y-153185000D03*
D21*
X80845000Y-152935000D03*
D23*
X81820000Y-154680000D03*
D21*
X82795000Y-155835000D03*
X81495000Y-155835000D03*
X82145000Y-155835000D03*
X80845000Y-155835000D03*
X82935000Y-112970000D03*
X81635000Y-112970000D03*
D22*
X82285000Y-113220000D03*
D21*
X82285000Y-112970000D03*
X80985000Y-112970000D03*
X82285000Y-115870000D03*
X80985000Y-115870000D03*
D23*
X81960000Y-114715000D03*
D21*
X81635000Y-115870000D03*
X82935000Y-115870000D03*
D12*
X111220000Y-44265000D03*
X111220000Y-45915000D03*
D19*
X146095000Y-153900000D03*
X144445000Y-153900000D03*
D15*
X84275000Y-152360000D03*
X85925000Y-152360000D03*
D26*
X76100000Y-85480000D03*
X73300000Y-85480000D03*
D28*
X107455000Y-35560000D03*
X108105000Y-35560000D03*
X108755000Y-35560000D03*
X109405000Y-35560000D03*
X109405000Y-33060000D03*
X108755000Y-33060000D03*
X108105000Y-33060000D03*
X107455000Y-33060000D03*
D15*
X90975000Y-107970000D03*
X92625000Y-107970000D03*
D13*
X97610000Y-107580000D03*
X97610000Y-108540000D03*
D12*
X81200000Y-164175000D03*
X81200000Y-165825000D03*
D15*
X84275000Y-72370000D03*
X85925000Y-72370000D03*
D48*
X105050000Y-67920000D03*
X112850000Y-67920000D03*
D15*
X84315000Y-115400000D03*
X85965000Y-115400000D03*
M02*
