0
SECTION
2
ENTITIES
0
LINE
8
FCrtYd
62
7
10
102.69
20
-111.69
11
104.51
21
-111.69
0
LINE
8
FCrtYd
62
7
10
102.69
20
-112.61
11
102.69
21
-111.69
0
LINE
8
FCrtYd
62
7
10
104.51
20
-112.61
11
102.69
21
-112.61
0
LINE
8
FCrtYd
62
7
10
104.51
20
-111.69
11
104.51
21
-112.61
0
LINE
8
FFab
62
5
10
104.1
20
-111.9
11
104.1
21
-112.4
0
LINE
8
FFab
62
5
10
103.1
20
-112.4
11
103.1
21
-111.9
0
LINE
8
FFab
62
5
10
104.1
20
-112.4
11
103.1
21
-112.4
0
LINE
8
FFab
62
5
10
103.1
20
-111.9
11
104.1
21
-111.9
0
LINE
8
FCrtYd
62
7
10
86.505
20
-164.98
11
83.545
21
-164.98
0
LINE
8
FCrtYd
62
7
10
83.545
20
-164.98
11
83.545
21
-163.52
0
LINE
8
FCrtYd
62
7
10
83.545
20
-163.52
11
86.505
21
-163.52
0
LINE
8
FCrtYd
62
7
10
86.505
20
-163.52
11
86.505
21
-164.98
0
LINE
8
FFab
62
5
10
84.225
20
-163.8375
11
85.825
21
-163.8375
0
LINE
8
FFab
62
5
10
85.825
20
-163.8375
11
85.825
21
-164.6625
0
LINE
8
FFab
62
5
10
84.225
20
-164.6625
11
84.225
21
-163.8375
0
LINE
8
FFab
62
5
10
85.825
20
-164.6625
11
84.225
21
-164.6625
0
LINE
8
FCrtYd
62
7
10
143.52
20
-161.98
11
143.52
21
-160.52
0
LINE
8
FCrtYd
62
7
10
146.48
20
-161.98
11
143.52
21
-161.98
0
LINE
8
FCrtYd
62
7
10
146.48
20
-160.52
11
146.48
21
-161.98
0
LINE
8
FCrtYd
62
7
10
143.52
20
-160.52
11
146.48
21
-160.52
0
LINE
8
FFab
62
5
10
145.8
20
-160.8375
11
145.8
21
-161.6625
0
LINE
8
FFab
62
5
10
144.2
20
-160.8375
11
145.8
21
-160.8375
0
LINE
8
FFab
62
5
10
144.2
20
-161.6625
11
144.2
21
-160.8375
0
LINE
8
FFab
62
5
10
145.8
20
-161.6625
11
144.2
21
-161.6625
0
LINE
8
FCrtYd
62
7
10
133.47
20
-119.12
11
136.43
21
-119.12
0
LINE
8
FCrtYd
62
7
10
136.43
20
-120.58
11
133.47
21
-120.58
0
LINE
8
FCrtYd
62
7
10
133.47
20
-120.58
11
133.47
21
-119.12
0
LINE
8
FCrtYd
62
7
10
136.43
20
-119.12
11
136.43
21
-120.58
0
LINE
8
FFab
62
5
10
134.15
20
-120.2625
11
134.15
21
-119.4375
0
LINE
8
FFab
62
5
10
135.75
20
-119.4375
11
135.75
21
-120.2625
0
LINE
8
FFab
62
5
10
135.75
20
-120.2625
11
134.15
21
-120.2625
0
LINE
8
FFab
62
5
10
134.15
20
-119.4375
11
135.75
21
-119.4375
0
LINE
8
FCrtYd
62
7
10
136.625
20
-60.1
11
136.625
21
-51.5
0
LINE
8
FCrtYd
62
7
10
136.625
20
-51.5
11
130.525
21
-51.5
0
LINE
8
FCrtYd
62
7
10
130.525
20
-51.5
11
130.525
21
-60.1
0
LINE
8
FCrtYd
62
7
10
130.525
20
-60.1
11
136.625
21
-60.1
0
LINE
8
FFab
62
5
10
136.115
20
-54.095
11
136.115
21
-57.505
0
LINE
8
FFab
62
5
10
135.68
20
-53.05
11
135.68
21
-54.095
0
LINE
8
FFab
62
5
10
131.035
20
-54.095
11
136.115
21
-54.095
0
LINE
8
FFab
62
5
10
131.47
20
-53.05
11
131.87
21
-53.05
0
LINE
8
FFab
62
5
10
132.74
20
-58.55
11
133.14
21
-58.55
0
LINE
8
FFab
62
5
10
131.47
20
-58.55
11
131.87
21
-58.55
0
LINE
8
FFab
62
5
10
134.41
20
-53.05
11
134.41
21
-54.095
0
LINE
8
FFab
62
5
10
131.87
20
-53.05
11
131.87
21
-54.095
0
LINE
8
FFab
62
5
10
134.01
20
-58.55
11
134.41
21
-58.55
0
LINE
8
FFab
62
5
10
132.74
20
-54.095
11
132.74
21
-53.05
0
LINE
8
FFab
62
5
10
132.74
20
-53.05
11
133.14
21
-53.05
0
LINE
8
FFab
62
5
10
131.47
20
-54.095
11
131.47
21
-53.05
0
LINE
8
FFab
62
5
10
132.74
20
-57.505
11
132.74
21
-58.55
0
LINE
8
FFab
62
5
10
131.47
20
-57.505
11
131.035
21
-57.07
0
LINE
8
FFab
62
5
10
135.68
20
-58.55
11
135.68
21
-57.505
0
LINE
8
FFab
62
5
10
135.28
20
-57.505
11
135.28
21
-58.55
0
LINE
8
FFab
62
5
10
131.035
20
-57.07
11
131.035
21
-54.095
0
LINE
8
FFab
62
5
10
133.14
20
-58.55
11
133.14
21
-57.505
0
LINE
8
FFab
62
5
10
133.14
20
-53.05
11
133.14
21
-54.095
0
LINE
8
FFab
62
5
10
131.47
20
-57.505
11
131.47
21
-58.55
0
LINE
8
FFab
62
5
10
131.87
20
-58.55
11
131.87
21
-57.505
0
LINE
8
FFab
62
5
10
134.01
20
-53.05
11
134.41
21
-53.05
0
LINE
8
FFab
62
5
10
135.28
20
-54.095
11
135.28
21
-53.05
0
LINE
8
FFab
62
5
10
134.01
20
-57.505
11
134.01
21
-58.55
0
LINE
8
FFab
62
5
10
135.28
20
-53.05
11
135.68
21
-53.05
0
LINE
8
FFab
62
5
10
135.28
20
-58.55
11
135.68
21
-58.55
0
LINE
8
FFab
62
5
10
136.115
20
-57.505
11
131.47
21
-57.505
0
LINE
8
FFab
62
5
10
134.41
20
-58.55
11
134.41
21
-57.505
0
LINE
8
FFab
62
5
10
134.01
20
-54.095
11
134.01
21
-53.05
0
LINE
8
FCrtYd
62
7
10
124.93
20
-55.53
11
121.97
21
-55.53
0
LINE
8
FCrtYd
62
7
10
121.97
20
-54.07
11
124.93
21
-54.07
0
LINE
8
FCrtYd
62
7
10
121.97
20
-55.53
11
121.97
21
-54.07
0
LINE
8
FCrtYd
62
7
10
124.93
20
-54.07
11
124.93
21
-55.53
0
LINE
8
FFab
62
5
10
122.65
20
-54.7
11
122.65
21
-55.2
0
LINE
8
FFab
62
5
10
122.65
20
-55.2
11
124.25
21
-55.2
0
LINE
8
FFab
62
5
10
124.25
20
-55.2
11
124.25
21
-54.4
0
LINE
8
FFab
62
5
10
124.25
20
-54.4
11
122.95
21
-54.4
0
LINE
8
FFab
62
5
10
122.95
20
-54.4
11
122.65
21
-54.7
0
LINE
8
FCrtYd
62
7
10
101.96
20
-105.81
11
101.04
21
-105.81
0
LINE
8
FCrtYd
62
7
10
101.04
20
-103.99
11
101.96
21
-103.99
0
LINE
8
FCrtYd
62
7
10
101.96
20
-103.99
11
101.96
21
-105.81
0
LINE
8
FCrtYd
62
7
10
101.04
20
-105.81
11
101.04
21
-103.99
0
LINE
8
FFab
62
5
10
101.75
20
-105.4
11
101.25
21
-105.4
0
LINE
8
FFab
62
5
10
101.25
20
-105.4
11
101.25
21
-104.4
0
LINE
8
FFab
62
5
10
101.75
20
-104.4
11
101.75
21
-105.4
0
LINE
8
FFab
62
5
10
101.25
20
-104.4
11
101.75
21
-104.4
0
LINE
8
FCrtYd
62
7
10
128.18
20
-136.38
11
125.22
21
-136.38
0
LINE
8
FCrtYd
62
7
10
128.18
20
-134.92
11
128.18
21
-136.38
0
LINE
8
FCrtYd
62
7
10
125.22
20
-134.92
11
128.18
21
-134.92
0
LINE
8
FCrtYd
62
7
10
125.22
20
-136.38
11
125.22
21
-134.92
0
LINE
8
FFab
62
5
10
125.9
20
-136.0625
11
125.9
21
-135.2375
0
LINE
8
FFab
62
5
10
127.5
20
-136.0625
11
125.9
21
-136.0625
0
LINE
8
FFab
62
5
10
127.5
20
-135.2375
11
127.5
21
-136.0625
0
LINE
8
FFab
62
5
10
125.9
20
-135.2375
11
127.5
21
-135.2375
0
LINE
8
FCrtYd
62
7
10
143.52
20
-123.445
11
146.48
21
-123.445
0
LINE
8
FCrtYd
62
7
10
143.52
20
-124.905
11
143.52
21
-123.445
0
LINE
8
FCrtYd
62
7
10
146.48
20
-124.905
11
143.52
21
-124.905
0
LINE
8
FCrtYd
62
7
10
146.48
20
-123.445
11
146.48
21
-124.905
0
LINE
8
FFab
62
5
10
144.2
20
-123.7625
11
145.8
21
-123.7625
0
LINE
8
FFab
62
5
10
144.2
20
-124.5875
11
144.2
21
-123.7625
0
LINE
8
FFab
62
5
10
145.8
20
-123.7625
11
145.8
21
-124.5875
0
LINE
8
FFab
62
5
10
145.8
20
-124.5875
11
144.2
21
-124.5875
0
LINE
8
FCrtYd
62
7
10
146.43
20
-44.98
11
143.47
21
-44.98
0
LINE
8
FCrtYd
62
7
10
143.47
20
-44.98
11
143.47
21
-43.52
0
LINE
8
FCrtYd
62
7
10
146.43
20
-43.52
11
146.43
21
-44.98
0
LINE
8
FCrtYd
62
7
10
143.47
20
-43.52
11
146.43
21
-43.52
0
LINE
8
FFab
62
5
10
145.75
20
-44.6625
11
144.15
21
-44.6625
0
LINE
8
FFab
62
5
10
144.15
20
-44.6625
11
144.15
21
-43.8375
0
LINE
8
FFab
62
5
10
144.15
20
-43.8375
11
145.75
21
-43.8375
0
LINE
8
FFab
62
5
10
145.75
20
-43.8375
11
145.75
21
-44.6625
0
LINE
8
FCrtYd
62
7
10
83.52
20
-123.48
11
83.52
21
-122.02
0
LINE
8
FCrtYd
62
7
10
86.48
20
-123.48
11
83.52
21
-123.48
0
LINE
8
FCrtYd
62
7
10
83.52
20
-122.02
11
86.48
21
-122.02
0
LINE
8
FCrtYd
62
7
10
86.48
20
-122.02
11
86.48
21
-123.48
0
LINE
8
FFab
62
5
10
84.2
20
-123.1625
11
84.2
21
-122.3375
0
LINE
8
FFab
62
5
10
85.8
20
-122.3375
11
85.8
21
-123.1625
0
LINE
8
FFab
62
5
10
84.2
20
-122.3375
11
85.8
21
-122.3375
0
LINE
8
FFab
62
5
10
85.8
20
-123.1625
11
84.2
21
-123.1625
0
LINE
8
FCrtYd
62
7
10
133.47
20
-117.62
11
136.43
21
-117.62
0
LINE
8
FCrtYd
62
7
10
133.47
20
-119.08
11
133.47
21
-117.62
0
LINE
8
FCrtYd
62
7
10
136.43
20
-119.08
11
133.47
21
-119.08
0
LINE
8
FCrtYd
62
7
10
136.43
20
-117.62
11
136.43
21
-119.08
0
LINE
8
FFab
62
5
10
134.15
20
-118.7625
11
134.15
21
-117.9375
0
LINE
8
FFab
62
5
10
134.15
20
-117.9375
11
135.75
21
-117.9375
0
LINE
8
FFab
62
5
10
135.75
20
-118.7625
11
134.15
21
-118.7625
0
LINE
8
FFab
62
5
10
135.75
20
-117.9375
11
135.75
21
-118.7625
0
LINE
8
FCrtYd
62
7
10
146.48
20
-162.02
11
146.48
21
-163.48
0
LINE
8
FCrtYd
62
7
10
143.52
20
-163.48
11
143.52
21
-162.02
0
LINE
8
FCrtYd
62
7
10
146.48
20
-163.48
11
143.52
21
-163.48
0
LINE
8
FCrtYd
62
7
10
143.52
20
-162.02
11
146.48
21
-162.02
0
LINE
8
FFab
62
5
10
144.2
20
-163.1625
11
144.2
21
-162.3375
0
LINE
8
FFab
62
5
10
144.2
20
-162.3375
11
145.8
21
-162.3375
0
LINE
8
FFab
62
5
10
145.8
20
-162.3375
11
145.8
21
-163.1625
0
LINE
8
FFab
62
5
10
145.8
20
-163.1625
11
144.2
21
-163.1625
0
LINE
8
FCrtYd
62
7
10
76.85
20
-123.8
11
76.85
21
-126.2
0
LINE
8
FCrtYd
62
7
10
80.45
20
-123.8
11
76.85
21
-123.8
0
LINE
8
FCrtYd
62
7
10
76.85
20
-126.2
11
80.65
21
-126.2
0
LINE
8
FCrtYd
62
7
10
80.65
20
-126.2
11
80.65
21
-123.8
0
LINE
8
FCrtYd
62
7
10
80.65
20
-123.8
11
80.45
21
-123.8
0
LINE
8
FCrtYd
62
7
10
143.375
20
-36.45
11
146.675
21
-36.45
0
LINE
8
FCrtYd
62
7
10
146.675
20
-38.95
11
146.675
21
-36.45
0
LINE
8
FCrtYd
62
7
10
146.675
20
-38.95
11
143.375
21
-38.95
0
LINE
8
FCrtYd
62
7
10
143.375
20
-36.45
11
143.375
21
-38.95
0
LINE
8
FCrtYd
62
7
10
124.93
20
-50.82
11
124.93
21
-52.28
0
LINE
8
FCrtYd
62
7
10
124.93
20
-52.28
11
121.97
21
-52.28
0
LINE
8
FCrtYd
62
7
10
121.97
20
-52.28
11
121.97
21
-50.82
0
LINE
8
FCrtYd
62
7
10
121.97
20
-50.82
11
124.93
21
-50.82
0
LINE
8
FFab
62
5
10
122.65
20
-51.95
11
124.25
21
-51.95
0
LINE
8
FFab
62
5
10
122.95
20
-51.15
11
122.65
21
-51.45
0
LINE
8
FFab
62
5
10
124.25
20
-51.95
11
124.25
21
-51.15
0
LINE
8
FFab
62
5
10
122.65
20
-51.45
11
122.65
21
-51.95
0
LINE
8
FFab
62
5
10
124.25
20
-51.15
11
122.95
21
-51.15
0
LINE
8
FCrtYd
62
7
10
73.47
20
-42.18
11
73.47
21
-40.72
0
LINE
8
FCrtYd
62
7
10
73.47
20
-40.72
11
76.43
21
-40.72
0
LINE
8
FCrtYd
62
7
10
76.43
20
-42.18
11
73.47
21
-42.18
0
LINE
8
FCrtYd
62
7
10
76.43
20
-40.72
11
76.43
21
-42.18
0
LINE
8
FFab
62
5
10
75.75
20
-41.0375
11
75.75
21
-41.8625
0
LINE
8
FFab
62
5
10
74.15
20
-41.8625
11
74.15
21
-41.0375
0
LINE
8
FFab
62
5
10
75.75
20
-41.8625
11
74.15
21
-41.8625
0
LINE
8
FFab
62
5
10
74.15
20
-41.0375
11
75.75
21
-41.0375
0
LINE
8
FCrtYd
62
7
10
73.2
20
-115.2
11
76.5
21
-115.2
0
LINE
8
FCrtYd
62
7
10
73.2
20
-115.2
11
73.2
21
-117.7
0
LINE
8
FCrtYd
62
7
10
76.5
20
-117.7
11
73.2
21
-117.7
0
LINE
8
FCrtYd
62
7
10
76.5
20
-117.7
11
76.5
21
-115.2
0
LINE
8
FCrtYd
62
7
10
83.5
20
-163.5
11
83.5
21
-166.8
0
LINE
8
FCrtYd
62
7
10
83.5
20
-163.5
11
81.0
21
-163.5
0
LINE
8
FCrtYd
62
7
10
81.0
20
-166.8
11
81.0
21
-163.5
0
LINE
8
FCrtYd
62
7
10
81.0
20
-166.8
11
83.5
21
-166.8
0
LINE
8
FCrtYd
62
7
10
146.43
20
-41.97
11
146.43
21
-43.43
0
LINE
8
FCrtYd
62
7
10
143.47
20
-43.43
11
143.47
21
-41.97
0
LINE
8
FCrtYd
62
7
10
146.43
20
-43.43
11
143.47
21
-43.43
0
LINE
8
FCrtYd
62
7
10
143.47
20
-41.97
11
146.43
21
-41.97
0
LINE
8
FFab
62
5
10
144.15
20
-43.1125
11
144.15
21
-42.2875
0
LINE
8
FFab
62
5
10
144.15
20
-42.2875
11
145.75
21
-42.2875
0
LINE
8
FFab
62
5
10
145.75
20
-43.1125
11
144.15
21
-43.1125
0
LINE
8
FFab
62
5
10
145.75
20
-42.2875
11
145.75
21
-43.1125
0
LINE
8
FCrtYd
62
7
10
121.4
20
-118.31
11
130.8
21
-118.31
0
LINE
8
FCrtYd
62
7
10
130.8
20
-111.91
11
121.4
21
-111.91
0
LINE
8
FCrtYd
62
7
10
121.4
20
-111.91
11
121.4
21
-118.31
0
LINE
8
FCrtYd
62
7
10
130.8
20
-118.31
11
130.8
21
-111.91
0
LINE
8
FCrtYd
62
7
10
113.52
20
-41.97
11
116.48
21
-41.97
0
LINE
8
FCrtYd
62
7
10
113.52
20
-43.43
11
113.52
21
-41.97
0
LINE
8
FCrtYd
62
7
10
116.48
20
-43.43
11
113.52
21
-43.43
0
LINE
8
FCrtYd
62
7
10
116.48
20
-41.97
11
116.48
21
-43.43
0
LINE
8
FFab
62
5
10
114.2
20
-43.1125
11
114.2
21
-42.2875
0
LINE
8
FFab
62
5
10
115.8
20
-42.2875
11
115.8
21
-43.1125
0
LINE
8
FFab
62
5
10
115.8
20
-43.1125
11
114.2
21
-43.1125
0
LINE
8
FFab
62
5
10
114.2
20
-42.2875
11
115.8
21
-42.2875
0
LINE
8
FCrtYd
62
7
10
133.42
20
-40.72
11
136.38
21
-40.72
0
LINE
8
FCrtYd
62
7
10
136.38
20
-42.18
11
133.42
21
-42.18
0
LINE
8
FCrtYd
62
7
10
133.42
20
-42.18
11
133.42
21
-40.72
0
LINE
8
FCrtYd
62
7
10
136.38
20
-40.72
11
136.38
21
-42.18
0
LINE
8
FFab
62
5
10
135.7
20
-41.0375
11
135.7
21
-41.8625
0
LINE
8
FFab
62
5
10
135.7
20
-41.8625
11
134.1
21
-41.8625
0
LINE
8
FFab
62
5
10
134.1
20
-41.8625
11
134.1
21
-41.0375
0
LINE
8
FFab
62
5
10
134.1
20
-41.0375
11
135.7
21
-41.0375
0
LINE
8
FCrtYd
62
7
10
140.61
20
-155.9
11
143.11
21
-155.9
0
LINE
8
FCrtYd
62
7
10
143.11
20
-152.6
11
140.61
21
-152.6
0
LINE
8
FCrtYd
62
7
10
143.11
20
-152.6
11
143.11
21
-155.9
0
LINE
8
FCrtYd
62
7
10
140.61
20
-155.9
11
140.61
21
-152.6
0
LINE
8
FCrtYd
62
7
10
106.43
20
-77.67
11
106.43
21
-79.13
0
LINE
8
FCrtYd
62
7
10
106.43
20
-79.13
11
103.47
21
-79.13
0
LINE
8
FCrtYd
62
7
10
103.47
20
-77.67
11
106.43
21
-77.67
0
LINE
8
FCrtYd
62
7
10
103.47
20
-79.13
11
103.47
21
-77.67
0
LINE
8
FFab
62
5
10
105.75
20
-78.8125
11
104.15
21
-78.8125
0
LINE
8
FFab
62
5
10
104.15
20
-77.9875
11
105.75
21
-77.9875
0
LINE
8
FFab
62
5
10
105.75
20
-77.9875
11
105.75
21
-78.8125
0
LINE
8
FFab
62
5
10
104.15
20
-78.8125
11
104.15
21
-77.9875
0
LINE
8
FCrtYd
62
7
10
146.43
20
-40.43
11
143.47
21
-40.43
0
LINE
8
FCrtYd
62
7
10
143.47
20
-38.97
11
146.43
21
-38.97
0
LINE
8
FCrtYd
62
7
10
143.47
20
-40.43
11
143.47
21
-38.97
0
LINE
8
FCrtYd
62
7
10
146.43
20
-38.97
11
146.43
21
-40.43
0
LINE
8
FFab
62
5
10
145.75
20
-40.1125
11
144.15
21
-40.1125
0
LINE
8
FFab
62
5
10
145.75
20
-39.2875
11
145.75
21
-40.1125
0
LINE
8
FFab
62
5
10
144.15
20
-39.2875
11
145.75
21
-39.2875
0
LINE
8
FFab
62
5
10
144.15
20
-40.1125
11
144.15
21
-39.2875
0
LINE
8
FCrtYd
62
7
10
146.725
20
-78.975
11
143.425
21
-78.975
0
LINE
8
FCrtYd
62
7
10
143.425
20
-76.475
11
146.725
21
-76.475
0
LINE
8
FCrtYd
62
7
10
146.725
20
-78.975
11
146.725
21
-76.475
0
LINE
8
FCrtYd
62
7
10
143.425
20
-76.475
11
143.425
21
-78.975
0
LINE
8
FCrtYd
62
7
10
143.45
20
-116.425
11
143.45
21
-118.925
0
LINE
8
FCrtYd
62
7
10
143.45
20
-116.425
11
146.75
21
-116.425
0
LINE
8
FCrtYd
62
7
10
146.75
20
-118.925
11
146.75
21
-116.425
0
LINE
8
FCrtYd
62
7
10
146.75
20
-118.925
11
143.45
21
-118.925
0
LINE
8
FCrtYd
62
7
10
106.405
20
-160.67
11
106.405
21
-162.13
0
LINE
8
FCrtYd
62
7
10
106.405
20
-162.13
11
103.445
21
-162.13
0
LINE
8
FCrtYd
62
7
10
103.445
20
-160.67
11
106.405
21
-160.67
0
LINE
8
FCrtYd
62
7
10
103.445
20
-162.13
11
103.445
21
-160.67
0
LINE
8
FFab
62
5
10
104.125
20
-160.9875
11
105.725
21
-160.9875
0
LINE
8
FFab
62
5
10
105.725
20
-160.9875
11
105.725
21
-161.8125
0
LINE
8
FFab
62
5
10
104.125
20
-161.8125
11
104.125
21
-160.9875
0
LINE
8
FFab
62
5
10
105.725
20
-161.8125
11
104.125
21
-161.8125
0
LINE
8
FCrtYd
62
7
10
76.525
20
-155.2
11
76.525
21
-152.7
0
LINE
8
FCrtYd
62
7
10
76.525
20
-155.2
11
73.225
21
-155.2
0
LINE
8
FCrtYd
62
7
10
73.225
20
-152.7
11
76.525
21
-152.7
0
LINE
8
FCrtYd
62
7
10
73.225
20
-152.7
11
73.225
21
-155.2
0
LINE
8
FCrtYd
62
7
10
133.175
20
-126.925
11
133.175
21
-122.525
0
LINE
8
FCrtYd
62
7
10
133.175
20
-126.925
11
135.475
21
-126.925
0
LINE
8
FCrtYd
62
7
10
133.175
20
-122.525
11
135.475
21
-122.525
0
LINE
8
FCrtYd
62
7
10
135.475
20
-122.525
11
135.475
21
-126.925
0
LINE
8
FFab
62
5
10
134.325
20
-125.075
11
134.875
21
-125.075
0
LINE
8
FFab
62
5
10
133.425
20
-123.325
11
135.225
21
-123.325
0
LINE
8
FFab
62
5
10
133.425
20
-126.125
11
133.425
21
-123.325
0
LINE
8
FFab
62
5
10
135.225
20
-123.325
11
135.225
21
-126.125
0
LINE
8
FFab
62
5
10
134.325
20
-125.475
11
134.325
21
-125.075
0
LINE
8
FFab
62
5
10
134.325
20
-125.075
11
133.925
21
-124.475
0
LINE
8
FFab
62
5
10
134.725
20
-124.475
11
134.325
21
-125.075
0
LINE
8
FFab
62
5
10
135.225
20
-126.125
11
133.425
21
-126.125
0
LINE
8
FFab
62
5
10
133.925
20
-124.475
11
134.725
21
-124.475
0
LINE
8
FFab
62
5
10
134.325
20
-124.475
11
134.325
21
-123.975
0
LINE
8
FFab
62
5
10
134.325
20
-125.075
11
133.775
21
-125.075
0
LINE
8
FCrtYd
62
7
10
86.75
20
-159.0
11
86.75
21
-156.5
0
LINE
8
FCrtYd
62
7
10
83.45
20
-156.5
11
83.45
21
-159.0
0
LINE
8
FCrtYd
62
7
10
86.75
20
-159.0
11
83.45
21
-159.0
0
LINE
8
FCrtYd
62
7
10
83.45
20
-156.5
11
86.75
21
-156.5
0
LINE
8
FCrtYd
62
7
10
106.525
20
-115.15
11
103.225
21
-115.15
0
LINE
8
FCrtYd
62
7
10
103.225
20
-112.65
11
106.525
21
-112.65
0
LINE
8
FCrtYd
62
7
10
103.225
20
-112.65
11
103.225
21
-115.15
0
LINE
8
FCrtYd
62
7
10
106.525
20
-115.15
11
106.525
21
-112.65
0
LINE
8
FCrtYd
62
7
10
133.52
20
-159.18
11
133.52
21
-157.72
0
LINE
8
FCrtYd
62
7
10
133.52
20
-157.72
11
136.48
21
-157.72
0
LINE
8
FCrtYd
62
7
10
136.48
20
-157.72
11
136.48
21
-159.18
0
LINE
8
FCrtYd
62
7
10
136.48
20
-159.18
11
133.52
21
-159.18
0
LINE
8
FFab
62
5
10
135.8
20
-158.8625
11
134.2
21
-158.8625
0
LINE
8
FFab
62
5
10
134.2
20
-158.8625
11
134.2
21
-158.0375
0
LINE
8
FFab
62
5
10
134.2
20
-158.0375
11
135.8
21
-158.0375
0
LINE
8
FFab
62
5
10
135.8
20
-158.0375
11
135.8
21
-158.8625
0
LINE
8
FCrtYd
62
7
10
111.0
20
-126.775
11
113.5
21
-126.775
0
LINE
8
FCrtYd
62
7
10
113.5
20
-123.475
11
113.5
21
-126.775
0
LINE
8
FCrtYd
62
7
10
113.5
20
-123.475
11
111.0
21
-123.475
0
LINE
8
FCrtYd
62
7
10
111.0
20
-126.775
11
111.0
21
-123.475
0
LINE
8
FCrtYd
62
7
10
143.5
20
-163.5
11
141.0
21
-163.5
0
LINE
8
FCrtYd
62
7
10
141.0
20
-166.8
11
143.5
21
-166.8
0
LINE
8
FCrtYd
62
7
10
143.5
20
-163.5
11
143.5
21
-166.8
0
LINE
8
FCrtYd
62
7
10
141.0
20
-166.8
11
141.0
21
-163.5
0
LINE
8
FCrtYd
62
7
10
110.58
20
-76.14
11
110.58
21
-72.84
0
LINE
8
FCrtYd
62
7
10
113.08
20
-72.84
11
110.58
21
-72.84
0
LINE
8
FCrtYd
62
7
10
113.08
20
-72.84
11
113.08
21
-76.14
0
LINE
8
FCrtYd
62
7
10
110.58
20
-76.14
11
113.08
21
-76.14
0
LINE
8
FCrtYd
62
7
10
125.245
20
-106.525
11
125.245
21
-103.125
0
LINE
8
FCrtYd
62
7
10
125.245
20
-103.125
11
121.405
21
-103.125
0
LINE
8
FCrtYd
62
7
10
121.405
20
-103.125
11
121.405
21
-106.525
0
LINE
8
FCrtYd
62
7
10
121.405
20
-106.525
11
125.245
21
-106.525
0
LINE
8
FFab
62
5
10
123.0
20
-103.375
11
123.975
21
-103.375
0
LINE
8
FFab
62
5
10
122.675
20
-103.7
11
123.0
21
-103.375
0
LINE
8
FFab
62
5
10
122.675
20
-106.275
11
122.675
21
-103.7
0
LINE
8
FFab
62
5
10
123.975
20
-103.375
11
123.975
21
-106.275
0
LINE
8
FFab
62
5
10
123.975
20
-106.275
11
122.675
21
-106.275
0
LINE
8
FCrtYd
62
7
10
113.05
20
-32.69
11
113.05
21
-35.99
0
LINE
8
FCrtYd
62
7
10
113.05
20
-32.69
11
110.55
21
-32.69
0
LINE
8
FCrtYd
62
7
10
110.55
20
-35.99
11
113.05
21
-35.99
0
LINE
8
FCrtYd
62
7
10
110.55
20
-35.99
11
110.55
21
-32.69
0
CIRCLE
8
FCrtYd
62
7
10
99.725
20
-108.55
40
1.0
0
LINE
8
FCrtYd
62
7
10
80.65
20
-46.175
11
80.65
21
-43.775
0
LINE
8
FCrtYd
62
7
10
80.65
20
-43.775
11
80.45
21
-43.775
0
LINE
8
FCrtYd
62
7
10
80.45
20
-43.775
11
76.85
21
-43.775
0
LINE
8
FCrtYd
62
7
10
76.85
20
-43.775
11
76.85
21
-46.175
0
LINE
8
FCrtYd
62
7
10
76.85
20
-46.175
11
80.65
21
-46.175
0
LINE
8
FCrtYd
62
7
10
113.52
20
-81.995
11
116.48
21
-81.995
0
LINE
8
FCrtYd
62
7
10
113.52
20
-83.455
11
113.52
21
-81.995
0
LINE
8
FCrtYd
62
7
10
116.48
20
-83.455
11
113.52
21
-83.455
0
LINE
8
FCrtYd
62
7
10
116.48
20
-81.995
11
116.48
21
-83.455
0
LINE
8
FFab
62
5
10
114.2
20
-83.1375
11
114.2
21
-82.3125
0
LINE
8
FFab
62
5
10
115.8
20
-82.3125
11
115.8
21
-83.1375
0
LINE
8
FFab
62
5
10
114.2
20
-82.3125
11
115.8
21
-82.3125
0
LINE
8
FFab
62
5
10
115.8
20
-83.1375
11
114.2
21
-83.1375
0
LINE
8
FCrtYd
62
7
10
106.5
20
-77.65
11
106.5
21
-75.15
0
LINE
8
FCrtYd
62
7
10
103.2
20
-75.15
11
103.2
21
-77.65
0
LINE
8
FCrtYd
62
7
10
103.2
20
-75.15
11
106.5
21
-75.15
0
LINE
8
FCrtYd
62
7
10
106.5
20
-77.65
11
103.2
21
-77.65
0
LINE
8
FCrtYd
62
7
10
103.495
20
-120.745
11
106.455
21
-120.745
0
LINE
8
FCrtYd
62
7
10
106.455
20
-120.745
11
106.455
21
-122.205
0
LINE
8
FCrtYd
62
7
10
103.495
20
-122.205
11
103.495
21
-120.745
0
LINE
8
FCrtYd
62
7
10
106.455
20
-122.205
11
103.495
21
-122.205
0
LINE
8
FFab
62
5
10
105.775
20
-121.8875
11
104.175
21
-121.8875
0
LINE
8
FFab
62
5
10
105.775
20
-121.0625
11
105.775
21
-121.8875
0
LINE
8
FFab
62
5
10
104.175
20
-121.8875
11
104.175
21
-121.0625
0
LINE
8
FFab
62
5
10
104.175
20
-121.0625
11
105.775
21
-121.0625
0
LINE
8
FCrtYd
62
7
10
133.25
20
-167.0
11
133.25
21
-162.6
0
LINE
8
FCrtYd
62
7
10
133.25
20
-162.6
11
135.55
21
-162.6
0
LINE
8
FCrtYd
62
7
10
133.25
20
-167.0
11
135.55
21
-167.0
0
LINE
8
FCrtYd
62
7
10
135.55
20
-162.6
11
135.55
21
-167.0
0
LINE
8
FFab
62
5
10
135.3
20
-163.4
11
135.3
21
-166.2
0
LINE
8
FFab
62
5
10
134.4
20
-164.55
11
134.4
21
-164.05
0
LINE
8
FFab
62
5
10
134.8
20
-164.55
11
134.4
21
-165.15
0
LINE
8
FFab
62
5
10
133.5
20
-163.4
11
135.3
21
-163.4
0
LINE
8
FFab
62
5
10
134.4
20
-165.15
11
134.95
21
-165.15
0
LINE
8
FFab
62
5
10
134.0
20
-164.55
11
134.8
21
-164.55
0
LINE
8
FFab
62
5
10
134.4
20
-165.15
11
133.85
21
-165.15
0
LINE
8
FFab
62
5
10
134.4
20
-165.15
11
134.0
21
-164.55
0
LINE
8
FFab
62
5
10
134.4
20
-165.55
11
134.4
21
-165.15
0
LINE
8
FFab
62
5
10
135.3
20
-166.2
11
133.5
21
-166.2
0
LINE
8
FFab
62
5
10
133.5
20
-166.2
11
133.5
21
-163.4
0
LINE
8
FCrtYd
62
7
10
120.815
20
-144.385
11
120.815
21
-142.565
0
LINE
8
FCrtYd
62
7
10
121.735
20
-144.385
11
120.815
21
-144.385
0
LINE
8
FCrtYd
62
7
10
121.735
20
-142.565
11
121.735
21
-144.385
0
LINE
8
FCrtYd
62
7
10
120.815
20
-142.565
11
121.735
21
-142.565
0
LINE
8
FFab
62
5
10
121.525
20
-142.975
11
121.525
21
-143.975
0
LINE
8
FFab
62
5
10
121.025
20
-142.975
11
121.525
21
-142.975
0
LINE
8
FFab
62
5
10
121.525
20
-143.975
11
121.025
21
-143.975
0
LINE
8
FFab
62
5
10
121.025
20
-143.975
11
121.025
21
-142.975
0
LINE
8
FCrtYd
62
7
10
76.475
20
-75.15
11
73.175
21
-75.15
0
LINE
8
FCrtYd
62
7
10
76.475
20
-75.15
11
76.475
21
-72.65
0
LINE
8
FCrtYd
62
7
10
73.175
20
-72.65
11
76.475
21
-72.65
0
LINE
8
FCrtYd
62
7
10
73.175
20
-72.65
11
73.175
21
-75.15
0
LINE
8
FCrtYd
62
7
10
106.38
20
-39.145
11
106.38
21
-40.605
0
LINE
8
FCrtYd
62
7
10
103.42
20
-40.605
11
103.42
21
-39.145
0
LINE
8
FCrtYd
62
7
10
106.38
20
-40.605
11
103.42
21
-40.605
0
LINE
8
FCrtYd
62
7
10
103.42
20
-39.145
11
106.38
21
-39.145
0
LINE
8
FFab
62
5
10
105.7
20
-39.4625
11
105.7
21
-40.2875
0
LINE
8
FFab
62
5
10
105.7
20
-40.2875
11
104.1
21
-40.2875
0
LINE
8
FFab
62
5
10
104.1
20
-40.2875
11
104.1
21
-39.4625
0
LINE
8
FFab
62
5
10
104.1
20
-39.4625
11
105.7
21
-39.4625
0
LINE
8
FCrtYd
62
7
10
91.575
20
-43.305
11
91.575
21
-47.145
0
LINE
8
FCrtYd
62
7
10
94.975
20
-47.145
11
94.975
21
-43.305
0
LINE
8
FCrtYd
62
7
10
91.575
20
-47.145
11
94.975
21
-47.145
0
LINE
8
FCrtYd
62
7
10
94.975
20
-43.305
11
91.575
21
-43.305
0
LINE
8
FFab
62
5
10
91.825
20
-45.55
11
91.825
21
-44.575
0
LINE
8
FFab
62
5
10
91.825
20
-44.575
11
94.725
21
-44.575
0
LINE
8
FFab
62
5
10
92.15
20
-45.875
11
91.825
21
-45.55
0
LINE
8
FFab
62
5
10
94.725
20
-44.575
11
94.725
21
-45.875
0
LINE
8
FFab
62
5
10
94.725
20
-45.875
11
92.15
21
-45.875
0
LINE
8
FCrtYd
62
7
10
83.52
20
-81.955
11
83.52
21
-80.495
0
LINE
8
FCrtYd
62
7
10
86.48
20
-80.495
11
86.48
21
-81.955
0
LINE
8
FCrtYd
62
7
10
86.48
20
-81.955
11
83.52
21
-81.955
0
LINE
8
FCrtYd
62
7
10
83.52
20
-80.495
11
86.48
21
-80.495
0
LINE
8
FFab
62
5
10
85.8
20
-81.6375
11
84.2
21
-81.6375
0
LINE
8
FFab
62
5
10
84.2
20
-80.8125
11
85.8
21
-80.8125
0
LINE
8
FFab
62
5
10
84.2
20
-81.6375
11
84.2
21
-80.8125
0
LINE
8
FFab
62
5
10
85.8
20
-80.8125
11
85.8
21
-81.6375
0
LINE
8
FCrtYd
62
7
10
113.52
20
-120.495
11
116.48
21
-120.495
0
LINE
8
FCrtYd
62
7
10
116.48
20
-121.955
11
113.52
21
-121.955
0
LINE
8
FCrtYd
62
7
10
113.52
20
-121.955
11
113.52
21
-120.495
0
LINE
8
FCrtYd
62
7
10
116.48
20
-120.495
11
116.48
21
-121.955
0
LINE
8
FFab
62
5
10
114.2
20
-120.8125
11
115.8
21
-120.8125
0
LINE
8
FFab
62
5
10
114.2
20
-121.6375
11
114.2
21
-120.8125
0
LINE
8
FFab
62
5
10
115.8
20
-120.8125
11
115.8
21
-121.6375
0
LINE
8
FFab
62
5
10
115.8
20
-121.6375
11
114.2
21
-121.6375
0
LINE
8
FCrtYd
62
7
10
133.47
20
-79.13
11
133.47
21
-77.67
0
LINE
8
FCrtYd
62
7
10
136.43
20
-79.13
11
133.47
21
-79.13
0
LINE
8
FCrtYd
62
7
10
136.43
20
-77.67
11
136.43
21
-79.13
0
LINE
8
FCrtYd
62
7
10
133.47
20
-77.67
11
136.43
21
-77.67
0
LINE
8
FFab
62
5
10
134.15
20
-78.8125
11
134.15
21
-77.9875
0
LINE
8
FFab
62
5
10
135.75
20
-77.9875
11
135.75
21
-78.8125
0
LINE
8
FFab
62
5
10
134.15
20
-77.9875
11
135.75
21
-77.9875
0
LINE
8
FFab
62
5
10
135.75
20
-78.8125
11
134.15
21
-78.8125
0
LINE
8
FCrtYd
62
7
10
106.355
20
-40.695
11
106.355
21
-42.155
0
LINE
8
FCrtYd
62
7
10
103.395
20
-40.695
11
106.355
21
-40.695
0
LINE
8
FCrtYd
62
7
10
103.395
20
-42.155
11
103.395
21
-40.695
0
LINE
8
FCrtYd
62
7
10
106.355
20
-42.155
11
103.395
21
-42.155
0
LINE
8
FFab
62
5
10
104.075
20
-41.8375
11
104.075
21
-41.0125
0
LINE
8
FFab
62
5
10
105.675
20
-41.0125
11
105.675
21
-41.8375
0
LINE
8
FFab
62
5
10
105.675
20
-41.8375
11
104.075
21
-41.8375
0
LINE
8
FFab
62
5
10
104.075
20
-41.0125
11
105.675
21
-41.0125
0
LINE
8
FCrtYd
62
7
10
106.405
20
-157.67
11
106.405
21
-159.13
0
LINE
8
FCrtYd
62
7
10
106.405
20
-159.13
11
103.445
21
-159.13
0
LINE
8
FCrtYd
62
7
10
103.445
20
-159.13
11
103.445
21
-157.67
0
LINE
8
FCrtYd
62
7
10
103.445
20
-157.67
11
106.405
21
-157.67
0
LINE
8
FFab
62
5
10
105.725
20
-158.8125
11
104.125
21
-158.8125
0
LINE
8
FFab
62
5
10
105.725
20
-157.9875
11
105.725
21
-158.8125
0
LINE
8
FFab
62
5
10
104.125
20
-158.8125
11
104.125
21
-157.9875
0
LINE
8
FFab
62
5
10
104.125
20
-157.9875
11
105.725
21
-157.9875
0
LINE
8
FCrtYd
62
7
10
100.88
20
-105.48
11
97.92
21
-105.48
0
LINE
8
FCrtYd
62
7
10
97.92
20
-104.02
11
100.88
21
-104.02
0
LINE
8
FCrtYd
62
7
10
97.92
20
-105.48
11
97.92
21
-104.02
0
LINE
8
FCrtYd
62
7
10
100.88
20
-104.02
11
100.88
21
-105.48
0
LINE
8
FFab
62
5
10
100.2
20
-104.3375
11
100.2
21
-105.1625
0
LINE
8
FFab
62
5
10
100.2
20
-105.1625
11
98.6
21
-105.1625
0
LINE
8
FFab
62
5
10
98.6
20
-104.3375
11
100.2
21
-104.3375
0
LINE
8
FFab
62
5
10
98.6
20
-105.1625
11
98.6
21
-104.3375
0
LINE
8
FCrtYd
62
7
10
113.11
20
-112.485
11
113.11
21
-115.785
0
LINE
8
FCrtYd
62
7
10
110.61
20
-115.785
11
110.61
21
-112.485
0
LINE
8
FCrtYd
62
7
10
113.11
20
-112.485
11
110.61
21
-112.485
0
LINE
8
FCrtYd
62
7
10
110.61
20
-115.785
11
113.11
21
-115.785
0
LINE
8
FCrtYd
62
7
10
87.8
20
-116.475
11
83.6
21
-116.475
0
LINE
8
FCrtYd
62
7
10
83.6
20
-116.475
11
83.6
21
-113.025
0
LINE
8
FCrtYd
62
7
10
87.8
20
-113.025
11
87.8
21
-116.475
0
LINE
8
FCrtYd
62
7
10
83.6
20
-113.025
11
87.8
21
-113.025
0
LINE
8
FFab
62
5
10
84.9
20
-113.3
11
86.5
21
-113.3
0
LINE
8
FFab
62
5
10
86.5
20
-116.2
11
84.9
21
-116.2
0
LINE
8
FFab
62
5
10
84.9
20
-113.95
11
85.55
21
-113.3
0
LINE
8
FFab
62
5
10
84.9
20
-116.2
11
84.9
21
-113.3
0
LINE
8
FFab
62
5
10
86.5
20
-113.3
11
86.5
21
-116.2
0
LINE
8
FCrtYd
62
7
10
143.52
20
-118.97
11
146.48
21
-118.97
0
LINE
8
FCrtYd
62
7
10
146.48
20
-120.43
11
143.52
21
-120.43
0
LINE
8
FCrtYd
62
7
10
143.52
20
-120.43
11
143.52
21
-118.97
0
LINE
8
FCrtYd
62
7
10
146.48
20
-118.97
11
146.48
21
-120.43
0
LINE
8
FFab
62
5
10
144.2
20
-119.2875
11
145.8
21
-119.2875
0
LINE
8
FFab
62
5
10
145.8
20
-120.1125
11
144.2
21
-120.1125
0
LINE
8
FFab
62
5
10
144.2
20
-120.1125
11
144.2
21
-119.2875
0
LINE
8
FFab
62
5
10
145.8
20
-119.2875
11
145.8
21
-120.1125
0
CIRCLE
8
FCrtYd
62
7
10
98.2
20
-86.7
40
1.0
0
LINE
8
FCrtYd
62
7
10
143.45
20
-156.5
11
143.45
21
-159.0
0
LINE
8
FCrtYd
62
7
10
146.75
20
-159.0
11
146.75
21
-156.5
0
LINE
8
FCrtYd
62
7
10
143.45
20
-156.5
11
146.75
21
-156.5
0
LINE
8
FCrtYd
62
7
10
146.75
20
-159.0
11
143.45
21
-159.0
0
LINE
8
FCrtYd
62
7
10
111.0
20
-91.06
11
109.18
21
-91.06
0
LINE
8
FCrtYd
62
7
10
109.18
20
-91.06
11
109.18
21
-90.14
0
LINE
8
FCrtYd
62
7
10
109.18
20
-90.14
11
111.0
21
-90.14
0
LINE
8
FCrtYd
62
7
10
111.0
20
-90.14
11
111.0
21
-91.06
0
LINE
8
FFab
62
5
10
110.59
20
-90.85
11
109.59
21
-90.85
0
LINE
8
FFab
62
5
10
109.59
20
-90.85
11
109.59
21
-90.35
0
LINE
8
FFab
62
5
10
109.59
20
-90.35
11
110.59
21
-90.35
0
LINE
8
FFab
62
5
10
110.59
20
-90.35
11
110.59
21
-90.85
0
LINE
8
FCrtYd
62
7
10
76.475
20
-37.65
11
73.175
21
-37.65
0
LINE
8
FCrtYd
62
7
10
73.175
20
-35.15
11
73.175
21
-37.65
0
LINE
8
FCrtYd
62
7
10
76.475
20
-37.65
11
76.475
21
-35.15
0
LINE
8
FCrtYd
62
7
10
73.175
20
-35.15
11
76.475
21
-35.15
0
LINE
8
FCrtYd
62
7
10
81.8725
20
-131.635
11
80.9525
21
-131.635
0
LINE
8
FCrtYd
62
7
10
80.9525
20
-129.815
11
81.8725
21
-129.815
0
LINE
8
FCrtYd
62
7
10
80.9525
20
-131.635
11
80.9525
21
-129.815
0
LINE
8
FCrtYd
62
7
10
81.8725
20
-129.815
11
81.8725
21
-131.635
0
LINE
8
FFab
62
5
10
81.6625
20
-130.225
11
81.6625
21
-131.225
0
LINE
8
FFab
62
5
10
81.6625
20
-131.225
11
81.1625
21
-131.225
0
LINE
8
FFab
62
5
10
81.1625
20
-131.225
11
81.1625
21
-130.225
0
LINE
8
FFab
62
5
10
81.1625
20
-130.225
11
81.6625
21
-130.225
0
LINE
8
FCrtYd
62
7
10
76.43
20
-80.745
11
76.43
21
-82.205
0
LINE
8
FCrtYd
62
7
10
76.43
20
-82.205
11
73.47
21
-82.205
0
LINE
8
FCrtYd
62
7
10
73.47
20
-80.745
11
76.43
21
-80.745
0
LINE
8
FCrtYd
62
7
10
73.47
20
-82.205
11
73.47
21
-80.745
0
LINE
8
FFab
62
5
10
74.15
20
-81.8875
11
74.15
21
-81.0625
0
LINE
8
FFab
62
5
10
75.75
20
-81.8875
11
74.15
21
-81.8875
0
LINE
8
FFab
62
5
10
74.15
20
-81.0625
11
75.75
21
-81.0625
0
LINE
8
FFab
62
5
10
75.75
20
-81.0625
11
75.75
21
-81.8875
0
LINE
8
FCrtYd
62
7
10
86.7
20
-38.975
11
86.7
21
-36.475
0
LINE
8
FCrtYd
62
7
10
83.4
20
-36.475
11
86.7
21
-36.475
0
LINE
8
FCrtYd
62
7
10
83.4
20
-36.475
11
83.4
21
-38.975
0
LINE
8
FCrtYd
62
7
10
86.7
20
-38.975
11
83.4
21
-38.975
0
LINE
8
FCrtYd
62
7
10
90.05
20
-32.8
11
100.45
21
-32.8
0
LINE
8
FCrtYd
62
7
10
100.45
20
-43.2
11
90.05
21
-43.2
0
LINE
8
FCrtYd
62
7
10
100.45
20
-32.8
11
100.45
21
-43.2
0
LINE
8
FCrtYd
62
7
10
90.05
20
-43.2
11
90.05
21
-32.8
0
LINE
8
FCrtYd
62
7
10
143.52
20
-159.02
11
146.48
21
-159.02
0
LINE
8
FCrtYd
62
7
10
146.48
20
-160.48
11
143.52
21
-160.48
0
LINE
8
FCrtYd
62
7
10
143.52
20
-160.48
11
143.52
21
-159.02
0
LINE
8
FCrtYd
62
7
10
146.48
20
-159.02
11
146.48
21
-160.48
0
LINE
8
FFab
62
5
10
145.8
20
-160.1625
11
144.2
21
-160.1625
0
LINE
8
FFab
62
5
10
144.2
20
-159.3375
11
145.8
21
-159.3375
0
LINE
8
FFab
62
5
10
145.8
20
-159.3375
11
145.8
21
-160.1625
0
LINE
8
FFab
62
5
10
144.2
20
-160.1625
11
144.2
21
-159.3375
0
LINE
8
FCrtYd
62
7
10
106.45
20
-37.6
11
106.45
21
-35.1
0
LINE
8
FCrtYd
62
7
10
103.15
20
-35.1
11
106.45
21
-35.1
0
LINE
8
FCrtYd
62
7
10
106.45
20
-37.6
11
103.15
21
-37.6
0
LINE
8
FCrtYd
62
7
10
103.15
20
-35.1
11
103.15
21
-37.6
0
LINE
8
FCrtYd
62
7
10
80.6
20
-155.955
11
83.1
21
-155.955
0
LINE
8
FCrtYd
62
7
10
83.1
20
-152.655
11
83.1
21
-155.955
0
LINE
8
FCrtYd
62
7
10
83.1
20
-152.655
11
80.6
21
-152.655
0
LINE
8
FCrtYd
62
7
10
80.6
20
-155.955
11
80.6
21
-152.655
0
LINE
8
FCrtYd
62
7
10
136.875
20
-126.15
11
140.675
21
-126.15
0
LINE
8
FCrtYd
62
7
10
136.875
20
-123.75
11
136.875
21
-126.15
0
LINE
8
FCrtYd
62
7
10
140.675
20
-126.15
11
140.675
21
-123.75
0
LINE
8
FCrtYd
62
7
10
140.475
20
-123.75
11
136.875
21
-123.75
0
LINE
8
FCrtYd
62
7
10
140.675
20
-123.75
11
140.475
21
-123.75
0
LINE
8
FCrtYd
62
7
10
73.52
20
-162.205
11
73.52
21
-160.745
0
LINE
8
FCrtYd
62
7
10
73.52
20
-160.745
11
76.48
21
-160.745
0
LINE
8
FCrtYd
62
7
10
76.48
20
-162.205
11
73.52
21
-162.205
0
LINE
8
FCrtYd
62
7
10
76.48
20
-160.745
11
76.48
21
-162.205
0
LINE
8
FFab
62
5
10
75.8
20
-161.0625
11
75.8
21
-161.8875
0
LINE
8
FFab
62
5
10
74.2
20
-161.0625
11
75.8
21
-161.0625
0
LINE
8
FFab
62
5
10
75.8
20
-161.8875
11
74.2
21
-161.8875
0
LINE
8
FFab
62
5
10
74.2
20
-161.8875
11
74.2
21
-161.0625
0
LINE
8
FCrtYd
62
7
10
121.88
20
-52.445
11
121.88
21
-53.905
0
LINE
8
FCrtYd
62
7
10
118.92
20
-53.905
11
118.92
21
-52.445
0
LINE
8
FCrtYd
62
7
10
121.88
20
-53.905
11
118.92
21
-53.905
0
LINE
8
FCrtYd
62
7
10
118.92
20
-52.445
11
121.88
21
-52.445
0
LINE
8
FFab
62
5
10
121.2
20
-53.5875
11
119.6
21
-53.5875
0
LINE
8
FFab
62
5
10
119.6
20
-52.7625
11
121.2
21
-52.7625
0
LINE
8
FFab
62
5
10
119.6
20
-53.5875
11
119.6
21
-52.7625
0
LINE
8
FFab
62
5
10
121.2
20
-52.7625
11
121.2
21
-53.5875
0
LINE
8
FCrtYd
62
7
10
122.05
20
-140.85
11
122.05
21
-134.9
0
LINE
8
FCrtYd
62
7
10
114.95
20
-134.9
11
117.45
21
-134.9
0
LINE
8
FCrtYd
62
7
10
117.45
20
-142.0
11
117.45
21
-143.25
0
LINE
8
FCrtYd
62
7
10
117.45
20
-133.65
11
119.55
21
-133.65
0
LINE
8
FCrtYd
62
7
10
119.55
20
-134.9
11
122.05
21
-134.9
0
LINE
8
FCrtYd
62
7
10
119.55
20
-143.25
11
119.55
21
-142.0
0
LINE
8
FCrtYd
62
7
10
116.1
20
-142.0
11
114.95
21
-140.85
0
LINE
8
FCrtYd
62
7
10
120.9
20
-142.0
11
122.05
21
-140.85
0
LINE
8
FCrtYd
62
7
10
117.45
20
-143.25
11
119.55
21
-143.25
0
LINE
8
FCrtYd
62
7
10
114.95
20
-140.85
11
114.95
21
-134.9
0
LINE
8
FCrtYd
62
7
10
119.55
20
-142.0
11
120.9
21
-142.0
0
LINE
8
FCrtYd
62
7
10
116.1
20
-142.0
11
117.45
21
-142.0
0
LINE
8
FCrtYd
62
7
10
119.55
20
-133.65
11
119.55
21
-134.9
0
LINE
8
FCrtYd
62
7
10
117.45
20
-134.9
11
117.45
21
-133.65
0
LINE
8
FFab
62
5
10
120.8
20
-141.75
11
121.8
21
-140.75
0
LINE
8
FFab
62
5
10
116.855
20
-140.839838
11
117.485
21
-140.839838
0
LINE
8
FFab
62
5
10
117.17
20
-141.154838
11
117.17
21
-140.524838
0
LINE
8
FFab
62
5
10
115.2
20
-135.15
11
121.8
21
-135.15
0
LINE
8
FFab
62
5
10
116.2
20
-141.75
11
115.2
21
-140.75
0
LINE
8
FFab
62
5
10
116.2
20
-141.75
11
120.8
21
-141.75
0
LINE
8
FFab
62
5
10
121.8
20
-140.75
11
121.8
21
-135.15
0
LINE
8
FFab
62
5
10
115.2
20
-140.75
11
115.2
21
-135.15
0
CIRCLE
8
FFab
62
5
10
118.5
20
-138.45
40
3.15
0
LINE
8
FCrtYd
62
7
10
113.47
20
-160.43
11
113.47
21
-158.97
0
LINE
8
FCrtYd
62
7
10
116.43
20
-158.97
11
116.43
21
-160.43
0
LINE
8
FCrtYd
62
7
10
113.47
20
-158.97
11
116.43
21
-158.97
0
LINE
8
FCrtYd
62
7
10
116.43
20
-160.43
11
113.47
21
-160.43
0
LINE
8
FFab
62
5
10
114.15
20
-159.2875
11
115.75
21
-159.2875
0
LINE
8
FFab
62
5
10
115.75
20
-159.2875
11
115.75
21
-160.1125
0
LINE
8
FFab
62
5
10
115.75
20
-160.1125
11
114.15
21
-160.1125
0
LINE
8
FFab
62
5
10
114.15
20
-160.1125
11
114.15
21
-159.2875
0
LINE
8
FCrtYd
62
7
10
81.0
20
-126.8
11
81.0
21
-123.5
0
LINE
8
FCrtYd
62
7
10
83.5
20
-123.5
11
83.5
21
-126.8
0
LINE
8
FCrtYd
62
7
10
81.0
20
-126.8
11
83.5
21
-126.8
0
LINE
8
FCrtYd
62
7
10
83.5
20
-123.5
11
81.0
21
-123.5
0
LINE
8
FCrtYd
62
7
10
133.08
20
-137.62
11
133.08
21
-140.58
0
LINE
8
FCrtYd
62
7
10
133.08
20
-140.58
11
131.62
21
-140.58
0
LINE
8
FCrtYd
62
7
10
131.62
20
-140.58
11
131.62
21
-137.62
0
LINE
8
FCrtYd
62
7
10
131.62
20
-137.62
11
133.08
21
-137.62
0
LINE
8
FFab
62
5
10
131.95
20
-138.3
11
132.75
21
-138.3
0
LINE
8
FFab
62
5
10
132.75
20
-138.3
11
132.75
21
-139.9
0
LINE
8
FFab
62
5
10
132.75
20
-139.9
11
131.95
21
-139.9
0
LINE
8
FFab
62
5
10
131.95
20
-139.9
11
131.95
21
-138.3
0
LINE
8
FCrtYd
62
7
10
133.3
20
-46.925
11
133.3
21
-42.525
0
LINE
8
FCrtYd
62
7
10
133.3
20
-42.525
11
135.6
21
-42.525
0
LINE
8
FCrtYd
62
7
10
133.3
20
-46.925
11
135.6
21
-46.925
0
LINE
8
FCrtYd
62
7
10
135.6
20
-42.525
11
135.6
21
-46.925
0
LINE
8
FFab
62
5
10
134.85
20
-44.475
11
134.45
21
-45.075
0
LINE
8
FFab
62
5
10
134.45
20
-45.075
11
135.0
21
-45.075
0
LINE
8
FFab
62
5
10
134.45
20
-45.475
11
134.45
21
-45.075
0
LINE
8
FFab
62
5
10
135.35
20
-46.125
11
133.55
21
-46.125
0
LINE
8
FFab
62
5
10
134.05
20
-44.475
11
134.85
21
-44.475
0
LINE
8
FFab
62
5
10
135.35
20
-43.325
11
135.35
21
-46.125
0
LINE
8
FFab
62
5
10
134.45
20
-44.475
11
134.45
21
-43.975
0
LINE
8
FFab
62
5
10
133.55
20
-43.325
11
135.35
21
-43.325
0
LINE
8
FFab
62
5
10
134.45
20
-45.075
11
134.05
21
-44.475
0
LINE
8
FFab
62
5
10
134.45
20
-45.075
11
133.9
21
-45.075
0
LINE
8
FFab
62
5
10
133.55
20
-46.125
11
133.55
21
-43.325
0
LINE
8
FCrtYd
62
7
10
106.45
20
-155.1
11
103.15
21
-155.1
0
LINE
8
FCrtYd
62
7
10
103.15
20
-152.6
11
103.15
21
-155.1
0
LINE
8
FCrtYd
62
7
10
106.45
20
-155.1
11
106.45
21
-152.6
0
LINE
8
FCrtYd
62
7
10
103.15
20
-152.6
11
106.45
21
-152.6
0
LINE
8
FCrtYd
62
7
10
80.5
20
-163.825
11
76.9
21
-163.825
0
LINE
8
FCrtYd
62
7
10
80.7
20
-163.825
11
80.5
21
-163.825
0
LINE
8
FCrtYd
62
7
10
80.7
20
-166.225
11
80.7
21
-163.825
0
LINE
8
FCrtYd
62
7
10
76.9
20
-163.825
11
76.9
21
-166.225
0
LINE
8
FCrtYd
62
7
10
76.9
20
-166.225
11
80.7
21
-166.225
0
LINE
8
FCrtYd
62
7
10
113.52
20
-40.43
11
113.52
21
-38.97
0
LINE
8
FCrtYd
62
7
10
116.48
20
-38.97
11
116.48
21
-40.43
0
LINE
8
FCrtYd
62
7
10
113.52
20
-38.97
11
116.48
21
-38.97
0
LINE
8
FCrtYd
62
7
10
116.48
20
-40.43
11
113.52
21
-40.43
0
LINE
8
FFab
62
5
10
115.8
20
-40.1125
11
114.2
21
-40.1125
0
LINE
8
FFab
62
5
10
115.8
20
-39.2875
11
115.8
21
-40.1125
0
LINE
8
FFab
62
5
10
114.2
20
-40.1125
11
114.2
21
-39.2875
0
LINE
8
FFab
62
5
10
114.2
20
-39.2875
11
115.8
21
-39.2875
0
LINE
8
FCrtYd
62
7
10
122.32
20
-140.67
11
125.28
21
-140.67
0
LINE
8
FCrtYd
62
7
10
125.28
20
-142.13
11
122.32
21
-142.13
0
LINE
8
FCrtYd
62
7
10
122.32
20
-142.13
11
122.32
21
-140.67
0
LINE
8
FCrtYd
62
7
10
125.28
20
-140.67
11
125.28
21
-142.13
0
LINE
8
FFab
62
5
10
123.0
20
-141.8
11
123.0
21
-141.0
0
LINE
8
FFab
62
5
10
124.6
20
-141.0
11
124.6
21
-141.8
0
LINE
8
FFab
62
5
10
123.0
20
-141.0
11
124.6
21
-141.0
0
LINE
8
FFab
62
5
10
124.6
20
-141.8
11
123.0
21
-141.8
0
LINE
8
FCrtYd
62
7
10
106.43
20
-79.195
11
106.43
21
-80.655
0
LINE
8
FCrtYd
62
7
10
103.47
20
-80.655
11
103.47
21
-79.195
0
LINE
8
FCrtYd
62
7
10
103.47
20
-79.195
11
106.43
21
-79.195
0
LINE
8
FCrtYd
62
7
10
106.43
20
-80.655
11
103.47
21
-80.655
0
LINE
8
FFab
62
5
10
104.15
20
-80.3375
11
104.15
21
-79.5125
0
LINE
8
FFab
62
5
10
105.75
20
-80.3375
11
104.15
21
-80.3375
0
LINE
8
FFab
62
5
10
105.75
20
-79.5125
11
105.75
21
-80.3375
0
LINE
8
FFab
62
5
10
104.15
20
-79.5125
11
105.75
21
-79.5125
0
LINE
8
FCrtYd
62
7
10
73.2
20
-75.15
11
76.5
21
-75.15
0
LINE
8
FCrtYd
62
7
10
76.5
20
-77.65
11
73.2
21
-77.65
0
LINE
8
FCrtYd
62
7
10
73.2
20
-75.15
11
73.2
21
-77.65
0
LINE
8
FCrtYd
62
7
10
76.5
20
-77.65
11
76.5
21
-75.15
0
LINE
8
FCrtYd
62
7
10
75.0075
20
-129.195
11
76.4675
21
-129.195
0
LINE
8
FCrtYd
62
7
10
76.4675
20
-129.195
11
76.4675
21
-132.155
0
LINE
8
FCrtYd
62
7
10
76.4675
20
-132.155
11
75.0075
21
-132.155
0
LINE
8
FCrtYd
62
7
10
75.0075
20
-132.155
11
75.0075
21
-129.195
0
LINE
8
FFab
62
5
10
76.15
20
-131.475
11
75.325
21
-131.475
0
LINE
8
FFab
62
5
10
76.15
20
-129.875
11
76.15
21
-131.475
0
LINE
8
FFab
62
5
10
75.325
20
-131.475
11
75.325
21
-129.875
0
LINE
8
FFab
62
5
10
75.325
20
-129.875
11
76.15
21
-129.875
0
LINE
8
FCrtYd
62
7
10
83.52
20
-123.52
11
86.48
21
-123.52
0
LINE
8
FCrtYd
62
7
10
83.52
20
-124.98
11
83.52
21
-123.52
0
LINE
8
FCrtYd
62
7
10
86.48
20
-124.98
11
83.52
21
-124.98
0
LINE
8
FCrtYd
62
7
10
86.48
20
-123.52
11
86.48
21
-124.98
0
LINE
8
FFab
62
5
10
84.2
20
-123.8375
11
85.8
21
-123.8375
0
LINE
8
FFab
62
5
10
85.8
20
-124.6625
11
84.2
21
-124.6625
0
LINE
8
FFab
62
5
10
85.8
20
-123.8375
11
85.8
21
-124.6625
0
LINE
8
FFab
62
5
10
84.2
20
-124.6625
11
84.2
21
-123.8375
0
LINE
8
FCrtYd
62
7
10
133.25
20
-152.65
11
133.25
21
-155.15
0
LINE
8
FCrtYd
62
7
10
136.55
20
-155.15
11
133.25
21
-155.15
0
LINE
8
FCrtYd
62
7
10
136.55
20
-155.15
11
136.55
21
-152.65
0
LINE
8
FCrtYd
62
7
10
133.25
20
-152.65
11
136.55
21
-152.65
0
LINE
8
FCrtYd
62
7
10
143.52
20
-121.92
11
146.48
21
-121.92
0
LINE
8
FCrtYd
62
7
10
146.48
20
-123.38
11
143.52
21
-123.38
0
LINE
8
FCrtYd
62
7
10
143.52
20
-123.38
11
143.52
21
-121.92
0
LINE
8
FCrtYd
62
7
10
146.48
20
-121.92
11
146.48
21
-123.38
0
LINE
8
FFab
62
5
10
144.2
20
-122.2375
11
145.8
21
-122.2375
0
LINE
8
FFab
62
5
10
145.8
20
-123.0625
11
144.2
21
-123.0625
0
LINE
8
FFab
62
5
10
144.2
20
-123.0625
11
144.2
21
-122.2375
0
LINE
8
FFab
62
5
10
145.8
20
-122.2375
11
145.8
21
-123.0625
0
LINE
8
FCrtYd
62
7
10
113.47
20
-163.405
11
113.47
21
-161.945
0
LINE
8
FCrtYd
62
7
10
116.43
20
-163.405
11
113.47
21
-163.405
0
LINE
8
FCrtYd
62
7
10
116.43
20
-161.945
11
116.43
21
-163.405
0
LINE
8
FCrtYd
62
7
10
113.47
20
-161.945
11
116.43
21
-161.945
0
LINE
8
FFab
62
5
10
115.75
20
-163.0875
11
114.15
21
-163.0875
0
LINE
8
FFab
62
5
10
115.75
20
-162.2625
11
115.75
21
-163.0875
0
LINE
8
FFab
62
5
10
114.15
20
-163.0875
11
114.15
21
-162.2625
0
LINE
8
FFab
62
5
10
114.15
20
-162.2625
11
115.75
21
-162.2625
0
LINE
8
FCrtYd
62
7
10
110.45
20
-43.725
11
106.85
21
-43.725
0
LINE
8
FCrtYd
62
7
10
106.85
20
-43.725
11
106.85
21
-46.125
0
LINE
8
FCrtYd
62
7
10
106.85
20
-46.125
11
110.65
21
-46.125
0
LINE
8
FCrtYd
62
7
10
110.65
20
-46.125
11
110.65
21
-43.725
0
LINE
8
FCrtYd
62
7
10
110.65
20
-43.725
11
110.45
21
-43.725
0
LINE
8
FCrtYd
62
7
10
117.77
20
-152.995
11
117.77
21
-156.445
0
LINE
8
FCrtYd
62
7
10
113.57
20
-156.445
11
113.57
21
-152.995
0
LINE
8
FCrtYd
62
7
10
113.57
20
-152.995
11
117.77
21
-152.995
0
LINE
8
FCrtYd
62
7
10
117.77
20
-156.445
11
113.57
21
-156.445
0
LINE
8
FFab
62
5
10
114.87
20
-156.17
11
114.87
21
-153.27
0
LINE
8
FFab
62
5
10
114.87
20
-153.92
11
115.52
21
-153.27
0
LINE
8
FFab
62
5
10
114.87
20
-153.27
11
116.47
21
-153.27
0
LINE
8
FFab
62
5
10
116.47
20
-153.27
11
116.47
21
-156.17
0
LINE
8
FFab
62
5
10
116.47
20
-156.17
11
114.87
21
-156.17
0
LINE
8
FCrtYd
62
7
10
143.52
20
-120.445
11
146.48
21
-120.445
0
LINE
8
FCrtYd
62
7
10
146.48
20
-120.445
11
146.48
21
-121.905
0
LINE
8
FCrtYd
62
7
10
146.48
20
-121.905
11
143.52
21
-121.905
0
LINE
8
FCrtYd
62
7
10
143.52
20
-121.905
11
143.52
21
-120.445
0
LINE
8
FFab
62
5
10
145.8
20
-120.7625
11
145.8
21
-121.5875
0
LINE
8
FFab
62
5
10
144.2
20
-120.7625
11
145.8
21
-120.7625
0
LINE
8
FFab
62
5
10
145.8
20
-121.5875
11
144.2
21
-121.5875
0
LINE
8
FFab
62
5
10
144.2
20
-121.5875
11
144.2
21
-120.7625
0
LINE
8
FCrtYd
62
7
10
146.48
20
-84.93
11
143.52
21
-84.93
0
LINE
8
FCrtYd
62
7
10
146.48
20
-83.47
11
146.48
21
-84.93
0
LINE
8
FCrtYd
62
7
10
143.52
20
-83.47
11
146.48
21
-83.47
0
LINE
8
FCrtYd
62
7
10
143.52
20
-84.93
11
143.52
21
-83.47
0
LINE
8
FFab
62
5
10
145.8
20
-84.6125
11
144.2
21
-84.6125
0
LINE
8
FFab
62
5
10
144.2
20
-84.6125
11
144.2
21
-83.7875
0
LINE
8
FFab
62
5
10
144.2
20
-83.7875
11
145.8
21
-83.7875
0
LINE
8
FFab
62
5
10
145.8
20
-83.7875
11
145.8
21
-84.6125
0
LINE
8
FCrtYd
62
7
10
83.09
20
-72.83
11
80.59
21
-72.83
0
LINE
8
FCrtYd
62
7
10
83.09
20
-72.83
11
83.09
21
-76.13
0
LINE
8
FCrtYd
62
7
10
80.59
20
-76.13
11
80.59
21
-72.83
0
LINE
8
FCrtYd
62
7
10
80.59
20
-76.13
11
83.09
21
-76.13
0
LINE
8
FCrtYd
62
7
10
113.375
20
-156.45
11
113.375
21
-158.95
0
LINE
8
FCrtYd
62
7
10
113.375
20
-156.45
11
116.675
21
-156.45
0
LINE
8
FCrtYd
62
7
10
116.675
20
-158.95
11
113.375
21
-158.95
0
LINE
8
FCrtYd
62
7
10
116.675
20
-158.95
11
116.675
21
-156.45
0
LINE
8
FCrtYd
62
7
10
83.52
20
-39.02
11
86.48
21
-39.02
0
LINE
8
FCrtYd
62
7
10
86.48
20
-39.02
11
86.48
21
-40.48
0
LINE
8
FCrtYd
62
7
10
83.52
20
-40.48
11
83.52
21
-39.02
0
LINE
8
FCrtYd
62
7
10
86.48
20
-40.48
11
83.52
21
-40.48
0
LINE
8
FFab
62
5
10
85.8
20
-39.3375
11
85.8
21
-40.1625
0
LINE
8
FFab
62
5
10
85.8
20
-40.1625
11
84.2
21
-40.1625
0
LINE
8
FFab
62
5
10
84.2
20
-40.1625
11
84.2
21
-39.3375
0
LINE
8
FFab
62
5
10
84.2
20
-39.3375
11
85.8
21
-39.3375
0
LINE
8
FCrtYd
62
7
10
87.78
20
-156.495
11
83.58
21
-156.495
0
LINE
8
FCrtYd
62
7
10
83.58
20
-153.045
11
87.78
21
-153.045
0
LINE
8
FCrtYd
62
7
10
87.78
20
-153.045
11
87.78
21
-156.495
0
LINE
8
FCrtYd
62
7
10
83.58
20
-156.495
11
83.58
21
-153.045
0
LINE
8
FFab
62
5
10
84.88
20
-156.22
11
84.88
21
-153.32
0
LINE
8
FFab
62
5
10
86.48
20
-156.22
11
84.88
21
-156.22
0
LINE
8
FFab
62
5
10
84.88
20
-153.32
11
86.48
21
-153.32
0
LINE
8
FFab
62
5
10
86.48
20
-153.32
11
86.48
21
-156.22
0
LINE
8
FFab
62
5
10
84.88
20
-153.97
11
85.53
21
-153.32
0
LINE
8
FCrtYd
62
7
10
137.715
20
-109.225
11
137.715
21
-102.875
0
LINE
8
FCrtYd
62
7
10
126.385
20
-102.875
11
126.385
21
-109.225
0
LINE
8
FCrtYd
62
7
10
137.715
20
-102.875
11
126.385
21
-102.875
0
LINE
8
FCrtYd
62
7
10
126.385
20
-109.225
11
137.715
21
-109.225
0
LINE
8
FCrtYd
62
7
10
136.43
20
-82.18
11
133.47
21
-82.18
0
LINE
8
FCrtYd
62
7
10
133.47
20
-82.18
11
133.47
21
-80.72
0
LINE
8
FCrtYd
62
7
10
136.43
20
-80.72
11
136.43
21
-82.18
0
LINE
8
FCrtYd
62
7
10
133.47
20
-80.72
11
136.43
21
-80.72
0
LINE
8
FFab
62
5
10
135.75
20
-81.8625
11
134.15
21
-81.8625
0
LINE
8
FFab
62
5
10
134.15
20
-81.0375
11
135.75
21
-81.0375
0
LINE
8
FFab
62
5
10
134.15
20
-81.8625
11
134.15
21
-81.0375
0
LINE
8
FFab
62
5
10
135.75
20
-81.0375
11
135.75
21
-81.8625
0
LINE
8
FCrtYd
62
7
10
80.7
20
-86.225
11
80.7
21
-83.825
0
LINE
8
FCrtYd
62
7
10
76.9
20
-86.225
11
80.7
21
-86.225
0
LINE
8
FCrtYd
62
7
10
76.9
20
-83.825
11
76.9
21
-86.225
0
LINE
8
FCrtYd
62
7
10
80.7
20
-83.825
11
80.5
21
-83.825
0
LINE
8
FCrtYd
62
7
10
80.5
20
-83.825
11
76.9
21
-83.825
0
LINE
8
FCrtYd
62
7
10
83.545
20
-163.48
11
83.545
21
-162.02
0
LINE
8
FCrtYd
62
7
10
83.545
20
-162.02
11
86.505
21
-162.02
0
LINE
8
FCrtYd
62
7
10
86.505
20
-162.02
11
86.505
21
-163.48
0
LINE
8
FCrtYd
62
7
10
86.505
20
-163.48
11
83.545
21
-163.48
0
LINE
8
FFab
62
5
10
84.225
20
-163.1625
11
84.225
21
-162.3375
0
LINE
8
FFab
62
5
10
85.825
20
-162.3375
11
85.825
21
-163.1625
0
LINE
8
FFab
62
5
10
85.825
20
-163.1625
11
84.225
21
-163.1625
0
LINE
8
FFab
62
5
10
84.225
20
-162.3375
11
85.825
21
-162.3375
0
CIRCLE
8
FCrtYd
62
7
10
99.075
20
-106.55
40
1.0
0
LINE
8
FCrtYd
62
7
10
73.495
20
-159.22
11
76.455
21
-159.22
0
LINE
8
FCrtYd
62
7
10
73.495
20
-160.68
11
73.495
21
-159.22
0
LINE
8
FCrtYd
62
7
10
76.455
20
-160.68
11
73.495
21
-160.68
0
LINE
8
FCrtYd
62
7
10
76.455
20
-159.22
11
76.455
21
-160.68
0
LINE
8
FFab
62
5
10
74.175
20
-159.5375
11
75.775
21
-159.5375
0
LINE
8
FFab
62
5
10
74.175
20
-160.3625
11
74.175
21
-159.5375
0
LINE
8
FFab
62
5
10
75.775
20
-160.3625
11
74.175
21
-160.3625
0
LINE
8
FFab
62
5
10
75.775
20
-159.5375
11
75.775
21
-160.3625
0
LINE
8
FCrtYd
62
7
10
121.88
20
-50.82
11
121.88
21
-52.28
0
LINE
8
FCrtYd
62
7
10
121.88
20
-52.28
11
118.92
21
-52.28
0
LINE
8
FCrtYd
62
7
10
118.92
20
-52.28
11
118.92
21
-50.82
0
LINE
8
FCrtYd
62
7
10
118.92
20
-50.82
11
121.88
21
-50.82
0
LINE
8
FFab
62
5
10
121.2
20
-51.1375
11
121.2
21
-51.9625
0
LINE
8
FFab
62
5
10
119.6
20
-51.9625
11
119.6
21
-51.1375
0
LINE
8
FFab
62
5
10
121.2
20
-51.9625
11
119.6
21
-51.9625
0
LINE
8
FFab
62
5
10
119.6
20
-51.1375
11
121.2
21
-51.1375
0
LINE
8
FCrtYd
62
7
10
116.43
20
-164.955
11
113.47
21
-164.955
0
LINE
8
FCrtYd
62
7
10
113.47
20
-163.495
11
116.43
21
-163.495
0
LINE
8
FCrtYd
62
7
10
113.47
20
-164.955
11
113.47
21
-163.495
0
LINE
8
FCrtYd
62
7
10
116.43
20
-163.495
11
116.43
21
-164.955
0
LINE
8
FFab
62
5
10
114.15
20
-164.6375
11
114.15
21
-163.8125
0
LINE
8
FFab
62
5
10
115.75
20
-163.8125
11
115.75
21
-164.6375
0
LINE
8
FFab
62
5
10
114.15
20
-163.8125
11
115.75
21
-163.8125
0
LINE
8
FFab
62
5
10
115.75
20
-164.6375
11
114.15
21
-164.6375
0
LINE
8
FCrtYd
62
7
10
136.5
20
-117.6
11
133.2
21
-117.6
0
LINE
8
FCrtYd
62
7
10
133.2
20
-115.1
11
133.2
21
-117.6
0
LINE
8
FCrtYd
62
7
10
133.2
20
-115.1
11
136.5
21
-115.1
0
LINE
8
FCrtYd
62
7
10
136.5
20
-117.6
11
136.5
21
-115.1
0
LINE
8
FCrtYd
62
7
10
140.95
20
-46.75
11
140.95
21
-43.45
0
LINE
8
FCrtYd
62
7
10
143.45
20
-43.45
11
140.95
21
-43.45
0
LINE
8
FCrtYd
62
7
10
143.45
20
-43.45
11
143.45
21
-46.75
0
LINE
8
FCrtYd
62
7
10
140.95
20
-46.75
11
143.45
21
-46.75
0
LINE
8
FCrtYd
62
7
10
143.52
20
-165.03
11
143.52
21
-163.57
0
LINE
8
FCrtYd
62
7
10
146.48
20
-165.03
11
143.52
21
-165.03
0
LINE
8
FCrtYd
62
7
10
146.48
20
-163.57
11
146.48
21
-165.03
0
LINE
8
FCrtYd
62
7
10
143.52
20
-163.57
11
146.48
21
-163.57
0
LINE
8
FFab
62
5
10
145.8
20
-164.7125
11
144.2
21
-164.7125
0
LINE
8
FFab
62
5
10
145.8
20
-163.8875
11
145.8
21
-164.7125
0
LINE
8
FFab
62
5
10
144.2
20
-163.8875
11
145.8
21
-163.8875
0
LINE
8
FFab
62
5
10
144.2
20
-164.7125
11
144.2
21
-163.8875
0
LINE
8
FCrtYd
62
7
10
140.95
20
-86.75
11
140.95
21
-83.45
0
LINE
8
FCrtYd
62
7
10
140.95
20
-86.75
11
143.45
21
-86.75
0
LINE
8
FCrtYd
62
7
10
143.45
20
-83.45
11
143.45
21
-86.75
0
LINE
8
FCrtYd
62
7
10
143.45
20
-83.45
11
140.95
21
-83.45
0
LINE
8
FCrtYd
62
7
10
73.47
20
-40.63
11
73.47
21
-39.17
0
LINE
8
FCrtYd
62
7
10
73.47
20
-39.17
11
76.43
21
-39.17
0
LINE
8
FCrtYd
62
7
10
76.43
20
-39.17
11
76.43
21
-40.63
0
LINE
8
FCrtYd
62
7
10
76.43
20
-40.63
11
73.47
21
-40.63
0
LINE
8
FFab
62
5
10
74.15
20
-39.4875
11
75.75
21
-39.4875
0
LINE
8
FFab
62
5
10
75.75
20
-40.3125
11
74.15
21
-40.3125
0
LINE
8
FFab
62
5
10
75.75
20
-39.4875
11
75.75
21
-40.3125
0
LINE
8
FFab
62
5
10
74.15
20
-40.3125
11
74.15
21
-39.4875
0
LINE
8
FCrtYd
62
7
10
125.67
20
-142.225
11
121.83
21
-142.225
0
LINE
8
FCrtYd
62
7
10
125.67
20
-145.625
11
125.67
21
-142.225
0
LINE
8
FCrtYd
62
7
10
121.83
20
-145.625
11
125.67
21
-145.625
0
LINE
8
FCrtYd
62
7
10
121.83
20
-142.225
11
121.83
21
-145.625
0
LINE
8
FFab
62
5
10
124.4
20
-145.375
11
123.1
21
-145.375
0
LINE
8
FFab
62
5
10
123.1
20
-142.8
11
123.425
21
-142.475
0
LINE
8
FFab
62
5
10
123.1
20
-145.375
11
123.1
21
-142.8
0
LINE
8
FFab
62
5
10
123.425
20
-142.475
11
124.4
21
-142.475
0
LINE
8
FFab
62
5
10
124.4
20
-142.475
11
124.4
21
-145.375
0
LINE
8
FCrtYd
62
7
10
118.925
20
-49.185
11
121.885
21
-49.185
0
LINE
8
FCrtYd
62
7
10
121.885
20
-49.185
11
121.885
21
-50.645
0
LINE
8
FCrtYd
62
7
10
121.885
20
-50.645
11
118.925
21
-50.645
0
LINE
8
FCrtYd
62
7
10
118.925
20
-50.645
11
118.925
21
-49.185
0
LINE
8
FFab
62
5
10
121.205
20
-49.5025
11
121.205
21
-50.3275
0
LINE
8
FFab
62
5
10
121.205
20
-50.3275
11
119.605
21
-50.3275
0
LINE
8
FFab
62
5
10
119.605
20
-50.3275
11
119.605
21
-49.5025
0
LINE
8
FFab
62
5
10
119.605
20
-49.5025
11
121.205
21
-49.5025
0
LINE
8
FCrtYd
62
7
10
113.39
20
-116.345
11
113.39
21
-112.895
0
LINE
8
FCrtYd
62
7
10
117.59
20
-116.345
11
113.39
21
-116.345
0
LINE
8
FCrtYd
62
7
10
117.59
20
-112.895
11
117.59
21
-116.345
0
LINE
8
FCrtYd
62
7
10
113.39
20
-112.895
11
117.59
21
-112.895
0
LINE
8
FFab
62
5
10
114.69
20
-113.17
11
116.29
21
-113.17
0
LINE
8
FFab
62
5
10
114.69
20
-116.07
11
114.69
21
-113.17
0
LINE
8
FFab
62
5
10
116.29
20
-116.07
11
114.69
21
-116.07
0
LINE
8
FFab
62
5
10
116.29
20
-113.17
11
116.29
21
-116.07
0
LINE
8
FFab
62
5
10
114.69
20
-113.82
11
115.34
21
-113.17
0
LINE
8
FCrtYd
62
7
10
146.48
20
-83.455
11
143.52
21
-83.455
0
LINE
8
FCrtYd
62
7
10
146.48
20
-81.995
11
146.48
21
-83.455
0
LINE
8
FCrtYd
62
7
10
143.52
20
-81.995
11
146.48
21
-81.995
0
LINE
8
FCrtYd
62
7
10
143.52
20
-83.455
11
143.52
21
-81.995
0
LINE
8
FFab
62
5
10
144.2
20
-82.3125
11
145.8
21
-82.3125
0
LINE
8
FFab
62
5
10
144.2
20
-83.1375
11
144.2
21
-82.3125
0
LINE
8
FFab
62
5
10
145.8
20
-82.3125
11
145.8
21
-83.1375
0
LINE
8
FFab
62
5
10
145.8
20
-83.1375
11
144.2
21
-83.1375
0
LINE
8
FCrtYd
62
7
10
113.52
20
-44.93
11
113.52
21
-43.47
0
LINE
8
FCrtYd
62
7
10
113.52
20
-43.47
11
116.48
21
-43.47
0
LINE
8
FCrtYd
62
7
10
116.48
20
-43.47
11
116.48
21
-44.93
0
LINE
8
FCrtYd
62
7
10
116.48
20
-44.93
11
113.52
21
-44.93
0
LINE
8
FFab
62
5
10
114.2
20
-44.6125
11
114.2
21
-43.7875
0
LINE
8
FFab
62
5
10
114.2
20
-43.7875
11
115.8
21
-43.7875
0
LINE
8
FFab
62
5
10
115.8
20
-44.6125
11
114.2
21
-44.6125
0
LINE
8
FFab
62
5
10
115.8
20
-43.7875
11
115.8
21
-44.6125
0
LINE
8
FCrtYd
62
7
10
140.53
20
-36.075
11
140.53
21
-32.775
0
LINE
8
FCrtYd
62
7
10
143.03
20
-32.775
11
143.03
21
-36.075
0
LINE
8
FCrtYd
62
7
10
140.53
20
-36.075
11
143.03
21
-36.075
0
LINE
8
FCrtYd
62
7
10
143.03
20
-32.775
11
140.53
21
-32.775
0
LINE
8
FCrtYd
62
7
10
116.725
20
-118.975
11
116.725
21
-116.475
0
LINE
8
FCrtYd
62
7
10
116.725
20
-118.975
11
113.425
21
-118.975
0
LINE
8
FCrtYd
62
7
10
113.425
20
-116.475
11
113.425
21
-118.975
0
LINE
8
FCrtYd
62
7
10
113.425
20
-116.475
11
116.725
21
-116.475
0
LINE
8
FCrtYd
62
7
10
139.08
20
-135.475
11
139.08
21
-138.875
0
LINE
8
FCrtYd
62
7
10
137.12
20
-138.875
11
137.12
21
-135.475
0
LINE
8
FCrtYd
62
7
10
137.12
20
-135.475
11
139.08
21
-135.475
0
LINE
8
FCrtYd
62
7
10
139.08
20
-138.875
11
137.12
21
-138.875
0
LINE
8
FFab
62
5
10
138.725
20
-136.175
11
138.725
21
-138.175
0
LINE
8
FFab
62
5
10
138.725
20
-138.175
11
137.475
21
-138.175
0
LINE
8
FFab
62
5
10
137.475
20
-138.175
11
137.475
21
-136.175
0
LINE
8
FFab
62
5
10
137.475
20
-136.175
11
138.725
21
-136.175
0
LINE
8
FCrtYd
62
7
10
83.05
20
-32.65
11
80.55
21
-32.65
0
LINE
8
FCrtYd
62
7
10
80.55
20
-35.95
11
83.05
21
-35.95
0
LINE
8
FCrtYd
62
7
10
80.55
20
-35.95
11
80.55
21
-32.65
0
LINE
8
FCrtYd
62
7
10
83.05
20
-32.65
11
83.05
21
-35.95
0
LINE
8
FCrtYd
62
7
10
83.475
20
-43.475
11
80.975
21
-43.475
0
LINE
8
FCrtYd
62
7
10
80.975
20
-46.775
11
80.975
21
-43.475
0
LINE
8
FCrtYd
62
7
10
80.975
20
-46.775
11
83.475
21
-46.775
0
LINE
8
FCrtYd
62
7
10
83.475
20
-43.475
11
83.475
21
-46.775
0
LINE
8
FCrtYd
62
7
10
133.42
20
-39.12
11
136.38
21
-39.12
0
LINE
8
FCrtYd
62
7
10
133.42
20
-40.58
11
133.42
21
-39.12
0
LINE
8
FCrtYd
62
7
10
136.38
20
-40.58
11
133.42
21
-40.58
0
LINE
8
FCrtYd
62
7
10
136.38
20
-39.12
11
136.38
21
-40.58
0
LINE
8
FFab
62
5
10
135.7
20
-39.4375
11
135.7
21
-40.2625
0
LINE
8
FFab
62
5
10
134.1
20
-39.4375
11
135.7
21
-39.4375
0
LINE
8
FFab
62
5
10
134.1
20
-40.2625
11
134.1
21
-39.4375
0
LINE
8
FFab
62
5
10
135.7
20
-40.2625
11
134.1
21
-40.2625
0
LINE
8
FCrtYd
62
7
10
76.5
20
-115.15
11
73.2
21
-115.15
0
LINE
8
FCrtYd
62
7
10
73.2
20
-112.65
11
76.5
21
-112.65
0
LINE
8
FCrtYd
62
7
10
73.2
20
-112.65
11
73.2
21
-115.15
0
LINE
8
FCrtYd
62
7
10
76.5
20
-115.15
11
76.5
21
-112.65
0
LINE
8
FCrtYd
62
7
10
151.3325
20
-58.86
11
141.4325
21
-58.86
0
LINE
8
FCrtYd
62
7
10
141.4325
20
-80.22
11
151.3325
21
-80.22
0
LINE
8
FCrtYd
62
7
10
141.4325
20
-58.86
11
141.4325
21
-80.22
0
LINE
8
FCrtYd
62
7
10
151.3325
20
-80.22
11
151.3325
21
-58.86
0
LINE
8
FFab
62
5
10
142.9325
20
-59.36
11
150.8325
21
-59.36
0
LINE
8
FFab
62
5
10
143.1325
20
-71.59
11
141.9325
21
-71.59
0
LINE
8
FFab
62
5
10
141.9325
20
-67.49
11
143.1325
21
-67.49
0
LINE
8
FFab
62
5
10
143.1325
20
-60.55
11
149.6325
21
-60.55
0
LINE
8
FFab
62
5
10
149.6325
20
-60.55
11
149.6325
21
-78.53
0
LINE
8
FFab
62
5
10
149.6325
20
-78.53
11
143.1325
21
-78.53
0
LINE
8
FFab
62
5
10
150.8325
20
-59.36
11
150.8325
21
-79.72
0
LINE
8
FFab
62
5
10
143.1325
20
-71.59
11
143.1325
21
-71.59
0
LINE
8
FFab
62
5
10
141.9325
20
-79.72
11
141.9325
21
-60.36
0
LINE
8
FFab
62
5
10
150.8325
20
-79.72
11
141.9325
21
-79.72
0
LINE
8
FFab
62
5
10
143.1325
20
-78.53
11
143.1325
21
-71.59
0
LINE
8
FFab
62
5
10
143.1325
20
-67.49
11
143.1325
21
-60.55
0
LINE
8
FFab
62
5
10
141.9325
20
-60.36
11
142.9325
21
-59.36
0
LINE
8
FCrtYd
62
7
10
143.09
20
-72.78
11
143.09
21
-76.08
0
LINE
8
FCrtYd
62
7
10
143.09
20
-72.78
11
140.59
21
-72.78
0
LINE
8
FCrtYd
62
7
10
140.59
20
-76.08
11
140.59
21
-72.78
0
LINE
8
FCrtYd
62
7
10
140.59
20
-76.08
11
143.09
21
-76.08
0
LINE
8
FCrtYd
62
7
10
146.48
20
-80.455
11
143.52
21
-80.455
0
LINE
8
FCrtYd
62
7
10
143.52
20
-80.455
11
143.52
21
-78.995
0
LINE
8
FCrtYd
62
7
10
143.52
20
-78.995
11
146.48
21
-78.995
0
LINE
8
FCrtYd
62
7
10
146.48
20
-78.995
11
146.48
21
-80.455
0
LINE
8
FFab
62
5
10
144.2
20
-79.3125
11
145.8
21
-79.3125
0
LINE
8
FFab
62
5
10
145.8
20
-80.1375
11
144.2
21
-80.1375
0
LINE
8
FFab
62
5
10
144.2
20
-80.1375
11
144.2
21
-79.3125
0
LINE
8
FFab
62
5
10
145.8
20
-79.3125
11
145.8
21
-80.1375
0
LINE
8
FCrtYd
62
7
10
73.47
20
-79.13
11
73.47
21
-77.67
0
LINE
8
FCrtYd
62
7
10
76.43
20
-79.13
11
73.47
21
-79.13
0
LINE
8
FCrtYd
62
7
10
73.47
20
-77.67
11
76.43
21
-77.67
0
LINE
8
FCrtYd
62
7
10
76.43
20
-77.67
11
76.43
21
-79.13
0
LINE
8
FFab
62
5
10
75.75
20
-77.9875
11
75.75
21
-78.8125
0
LINE
8
FFab
62
5
10
74.15
20
-77.9875
11
75.75
21
-77.9875
0
LINE
8
FFab
62
5
10
75.75
20
-78.8125
11
74.15
21
-78.8125
0
LINE
8
FFab
62
5
10
74.15
20
-78.8125
11
74.15
21
-77.9875
0
LINE
8
FCrtYd
62
7
10
87.79
20
-72.985
11
87.79
21
-76.435
0
LINE
8
FCrtYd
62
7
10
83.59
20
-72.985
11
87.79
21
-72.985
0
LINE
8
FCrtYd
62
7
10
87.79
20
-76.435
11
83.59
21
-76.435
0
LINE
8
FCrtYd
62
7
10
83.59
20
-76.435
11
83.59
21
-72.985
0
LINE
8
FFab
62
5
10
84.89
20
-73.91
11
85.54
21
-73.26
0
LINE
8
FFab
62
5
10
84.89
20
-76.16
11
84.89
21
-73.26
0
LINE
8
FFab
62
5
10
84.89
20
-73.26
11
86.49
21
-73.26
0
LINE
8
FFab
62
5
10
86.49
20
-76.16
11
84.89
21
-76.16
0
LINE
8
FFab
62
5
10
86.49
20
-73.26
11
86.49
21
-76.16
0
LINE
8
FCrtYd
62
7
10
133.2
20
-86.9
11
135.5
21
-86.9
0
LINE
8
FCrtYd
62
7
10
135.5
20
-82.5
11
135.5
21
-86.9
0
LINE
8
FCrtYd
62
7
10
133.2
20
-82.5
11
135.5
21
-82.5
0
LINE
8
FCrtYd
62
7
10
133.2
20
-86.9
11
133.2
21
-82.5
0
LINE
8
FFab
62
5
10
134.75
20
-84.45
11
134.35
21
-85.05
0
LINE
8
FFab
62
5
10
134.35
20
-85.05
11
133.95
21
-84.45
0
LINE
8
FFab
62
5
10
135.25
20
-86.1
11
133.45
21
-86.1
0
LINE
8
FFab
62
5
10
133.45
20
-86.1
11
133.45
21
-83.3
0
LINE
8
FFab
62
5
10
135.25
20
-83.3
11
135.25
21
-86.1
0
LINE
8
FFab
62
5
10
133.95
20
-84.45
11
134.75
21
-84.45
0
LINE
8
FFab
62
5
10
134.35
20
-85.05
11
134.9
21
-85.05
0
LINE
8
FFab
62
5
10
134.35
20
-85.05
11
133.8
21
-85.05
0
LINE
8
FFab
62
5
10
133.45
20
-83.3
11
135.25
21
-83.3
0
LINE
8
FFab
62
5
10
134.35
20
-84.45
11
134.35
21
-83.95
0
LINE
8
FFab
62
5
10
134.35
20
-85.45
11
134.35
21
-85.05
0
LINE
8
FCrtYd
62
7
10
73.47
20
-37.67
11
76.43
21
-37.67
0
LINE
8
FCrtYd
62
7
10
73.47
20
-39.13
11
73.47
21
-37.67
0
LINE
8
FCrtYd
62
7
10
76.43
20
-39.13
11
73.47
21
-39.13
0
LINE
8
FCrtYd
62
7
10
76.43
20
-37.67
11
76.43
21
-39.13
0
LINE
8
FFab
62
5
10
74.15
20
-38.8125
11
74.15
21
-37.9875
0
LINE
8
FFab
62
5
10
75.75
20
-38.8125
11
74.15
21
-38.8125
0
LINE
8
FFab
62
5
10
75.75
20
-37.9875
11
75.75
21
-38.8125
0
LINE
8
FFab
62
5
10
74.15
20
-37.9875
11
75.75
21
-37.9875
0
LINE
8
FCrtYd
62
7
10
73.3
20
-166.95
11
73.3
21
-162.55
0
LINE
8
FCrtYd
62
7
10
73.3
20
-162.55
11
75.6
21
-162.55
0
LINE
8
FCrtYd
62
7
10
75.6
20
-162.55
11
75.6
21
-166.95
0
LINE
8
FCrtYd
62
7
10
73.3
20
-166.95
11
75.6
21
-166.95
0
LINE
8
FFab
62
5
10
73.55
20
-163.35
11
75.35
21
-163.35
0
LINE
8
FFab
62
5
10
74.45
20
-165.5
11
74.45
21
-165.1
0
LINE
8
FFab
62
5
10
74.45
20
-165.1
11
74.05
21
-164.5
0
LINE
8
FFab
62
5
10
74.45
20
-164.5
11
74.45
21
-164.0
0
LINE
8
FFab
62
5
10
74.85
20
-164.5
11
74.45
21
-165.1
0
LINE
8
FFab
62
5
10
75.35
20
-163.35
11
75.35
21
-166.15
0
LINE
8
FFab
62
5
10
74.05
20
-164.5
11
74.85
21
-164.5
0
LINE
8
FFab
62
5
10
73.55
20
-166.15
11
73.55
21
-163.35
0
LINE
8
FFab
62
5
10
74.45
20
-165.1
11
73.9
21
-165.1
0
LINE
8
FFab
62
5
10
74.45
20
-165.1
11
75.0
21
-165.1
0
LINE
8
FFab
62
5
10
75.35
20
-166.15
11
73.55
21
-166.15
0
LINE
8
FCrtYd
62
7
10
75.45
20
-122.5
11
75.45
21
-126.9
0
LINE
8
FCrtYd
62
7
10
73.15
20
-126.9
11
75.45
21
-126.9
0
LINE
8
FCrtYd
62
7
10
73.15
20
-122.5
11
75.45
21
-122.5
0
LINE
8
FCrtYd
62
7
10
73.15
20
-126.9
11
73.15
21
-122.5
0
LINE
8
FFab
62
5
10
75.2
20
-123.3
11
75.2
21
-126.1
0
LINE
8
FFab
62
5
10
74.3
20
-124.45
11
74.3
21
-123.95
0
LINE
8
FFab
62
5
10
75.2
20
-126.1
11
73.4
21
-126.1
0
LINE
8
FFab
62
5
10
74.3
20
-125.05
11
73.9
21
-124.45
0
LINE
8
FFab
62
5
10
74.7
20
-124.45
11
74.3
21
-125.05
0
LINE
8
FFab
62
5
10
74.3
20
-125.05
11
73.75
21
-125.05
0
LINE
8
FFab
62
5
10
73.9
20
-124.45
11
74.7
21
-124.45
0
LINE
8
FFab
62
5
10
73.4
20
-126.1
11
73.4
21
-123.3
0
LINE
8
FFab
62
5
10
73.4
20
-123.3
11
75.2
21
-123.3
0
LINE
8
FFab
62
5
10
74.3
20
-125.45
11
74.3
21
-125.05
0
LINE
8
FFab
62
5
10
74.3
20
-125.05
11
74.85
21
-125.05
0
LINE
8
FCrtYd
62
7
10
121.97
20
-53.905
11
121.97
21
-52.445
0
LINE
8
FCrtYd
62
7
10
121.97
20
-52.445
11
124.93
21
-52.445
0
LINE
8
FCrtYd
62
7
10
124.93
20
-52.445
11
124.93
21
-53.905
0
LINE
8
FCrtYd
62
7
10
124.93
20
-53.905
11
121.97
21
-53.905
0
LINE
8
FFab
62
5
10
124.25
20
-52.775
11
122.95
21
-52.775
0
LINE
8
FFab
62
5
10
122.65
20
-53.575
11
124.25
21
-53.575
0
LINE
8
FFab
62
5
10
122.65
20
-53.075
11
122.65
21
-53.575
0
LINE
8
FFab
62
5
10
122.95
20
-52.775
11
122.65
21
-53.075
0
LINE
8
FFab
62
5
10
124.25
20
-53.575
11
124.25
21
-52.775
0
LINE
8
FCrtYd
62
7
10
138.7
20
-102.68
11
138.7
21
-90.82
0
LINE
8
FCrtYd
62
7
10
122.8
20
-102.68
11
138.7
21
-102.68
0
LINE
8
FCrtYd
62
7
10
138.7
20
-90.82
11
122.8
21
-90.82
0
LINE
8
FCrtYd
62
7
10
122.8
20
-90.82
11
122.8
21
-102.68
0
LINE
8
FFab
62
5
10
123.05
20
-93.0
11
137.45
21
-93.0
0
LINE
8
FFab
62
5
10
138.45
20
-100.5
11
123.05
21
-100.5
0
LINE
8
FFab
62
5
10
123.05
20
-100.5
11
123.05
21
-93.0
0
LINE
8
FFab
62
5
10
137.45
20
-93.0
11
138.45
21
-94.0
0
LINE
8
FFab
62
5
10
138.45
20
-94.0
11
138.45
21
-100.5
0
LINE
8
FCrtYd
62
7
10
76.455
20
-159.18
11
73.495
21
-159.18
0
LINE
8
FCrtYd
62
7
10
76.455
20
-157.72
11
76.455
21
-159.18
0
LINE
8
FCrtYd
62
7
10
73.495
20
-157.72
11
76.455
21
-157.72
0
LINE
8
FCrtYd
62
7
10
73.495
20
-159.18
11
73.495
21
-157.72
0
LINE
8
FFab
62
5
10
74.175
20
-158.0375
11
75.775
21
-158.0375
0
LINE
8
FFab
62
5
10
74.175
20
-158.8625
11
74.175
21
-158.0375
0
LINE
8
FFab
62
5
10
75.775
20
-158.8625
11
74.175
21
-158.8625
0
LINE
8
FFab
62
5
10
75.775
20
-158.0375
11
75.775
21
-158.8625
0
LINE
8
FCrtYd
62
7
10
86.53
20
-160.48
11
83.57
21
-160.48
0
LINE
8
FCrtYd
62
7
10
83.57
20
-160.48
11
83.57
21
-159.02
0
LINE
8
FCrtYd
62
7
10
86.53
20
-159.02
11
86.53
21
-160.48
0
LINE
8
FCrtYd
62
7
10
83.57
20
-159.02
11
86.53
21
-159.02
0
LINE
8
FFab
62
5
10
85.85
20
-160.1625
11
84.25
21
-160.1625
0
LINE
8
FFab
62
5
10
84.25
20
-160.1625
11
84.25
21
-159.3375
0
LINE
8
FFab
62
5
10
84.25
20
-159.3375
11
85.85
21
-159.3375
0
LINE
8
FFab
62
5
10
85.85
20
-159.3375
11
85.85
21
-160.1625
0
LINE
8
FCrtYd
62
7
10
113.62
20
-76.435
11
113.62
21
-72.985
0
LINE
8
FCrtYd
62
7
10
117.82
20
-76.435
11
113.62
21
-76.435
0
LINE
8
FCrtYd
62
7
10
113.62
20
-72.985
11
117.82
21
-72.985
0
LINE
8
FCrtYd
62
7
10
117.82
20
-72.985
11
117.82
21
-76.435
0
LINE
8
FFab
62
5
10
116.52
20
-76.16
11
114.92
21
-76.16
0
LINE
8
FFab
62
5
10
114.92
20
-73.91
11
115.57
21
-73.26
0
LINE
8
FFab
62
5
10
114.92
20
-73.26
11
116.52
21
-73.26
0
LINE
8
FFab
62
5
10
114.92
20
-76.16
11
114.92
21
-73.26
0
LINE
8
FFab
62
5
10
116.52
20
-73.26
11
116.52
21
-76.16
0
LINE
8
FCrtYd
62
7
10
147.76
20
-32.955
11
147.76
21
-36.405
0
LINE
8
FCrtYd
62
7
10
143.56
20
-36.405
11
143.56
21
-32.955
0
LINE
8
FCrtYd
62
7
10
147.76
20
-36.405
11
143.56
21
-36.405
0
LINE
8
FCrtYd
62
7
10
143.56
20
-32.955
11
147.76
21
-32.955
0
LINE
8
FFab
62
5
10
146.46
20
-36.13
11
144.86
21
-36.13
0
LINE
8
FFab
62
5
10
144.86
20
-33.23
11
146.46
21
-33.23
0
LINE
8
FFab
62
5
10
144.86
20
-33.88
11
145.51
21
-33.23
0
LINE
8
FFab
62
5
10
144.86
20
-36.13
11
144.86
21
-33.23
0
LINE
8
FFab
62
5
10
146.46
20
-33.23
11
146.46
21
-36.13
0
LINE
8
FCrtYd
62
7
10
140.56
20
-115.88
11
143.06
21
-115.88
0
LINE
8
FCrtYd
62
7
10
140.56
20
-115.88
11
140.56
21
-112.58
0
LINE
8
FCrtYd
62
7
10
143.06
20
-112.58
11
143.06
21
-115.88
0
LINE
8
FCrtYd
62
7
10
143.06
20
-112.58
11
140.56
21
-112.58
0
CIRCLE
8
FCrtYd
62
7
10
126.7
20
-162.95
40
1.0
0
LINE
8
FCrtYd
62
7
10
103.495
20
-117.67
11
106.455
21
-117.67
0
LINE
8
FCrtYd
62
7
10
106.455
20
-117.67
11
106.455
21
-119.13
0
LINE
8
FCrtYd
62
7
10
103.495
20
-119.13
11
103.495
21
-117.67
0
LINE
8
FCrtYd
62
7
10
106.455
20
-119.13
11
103.495
21
-119.13
0
LINE
8
FFab
62
5
10
104.175
20
-117.9875
11
105.775
21
-117.9875
0
LINE
8
FFab
62
5
10
105.775
20
-118.8125
11
104.175
21
-118.8125
0
LINE
8
FFab
62
5
10
105.775
20
-117.9875
11
105.775
21
-118.8125
0
LINE
8
FFab
62
5
10
104.175
20
-118.8125
11
104.175
21
-117.9875
0
LINE
8
FCrtYd
62
7
10
110.95
20
-166.75
11
113.45
21
-166.75
0
LINE
8
FCrtYd
62
7
10
113.45
20
-163.45
11
113.45
21
-166.75
0
LINE
8
FCrtYd
62
7
10
113.45
20
-163.45
11
110.95
21
-163.45
0
LINE
8
FCrtYd
62
7
10
110.95
20
-166.75
11
110.95
21
-163.45
0
LINE
8
FCrtYd
62
7
10
116.48
20
-83.52
11
116.48
21
-84.98
0
LINE
8
FCrtYd
62
7
10
113.52
20
-84.98
11
113.52
21
-83.52
0
LINE
8
FCrtYd
62
7
10
113.52
20
-83.52
11
116.48
21
-83.52
0
LINE
8
FCrtYd
62
7
10
116.48
20
-84.98
11
113.52
21
-84.98
0
LINE
8
FFab
62
5
10
114.2
20
-83.8375
11
115.8
21
-83.8375
0
LINE
8
FFab
62
5
10
115.8
20
-84.6625
11
114.2
21
-84.6625
0
LINE
8
FFab
62
5
10
114.2
20
-84.6625
11
114.2
21
-83.8375
0
LINE
8
FFab
62
5
10
115.8
20
-83.8375
11
115.8
21
-84.6625
0
LINE
8
FCrtYd
62
7
10
83.52
20
-120.52
11
86.48
21
-120.52
0
LINE
8
FCrtYd
62
7
10
83.52
20
-121.98
11
83.52
21
-120.52
0
LINE
8
FCrtYd
62
7
10
86.48
20
-120.52
11
86.48
21
-121.98
0
LINE
8
FCrtYd
62
7
10
86.48
20
-121.98
11
83.52
21
-121.98
0
LINE
8
FFab
62
5
10
85.8
20
-121.6625
11
84.2
21
-121.6625
0
LINE
8
FFab
62
5
10
84.2
20
-120.8375
11
85.8
21
-120.8375
0
LINE
8
FFab
62
5
10
84.2
20
-121.6625
11
84.2
21
-120.8375
0
LINE
8
FFab
62
5
10
85.8
20
-120.8375
11
85.8
21
-121.6625
0
LINE
8
FCrtYd
62
7
10
76.43
20
-122.23
11
73.47
21
-122.23
0
LINE
8
FCrtYd
62
7
10
73.47
20
-120.77
11
76.43
21
-120.77
0
LINE
8
FCrtYd
62
7
10
76.43
20
-120.77
11
76.43
21
-122.23
0
LINE
8
FCrtYd
62
7
10
73.47
20
-122.23
11
73.47
21
-120.77
0
LINE
8
FFab
62
5
10
74.15
20
-121.9125
11
74.15
21
-121.0875
0
LINE
8
FFab
62
5
10
75.75
20
-121.0875
11
75.75
21
-121.9125
0
LINE
8
FFab
62
5
10
75.75
20
-121.9125
11
74.15
21
-121.9125
0
LINE
8
FFab
62
5
10
74.15
20
-121.0875
11
75.75
21
-121.0875
0
LINE
8
FCrtYd
62
7
10
142.4
20
-132.5
11
142.4
21
-137.5
0
LINE
8
FCrtYd
62
7
10
142.4
20
-137.5
11
140.4
21
-137.5
0
LINE
8
FCrtYd
62
7
10
142.4
20
-147.5
11
148.5
21
-147.5
0
LINE
8
FCrtYd
62
7
10
140.4
20
-137.5
11
139.4
21
-137.5
0
LINE
8
FCrtYd
62
7
10
148.5
20
-132.5
11
142.4
21
-132.5
0
LINE
8
FCrtYd
62
7
10
142.4
20
-147.5
11
142.4
21
-142.5
0
LINE
8
FCrtYd
62
7
10
148.5
20
-147.5
11
148.5
21
-132.5
0
LINE
8
FCrtYd
62
7
10
139.4
20
-137.5
11
139.4
21
-142.5
0
LINE
8
FCrtYd
62
7
10
139.4
20
-142.5
11
142.4
21
-142.5
0
LINE
8
FCrtYd
62
7
10
116.75
20
-78.975
11
113.45
21
-78.975
0
LINE
8
FCrtYd
62
7
10
116.75
20
-78.975
11
116.75
21
-76.475
0
LINE
8
FCrtYd
62
7
10
113.45
20
-76.475
11
116.75
21
-76.475
0
LINE
8
FCrtYd
62
7
10
113.45
20
-76.475
11
113.45
21
-78.975
0
LINE
8
FCrtYd
62
7
10
106.875
20
-83.75
11
106.875
21
-86.15
0
LINE
8
FCrtYd
62
7
10
106.875
20
-86.15
11
110.675
21
-86.15
0
LINE
8
FCrtYd
62
7
10
110.475
20
-83.75
11
106.875
21
-83.75
0
LINE
8
FCrtYd
62
7
10
110.675
20
-86.15
11
110.675
21
-83.75
0
LINE
8
FCrtYd
62
7
10
110.675
20
-83.75
11
110.475
21
-83.75
0
LINE
8
FCrtYd
62
7
10
113.52
20
-40.495
11
116.48
21
-40.495
0
LINE
8
FCrtYd
62
7
10
113.52
20
-41.955
11
113.52
21
-40.495
0
LINE
8
FCrtYd
62
7
10
116.48
20
-40.495
11
116.48
21
-41.955
0
LINE
8
FCrtYd
62
7
10
116.48
20
-41.955
11
113.52
21
-41.955
0
LINE
8
FFab
62
5
10
115.8
20
-41.6375
11
114.2
21
-41.6375
0
LINE
8
FFab
62
5
10
115.8
20
-40.8125
11
115.8
21
-41.6375
0
LINE
8
FFab
62
5
10
114.2
20
-41.6375
11
114.2
21
-40.8125
0
LINE
8
FFab
62
5
10
114.2
20
-40.8125
11
115.8
21
-40.8125
0
LINE
8
FCrtYd
62
7
10
75.0275
20
-128.46
11
75.0275
21
-127.54
0
LINE
8
FCrtYd
62
7
10
75.0275
20
-127.54
11
76.8475
21
-127.54
0
LINE
8
FCrtYd
62
7
10
76.8475
20
-128.46
11
75.0275
21
-128.46
0
LINE
8
FCrtYd
62
7
10
76.8475
20
-127.54
11
76.8475
21
-128.46
0
LINE
8
FFab
62
5
10
75.4375
20
-127.75
11
76.4375
21
-127.75
0
LINE
8
FFab
62
5
10
76.4375
20
-128.25
11
75.4375
21
-128.25
0
LINE
8
FFab
62
5
10
76.4375
20
-127.75
11
76.4375
21
-128.25
0
LINE
8
FFab
62
5
10
75.4375
20
-128.25
11
75.4375
21
-127.75
0
LINE
8
FCrtYd
62
7
10
126.075
20
-145.25
11
126.075
21
-140.85
0
LINE
8
FCrtYd
62
7
10
130.475
20
-140.85
11
130.475
21
-145.25
0
LINE
8
FCrtYd
62
7
10
130.475
20
-145.25
11
126.075
21
-145.25
0
LINE
8
FCrtYd
62
7
10
126.075
20
-140.85
11
130.475
21
-140.85
0
LINE
8
FCrtYd
62
7
10
86.48
20
-83.52
11
86.48
21
-84.98
0
LINE
8
FCrtYd
62
7
10
86.48
20
-84.98
11
83.52
21
-84.98
0
LINE
8
FCrtYd
62
7
10
83.52
20
-83.52
11
86.48
21
-83.52
0
LINE
8
FCrtYd
62
7
10
83.52
20
-84.98
11
83.52
21
-83.52
0
LINE
8
FFab
62
5
10
84.2
20
-83.8375
11
85.8
21
-83.8375
0
LINE
8
FFab
62
5
10
85.8
20
-84.6625
11
84.2
21
-84.6625
0
LINE
8
FFab
62
5
10
84.2
20
-84.6625
11
84.2
21
-83.8375
0
LINE
8
FFab
62
5
10
85.8
20
-83.8375
11
85.8
21
-84.6625
0
LINE
8
FCrtYd
62
7
10
123.995
20
-136.72
11
125.455
21
-136.72
0
LINE
8
FCrtYd
62
7
10
125.455
20
-136.72
11
125.455
21
-139.68
0
LINE
8
FCrtYd
62
7
10
125.455
20
-139.68
11
123.995
21
-139.68
0
LINE
8
FCrtYd
62
7
10
123.995
20
-139.68
11
123.995
21
-136.72
0
LINE
8
FFab
62
5
10
125.125
20
-139.0
11
124.325
21
-139.0
0
LINE
8
FFab
62
5
10
124.325
20
-137.4
11
125.125
21
-137.4
0
LINE
8
FFab
62
5
10
124.325
20
-139.0
11
124.325
21
-137.4
0
LINE
8
FFab
62
5
10
125.125
20
-137.4
11
125.125
21
-139.0
0
LINE
8
FCrtYd
62
7
10
86.725
20
-78.975
11
83.425
21
-78.975
0
LINE
8
FCrtYd
62
7
10
83.425
20
-76.475
11
86.725
21
-76.475
0
LINE
8
FCrtYd
62
7
10
83.425
20
-76.475
11
83.425
21
-78.975
0
LINE
8
FCrtYd
62
7
10
86.725
20
-78.975
11
86.725
21
-76.475
0
LINE
8
FCrtYd
62
7
10
76.475
20
-35.15
11
76.475
21
-32.65
0
LINE
8
FCrtYd
62
7
10
73.175
20
-32.65
11
76.475
21
-32.65
0
LINE
8
FCrtYd
62
7
10
73.175
20
-32.65
11
73.175
21
-35.15
0
LINE
8
FCrtYd
62
7
10
76.475
20
-35.15
11
73.175
21
-35.15
0
LINE
8
FCrtYd
62
7
10
73.495
20
-80.63
11
73.495
21
-79.17
0
LINE
8
FCrtYd
62
7
10
76.455
20
-80.63
11
73.495
21
-80.63
0
LINE
8
FCrtYd
62
7
10
73.495
20
-79.17
11
76.455
21
-79.17
0
LINE
8
FCrtYd
62
7
10
76.455
20
-79.17
11
76.455
21
-80.63
0
LINE
8
FFab
62
5
10
74.175
20
-79.4875
11
75.775
21
-79.4875
0
LINE
8
FFab
62
5
10
75.775
20
-79.4875
11
75.775
21
-80.3125
0
LINE
8
FFab
62
5
10
74.175
20
-80.3125
11
74.175
21
-79.4875
0
LINE
8
FFab
62
5
10
75.775
20
-80.3125
11
74.175
21
-80.3125
0
LINE
8
FCrtYd
62
7
10
136.5
20
-115.1
11
133.2
21
-115.1
0
LINE
8
FCrtYd
62
7
10
133.2
20
-112.6
11
136.5
21
-112.6
0
LINE
8
FCrtYd
62
7
10
136.5
20
-115.1
11
136.5
21
-112.6
0
LINE
8
FCrtYd
62
7
10
133.2
20
-112.6
11
133.2
21
-115.1
0
LINE
8
FCrtYd
62
7
10
113.52
20
-124.98
11
113.52
21
-123.52
0
LINE
8
FCrtYd
62
7
10
116.48
20
-124.98
11
113.52
21
-124.98
0
LINE
8
FCrtYd
62
7
10
113.52
20
-123.52
11
116.48
21
-123.52
0
LINE
8
FCrtYd
62
7
10
116.48
20
-123.52
11
116.48
21
-124.98
0
LINE
8
FFab
62
5
10
114.2
20
-123.8375
11
115.8
21
-123.8375
0
LINE
8
FFab
62
5
10
114.2
20
-124.6625
11
114.2
21
-123.8375
0
LINE
8
FFab
62
5
10
115.8
20
-124.6625
11
114.2
21
-124.6625
0
LINE
8
FFab
62
5
10
115.8
20
-123.8375
11
115.8
21
-124.6625
0
LINE
8
FCrtYd
62
7
10
86.48
20
-44.955
11
83.52
21
-44.955
0
LINE
8
FCrtYd
62
7
10
83.52
20
-43.495
11
86.48
21
-43.495
0
LINE
8
FCrtYd
62
7
10
83.52
20
-44.955
11
83.52
21
-43.495
0
LINE
8
FCrtYd
62
7
10
86.48
20
-43.495
11
86.48
21
-44.955
0
LINE
8
FFab
62
5
10
84.2
20
-43.8125
11
85.8
21
-43.8125
0
LINE
8
FFab
62
5
10
85.8
20
-44.6375
11
84.2
21
-44.6375
0
LINE
8
FFab
62
5
10
85.8
20
-43.8125
11
85.8
21
-44.6375
0
LINE
8
FFab
62
5
10
84.2
20
-44.6375
11
84.2
21
-43.8125
0
LINE
8
FCrtYd
62
7
10
86.7
20
-119.0
11
86.7
21
-116.5
0
LINE
8
FCrtYd
62
7
10
83.4
20
-116.5
11
86.7
21
-116.5
0
LINE
8
FCrtYd
62
7
10
86.7
20
-119.0
11
83.4
21
-119.0
0
LINE
8
FCrtYd
62
7
10
83.4
20
-116.5
11
83.4
21
-119.0
0
LINE
8
FCrtYd
62
7
10
74.59
20
-133.4
11
74.59
21
-141.0
0
LINE
8
FCrtYd
62
7
10
74.59
20
-141.0
11
88.21
21
-141.0
0
LINE
8
FCrtYd
62
7
10
88.21
20
-141.0
11
88.21
21
-133.4
0
LINE
8
FCrtYd
62
7
10
88.21
20
-133.4
11
74.59
21
-133.4
0
LINE
8
FFab
62
5
10
87.71
20
-133.9
11
75.09
21
-133.9
0
LINE
8
FFab
62
5
10
75.09
20
-139.0
11
87.71
21
-139.0
0
LINE
8
FFab
62
5
10
87.71
20
-136.21
11
87.71
21
-133.9
0
LINE
8
FFab
62
5
10
75.09
20
-133.9
11
75.09
21
-136.21
0
LINE
8
FFab
62
5
10
77.59
20
-134.607107
11
77.09
21
-133.9
0
LINE
8
FFab
62
5
10
78.09
20
-133.9
11
77.59
21
-134.607107
0
LINE
8
FFab
62
5
10
77.59
20
-139.0
11
77.59
21
-140.5
0
LINE
8
FFab
62
5
10
87.58
20
-136.21
11
87.71
21
-136.21
0
LINE
8
FFab
62
5
10
75.22
20
-136.21
11
75.22
21
-138.24
0
LINE
8
FFab
62
5
10
87.71
20
-139.0
11
87.71
21
-138.24
0
LINE
8
FFab
62
5
10
77.59
20
-140.5
11
85.21
21
-140.5
0
LINE
8
FFab
62
5
10
75.09
20
-136.21
11
75.22
21
-136.21
0
LINE
8
FFab
62
5
10
87.71
20
-138.24
11
87.58
21
-138.24
0
LINE
8
FFab
62
5
10
75.09
20
-138.24
11
75.09
21
-139.0
0
LINE
8
FFab
62
5
10
75.22
20
-138.24
11
75.09
21
-138.24
0
LINE
8
FFab
62
5
10
87.58
20
-138.24
11
87.58
21
-136.21
0
LINE
8
FFab
62
5
10
85.21
20
-140.5
11
85.21
21
-139.0
0
LINE
8
FCrtYd
62
7
10
138.525
20
-64.25
11
138.525
21
-60.65
0
LINE
8
FCrtYd
62
7
10
117.175
20
-60.65
11
117.175
21
-64.25
0
LINE
8
FCrtYd
62
7
10
117.175
20
-64.25
11
138.525
21
-64.25
0
LINE
8
FCrtYd
62
7
10
138.525
20
-60.65
11
117.175
21
-60.65
0
LINE
8
FFab
62
5
10
137.36
20
-61.18
11
137.995
21
-61.815
0
LINE
8
FFab
62
5
10
117.675
20
-63.72
11
117.675
21
-61.18
0
LINE
8
FFab
62
5
10
117.675
20
-61.18
11
137.36
21
-61.18
0
LINE
8
FFab
62
5
10
137.995
20
-63.72
11
117.675
21
-63.72
0
LINE
8
FFab
62
5
10
137.995
20
-61.815
11
137.995
21
-63.72
0
LINE
8
FCrtYd
62
7
10
80.4375
20
-128.85
11
80.4375
21
-129.2
0
LINE
8
FCrtYd
62
7
10
76.9375
20
-129.2
11
76.5575
21
-129.2
0
LINE
8
FCrtYd
62
7
10
76.9375
20
-128.85
11
80.4375
21
-128.85
0
LINE
8
FCrtYd
62
7
10
76.9375
20
-132.35
11
80.4375
21
-132.35
0
LINE
8
FCrtYd
62
7
10
80.4375
20
-132.35
11
80.4375
21
-132.0
0
LINE
8
FCrtYd
62
7
10
76.9375
20
-132.0
11
76.5575
21
-132.0
0
LINE
8
FCrtYd
62
7
10
80.4375
20
-132.0
11
80.8175
21
-132.0
0
LINE
8
FCrtYd
62
7
10
76.9375
20
-132.35
11
76.9375
21
-132.0
0
LINE
8
FCrtYd
62
7
10
76.5575
20
-129.2
11
76.5575
21
-132.0
0
LINE
8
FCrtYd
62
7
10
80.8175
20
-129.2
11
80.8175
21
-132.0
0
LINE
8
FCrtYd
62
7
10
80.4375
20
-129.2
11
80.8175
21
-129.2
0
LINE
8
FCrtYd
62
7
10
76.9375
20
-128.85
11
76.9375
21
-129.2
0
LINE
8
FFab
62
5
10
77.1875
20
-129.85
11
77.9375
21
-129.1
0
LINE
8
FFab
62
5
10
77.9375
20
-129.1
11
80.1875
21
-129.1
0
LINE
8
FFab
62
5
10
80.1875
20
-129.1
11
80.1875
21
-132.1
0
LINE
8
FFab
62
5
10
80.1875
20
-132.1
11
77.1875
21
-132.1
0
LINE
8
FFab
62
5
10
77.1875
20
-132.1
11
77.1875
21
-129.85
0
LINE
8
FCrtYd
62
7
10
130.375
20
-136.5
11
126.175
21
-136.5
0
LINE
8
FCrtYd
62
7
10
126.175
20
-140.7
11
130.375
21
-140.7
0
LINE
8
FCrtYd
62
7
10
130.375
20
-140.7
11
130.375
21
-136.5
0
LINE
8
FCrtYd
62
7
10
126.175
20
-136.5
11
126.175
21
-140.7
0
LINE
8
FFab
62
5
10
129.775
20
-140.1
11
126.775
21
-140.1
0
LINE
8
FFab
62
5
10
126.775
20
-137.85
11
127.525
21
-137.1
0
LINE
8
FFab
62
5
10
126.775
20
-140.1
11
126.775
21
-137.85
0
LINE
8
FFab
62
5
10
127.525
20
-137.1
11
129.775
21
-137.1
0
LINE
8
FFab
62
5
10
129.775
20
-137.1
11
129.775
21
-140.1
0
LINE
8
FCrtYd
62
7
10
103.2
20
-166.925
11
105.5
21
-166.925
0
LINE
8
FCrtYd
62
7
10
103.2
20
-166.925
11
103.2
21
-162.525
0
LINE
8
FCrtYd
62
7
10
105.5
20
-162.525
11
105.5
21
-166.925
0
LINE
8
FCrtYd
62
7
10
103.2
20
-162.525
11
105.5
21
-162.525
0
LINE
8
FFab
62
5
10
103.95
20
-164.475
11
104.75
21
-164.475
0
LINE
8
FFab
62
5
10
104.35
20
-165.475
11
104.35
21
-165.075
0
LINE
8
FFab
62
5
10
104.75
20
-164.475
11
104.35
21
-165.075
0
LINE
8
FFab
62
5
10
103.45
20
-163.325
11
105.25
21
-163.325
0
LINE
8
FFab
62
5
10
103.45
20
-166.125
11
103.45
21
-163.325
0
LINE
8
FFab
62
5
10
104.35
20
-165.075
11
103.95
21
-164.475
0
LINE
8
FFab
62
5
10
104.35
20
-165.075
11
104.9
21
-165.075
0
LINE
8
FFab
62
5
10
105.25
20
-166.125
11
103.45
21
-166.125
0
LINE
8
FFab
62
5
10
104.35
20
-165.075
11
103.8
21
-165.075
0
LINE
8
FFab
62
5
10
105.25
20
-163.325
11
105.25
21
-166.125
0
LINE
8
FFab
62
5
10
104.35
20
-164.475
11
104.35
21
-163.975
0
LINE
8
FCrtYd
62
7
10
146.43
20
-41.93
11
143.47
21
-41.93
0
LINE
8
FCrtYd
62
7
10
143.47
20
-41.93
11
143.47
21
-40.47
0
LINE
8
FCrtYd
62
7
10
146.43
20
-40.47
11
146.43
21
-41.93
0
LINE
8
FCrtYd
62
7
10
143.47
20
-40.47
11
146.43
21
-40.47
0
LINE
8
FFab
62
5
10
145.75
20
-40.7875
11
145.75
21
-41.6125
0
LINE
8
FFab
62
5
10
144.15
20
-41.6125
11
144.15
21
-40.7875
0
LINE
8
FFab
62
5
10
144.15
20
-40.7875
11
145.75
21
-40.7875
0
LINE
8
FFab
62
5
10
145.75
20
-41.6125
11
144.15
21
-41.6125
0
LINE
8
FCrtYd
62
7
10
136.43
20
-79.17
11
136.43
21
-80.63
0
LINE
8
FCrtYd
62
7
10
136.43
20
-80.63
11
133.47
21
-80.63
0
LINE
8
FCrtYd
62
7
10
133.47
20
-80.63
11
133.47
21
-79.17
0
LINE
8
FCrtYd
62
7
10
133.47
20
-79.17
11
136.43
21
-79.17
0
LINE
8
FFab
62
5
10
135.75
20
-79.4875
11
135.75
21
-80.3125
0
LINE
8
FFab
62
5
10
135.75
20
-80.3125
11
134.15
21
-80.3125
0
LINE
8
FFab
62
5
10
134.15
20
-80.3125
11
134.15
21
-79.4875
0
LINE
8
FFab
62
5
10
134.15
20
-79.4875
11
135.75
21
-79.4875
0
LINE
8
FCrtYd
62
7
10
103.47
20
-82.205
11
103.47
21
-80.745
0
LINE
8
FCrtYd
62
7
10
106.43
20
-82.205
11
103.47
21
-82.205
0
LINE
8
FCrtYd
62
7
10
106.43
20
-80.745
11
106.43
21
-82.205
0
LINE
8
FCrtYd
62
7
10
103.47
20
-80.745
11
106.43
21
-80.745
0
LINE
8
FFab
62
5
10
104.15
20
-81.0625
11
105.75
21
-81.0625
0
LINE
8
FFab
62
5
10
105.75
20
-81.0625
11
105.75
21
-81.8875
0
LINE
8
FFab
62
5
10
105.75
20
-81.8875
11
104.15
21
-81.8875
0
LINE
8
FFab
62
5
10
104.15
20
-81.8875
11
104.15
21
-81.0625
0
LINE
8
FCrtYd
62
7
10
116.19
20
-92.56
11
116.19
21
-91.64
0
LINE
8
FCrtYd
62
7
10
116.19
20
-91.64
11
118.01
21
-91.64
0
LINE
8
FCrtYd
62
7
10
118.01
20
-92.56
11
116.19
21
-92.56
0
LINE
8
FCrtYd
62
7
10
118.01
20
-91.64
11
118.01
21
-92.56
0
LINE
8
FFab
62
5
10
116.6
20
-91.85
11
117.6
21
-91.85
0
LINE
8
FFab
62
5
10
116.6
20
-92.35
11
116.6
21
-91.85
0
LINE
8
FFab
62
5
10
117.6
20
-92.35
11
116.6
21
-92.35
0
LINE
8
FFab
62
5
10
117.6
20
-91.85
11
117.6
21
-92.35
0
LINE
8
FCrtYd
62
7
10
80.58
20
-116.14
11
80.58
21
-112.84
0
LINE
8
FCrtYd
62
7
10
83.08
20
-112.84
11
80.58
21
-112.84
0
LINE
8
FCrtYd
62
7
10
83.08
20
-112.84
11
83.08
21
-116.14
0
LINE
8
FCrtYd
62
7
10
80.58
20
-116.14
11
83.08
21
-116.14
0
LINE
8
FCrtYd
62
7
10
131.23
20
-136.38
11
128.27
21
-136.38
0
LINE
8
FCrtYd
62
7
10
131.23
20
-134.92
11
131.23
21
-136.38
0
LINE
8
FCrtYd
62
7
10
128.27
20
-136.38
11
128.27
21
-134.92
0
LINE
8
FCrtYd
62
7
10
128.27
20
-134.92
11
131.23
21
-134.92
0
LINE
8
FFab
62
5
10
128.95
20
-135.2375
11
130.55
21
-135.2375
0
LINE
8
FFab
62
5
10
130.55
20
-135.2375
11
130.55
21
-136.0625
0
LINE
8
FFab
62
5
10
130.55
20
-136.0625
11
128.95
21
-136.0625
0
LINE
8
FFab
62
5
10
128.95
20
-136.0625
11
128.95
21
-135.2375
0
LINE
8
FCrtYd
62
7
10
143.61
20
-153.015
11
147.81
21
-153.015
0
LINE
8
FCrtYd
62
7
10
143.61
20
-156.465
11
143.61
21
-153.015
0
LINE
8
FCrtYd
62
7
10
147.81
20
-156.465
11
143.61
21
-156.465
0
LINE
8
FCrtYd
62
7
10
147.81
20
-153.015
11
147.81
21
-156.465
0
LINE
8
FFab
62
5
10
144.91
20
-153.94
11
145.56
21
-153.29
0
LINE
8
FFab
62
5
10
144.91
20
-156.19
11
144.91
21
-153.29
0
LINE
8
FFab
62
5
10
146.51
20
-153.29
11
146.51
21
-156.19
0
LINE
8
FFab
62
5
10
146.51
20
-156.19
11
144.91
21
-156.19
0
LINE
8
FFab
62
5
10
144.91
20
-153.29
11
146.51
21
-153.29
0
LINE
8
FCrtYd
62
7
10
133.25
20
-155.2
11
136.55
21
-155.2
0
LINE
8
FCrtYd
62
7
10
136.55
20
-157.7
11
136.55
21
-155.2
0
LINE
8
FCrtYd
62
7
10
136.55
20
-157.7
11
133.25
21
-157.7
0
LINE
8
FCrtYd
62
7
10
133.25
20
-155.2
11
133.25
21
-157.7
0
LINE
8
FCrtYd
62
7
10
73.47
20
-119.22
11
76.43
21
-119.22
0
LINE
8
FCrtYd
62
7
10
76.43
20
-120.68
11
73.47
21
-120.68
0
LINE
8
FCrtYd
62
7
10
73.47
20
-120.68
11
73.47
21
-119.22
0
LINE
8
FCrtYd
62
7
10
76.43
20
-119.22
11
76.43
21
-120.68
0
LINE
8
FFab
62
5
10
74.15
20
-119.5375
11
75.75
21
-119.5375
0
LINE
8
FFab
62
5
10
74.15
20
-120.3625
11
74.15
21
-119.5375
0
LINE
8
FFab
62
5
10
75.75
20
-120.3625
11
74.15
21
-120.3625
0
LINE
8
FFab
62
5
10
75.75
20
-119.5375
11
75.75
21
-120.3625
0
LINE
8
FCrtYd
62
7
10
88.21
20
-141.5
11
74.59
21
-141.5
0
LINE
8
FCrtYd
62
7
10
74.59
20
-149.1
11
88.21
21
-149.1
0
LINE
8
FCrtYd
62
7
10
88.21
20
-149.1
11
88.21
21
-141.5
0
LINE
8
FCrtYd
62
7
10
74.59
20
-141.5
11
74.59
21
-149.1
0
LINE
8
FFab
62
5
10
85.21
20
-148.6
11
85.21
21
-147.1
0
LINE
8
FFab
62
5
10
75.22
20
-146.34
11
75.09
21
-146.34
0
LINE
8
FFab
62
5
10
77.59
20
-148.6
11
85.21
21
-148.6
0
LINE
8
FFab
62
5
10
87.58
20
-144.31
11
87.71
21
-144.31
0
LINE
8
FFab
62
5
10
87.71
20
-144.31
11
87.71
21
-142.0
0
LINE
8
FFab
62
5
10
87.58
20
-146.34
11
87.58
21
-144.31
0
LINE
8
FFab
62
5
10
77.59
20
-147.1
11
77.59
21
-148.6
0
LINE
8
FFab
62
5
10
77.59
20
-142.707107
11
77.09
21
-142.0
0
LINE
8
FFab
62
5
10
87.71
20
-147.1
11
87.71
21
-146.34
0
LINE
8
FFab
62
5
10
87.71
20
-146.34
11
87.58
21
-146.34
0
LINE
8
FFab
62
5
10
78.09
20
-142.0
11
77.59
21
-142.707107
0
LINE
8
FFab
62
5
10
75.09
20
-142.0
11
75.09
21
-144.31
0
LINE
8
FFab
62
5
10
75.09
20
-146.34
11
75.09
21
-147.1
0
LINE
8
FFab
62
5
10
75.22
20
-144.31
11
75.22
21
-146.34
0
LINE
8
FFab
62
5
10
75.09
20
-147.1
11
87.71
21
-147.1
0
LINE
8
FFab
62
5
10
87.71
20
-142.0
11
75.09
21
-142.0
0
LINE
8
FFab
62
5
10
75.09
20
-144.31
11
75.22
21
-144.31
0
LINE
8
FCrtYd
62
7
10
117.77
20
-36.395
11
113.57
21
-36.395
0
LINE
8
FCrtYd
62
7
10
117.77
20
-32.945
11
117.77
21
-36.395
0
LINE
8
FCrtYd
62
7
10
113.57
20
-32.945
11
117.77
21
-32.945
0
LINE
8
FCrtYd
62
7
10
113.57
20
-36.395
11
113.57
21
-32.945
0
LINE
8
FFab
62
5
10
116.47
20
-33.22
11
116.47
21
-36.12
0
LINE
8
FFab
62
5
10
114.87
20
-33.87
11
115.52
21
-33.22
0
LINE
8
FFab
62
5
10
114.87
20
-33.22
11
116.47
21
-33.22
0
LINE
8
FFab
62
5
10
116.47
20
-36.12
11
114.87
21
-36.12
0
LINE
8
FFab
62
5
10
114.87
20
-36.12
11
114.87
21
-33.22
0
LINE
8
FCrtYd
62
7
10
77.275
20
-66.775
11
73.725
21
-66.775
0
LINE
8
FCrtYd
62
7
10
73.725
20
-66.775
11
73.725
21
-58.125
0
LINE
8
FCrtYd
62
7
10
77.275
20
-58.125
11
77.275
21
-66.775
0
LINE
8
FCrtYd
62
7
10
73.725
20
-58.125
11
77.275
21
-58.125
0
LINE
8
FFab
62
5
10
74.255
20
-66.275
11
74.255
21
-58.655
0
LINE
8
FFab
62
5
10
76.795
20
-66.275
11
74.255
21
-66.275
0
LINE
8
FFab
62
5
10
74.255
20
-58.655
11
76.16
21
-58.655
0
LINE
8
FFab
62
5
10
76.16
20
-58.655
11
76.795
21
-59.29
0
LINE
8
FFab
62
5
10
76.795
20
-59.29
11
76.795
21
-66.275
0
LINE
8
FCrtYd
62
7
10
76.525
20
-157.7
11
73.225
21
-157.7
0
LINE
8
FCrtYd
62
7
10
73.225
20
-155.2
11
73.225
21
-157.7
0
LINE
8
FCrtYd
62
7
10
76.525
20
-157.7
11
76.525
21
-155.2
0
LINE
8
FCrtYd
62
7
10
73.225
20
-155.2
11
76.525
21
-155.2
0
LINE
8
FCrtYd
62
7
10
86.48
20
-78.995
11
86.48
21
-80.455
0
LINE
8
FCrtYd
62
7
10
86.48
20
-80.455
11
83.52
21
-80.455
0
LINE
8
FCrtYd
62
7
10
83.52
20
-78.995
11
86.48
21
-78.995
0
LINE
8
FCrtYd
62
7
10
83.52
20
-80.455
11
83.52
21
-78.995
0
LINE
8
FFab
62
5
10
84.2
20
-79.3125
11
85.8
21
-79.3125
0
LINE
8
FFab
62
5
10
85.8
20
-79.3125
11
85.8
21
-80.1375
0
LINE
8
FFab
62
5
10
84.2
20
-80.1375
11
84.2
21
-79.3125
0
LINE
8
FFab
62
5
10
85.8
20
-80.1375
11
84.2
21
-80.1375
0
LINE
8
FCrtYd
62
7
10
147.76
20
-116.395
11
143.56
21
-116.395
0
LINE
8
FCrtYd
62
7
10
147.76
20
-112.945
11
147.76
21
-116.395
0
LINE
8
FCrtYd
62
7
10
143.56
20
-116.395
11
143.56
21
-112.945
0
LINE
8
FCrtYd
62
7
10
143.56
20
-112.945
11
147.76
21
-112.945
0
LINE
8
FFab
62
5
10
144.86
20
-116.12
11
144.86
21
-113.22
0
LINE
8
FFab
62
5
10
144.86
20
-113.87
11
145.51
21
-113.22
0
LINE
8
FFab
62
5
10
144.86
20
-113.22
11
146.46
21
-113.22
0
LINE
8
FFab
62
5
10
146.46
20
-113.22
11
146.46
21
-116.12
0
LINE
8
FFab
62
5
10
146.46
20
-116.12
11
144.86
21
-116.12
0
LINE
8
FCrtYd
62
7
10
101.04
20
-95.09
11
101.96
21
-95.09
0
LINE
8
FCrtYd
62
7
10
101.04
20
-96.91
11
101.04
21
-95.09
0
LINE
8
FCrtYd
62
7
10
101.96
20
-96.91
11
101.04
21
-96.91
0
LINE
8
FCrtYd
62
7
10
101.96
20
-95.09
11
101.96
21
-96.91
0
LINE
8
FFab
62
5
10
101.75
20
-95.5
11
101.75
21
-96.5
0
LINE
8
FFab
62
5
10
101.75
20
-96.5
11
101.25
21
-96.5
0
LINE
8
FFab
62
5
10
101.25
20
-95.5
11
101.75
21
-95.5
0
LINE
8
FFab
62
5
10
101.25
20
-96.5
11
101.25
21
-95.5
0
CIRCLE
8
FCrtYd
62
7
10
122.675
20
-162.9
40
1.0
0
LINE
8
FCrtYd
62
7
10
136.38
20
-37.62
11
136.38
21
-39.08
0
LINE
8
FCrtYd
62
7
10
136.38
20
-39.08
11
133.42
21
-39.08
0
LINE
8
FCrtYd
62
7
10
133.42
20
-37.62
11
136.38
21
-37.62
0
LINE
8
FCrtYd
62
7
10
133.42
20
-39.08
11
133.42
21
-37.62
0
LINE
8
FFab
62
5
10
134.1
20
-38.7625
11
134.1
21
-37.9375
0
LINE
8
FFab
62
5
10
135.7
20
-38.7625
11
134.1
21
-38.7625
0
LINE
8
FFab
62
5
10
135.7
20
-37.9375
11
135.7
21
-38.7625
0
LINE
8
FFab
62
5
10
134.1
20
-37.9375
11
135.7
21
-37.9375
0
LINE
8
FCrtYd
62
7
10
105.525
20
-122.525
11
105.525
21
-126.925
0
LINE
8
FCrtYd
62
7
10
103.225
20
-126.925
11
105.525
21
-126.925
0
LINE
8
FCrtYd
62
7
10
103.225
20
-122.525
11
105.525
21
-122.525
0
LINE
8
FCrtYd
62
7
10
103.225
20
-126.925
11
103.225
21
-122.525
0
LINE
8
FFab
62
5
10
105.275
20
-126.125
11
103.475
21
-126.125
0
LINE
8
FFab
62
5
10
104.375
20
-125.075
11
103.975
21
-124.475
0
LINE
8
FFab
62
5
10
105.275
20
-123.325
11
105.275
21
-126.125
0
LINE
8
FFab
62
5
10
103.975
20
-124.475
11
104.775
21
-124.475
0
LINE
8
FFab
62
5
10
104.375
20
-124.475
11
104.375
21
-123.975
0
LINE
8
FFab
62
5
10
104.375
20
-125.475
11
104.375
21
-125.075
0
LINE
8
FFab
62
5
10
104.775
20
-124.475
11
104.375
21
-125.075
0
LINE
8
FFab
62
5
10
104.375
20
-125.075
11
104.925
21
-125.075
0
LINE
8
FFab
62
5
10
103.475
20
-126.125
11
103.475
21
-123.325
0
LINE
8
FFab
62
5
10
103.475
20
-123.325
11
105.275
21
-123.325
0
LINE
8
FFab
62
5
10
104.375
20
-125.075
11
103.825
21
-125.075
0
LINE
8
FCrtYd
62
7
10
110.975
20
-46.725
11
110.975
21
-43.425
0
LINE
8
FCrtYd
62
7
10
113.475
20
-43.425
11
110.975
21
-43.425
0
LINE
8
FCrtYd
62
7
10
110.975
20
-46.725
11
113.475
21
-46.725
0
LINE
8
FCrtYd
62
7
10
113.475
20
-43.425
11
113.475
21
-46.725
0
LINE
8
FCrtYd
62
7
10
131.435
20
-138.19
11
131.435
21
-140.01
0
LINE
8
FCrtYd
62
7
10
130.515
20
-138.19
11
131.435
21
-138.19
0
LINE
8
FCrtYd
62
7
10
131.435
20
-140.01
11
130.515
21
-140.01
0
LINE
8
FCrtYd
62
7
10
130.515
20
-140.01
11
130.515
21
-138.19
0
LINE
8
FFab
62
5
10
131.225
20
-138.6
11
131.225
21
-139.6
0
LINE
8
FFab
62
5
10
130.725
20
-138.6
11
131.225
21
-138.6
0
LINE
8
FFab
62
5
10
131.225
20
-139.6
11
130.725
21
-139.6
0
LINE
8
FFab
62
5
10
130.725
20
-139.6
11
130.725
21
-138.6
0
LINE
8
FCrtYd
62
7
10
116.43
20
-160.47
11
116.43
21
-161.93
0
LINE
8
FCrtYd
62
7
10
116.43
20
-161.93
11
113.47
21
-161.93
0
LINE
8
FCrtYd
62
7
10
113.47
20
-160.47
11
116.43
21
-160.47
0
LINE
8
FCrtYd
62
7
10
113.47
20
-161.93
11
113.47
21
-160.47
0
LINE
8
FFab
62
5
10
114.15
20
-160.7875
11
115.75
21
-160.7875
0
LINE
8
FFab
62
5
10
115.75
20
-161.6125
11
114.15
21
-161.6125
0
LINE
8
FFab
62
5
10
114.15
20
-161.6125
11
114.15
21
-160.7875
0
LINE
8
FFab
62
5
10
115.75
20
-160.7875
11
115.75
21
-161.6125
0
CIRCLE
8
FCrtYd
62
7
10
115.0
20
-69.25
40
1.0
0
LINE
8
FCrtYd
62
7
10
83.52
20
-83.43
11
83.52
21
-81.97
0
LINE
8
FCrtYd
62
7
10
83.52
20
-81.97
11
86.48
21
-81.97
0
LINE
8
FCrtYd
62
7
10
86.48
20
-81.97
11
86.48
21
-83.43
0
LINE
8
FCrtYd
62
7
10
86.48
20
-83.43
11
83.52
21
-83.43
0
LINE
8
FFab
62
5
10
85.8
20
-82.2875
11
85.8
21
-83.1125
0
LINE
8
FFab
62
5
10
85.8
20
-83.1125
11
84.2
21
-83.1125
0
LINE
8
FFab
62
5
10
84.2
20
-83.1125
11
84.2
21
-82.2875
0
LINE
8
FFab
62
5
10
84.2
20
-82.2875
11
85.8
21
-82.2875
0
LINE
8
FCrtYd
62
7
10
143.5
20
-123.425
11
143.5
21
-126.725
0
LINE
8
FCrtYd
62
7
10
143.5
20
-123.425
11
141.0
21
-123.425
0
LINE
8
FCrtYd
62
7
10
141.0
20
-126.725
11
143.5
21
-126.725
0
LINE
8
FCrtYd
62
7
10
141.0
20
-126.725
11
141.0
21
-123.425
0
LINE
8
FCrtYd
62
7
10
103.925
20
-67.25
11
103.925
21
-71.35
0
LINE
8
FCrtYd
62
7
10
103.925
20
-71.35
11
94.125
21
-71.35
0
LINE
8
FCrtYd
62
7
10
94.125
20
-71.35
11
94.125
21
-67.25
0
LINE
8
FCrtYd
62
7
10
94.125
20
-67.25
11
103.925
21
-67.25
0
LINE
8
FFab
62
5
10
97.525
20
-68.5
11
100.525
21
-68.5
0
LINE
8
FFab
62
5
10
100.775
20
-70.3
11
97.275
21
-70.3
0
LINE
8
FFab
62
5
10
97.275
20
-70.3
11
97.275
21
-68.3
0
LINE
8
FFab
62
5
10
97.275
20
-68.3
11
100.775
21
-68.3
0
LINE
8
FFab
62
5
10
96.025
20
-71.1
11
102.025
21
-71.1
0
LINE
8
FFab
62
5
10
97.525
20
-70.1
11
100.525
21
-70.1
0
LINE
8
FFab
62
5
10
96.025
20
-67.5
11
102.025
21
-67.5
0
LINE
8
FFab
62
5
10
100.775
20
-68.3
11
100.775
21
-70.3
0
LINE
8
FFab
62
5
10
100.525
20
-68.5
11
100.525
21
-70.1
0
LINE
8
FFab
62
5
10
97.525
20
-68.5
11
97.525
21
-70.1
0
LINE
8
FFab
62
5
10
102.025
20
-67.5
11
102.025
21
-71.1
0
LINE
8
FFab
62
5
10
96.025
20
-67.5
11
96.025
21
-71.1
0
LINE
8
FCrtYd
62
7
10
105.45
20
-42.55
11
105.45
21
-46.95
0
LINE
8
FCrtYd
62
7
10
103.15
20
-46.95
11
103.15
21
-42.55
0
LINE
8
FCrtYd
62
7
10
103.15
20
-42.55
11
105.45
21
-42.55
0
LINE
8
FCrtYd
62
7
10
103.15
20
-46.95
11
105.45
21
-46.95
0
LINE
8
FFab
62
5
10
105.2
20
-43.35
11
105.2
21
-46.15
0
LINE
8
FFab
62
5
10
104.3
20
-45.1
11
104.85
21
-45.1
0
LINE
8
FFab
62
5
10
105.2
20
-46.15
11
103.4
21
-46.15
0
LINE
8
FFab
62
5
10
104.3
20
-45.1
11
103.75
21
-45.1
0
LINE
8
FFab
62
5
10
103.4
20
-43.35
11
105.2
21
-43.35
0
LINE
8
FFab
62
5
10
104.7
20
-44.5
11
104.3
21
-45.1
0
LINE
8
FFab
62
5
10
104.3
20
-45.5
11
104.3
21
-45.1
0
LINE
8
FFab
62
5
10
103.4
20
-46.15
11
103.4
21
-43.35
0
LINE
8
FFab
62
5
10
104.3
20
-45.1
11
103.9
21
-44.5
0
LINE
8
FFab
62
5
10
103.9
20
-44.5
11
104.7
21
-44.5
0
LINE
8
FFab
62
5
10
104.3
20
-44.5
11
104.3
21
-44.0
0
LINE
8
FCrtYd
62
7
10
136.875
20
-46.2
11
140.675
21
-46.2
0
LINE
8
FCrtYd
62
7
10
140.675
20
-43.8
11
140.475
21
-43.8
0
LINE
8
FCrtYd
62
7
10
136.875
20
-43.8
11
136.875
21
-46.2
0
LINE
8
FCrtYd
62
7
10
140.475
20
-43.8
11
136.875
21
-43.8
0
LINE
8
FCrtYd
62
7
10
140.675
20
-46.2
11
140.675
21
-43.8
0
LINE
8
FCrtYd
62
7
10
73.175
20
-82.55
11
75.475
21
-82.55
0
LINE
8
FCrtYd
62
7
10
75.475
20
-82.55
11
75.475
21
-86.95
0
LINE
8
FCrtYd
62
7
10
73.175
20
-86.95
11
73.175
21
-82.55
0
LINE
8
FCrtYd
62
7
10
73.175
20
-86.95
11
75.475
21
-86.95
0
LINE
8
FFab
62
5
10
74.325
20
-85.1
11
73.925
21
-84.5
0
LINE
8
FFab
62
5
10
74.325
20
-85.1
11
74.875
21
-85.1
0
LINE
8
FFab
62
5
10
73.425
20
-86.15
11
73.425
21
-83.35
0
LINE
8
FFab
62
5
10
73.425
20
-83.35
11
75.225
21
-83.35
0
LINE
8
FFab
62
5
10
74.325
20
-84.5
11
74.325
21
-84.0
0
LINE
8
FFab
62
5
10
74.725
20
-84.5
11
74.325
21
-85.1
0
LINE
8
FFab
62
5
10
74.325
20
-85.1
11
73.775
21
-85.1
0
LINE
8
FFab
62
5
10
75.225
20
-83.35
11
75.225
21
-86.15
0
LINE
8
FFab
62
5
10
74.325
20
-85.5
11
74.325
21
-85.1
0
LINE
8
FFab
62
5
10
73.925
20
-84.5
11
74.725
21
-84.5
0
LINE
8
FFab
62
5
10
75.225
20
-86.15
11
73.425
21
-86.15
0
LINE
8
FCrtYd
62
7
10
106.5
20
-75.15
11
103.2
21
-75.15
0
LINE
8
FCrtYd
62
7
10
103.2
20
-72.65
11
103.2
21
-75.15
0
LINE
8
FCrtYd
62
7
10
103.2
20
-72.65
11
106.5
21
-72.65
0
LINE
8
FCrtYd
62
7
10
106.5
20
-75.15
11
106.5
21
-72.65
0
LINE
8
FCrtYd
62
7
10
106.405
20
-160.63
11
103.445
21
-160.63
0
LINE
8
FCrtYd
62
7
10
103.445
20
-159.17
11
106.405
21
-159.17
0
LINE
8
FCrtYd
62
7
10
106.405
20
-159.17
11
106.405
21
-160.63
0
LINE
8
FCrtYd
62
7
10
103.445
20
-160.63
11
103.445
21
-159.17
0
LINE
8
FFab
62
5
10
105.725
20
-159.4875
11
105.725
21
-160.3125
0
LINE
8
FFab
62
5
10
105.725
20
-160.3125
11
104.125
21
-160.3125
0
LINE
8
FFab
62
5
10
104.125
20
-159.4875
11
105.725
21
-159.4875
0
LINE
8
FFab
62
5
10
104.125
20
-160.3125
11
104.125
21
-159.4875
0
LINE
8
FCrtYd
62
7
10
136.61
20
-140.96
11
135.69
21
-140.96
0
LINE
8
FCrtYd
62
7
10
135.69
20
-140.96
11
135.69
21
-139.14
0
LINE
8
FCrtYd
62
7
10
136.61
20
-139.14
11
136.61
21
-140.96
0
LINE
8
FCrtYd
62
7
10
135.69
20
-139.14
11
136.61
21
-139.14
0
LINE
8
FFab
62
5
10
136.4
20
-140.55
11
135.9
21
-140.55
0
LINE
8
FFab
62
5
10
136.4
20
-139.55
11
136.4
21
-140.55
0
LINE
8
FFab
62
5
10
135.9
20
-140.55
11
135.9
21
-139.55
0
LINE
8
FFab
62
5
10
135.9
20
-139.55
11
136.4
21
-139.55
0
LINE
8
FCrtYd
62
7
10
83.52
20
-120.48
11
83.52
21
-119.02
0
LINE
8
FCrtYd
62
7
10
86.48
20
-119.02
11
86.48
21
-120.48
0
LINE
8
FCrtYd
62
7
10
83.52
20
-119.02
11
86.48
21
-119.02
0
LINE
8
FCrtYd
62
7
10
86.48
20
-120.48
11
83.52
21
-120.48
0
LINE
8
FFab
62
5
10
84.2
20
-120.1625
11
84.2
21
-119.3375
0
LINE
8
FFab
62
5
10
85.8
20
-119.3375
11
85.8
21
-120.1625
0
LINE
8
FFab
62
5
10
85.8
20
-120.1625
11
84.2
21
-120.1625
0
LINE
8
FFab
62
5
10
84.2
20
-119.3375
11
85.8
21
-119.3375
0
LINE
8
FCrtYd
62
7
10
140.7
20
-166.2
11
140.7
21
-163.8
0
LINE
8
FCrtYd
62
7
10
136.9
20
-166.2
11
140.7
21
-166.2
0
LINE
8
FCrtYd
62
7
10
140.7
20
-163.8
11
140.5
21
-163.8
0
LINE
8
FCrtYd
62
7
10
136.9
20
-163.8
11
136.9
21
-166.2
0
LINE
8
FCrtYd
62
7
10
140.5
20
-163.8
11
136.9
21
-163.8
0
LINE
8
FCrtYd
62
7
10
136.45
20
-37.6
11
133.15
21
-37.6
0
LINE
8
FCrtYd
62
7
10
133.15
20
-35.1
11
136.45
21
-35.1
0
LINE
8
FCrtYd
62
7
10
133.15
20
-35.1
11
133.15
21
-37.6
0
LINE
8
FCrtYd
62
7
10
136.45
20
-37.6
11
136.45
21
-35.1
0
LINE
8
FCrtYd
62
7
10
106.45
20
-111.6625
11
106.45
21
-107.6625
0
LINE
8
FCrtYd
62
7
10
100.85
20
-111.6625
11
106.45
21
-111.6625
0
LINE
8
FCrtYd
62
7
10
100.85
20
-107.6625
11
100.85
21
-111.6625
0
LINE
8
FCrtYd
62
7
10
106.45
20
-107.6625
11
100.85
21
-107.6625
0
LINE
8
FFab
62
5
10
105.95
20
-111.2625
11
101.35
21
-111.2625
0
LINE
8
FFab
62
5
10
101.15
20
-108.2625
11
101.35
21
-108.0625
0
LINE
8
FFab
62
5
10
101.15
20
-110.2625
11
102.15
21
-111.2625
0
LINE
8
FFab
62
5
10
106.15
20
-111.0625
11
105.95
21
-111.2625
0
LINE
8
FFab
62
5
10
101.15
20
-111.0625
11
101.15
21
-108.2625
0
LINE
8
FFab
62
5
10
101.35
20
-111.2625
11
101.15
21
-111.0625
0
LINE
8
FFab
62
5
10
101.35
20
-108.0625
11
105.95
21
-108.0625
0
LINE
8
FFab
62
5
10
106.15
20
-108.2625
11
106.15
21
-111.0625
0
LINE
8
FFab
62
5
10
105.95
20
-108.0625
11
106.15
21
-108.2625
0
LINE
8
FCrtYd
62
7
10
132.055
20
-141.12
11
132.055
21
-144.08
0
LINE
8
FCrtYd
62
7
10
130.595
20
-144.08
11
130.595
21
-141.12
0
LINE
8
FCrtYd
62
7
10
132.055
20
-144.08
11
130.595
21
-144.08
0
LINE
8
FCrtYd
62
7
10
130.595
20
-141.12
11
132.055
21
-141.12
0
LINE
8
FFab
62
5
10
131.725
20
-141.8
11
131.725
21
-143.4
0
LINE
8
FFab
62
5
10
131.725
20
-143.4
11
130.925
21
-143.4
0
LINE
8
FFab
62
5
10
130.925
20
-143.4
11
130.925
21
-141.8
0
LINE
8
FFab
62
5
10
130.925
20
-141.8
11
131.725
21
-141.8
0
LINE
8
FCrtYd
62
7
10
147.79
20
-76.475
11
143.59
21
-76.475
0
LINE
8
FCrtYd
62
7
10
147.79
20
-73.025
11
147.79
21
-76.475
0
LINE
8
FCrtYd
62
7
10
143.59
20
-73.025
11
147.79
21
-73.025
0
LINE
8
FCrtYd
62
7
10
143.59
20
-76.475
11
143.59
21
-73.025
0
LINE
8
FFab
62
5
10
144.89
20
-76.2
11
144.89
21
-73.3
0
LINE
8
FFab
62
5
10
146.49
20
-73.3
11
146.49
21
-76.2
0
LINE
8
FFab
62
5
10
144.89
20
-73.95
11
145.54
21
-73.3
0
LINE
8
FFab
62
5
10
144.89
20
-73.3
11
146.49
21
-73.3
0
LINE
8
FFab
62
5
10
146.49
20
-76.2
11
144.89
21
-76.2
0
LINE
8
FCrtYd
62
7
10
136.865
20
-86.2
11
140.665
21
-86.2
0
LINE
8
FCrtYd
62
7
10
140.465
20
-83.8
11
136.865
21
-83.8
0
LINE
8
FCrtYd
62
7
10
136.865
20
-83.8
11
136.865
21
-86.2
0
LINE
8
FCrtYd
62
7
10
140.665
20
-86.2
11
140.665
21
-83.8
0
LINE
8
FCrtYd
62
7
10
140.665
20
-83.8
11
140.465
21
-83.8
0
LINE
8
FCrtYd
62
7
10
146.48
20
-80.495
11
146.48
21
-81.955
0
LINE
8
FCrtYd
62
7
10
146.48
20
-81.955
11
143.52
21
-81.955
0
LINE
8
FCrtYd
62
7
10
143.52
20
-80.495
11
146.48
21
-80.495
0
LINE
8
FCrtYd
62
7
10
143.52
20
-81.955
11
143.52
21
-80.495
0
LINE
8
FFab
62
5
10
145.8
20
-81.6375
11
144.2
21
-81.6375
0
LINE
8
FFab
62
5
10
144.2
20
-80.8125
11
145.8
21
-80.8125
0
LINE
8
FFab
62
5
10
145.8
20
-80.8125
11
145.8
21
-81.6375
0
LINE
8
FFab
62
5
10
144.2
20
-81.6375
11
144.2
21
-80.8125
0
LINE
8
FCrtYd
62
7
10
103.495
20
-119.145
11
106.455
21
-119.145
0
LINE
8
FCrtYd
62
7
10
106.455
20
-120.605
11
103.495
21
-120.605
0
LINE
8
FCrtYd
62
7
10
103.495
20
-120.605
11
103.495
21
-119.145
0
LINE
8
FCrtYd
62
7
10
106.455
20
-119.145
11
106.455
21
-120.605
0
LINE
8
FFab
62
5
10
104.175
20
-120.2875
11
104.175
21
-119.4625
0
LINE
8
FFab
62
5
10
104.175
20
-119.4625
11
105.775
21
-119.4625
0
LINE
8
FFab
62
5
10
105.775
20
-120.2875
11
104.175
21
-120.2875
0
LINE
8
FFab
62
5
10
105.775
20
-119.4625
11
105.775
21
-120.2875
0
LINE
8
FCrtYd
62
7
10
121.97
20
-50.655
11
121.97
21
-49.195
0
LINE
8
FCrtYd
62
7
10
124.93
20
-49.195
11
124.93
21
-50.655
0
LINE
8
FCrtYd
62
7
10
124.93
20
-50.655
11
121.97
21
-50.655
0
LINE
8
FCrtYd
62
7
10
121.97
20
-49.195
11
124.93
21
-49.195
0
LINE
8
FFab
62
5
10
122.65
20
-49.825
11
122.65
21
-50.325
0
LINE
8
FFab
62
5
10
122.95
20
-49.525
11
122.65
21
-49.825
0
LINE
8
FFab
62
5
10
124.25
20
-49.525
11
122.95
21
-49.525
0
LINE
8
FFab
62
5
10
124.25
20
-50.325
11
124.25
21
-49.525
0
LINE
8
FFab
62
5
10
122.65
20
-50.325
11
124.25
21
-50.325
0
LINE
8
FCrtYd
62
7
10
113.52
20
-80.495
11
116.48
21
-80.495
0
LINE
8
FCrtYd
62
7
10
113.52
20
-81.955
11
113.52
21
-80.495
0
LINE
8
FCrtYd
62
7
10
116.48
20
-81.955
11
113.52
21
-81.955
0
LINE
8
FCrtYd
62
7
10
116.48
20
-80.495
11
116.48
21
-81.955
0
LINE
8
FFab
62
5
10
115.8
20
-81.6375
11
114.2
21
-81.6375
0
LINE
8
FFab
62
5
10
114.2
20
-81.6375
11
114.2
21
-80.8125
0
LINE
8
FFab
62
5
10
115.8
20
-80.8125
11
115.8
21
-81.6375
0
LINE
8
FFab
62
5
10
114.2
20
-80.8125
11
115.8
21
-80.8125
0
LINE
8
FCrtYd
62
7
10
139.05
20
-139.075
11
136.75
21
-139.075
0
LINE
8
FCrtYd
62
7
10
139.05
20
-139.075
11
139.05
21
-143.475
0
LINE
8
FCrtYd
62
7
10
139.05
20
-143.475
11
136.75
21
-143.475
0
LINE
8
FCrtYd
62
7
10
136.75
20
-143.475
11
136.75
21
-139.075
0
LINE
8
FFab
62
5
10
137.0
20
-139.875
11
138.8
21
-139.875
0
LINE
8
FFab
62
5
10
137.9
20
-140.925
11
138.45
21
-140.925
0
LINE
8
FFab
62
5
10
137.9
20
-140.925
11
137.35
21
-140.925
0
LINE
8
FFab
62
5
10
138.8
20
-142.675
11
137.0
21
-142.675
0
LINE
8
FFab
62
5
10
137.9
20
-140.525
11
137.9
21
-140.925
0
LINE
8
FFab
62
5
10
138.3
20
-141.525
11
137.5
21
-141.525
0
LINE
8
FFab
62
5
10
137.9
20
-140.925
11
138.3
21
-141.525
0
LINE
8
FFab
62
5
10
137.9
20
-141.525
11
137.9
21
-142.025
0
LINE
8
FFab
62
5
10
138.8
20
-139.875
11
138.8
21
-142.675
0
LINE
8
FFab
62
5
10
137.5
20
-141.525
11
137.9
21
-140.925
0
LINE
8
FFab
62
5
10
137.0
20
-142.675
11
137.0
21
-139.875
0
LINE
8
FCrtYd
62
7
10
113.52
20
-118.995
11
116.48
21
-118.995
0
LINE
8
FCrtYd
62
7
10
116.48
20
-120.455
11
113.52
21
-120.455
0
LINE
8
FCrtYd
62
7
10
113.52
20
-120.455
11
113.52
21
-118.995
0
LINE
8
FCrtYd
62
7
10
116.48
20
-118.995
11
116.48
21
-120.455
0
LINE
8
FFab
62
5
10
115.8
20
-120.1375
11
114.2
21
-120.1375
0
LINE
8
FFab
62
5
10
114.2
20
-119.3125
11
115.8
21
-119.3125
0
LINE
8
FFab
62
5
10
114.2
20
-120.1375
11
114.2
21
-119.3125
0
LINE
8
FFab
62
5
10
115.8
20
-119.3125
11
115.8
21
-120.1375
0
LINE
8
FCrtYd
62
7
10
73.175
20
-46.925
11
75.475
21
-46.925
0
LINE
8
FCrtYd
62
7
10
73.175
20
-42.525
11
75.475
21
-42.525
0
LINE
8
FCrtYd
62
7
10
75.475
20
-42.525
11
75.475
21
-46.925
0
LINE
8
FCrtYd
62
7
10
73.175
20
-46.925
11
73.175
21
-42.525
0
LINE
8
FFab
62
5
10
74.325
20
-45.075
11
74.875
21
-45.075
0
LINE
8
FFab
62
5
10
74.725
20
-44.475
11
74.325
21
-45.075
0
LINE
8
FFab
62
5
10
74.325
20
-45.075
11
73.775
21
-45.075
0
LINE
8
FFab
62
5
10
73.925
20
-44.475
11
74.725
21
-44.475
0
LINE
8
FFab
62
5
10
74.325
20
-44.475
11
74.325
21
-43.975
0
LINE
8
FFab
62
5
10
75.225
20
-43.325
11
75.225
21
-46.125
0
LINE
8
FFab
62
5
10
73.425
20
-46.125
11
73.425
21
-43.325
0
LINE
8
FFab
62
5
10
74.325
20
-45.075
11
73.925
21
-44.475
0
LINE
8
FFab
62
5
10
73.425
20
-43.325
11
75.225
21
-43.325
0
LINE
8
FFab
62
5
10
74.325
20
-45.475
11
74.325
21
-45.075
0
LINE
8
FFab
62
5
10
75.225
20
-46.125
11
73.425
21
-46.125
0
LINE
8
FCrtYd
62
7
10
83.52
20
-40.52
11
86.48
21
-40.52
0
LINE
8
FCrtYd
62
7
10
83.52
20
-41.98
11
83.52
21
-40.52
0
LINE
8
FCrtYd
62
7
10
86.48
20
-41.98
11
83.52
21
-41.98
0
LINE
8
FCrtYd
62
7
10
86.48
20
-40.52
11
86.48
21
-41.98
0
LINE
8
FFab
62
5
10
84.2
20
-41.6625
11
84.2
21
-40.8375
0
LINE
8
FFab
62
5
10
85.8
20
-40.8375
11
85.8
21
-41.6625
0
LINE
8
FFab
62
5
10
85.8
20
-41.6625
11
84.2
21
-41.6625
0
LINE
8
FFab
62
5
10
84.2
20
-40.8375
11
85.8
21
-40.8375
0
LINE
8
FCrtYd
62
7
10
106.525
20
-117.65
11
103.225
21
-117.65
0
LINE
8
FCrtYd
62
7
10
106.525
20
-117.65
11
106.525
21
-115.15
0
LINE
8
FCrtYd
62
7
10
103.225
20
-115.15
11
103.225
21
-117.65
0
LINE
8
FCrtYd
62
7
10
103.225
20
-115.15
11
106.525
21
-115.15
0
LINE
8
FCrtYd
62
7
10
136.48
20
-162.23
11
133.52
21
-162.23
0
LINE
8
FCrtYd
62
7
10
133.52
20
-160.77
11
136.48
21
-160.77
0
LINE
8
FCrtYd
62
7
10
136.48
20
-160.77
11
136.48
21
-162.23
0
LINE
8
FCrtYd
62
7
10
133.52
20
-162.23
11
133.52
21
-160.77
0
LINE
8
FFab
62
5
10
134.2
20
-161.0875
11
135.8
21
-161.0875
0
LINE
8
FFab
62
5
10
135.8
20
-161.0875
11
135.8
21
-161.9125
0
LINE
8
FFab
62
5
10
134.2
20
-161.9125
11
134.2
21
-161.0875
0
LINE
8
FFab
62
5
10
135.8
20
-161.9125
11
134.2
21
-161.9125
0
LINE
8
FCrtYd
62
7
10
132.145
20
-144.08
11
132.145
21
-141.12
0
LINE
8
FCrtYd
62
7
10
132.145
20
-141.12
11
133.605
21
-141.12
0
LINE
8
FCrtYd
62
7
10
133.605
20
-141.12
11
133.605
21
-144.08
0
LINE
8
FCrtYd
62
7
10
133.605
20
-144.08
11
132.145
21
-144.08
0
LINE
8
FFab
62
5
10
133.275
20
-143.4
11
132.475
21
-143.4
0
LINE
8
FFab
62
5
10
133.275
20
-141.8
11
133.275
21
-143.4
0
LINE
8
FFab
62
5
10
132.475
20
-143.4
11
132.475
21
-141.8
0
LINE
8
FFab
62
5
10
132.475
20
-141.8
11
133.275
21
-141.8
0
LINE
8
FCrtYd
62
7
10
104.41
20
-106.64
11
104.41
21
-107.56
0
LINE
8
FCrtYd
62
7
10
104.41
20
-107.56
11
102.59
21
-107.56
0
LINE
8
FCrtYd
62
7
10
102.59
20
-107.56
11
102.59
21
-106.64
0
LINE
8
FCrtYd
62
7
10
102.59
20
-106.64
11
104.41
21
-106.64
0
LINE
8
FFab
62
5
10
104.0
20
-107.35
11
103.0
21
-107.35
0
LINE
8
FFab
62
5
10
103.0
20
-106.85
11
104.0
21
-106.85
0
LINE
8
FFab
62
5
10
103.0
20
-107.35
11
103.0
21
-106.85
0
LINE
8
FFab
62
5
10
104.0
20
-106.85
11
104.0
21
-107.35
0
LINE
8
FCrtYd
62
7
10
111.0
20
-86.775
11
113.5
21
-86.775
0
LINE
8
FCrtYd
62
7
10
111.0
20
-86.775
11
111.0
21
-83.475
0
LINE
8
FCrtYd
62
7
10
113.5
20
-83.475
11
111.0
21
-83.475
0
LINE
8
FCrtYd
62
7
10
113.5
20
-83.475
11
113.5
21
-86.775
0
LINE
8
FCrtYd
62
7
10
133.175
20
-72.65
11
136.475
21
-72.65
0
LINE
8
FCrtYd
62
7
10
136.475
20
-75.15
11
133.175
21
-75.15
0
LINE
8
FCrtYd
62
7
10
136.475
20
-75.15
11
136.475
21
-72.65
0
LINE
8
FCrtYd
62
7
10
133.175
20
-72.65
11
133.175
21
-75.15
0
LINE
8
FCrtYd
62
7
10
106.38
20
-37.62
11
106.38
21
-39.08
0
LINE
8
FCrtYd
62
7
10
103.42
20
-39.08
11
103.42
21
-37.62
0
LINE
8
FCrtYd
62
7
10
103.42
20
-37.62
11
106.38
21
-37.62
0
LINE
8
FCrtYd
62
7
10
106.38
20
-39.08
11
103.42
21
-39.08
0
LINE
8
FFab
62
5
10
104.1
20
-38.7625
11
104.1
21
-37.9375
0
LINE
8
FFab
62
5
10
105.7
20
-38.7625
11
104.1
21
-38.7625
0
LINE
8
FFab
62
5
10
105.7
20
-37.9375
11
105.7
21
-38.7625
0
LINE
8
FFab
62
5
10
104.1
20
-37.9375
11
105.7
21
-37.9375
0
LINE
8
FCrtYd
62
7
10
121.88
20
-54.07
11
121.88
21
-55.53
0
LINE
8
FCrtYd
62
7
10
118.92
20
-54.07
11
121.88
21
-54.07
0
LINE
8
FCrtYd
62
7
10
118.92
20
-55.53
11
118.92
21
-54.07
0
LINE
8
FCrtYd
62
7
10
121.88
20
-55.53
11
118.92
21
-55.53
0
LINE
8
FFab
62
5
10
119.6
20
-55.2125
11
119.6
21
-54.3875
0
LINE
8
FFab
62
5
10
121.2
20
-55.2125
11
119.6
21
-55.2125
0
LINE
8
FFab
62
5
10
121.2
20
-54.3875
11
121.2
21
-55.2125
0
LINE
8
FFab
62
5
10
119.6
20
-54.3875
11
121.2
21
-54.3875
0
LINE
8
Cmts
62
1
10
119.4107
20
-105.7404
11
119.6647
21
-105.7404
0
LINE
8
Cmts
62
1
10
116.9977
20
-95.25
11
116.9977
21
-88.1763
0
LINE
8
Cmts
62
1
10
119.4107
20
-94.2596
11
119.6647
21
-94.2596
0
LINE
8
Cmts
62
1
10
103.0023
20
-88.5573
11
116.9977
21
-88.5573
0
LINE
8
Cmts
62
1
10
116.9977
20
-88.5573
11
116.7437
21
-88.4303
0
LINE
8
Cmts
62
1
10
115.7404
20
-109.6647
11
115.7404
21
-109.4107
0
LINE
8
Cmts
62
1
10
103.0023
20
-95.25
11
103.0023
21
-88.1763
0
LINE
8
Cmts
62
1
10
105.25
20
-90.4623
11
103.98
21
-90.4623
0
LINE
8
Cmts
62
1
10
105.25
20
-90.4623
11
104.996
21
-90.3353
0
LINE
8
Cmts
62
1
10
115.9944
20
-109.5377
11
115.7404
21
-109.4107
0
LINE
8
Cmts
62
1
10
104.0056
20
-109.5377
11
104.2596
21
-109.6647
0
LINE
8
Cmts
62
1
10
105.75
20
-93.3833
11
105.75
21
-90.0813
0
LINE
8
Cmts
62
1
10
98.4303
20
-106.7437
11
98.6843
21
-106.7437
0
LINE
8
Cmts
62
1
10
119.5377
20
-105.9944
11
119.6647
21
-105.7404
0
LINE
8
Cmts
62
1
10
105.75
20
-90.4623
11
106.004
21
-90.5893
0
LINE
8
Cmts
62
1
10
116.7437
20
-88.6843
11
116.7437
21
-88.4303
0
LINE
8
Cmts
62
1
10
115.9944
20
-109.5377
11
115.7404
21
-109.6647
0
LINE
8
Cmts
62
1
10
104.2596
20
-109.6647
11
104.2596
21
-109.4107
0
LINE
8
Cmts
62
1
10
105.75
20
-90.4623
11
107.02
21
-90.4623
0
LINE
8
Cmts
62
1
10
119.5377
20
-105.9944
11
119.5377
21
-94.0056
0
LINE
8
Cmts
62
1
10
100.4623
20
-93.0023
11
100.3353
21
-92.7483
0
LINE
8
Cmts
62
1
10
114.75
20
-105.9944
11
119.9187
21
-105.9944
0
LINE
8
Cmts
62
1
10
119.5377
20
-94.0056
11
119.6647
21
-94.2596
0
LINE
8
Cmts
62
1
10
98.5573
20
-106.9977
11
98.6843
21
-106.7437
0
LINE
8
Cmts
62
1
10
100.4623
20
-93.7643
11
100.4623
21
-95.0343
0
LINE
8
Cmts
62
1
10
106.004
20
-90.5893
11
106.004
21
-90.3353
0
LINE
8
Cmts
62
1
10
104.0056
20
-109.5377
11
104.2596
21
-109.4107
0
LINE
8
Cmts
62
1
10
104.0056
20
-109.5377
11
115.9944
21
-109.5377
0
LINE
8
Cmts
62
1
10
100.3353
20
-94.0183
11
100.5893
21
-94.0183
0
LINE
8
Cmts
62
1
10
104.0056
20
-104.75
11
104.0056
21
-109.9187
0
LINE
8
Cmts
62
1
10
103.0023
20
-88.5573
11
103.2563
21
-88.6843
0
LINE
8
Cmts
62
1
10
100.4623
20
-93.7643
11
100.5893
21
-94.0183
0
LINE
8
Cmts
62
1
10
119.5377
20
-94.0056
11
119.4107
21
-94.2596
0
LINE
8
Cmts
62
1
10
104.996
20
-90.5893
11
104.996
21
-90.3353
0
LINE
8
Cmts
62
1
10
103.0023
20
-88.5573
11
103.2563
21
-88.4303
0
LINE
8
Cmts
62
1
10
98.4303
20
-93.2563
11
98.6843
21
-93.2563
0
LINE
8
Cmts
62
1
10
98.5573
20
-106.9977
11
98.5573
21
-93.0023
0
LINE
8
Cmts
62
1
10
105.25
20
-93.7643
11
100.0813
21
-93.7643
0
LINE
8
Cmts
62
1
10
105.25
20
-106.9977
11
98.1763
21
-106.9977
0
LINE
8
Cmts
62
1
10
115.9944
20
-104.75
11
115.9944
21
-109.9187
0
LINE
8
Cmts
62
1
10
105.75
20
-90.4623
11
106.004
21
-90.3353
0
LINE
8
Cmts
62
1
10
105.25
20
-90.4623
11
104.996
21
-90.5893
0
LINE
8
Cmts
62
1
10
119.5377
20
-105.9944
11
119.4107
21
-105.7404
0
LINE
8
Cmts
62
1
10
100.4623
20
-93.0023
11
100.5893
21
-92.7483
0
LINE
8
Cmts
62
1
10
100.3353
20
-92.7483
11
100.5893
21
-92.7483
0
LINE
8
Cmts
62
1
10
100.4623
20
-93.0023
11
100.4623
21
-91.7323
0
LINE
8
Cmts
62
1
10
116.9977
20
-88.5573
11
116.7437
21
-88.6843
0
LINE
8
Cmts
62
1
10
98.5573
20
-93.0023
11
98.4303
21
-93.2563
0
LINE
8
Cmts
62
1
10
100.4623
20
-93.7643
11
100.3353
21
-94.0183
0
LINE
8
Cmts
62
1
10
98.5573
20
-93.0023
11
98.6843
21
-93.2563
0
LINE
8
Cmts
62
1
10
105.25
20
-93.3833
11
105.25
21
-90.0813
0
LINE
8
Cmts
62
1
10
103.2563
20
-88.6843
11
103.2563
21
-88.4303
0
LINE
8
Cmts
62
1
10
98.5573
20
-106.9977
11
98.4303
21
-106.7437
0
LINE
8
Cmts
62
1
10
105.25
20
-93.0023
11
98.1763
21
-93.0023
0
LINE
8
Cmts
62
1
10
105.25
20
-93.0023
11
100.0813
21
-93.0023
0
LINE
8
Cmts
62
1
10
114.75
20
-94.0056
11
119.9187
21
-94.0056
0
LINE
8
FCrtYd
62
7
10
103.7516
20
-106.2484
11
103.7516
21
-105.143701
0
LINE
8
FCrtYd
62
7
10
116.2484
20
-94.856299
11
116.2484
21
-93.7516
0
LINE
8
FCrtYd
62
7
10
103.7516
20
-105.143701
11
102.3927
21
-105.143701
0
LINE
8
FCrtYd
62
7
10
104.856299
20
-107.6073
11
104.856299
21
-106.2484
0
LINE
8
FCrtYd
62
7
10
115.143701
20
-107.6073
11
104.856299
21
-107.6073
0
LINE
8
FCrtYd
62
7
10
104.856299
20
-106.2484
11
103.7516
21
-106.2484
0
LINE
8
FCrtYd
62
7
10
115.143701
20
-106.2484
11
115.143701
21
-107.6073
0
LINE
8
FCrtYd
62
7
10
115.143701
20
-92.3927
11
104.856299
21
-92.3927
0
LINE
8
FCrtYd
62
7
10
102.3927
20
-94.856299
11
103.7516
21
-94.856299
0
LINE
8
FCrtYd
62
7
10
103.7516
20
-93.7516
11
104.856299
21
-93.7516
0
LINE
8
FCrtYd
62
7
10
104.856299
20
-92.3927
11
104.856299
21
-93.7516
0
LINE
8
FCrtYd
62
7
10
116.2484
20
-106.2484
11
115.143701
21
-106.2484
0
LINE
8
FCrtYd
62
7
10
117.6073
20
-105.143701
11
116.2484
21
-105.143701
0
LINE
8
FCrtYd
62
7
10
117.6073
20
-94.856299
11
116.2484
21
-94.856299
0
LINE
8
FCrtYd
62
7
10
115.143701
20
-93.7516
11
116.2484
21
-93.7516
0
LINE
8
FCrtYd
62
7
10
103.7516
20
-94.856299
11
103.7516
21
-93.7516
0
LINE
8
FCrtYd
62
7
10
102.3927
20
-105.143701
11
102.3927
21
-94.856299
0
LINE
8
FCrtYd
62
7
10
116.2484
20
-105.143701
11
116.2484
21
-106.2484
0
LINE
8
FCrtYd
62
7
10
117.6073
20
-94.856299
11
117.6073
21
-105.143701
0
LINE
8
FCrtYd
62
7
10
115.143701
20
-93.7516
11
115.143701
21
-92.3927
0
LINE
8
FFab
62
5
10
111.3897
20
-94.0056
11
111.3897
21
-93.0023
0
LINE
8
FFab
62
5
10
115.9944
20
-98.3897
11
116.9977
21
-98.3897
0
LINE
8
FFab
62
5
10
111.6103
20
-105.9944
11
111.6103
21
-106.9977
0
LINE
8
FFab
62
5
10
111.1103
20
-94.0056
11
111.3897
21
-94.0056
0
LINE
8
FFab
62
5
10
114.8897
20
-94.0056
11
114.8897
21
-93.0023
0
LINE
8
FFab
62
5
10
105.1103
20
-105.9944
11
105.1103
21
-106.9977
0
LINE
8
FFab
62
5
10
109.3897
20
-105.9944
11
109.1103
21
-105.9944
0
LINE
8
FFab
62
5
10
103.0023
20
-102.1103
11
103.0023
21
-102.3897
0
LINE
8
FFab
62
5
10
109.1103
20
-105.9944
11
109.1103
21
-106.9977
0
LINE
8
FFab
62
5
10
115.9944
20
-103.6103
11
115.9944
21
-103.8897
0
LINE
8
FFab
62
5
10
107.6103
20
-105.9944
11
107.6103
21
-106.9977
0
LINE
8
FFab
62
5
10
105.1103
20
-94.0056
11
105.3897
21
-94.0056
0
LINE
8
FFab
62
5
10
116.9977
20
-96.8897
11
116.9977
21
-96.6103
0
LINE
8
FFab
62
5
10
113.3897
20
-105.9944
11
113.1103
21
-105.9944
0
LINE
8
FFab
62
5
10
105.1103
20
-106.9977
11
105.3897
21
-106.9977
0
LINE
8
FFab
62
5
10
109.8897
20
-93.0023
11
109.6103
21
-93.0023
0
LINE
8
FFab
62
5
10
104.0056
20
-102.6103
11
103.0023
21
-102.6103
0
LINE
8
FFab
62
5
10
105.6103
20
-106.9977
11
105.8897
21
-106.9977
0
LINE
8
FFab
62
5
10
114.8897
20
-93.0023
11
114.6103
21
-93.0023
0
LINE
8
FFab
62
5
10
109.8897
20
-94.0056
11
109.8897
21
-93.0023
0
LINE
8
FFab
62
5
10
115.9944
20
-99.6103
11
115.9944
21
-99.8897
0
LINE
8
FFab
62
5
10
109.1103
20
-93.0023
11
109.1103
21
-94.0056
0
LINE
8
FFab
62
5
10
108.3897
20
-94.0056
11
108.3897
21
-93.0023
0
LINE
8
FFab
62
5
10
108.6103
20
-94.0056
11
108.8897
21
-94.0056
0
LINE
8
FFab
62
5
10
114.1103
20
-93.0023
11
114.1103
21
-94.0056
0
LINE
8
FFab
62
5
10
113.6103
20
-93.0023
11
113.6103
21
-94.0056
0
LINE
8
FFab
62
5
10
111.1103
20
-106.9977
11
111.3897
21
-106.9977
0
LINE
8
FFab
62
5
10
103.0023
20
-95.8897
11
104.0056
21
-95.8897
0
LINE
8
FFab
62
5
10
113.8897
20
-94.0056
11
113.8897
21
-93.0023
0
LINE
8
FFab
62
5
10
111.8897
20
-93.0023
11
111.6103
21
-93.0023
0
LINE
8
FFab
62
5
10
107.1103
20
-106.9977
11
107.3897
21
-106.9977
0
LINE
8
FFab
62
5
10
108.6103
20
-105.9944
11
108.6103
21
-106.9977
0
LINE
8
FFab
62
5
10
104.0056
20
-96.8897
11
104.0056
21
-96.6103
0
LINE
8
FFab
62
5
10
104.0056
20
-98.8897
11
104.0056
21
-98.6103
0
LINE
8
FFab
62
5
10
104.0056
20
-99.6103
11
103.0023
21
-99.6103
0
LINE
8
FFab
62
5
10
107.1103
20
-94.0056
11
107.3897
21
-94.0056
0
LINE
8
FFab
62
5
10
107.6103
20
-106.9977
11
107.8897
21
-106.9977
0
LINE
8
FFab
62
5
10
113.6103
20
-105.9944
11
113.6103
21
-106.9977
0
LINE
8
FFab
62
5
10
116.9977
20
-103.1103
11
115.9944
21
-103.1103
0
LINE
8
FFab
62
5
10
115.9944
20
-95.3897
11
116.9977
21
-95.3897
0
LINE
8
FFab
62
5
10
114.6103
20
-93.0023
11
114.6103
21
-94.0056
0
LINE
8
FFab
62
5
10
110.8897
20
-94.0056
11
110.8897
21
-93.0023
0
LINE
8
FFab
62
5
10
107.1103
20
-105.9944
11
107.1103
21
-106.9977
0
LINE
8
FFab
62
5
10
116.9977
20
-104.6103
11
115.9944
21
-104.6103
0
LINE
8
FFab
62
5
10
110.6103
20
-105.9944
11
110.6103
21
-106.9977
0
LINE
8
FFab
62
5
10
105.8897
20
-94.0056
11
105.8897
21
-93.0023
0
LINE
8
FFab
62
5
10
103.0023
20
-96.1103
11
103.0023
21
-96.3897
0
LINE
8
FFab
62
5
10
115.9944
20
-102.6103
11
115.9944
21
-102.8897
0
LINE
8
FFab
62
5
10
116.9977
20
-97.6103
11
115.9944
21
-97.6103
0
LINE
8
FFab
62
5
10
111.3897
20
-93.0023
11
111.1103
21
-93.0023
0
LINE
8
FFab
62
5
10
116.9977
20
-103.6103
11
115.9944
21
-103.6103
0
LINE
8
FFab
62
5
10
114.3897
20
-94.0056
11
114.3897
21
-93.0023
0
LINE
8
FFab
62
5
10
104.0056
20
-95.3897
11
104.0056
21
-95.1103
0
LINE
8
FFab
62
5
10
116.9977
20
-104.1103
11
115.9944
21
-104.1103
0
LINE
8
FFab
62
5
10
103.0023
20
-101.6103
11
103.0023
21
-101.8897
0
LINE
8
FFab
62
5
10
106.3897
20
-94.0056
11
106.3897
21
-93.0023
0
LINE
8
FFab
62
5
10
116.9977
20
-99.1103
11
115.9944
21
-99.1103
0
LINE
8
FFab
62
5
10
115.9944
20
-99.3897
11
116.9977
21
-99.3897
0
LINE
8
FFab
62
5
10
108.1103
20
-94.0056
11
108.3897
21
-94.0056
0
LINE
8
FFab
62
5
10
104.0056
20
-100.6103
11
103.0023
21
-100.6103
0
LINE
8
FFab
62
5
10
103.0023
20
-103.1103
11
103.0023
21
-103.3897
0
LINE
8
FFab
62
5
10
104.0056
20
-105.9944
11
115.9944
21
-105.9944
0
LINE
8
FFab
62
5
10
103.0023
20
-100.3897
11
104.0056
21
-100.3897
0
LINE
8
FFab
62
5
10
104.0056
20
-96.6103
11
103.0023
21
-96.6103
0
LINE
8
FFab
62
5
10
109.1103
20
-94.0056
11
109.3897
21
-94.0056
0
LINE
8
FFab
62
5
10
111.3897
20
-106.9977
11
111.3897
21
-105.9944
0
LINE
8
FFab
62
5
10
109.8897
20
-106.9977
11
109.8897
21
-105.9944
0
LINE
8
FFab
62
5
10
103.0023
20
-97.8897
11
104.0056
21
-97.8897
0
LINE
8
FFab
62
5
10
112.1103
20
-105.9944
11
112.1103
21
-106.9977
0
LINE
8
FFab
62
5
10
112.3897
20
-93.0023
11
112.1103
21
-93.0023
0
LINE
8
FFab
62
5
10
116.9977
20
-95.1103
11
115.9944
21
-95.1103
0
LINE
8
FFab
62
5
10
103.0023
20
-103.6103
11
103.0023
21
-103.8897
0
LINE
8
FFab
62
5
10
115.9944
20
-102.3897
11
116.9977
21
-102.3897
0
LINE
8
FFab
62
5
10
116.9977
20
-104.3897
11
116.9977
21
-104.1103
0
LINE
8
FFab
62
5
10
114.3897
20
-106.9977
11
114.3897
21
-105.9944
0
LINE
8
FFab
62
5
10
113.1103
20
-94.0056
11
113.3897
21
-94.0056
0
LINE
8
FFab
62
5
10
110.3897
20
-106.9977
11
110.3897
21
-105.9944
0
LINE
8
FFab
62
5
10
107.8897
20
-94.0056
11
107.8897
21
-93.0023
0
LINE
8
FFab
62
5
10
114.3897
20
-93.0023
11
114.1103
21
-93.0023
0
LINE
8
FFab
62
5
10
115.9944
20
-103.1103
11
115.9944
21
-103.3897
0
LINE
8
FFab
62
5
10
107.8897
20
-93.0023
11
107.6103
21
-93.0023
0
LINE
8
FFab
62
5
10
104.0056
20
-98.1103
11
103.0023
21
-98.1103
0
LINE
8
FFab
62
5
10
104.0056
20
-96.3897
11
104.0056
21
-96.1103
0
LINE
8
FFab
62
5
10
106.1103
20
-106.9977
11
106.3897
21
-106.9977
0
LINE
8
FFab
62
5
10
116.9977
20
-95.8897
11
116.9977
21
-95.6103
0
LINE
8
FFab
62
5
10
110.8897
20
-106.9977
11
110.8897
21
-105.9944
0
LINE
8
FFab
62
5
10
110.8897
20
-105.9944
11
110.6103
21
-105.9944
0
LINE
8
FFab
62
5
10
106.1103
20
-93.0023
11
106.1103
21
-94.0056
0
LINE
8
FFab
62
5
10
104.0056
20
-103.6103
11
103.0023
21
-103.6103
0
LINE
8
FFab
62
5
10
115.9944
20
-97.6103
11
115.9944
21
-97.8897
0
LINE
8
FFab
62
5
10
114.1103
20
-105.9944
11
114.1103
21
-106.9977
0
LINE
8
FFab
62
5
10
115.9944
20
-100.8897
11
116.9977
21
-100.8897
0
LINE
8
FFab
62
5
10
106.6103
20
-94.0056
11
106.8897
21
-94.0056
0
LINE
8
FFab
62
5
10
103.0023
20
-104.6103
11
103.0023
21
-104.8897
0
LINE
8
FFab
62
5
10
115.9944
20
-96.8897
11
116.9977
21
-96.8897
0
LINE
8
FFab
62
5
10
115.9944
20
-104.8897
11
116.9977
21
-104.8897
0
LINE
8
FFab
62
5
10
113.1103
20
-105.9944
11
113.1103
21
-106.9977
0
LINE
8
FFab
62
5
10
110.1103
20
-105.9944
11
110.1103
21
-106.9977
0
LINE
8
FFab
62
5
10
116.9977
20
-98.8897
11
116.9977
21
-98.6103
0
LINE
8
FFab
62
5
10
104.0056
20
-103.8897
11
104.0056
21
-103.6103
0
LINE
8
FFab
62
5
10
103.0023
20
-97.6103
11
103.0023
21
-97.8897
0
LINE
8
FFab
62
5
10
107.8897
20
-105.9944
11
107.6103
21
-105.9944
0
LINE
8
FFab
62
5
10
112.6103
20
-105.9944
11
112.6103
21
-106.9977
0
LINE
8
FFab
62
5
10
105.6103
20
-105.9944
11
105.6103
21
-106.9977
0
LINE
8
FFab
62
5
10
103.0023
20
-104.1103
11
103.0023
21
-104.3897
0
LINE
8
FFab
62
5
10
111.8897
20
-105.9944
11
111.6103
21
-105.9944
0
LINE
8
FFab
62
5
10
112.8897
20
-93.0023
11
112.6103
21
-93.0023
0
LINE
8
FFab
62
5
10
111.6103
20
-106.9977
11
111.8897
21
-106.9977
0
LINE
8
FFab
62
5
10
104.0056
20
-100.8897
11
104.0056
21
-100.6103
0
LINE
8
FFab
62
5
10
111.8897
20
-94.0056
11
111.8897
21
-93.0023
0
LINE
8
FFab
62
5
10
104.0056
20
-102.3897
11
104.0056
21
-102.1103
0
LINE
8
FFab
62
5
10
116.9977
20
-98.6103
11
115.9944
21
-98.6103
0
LINE
8
FFab
62
5
10
115.9944
20
-95.1103
11
115.9944
21
-95.3897
0
LINE
8
FFab
62
5
10
106.6103
20
-93.0023
11
106.6103
21
-94.0056
0
LINE
8
FFab
62
5
10
103.0023
20
-95.6103
11
103.0023
21
-95.8897
0
LINE
8
FFab
62
5
10
115.9944
20
-97.1103
11
115.9944
21
-97.3897
0
LINE
8
FFab
62
5
10
114.6103
20
-94.0056
11
114.8897
21
-94.0056
0
LINE
8
FFab
62
5
10
105.6103
20
-93.0023
11
105.6103
21
-94.0056
0
LINE
8
FFab
62
5
10
104.0056
20
-95.6103
11
103.0023
21
-95.6103
0
LINE
8
FFab
62
5
10
115.9944
20
-101.1103
11
115.9944
21
-101.3897
0
LINE
8
FFab
62
5
10
103.0023
20
-101.3897
11
104.0056
21
-101.3897
0
LINE
8
FFab
62
5
10
104.0056
20
-102.8897
11
104.0056
21
-102.6103
0
LINE
8
FFab
62
5
10
107.6103
20
-94.0056
11
107.8897
21
-94.0056
0
LINE
8
FFab
62
5
10
113.8897
20
-105.9944
11
113.6103
21
-105.9944
0
LINE
8
FFab
62
5
10
103.0023
20
-98.1103
11
103.0023
21
-98.3897
0
LINE
8
FFab
62
5
10
112.3897
20
-106.9977
11
112.3897
21
-105.9944
0
LINE
8
FFab
62
5
10
115.9944
20
-103.3897
11
116.9977
21
-103.3897
0
LINE
8
FFab
62
5
10
108.6103
20
-106.9977
11
108.8897
21
-106.9977
0
LINE
8
FFab
62
5
10
105.2756
20
-105.9944
11
104.0056
21
-104.7244
0
LINE
8
FFab
62
5
10
104.0056
20
-103.1103
11
103.0023
21
-103.1103
0
LINE
8
FFab
62
5
10
109.6103
20
-105.9944
11
109.6103
21
-106.9977
0
LINE
8
FFab
62
5
10
115.9944
20
-101.6103
11
115.9944
21
-101.8897
0
LINE
8
FFab
62
5
10
103.0023
20
-102.3897
11
104.0056
21
-102.3897
0
LINE
8
FFab
62
5
10
115.9944
20
-96.3897
11
116.9977
21
-96.3897
0
LINE
8
FFab
62
5
10
116.9977
20
-95.3897
11
116.9977
21
-95.1103
0
LINE
8
FFab
62
5
10
112.6103
20
-93.0023
11
112.6103
21
-94.0056
0
LINE
8
FFab
62
5
10
109.6103
20
-94.0056
11
109.8897
21
-94.0056
0
LINE
8
FFab
62
5
10
116.9977
20
-99.3897
11
116.9977
21
-99.1103
0
LINE
8
FFab
62
5
10
116.9977
20
-100.8897
11
116.9977
21
-100.6103
0
LINE
8
FFab
62
5
10
116.9977
20
-103.8897
11
116.9977
21
-103.6103
0
LINE
8
FFab
62
5
10
107.3897
20
-93.0023
11
107.1103
21
-93.0023
0
LINE
8
FFab
62
5
10
108.1103
20
-106.9977
11
108.3897
21
-106.9977
0
LINE
8
FFab
62
5
10
103.0023
20
-95.1103
11
103.0023
21
-95.3897
0
LINE
8
FFab
62
5
10
105.6103
20
-94.0056
11
105.8897
21
-94.0056
0
LINE
8
FFab
62
5
10
109.3897
20
-93.0023
11
109.1103
21
-93.0023
0
LINE
8
FFab
62
5
10
112.3897
20
-94.0056
11
112.3897
21
-93.0023
0
LINE
8
FFab
62
5
10
104.0056
20
-96.1103
11
103.0023
21
-96.1103
0
LINE
8
FFab
62
5
10
106.3897
20
-93.0023
11
106.1103
21
-93.0023
0
LINE
8
FFab
62
5
10
103.0023
20
-99.1103
11
103.0023
21
-99.3897
0
LINE
8
FFab
62
5
10
112.1103
20
-106.9977
11
112.3897
21
-106.9977
0
LINE
8
FFab
62
5
10
108.8897
20
-105.9944
11
108.6103
21
-105.9944
0
LINE
8
FFab
62
5
10
115.9944
20
-102.1103
11
115.9944
21
-102.3897
0
LINE
8
FFab
62
5
10
116.9977
20
-97.1103
11
115.9944
21
-97.1103
0
LINE
8
FFab
62
5
10
116.9977
20
-96.1103
11
115.9944
21
-96.1103
0
LINE
8
FFab
62
5
10
116.9977
20
-95.6103
11
115.9944
21
-95.6103
0
LINE
8
FFab
62
5
10
109.6103
20
-106.9977
11
109.8897
21
-106.9977
0
LINE
8
FFab
62
5
10
114.3897
20
-105.9944
11
114.1103
21
-105.9944
0
LINE
8
FFab
62
5
10
108.1103
20
-93.0023
11
108.1103
21
-94.0056
0
LINE
8
FFab
62
5
10
116.9977
20
-102.1103
11
115.9944
21
-102.1103
0
LINE
8
FFab
62
5
10
103.0023
20
-102.8897
11
104.0056
21
-102.8897
0
LINE
8
FFab
62
5
10
103.0023
20
-99.8897
11
104.0056
21
-99.8897
0
LINE
8
FFab
62
5
10
104.0056
20
-101.8897
11
104.0056
21
-101.6103
0
LINE
8
FFab
62
5
10
115.9944
20
-100.1103
11
115.9944
21
-100.3897
0
LINE
8
FFab
62
5
10
103.0023
20
-99.6103
11
103.0023
21
-99.8897
0
LINE
8
FFab
62
5
10
115.9944
20
-97.8897
11
116.9977
21
-97.8897
0
LINE
8
FFab
62
5
10
110.3897
20
-94.0056
11
110.3897
21
-93.0023
0
LINE
8
FFab
62
5
10
108.3897
20
-106.9977
11
108.3897
21
-105.9944
0
LINE
8
FFab
62
5
10
109.3897
20
-106.9977
11
109.3897
21
-105.9944
0
LINE
8
FFab
62
5
10
104.0056
20
-99.3897
11
104.0056
21
-99.1103
0
LINE
8
FFab
62
5
10
103.0023
20
-96.8897
11
104.0056
21
-96.8897
0
LINE
8
FFab
62
5
10
115.9944
20
-95.8897
11
116.9977
21
-95.8897
0
LINE
8
FFab
62
5
10
104.0056
20
-104.6103
11
103.0023
21
-104.6103
0
LINE
8
FFab
62
5
10
113.8897
20
-106.9977
11
113.8897
21
-105.9944
0
LINE
8
FFab
62
5
10
113.3897
20
-106.9977
11
113.3897
21
-105.9944
0
LINE
8
FFab
62
5
10
104.0056
20
-98.6103
11
103.0023
21
-98.6103
0
LINE
8
FFab
62
5
10
116.9977
20
-99.6103
11
115.9944
21
-99.6103
0
LINE
8
FFab
62
5
10
111.6103
20
-93.0023
11
111.6103
21
-94.0056
0
LINE
8
FFab
62
5
10
108.8897
20
-93.0023
11
108.6103
21
-93.0023
0
LINE
8
FFab
62
5
10
105.3897
20
-93.0023
11
105.1103
21
-93.0023
0
LINE
8
FFab
62
5
10
107.6103
20
-93.0023
11
107.6103
21
-94.0056
0
LINE
8
FFab
62
5
10
110.8897
20
-93.0023
11
110.6103
21
-93.0023
0
LINE
8
FFab
62
5
10
104.0056
20
-97.1103
11
103.0023
21
-97.1103
0
LINE
8
FFab
62
5
10
104.0056
20
-99.1103
11
103.0023
21
-99.1103
0
LINE
8
FFab
62
5
10
109.8897
20
-105.9944
11
109.6103
21
-105.9944
0
LINE
8
FFab
62
5
10
115.9944
20
-99.1103
11
115.9944
21
-99.3897
0
LINE
8
FFab
62
5
10
112.1103
20
-93.0023
11
112.1103
21
-94.0056
0
LINE
8
FFab
62
5
10
115.9944
20
-99.8897
11
116.9977
21
-99.8897
0
LINE
8
FFab
62
5
10
104.0056
20
-94.0056
11
104.0056
21
-105.9944
0
LINE
8
FFab
62
5
10
104.0056
20
-95.8897
11
104.0056
21
-95.6103
0
LINE
8
FFab
62
5
10
115.9944
20
-96.1103
11
115.9944
21
-96.3897
0
LINE
8
FFab
62
5
10
113.1103
20
-93.0023
11
113.1103
21
-94.0056
0
LINE
8
FFab
62
5
10
108.6103
20
-93.0023
11
108.6103
21
-94.0056
0
LINE
8
FFab
62
5
10
104.0056
20
-101.3897
11
104.0056
21
-101.1103
0
LINE
8
FFab
62
5
10
103.0023
20
-100.8897
11
104.0056
21
-100.8897
0
LINE
8
FFab
62
5
10
108.8897
20
-94.0056
11
108.8897
21
-93.0023
0
LINE
8
FFab
62
5
10
108.8897
20
-106.9977
11
108.8897
21
-105.9944
0
LINE
8
FFab
62
5
10
116.9977
20
-100.1103
11
115.9944
21
-100.1103
0
LINE
8
FFab
62
5
10
103.0023
20
-100.6103
11
103.0023
21
-100.8897
0
LINE
8
FFab
62
5
10
115.9944
20
-104.3897
11
116.9977
21
-104.3897
0
LINE
8
FFab
62
5
10
103.0023
20
-100.1103
11
103.0023
21
-100.3897
0
LINE
8
FFab
62
5
10
116.9977
20
-97.3897
11
116.9977
21
-97.1103
0
LINE
8
FFab
62
5
10
103.0023
20
-97.3897
11
104.0056
21
-97.3897
0
LINE
8
FFab
62
5
10
110.1103
20
-94.0056
11
110.3897
21
-94.0056
0
LINE
8
FFab
62
5
10
105.8897
20
-105.9944
11
105.6103
21
-105.9944
0
LINE
8
FFab
62
5
10
115.9944
20
-98.8897
11
116.9977
21
-98.8897
0
LINE
8
FFab
62
5
10
103.0023
20
-103.8897
11
104.0056
21
-103.8897
0
LINE
8
FFab
62
5
10
113.6103
20
-94.0056
11
113.8897
21
-94.0056
0
LINE
8
FFab
62
5
10
116.9977
20
-101.6103
11
115.9944
21
-101.6103
0
LINE
8
FFab
62
5
10
106.8897
20
-94.0056
11
106.8897
21
-93.0023
0
LINE
8
FFab
62
5
10
116.9977
20
-100.6103
11
115.9944
21
-100.6103
0
LINE
8
FFab
62
5
10
113.6103
20
-106.9977
11
113.8897
21
-106.9977
0
LINE
8
FFab
62
5
10
116.9977
20
-102.6103
11
115.9944
21
-102.6103
0
LINE
8
FFab
62
5
10
105.3897
20
-94.0056
11
105.3897
21
-93.0023
0
LINE
8
FFab
62
5
10
115.9944
20
-98.6103
11
115.9944
21
-98.8897
0
LINE
8
FFab
62
5
10
104.0056
20
-104.3897
11
104.0056
21
-104.1103
0
LINE
8
FFab
62
5
10
112.8897
20
-105.9944
11
112.6103
21
-105.9944
0
LINE
8
FFab
62
5
10
104.0056
20
-98.3897
11
104.0056
21
-98.1103
0
LINE
8
FFab
62
5
10
104.0056
20
-104.8897
11
104.0056
21
-104.6103
0
LINE
8
FFab
62
5
10
103.0023
20
-95.3897
11
104.0056
21
-95.3897
0
LINE
8
FFab
62
5
10
110.6103
20
-93.0023
11
110.6103
21
-94.0056
0
LINE
8
FFab
62
5
10
116.9977
20
-101.8897
11
116.9977
21
-101.6103
0
LINE
8
FFab
62
5
10
113.8897
20
-93.0023
11
113.6103
21
-93.0023
0
LINE
8
FFab
62
5
10
105.3897
20
-105.9944
11
105.1103
21
-105.9944
0
LINE
8
FFab
62
5
10
115.9944
20
-103.8897
11
116.9977
21
-103.8897
0
LINE
8
FFab
62
5
10
110.6103
20
-106.9977
11
110.8897
21
-106.9977
0
LINE
8
FFab
62
5
10
115.9944
20
-96.6103
11
115.9944
21
-96.8897
0
LINE
8
FFab
62
5
10
112.8897
20
-106.9977
11
112.8897
21
-105.9944
0
LINE
8
FFab
62
5
10
115.9944
20
-100.3897
11
116.9977
21
-100.3897
0
LINE
8
FFab
62
5
10
103.0023
20
-101.8897
11
104.0056
21
-101.8897
0
LINE
8
FFab
62
5
10
106.1103
20
-105.9944
11
106.1103
21
-106.9977
0
LINE
8
FFab
62
5
10
114.1103
20
-94.0056
11
114.3897
21
-94.0056
0
LINE
8
FFab
62
5
10
115.9944
20
-98.1103
11
115.9944
21
-98.3897
0
LINE
8
FFab
62
5
10
110.1103
20
-106.9977
11
110.3897
21
-106.9977
0
LINE
8
FFab
62
5
10
116.9977
20
-103.3897
11
116.9977
21
-103.1103
0
LINE
8
FFab
62
5
10
112.3897
20
-105.9944
11
112.1103
21
-105.9944
0
LINE
8
FFab
62
5
10
104.0056
20
-97.8897
11
104.0056
21
-97.6103
0
LINE
8
FFab
62
5
10
112.6103
20
-106.9977
11
112.8897
21
-106.9977
0
LINE
8
FFab
62
5
10
108.3897
20
-105.9944
11
108.1103
21
-105.9944
0
LINE
8
FFab
62
5
10
108.1103
20
-105.9944
11
108.1103
21
-106.9977
0
LINE
8
FFab
62
5
10
116.9977
20
-101.1103
11
115.9944
21
-101.1103
0
LINE
8
FFab
62
5
10
115.9944
20
-94.0056
11
104.0056
21
-94.0056
0
LINE
8
FFab
62
5
10
103.0023
20
-104.8897
11
104.0056
21
-104.8897
0
LINE
8
FFab
62
5
10
115.9944
20
-100.6103
11
115.9944
21
-100.8897
0
LINE
8
FFab
62
5
10
115.9944
20
-102.8897
11
116.9977
21
-102.8897
0
LINE
8
FFab
62
5
10
111.6103
20
-94.0056
11
111.8897
21
-94.0056
0
LINE
8
FFab
62
5
10
115.9944
20
-97.3897
11
116.9977
21
-97.3897
0
LINE
8
FFab
62
5
10
104.0056
20
-100.1103
11
103.0023
21
-100.1103
0
LINE
8
FFab
62
5
10
104.0056
20
-104.1103
11
103.0023
21
-104.1103
0
LINE
8
FFab
62
5
10
103.0023
20
-98.8897
11
104.0056
21
-98.8897
0
LINE
8
FFab
62
5
10
103.0023
20
-96.6103
11
103.0023
21
-96.8897
0
LINE
8
FFab
62
5
10
116.9977
20
-101.3897
11
116.9977
21
-101.1103
0
LINE
8
FFab
62
5
10
115.9944
20
-105.9944
11
115.9944
21
-94.0056
0
LINE
8
FFab
62
5
10
113.1103
20
-106.9977
11
113.3897
21
-106.9977
0
LINE
8
FFab
62
5
10
110.3897
20
-105.9944
11
110.1103
21
-105.9944
0
LINE
8
FFab
62
5
10
114.1103
20
-106.9977
11
114.3897
21
-106.9977
0
LINE
8
FFab
62
5
10
116.9977
20
-102.8897
11
116.9977
21
-102.6103
0
LINE
8
FFab
62
5
10
107.3897
20
-105.9944
11
107.1103
21
-105.9944
0
LINE
8
FFab
62
5
10
104.0056
20
-97.3897
11
104.0056
21
-97.1103
0
LINE
8
FFab
62
5
10
112.8897
20
-94.0056
11
112.8897
21
-93.0023
0
LINE
8
FFab
62
5
10
108.3897
20
-93.0023
11
108.1103
21
-93.0023
0
LINE
8
FFab
62
5
10
107.3897
20
-106.9977
11
107.3897
21
-105.9944
0
LINE
8
FFab
62
5
10
115.9944
20
-101.3897
11
116.9977
21
-101.3897
0
LINE
8
FFab
62
5
10
103.0023
20
-104.3897
11
104.0056
21
-104.3897
0
LINE
8
FFab
62
5
10
106.1103
20
-94.0056
11
106.3897
21
-94.0056
0
LINE
8
FFab
62
5
10
114.6103
20
-105.9944
11
114.6103
21
-106.9977
0
LINE
8
FFab
62
5
10
115.9944
20
-104.1103
11
115.9944
21
-104.3897
0
LINE
8
FFab
62
5
10
114.8897
20
-105.9944
11
114.6103
21
-105.9944
0
LINE
8
FFab
62
5
10
109.6103
20
-93.0023
11
109.6103
21
-94.0056
0
LINE
8
FFab
62
5
10
116.9977
20
-104.8897
11
116.9977
21
-104.6103
0
LINE
8
FFab
62
5
10
112.1103
20
-94.0056
11
112.3897
21
-94.0056
0
LINE
8
FFab
62
5
10
115.9944
20
-95.6103
11
115.9944
21
-95.8897
0
LINE
8
FFab
62
5
10
116.9977
20
-98.1103
11
115.9944
21
-98.1103
0
LINE
8
FFab
62
5
10
116.9977
20
-98.3897
11
116.9977
21
-98.1103
0
LINE
8
FFab
62
5
10
105.3897
20
-106.9977
11
105.3897
21
-105.9944
0
LINE
8
FFab
62
5
10
106.8897
20
-93.0023
11
106.6103
21
-93.0023
0
LINE
8
FFab
62
5
10
111.1103
20
-105.9944
11
111.1103
21
-106.9977
0
LINE
8
FFab
62
5
10
111.1103
20
-93.0023
11
111.1103
21
-94.0056
0
LINE
8
FFab
62
5
10
116.9977
20
-100.3897
11
116.9977
21
-100.1103
0
LINE
8
FFab
62
5
10
106.8897
20
-106.9977
11
106.8897
21
-105.9944
0
LINE
8
FFab
62
5
10
114.8897
20
-106.9977
11
114.8897
21
-105.9944
0
LINE
8
FFab
62
5
10
115.9944
20
-104.6103
11
115.9944
21
-104.8897
0
LINE
8
FFab
62
5
10
104.0056
20
-101.1103
11
103.0023
21
-101.1103
0
LINE
8
FFab
62
5
10
104.0056
20
-99.8897
11
104.0056
21
-99.6103
0
LINE
8
FFab
62
5
10
104.0056
20
-101.6103
11
103.0023
21
-101.6103
0
LINE
8
FFab
62
5
10
109.1103
20
-106.9977
11
109.3897
21
-106.9977
0
LINE
8
FFab
62
5
10
115.9944
20
-101.8897
11
116.9977
21
-101.8897
0
LINE
8
FFab
62
5
10
103.0023
20
-97.1103
11
103.0023
21
-97.3897
0
LINE
8
FFab
62
5
10
107.8897
20
-106.9977
11
107.8897
21
-105.9944
0
LINE
8
FFab
62
5
10
106.6103
20
-106.9977
11
106.8897
21
-106.9977
0
LINE
8
FFab
62
5
10
110.1103
20
-93.0023
11
110.1103
21
-94.0056
0
LINE
8
FFab
62
5
10
116.9977
20
-102.3897
11
116.9977
21
-102.1103
0
LINE
8
FFab
62
5
10
109.3897
20
-94.0056
11
109.3897
21
-93.0023
0
LINE
8
FFab
62
5
10
105.1103
20
-93.0023
11
105.1103
21
-94.0056
0
LINE
8
FFab
62
5
10
110.3897
20
-93.0023
11
110.1103
21
-93.0023
0
LINE
8
FFab
62
5
10
103.0023
20
-103.3897
11
104.0056
21
-103.3897
0
LINE
8
FFab
62
5
10
103.0023
20
-101.1103
11
103.0023
21
-101.3897
0
LINE
8
FFab
62
5
10
116.9977
20
-97.8897
11
116.9977
21
-97.6103
0
LINE
8
FFab
62
5
10
112.6103
20
-94.0056
11
112.8897
21
-94.0056
0
LINE
8
FFab
62
5
10
111.3897
20
-105.9944
11
111.1103
21
-105.9944
0
LINE
8
FFab
62
5
10
104.0056
20
-95.1103
11
103.0023
21
-95.1103
0
LINE
8
FFab
62
5
10
116.9977
20
-96.6103
11
115.9944
21
-96.6103
0
LINE
8
FFab
62
5
10
103.0023
20
-99.3897
11
104.0056
21
-99.3897
0
LINE
8
FFab
62
5
10
104.0056
20
-100.3897
11
104.0056
21
-100.1103
0
LINE
8
FFab
62
5
10
107.3897
20
-94.0056
11
107.3897
21
-93.0023
0
LINE
8
FFab
62
5
10
104.0056
20
-97.6103
11
103.0023
21
-97.6103
0
LINE
8
FFab
62
5
10
105.8897
20
-106.9977
11
105.8897
21
-105.9944
0
LINE
8
FFab
62
5
10
111.8897
20
-106.9977
11
111.8897
21
-105.9944
0
LINE
8
FFab
62
5
10
104.0056
20
-103.3897
11
104.0056
21
-103.1103
0
LINE
8
FFab
62
5
10
106.3897
20
-105.9944
11
106.1103
21
-105.9944
0
LINE
8
FFab
62
5
10
110.6103
20
-94.0056
11
110.8897
21
-94.0056
0
LINE
8
FFab
62
5
10
103.0023
20
-102.6103
11
103.0023
21
-102.8897
0
LINE
8
FFab
62
5
10
106.3897
20
-106.9977
11
106.3897
21
-105.9944
0
LINE
8
FFab
62
5
10
106.6103
20
-105.9944
11
106.6103
21
-106.9977
0
LINE
8
FFab
62
5
10
116.9977
20
-99.8897
11
116.9977
21
-99.6103
0
LINE
8
FFab
62
5
10
103.0023
20
-96.3897
11
104.0056
21
-96.3897
0
LINE
8
FFab
62
5
10
104.0056
20
-102.1103
11
103.0023
21
-102.1103
0
LINE
8
FFab
62
5
10
103.0023
20
-98.6103
11
103.0023
21
-98.8897
0
LINE
8
FFab
62
5
10
113.3897
20
-93.0023
11
113.1103
21
-93.0023
0
LINE
8
FFab
62
5
10
103.0023
20
-98.3897
11
104.0056
21
-98.3897
0
LINE
8
FFab
62
5
10
114.6103
20
-106.9977
11
114.8897
21
-106.9977
0
LINE
8
FFab
62
5
10
107.1103
20
-93.0023
11
107.1103
21
-94.0056
0
LINE
8
FFab
62
5
10
116.9977
20
-96.3897
11
116.9977
21
-96.1103
0
LINE
8
FFab
62
5
10
106.8897
20
-105.9944
11
106.6103
21
-105.9944
0
LINE
8
FFab
62
5
10
113.3897
20
-94.0056
11
113.3897
21
-93.0023
0
LINE
8
FFab
62
5
10
105.8897
20
-93.0023
11
105.6103
21
-93.0023
0
LINE
8
FCrtYd
62
7
10
81.0
20
-86.775
11
83.5
21
-86.775
0
LINE
8
FCrtYd
62
7
10
81.0
20
-86.775
11
81.0
21
-83.475
0
LINE
8
FCrtYd
62
7
10
83.5
20
-83.475
11
81.0
21
-83.475
0
LINE
8
FCrtYd
62
7
10
83.5
20
-83.475
11
83.5
21
-86.775
0
LINE
8
FCrtYd
62
7
10
106.85
20
-166.2
11
110.65
21
-166.2
0
LINE
8
FCrtYd
62
7
10
110.65
20
-166.2
11
110.65
21
-163.8
0
LINE
8
FCrtYd
62
7
10
110.45
20
-163.8
11
106.85
21
-163.8
0
LINE
8
FCrtYd
62
7
10
110.65
20
-163.8
11
110.45
21
-163.8
0
LINE
8
FCrtYd
62
7
10
106.85
20
-163.8
11
106.85
21
-166.2
0
LINE
8
FCrtYd
62
7
10
133.52
20
-160.68
11
133.52
21
-159.22
0
LINE
8
FCrtYd
62
7
10
136.48
20
-160.68
11
133.52
21
-160.68
0
LINE
8
FCrtYd
62
7
10
133.52
20
-159.22
11
136.48
21
-159.22
0
LINE
8
FCrtYd
62
7
10
136.48
20
-159.22
11
136.48
21
-160.68
0
LINE
8
FFab
62
5
10
135.8
20
-159.5375
11
135.8
21
-160.3625
0
LINE
8
FFab
62
5
10
134.2
20
-160.3625
11
134.2
21
-159.5375
0
LINE
8
FFab
62
5
10
134.2
20
-159.5375
11
135.8
21
-159.5375
0
LINE
8
FFab
62
5
10
135.8
20
-160.3625
11
134.2
21
-160.3625
0
LINE
8
FCrtYd
62
7
10
110.675
20
-126.175
11
110.675
21
-123.775
0
LINE
8
FCrtYd
62
7
10
106.875
20
-126.175
11
110.675
21
-126.175
0
LINE
8
FCrtYd
62
7
10
110.475
20
-123.775
11
106.875
21
-123.775
0
LINE
8
FCrtYd
62
7
10
110.675
20
-123.775
11
110.475
21
-123.775
0
LINE
8
FCrtYd
62
7
10
106.875
20
-123.775
11
106.875
21
-126.175
0
LINE
8
FCrtYd
62
7
10
86.48
20
-43.48
11
83.52
21
-43.48
0
LINE
8
FCrtYd
62
7
10
86.48
20
-42.02
11
86.48
21
-43.48
0
LINE
8
FCrtYd
62
7
10
83.52
20
-43.48
11
83.52
21
-42.02
0
LINE
8
FCrtYd
62
7
10
83.52
20
-42.02
11
86.48
21
-42.02
0
LINE
8
FFab
62
5
10
84.2
20
-42.3375
11
85.8
21
-42.3375
0
LINE
8
FFab
62
5
10
85.8
20
-42.3375
11
85.8
21
-43.1625
0
LINE
8
FFab
62
5
10
84.2
20
-43.1625
11
84.2
21
-42.3375
0
LINE
8
FFab
62
5
10
85.8
20
-43.1625
11
84.2
21
-43.1625
0
LINE
8
FCrtYd
62
7
10
113.4
20
-36.425
11
116.7
21
-36.425
0
LINE
8
FCrtYd
62
7
10
116.7
20
-38.925
11
116.7
21
-36.425
0
LINE
8
FCrtYd
62
7
10
116.7
20
-38.925
11
113.4
21
-38.925
0
LINE
8
FCrtYd
62
7
10
113.4
20
-36.425
11
113.4
21
-38.925
0
LINE
8
FCrtYd
62
7
10
116.48
20
-121.995
11
116.48
21
-123.455
0
LINE
8
FCrtYd
62
7
10
113.52
20
-123.455
11
113.52
21
-121.995
0
LINE
8
FCrtYd
62
7
10
113.52
20
-121.995
11
116.48
21
-121.995
0
LINE
8
FCrtYd
62
7
10
116.48
20
-123.455
11
113.52
21
-123.455
0
LINE
8
FFab
62
5
10
114.2
20
-122.3125
11
115.8
21
-122.3125
0
LINE
8
FFab
62
5
10
115.8
20
-122.3125
11
115.8
21
-123.1375
0
LINE
8
FFab
62
5
10
115.8
20
-123.1375
11
114.2
21
-123.1375
0
LINE
8
FFab
62
5
10
114.2
20
-123.1375
11
114.2
21
-122.3125
0
LINE
8
FCrtYd
62
7
10
103.15
20
-155.15
11
103.15
21
-157.65
0
LINE
8
FCrtYd
62
7
10
106.45
20
-157.65
11
103.15
21
-157.65
0
LINE
8
FCrtYd
62
7
10
106.45
20
-157.65
11
106.45
21
-155.15
0
LINE
8
FCrtYd
62
7
10
103.15
20
-155.15
11
106.45
21
-155.15
0
LINE
8
FCrtYd
62
7
10
136.45
20
-35.1
11
136.45
21
-32.6
0
LINE
8
FCrtYd
62
7
10
133.15
20
-32.6
11
133.15
21
-35.1
0
LINE
8
FCrtYd
62
7
10
133.15
20
-32.6
11
136.45
21
-32.6
0
LINE
8
FCrtYd
62
7
10
136.45
20
-35.1
11
133.15
21
-35.1
0
LINE
8
FCrtYd
62
7
10
83.57
20
-160.52
11
86.53
21
-160.52
0
LINE
8
FCrtYd
62
7
10
86.53
20
-161.98
11
83.57
21
-161.98
0
LINE
8
FCrtYd
62
7
10
86.53
20
-160.52
11
86.53
21
-161.98
0
LINE
8
FCrtYd
62
7
10
83.57
20
-161.98
11
83.57
21
-160.52
0
LINE
8
FFab
62
5
10
85.85
20
-160.8375
11
85.85
21
-161.6625
0
LINE
8
FFab
62
5
10
84.25
20
-160.8375
11
85.85
21
-160.8375
0
LINE
8
FFab
62
5
10
84.25
20
-161.6625
11
84.25
21
-160.8375
0
LINE
8
FFab
62
5
10
85.85
20
-161.6625
11
84.25
21
-161.6625
0
LINE
8
FCrtYd
62
7
10
103.15
20
-32.6
11
106.45
21
-32.6
0
LINE
8
FCrtYd
62
7
10
103.15
20
-32.6
11
103.15
21
-35.1
0
LINE
8
FCrtYd
62
7
10
106.45
20
-35.1
11
106.45
21
-32.6
0
LINE
8
FCrtYd
62
7
10
106.45
20
-35.1
11
103.15
21
-35.1
0
LINE
8
FCrtYd
62
7
10
103.175
20
-86.95
11
105.475
21
-86.95
0
LINE
8
FCrtYd
62
7
10
105.475
20
-82.55
11
105.475
21
-86.95
0
LINE
8
FCrtYd
62
7
10
103.175
20
-86.95
11
103.175
21
-82.55
0
LINE
8
FCrtYd
62
7
10
103.175
20
-82.55
11
105.475
21
-82.55
0
LINE
8
FFab
62
5
10
104.325
20
-85.5
11
104.325
21
-85.1
0
LINE
8
FFab
62
5
10
104.725
20
-84.5
11
104.325
21
-85.1
0
LINE
8
FFab
62
5
10
103.425
20
-86.15
11
103.425
21
-83.35
0
LINE
8
FFab
62
5
10
103.925
20
-84.5
11
104.725
21
-84.5
0
LINE
8
FFab
62
5
10
103.425
20
-83.35
11
105.225
21
-83.35
0
LINE
8
FFab
62
5
10
105.225
20
-86.15
11
103.425
21
-86.15
0
LINE
8
FFab
62
5
10
104.325
20
-85.1
11
103.775
21
-85.1
0
LINE
8
FFab
62
5
10
104.325
20
-84.5
11
104.325
21
-84.0
0
LINE
8
FFab
62
5
10
105.225
20
-83.35
11
105.225
21
-86.15
0
LINE
8
FFab
62
5
10
104.325
20
-85.1
11
103.925
21
-84.5
0
LINE
8
FFab
62
5
10
104.325
20
-85.1
11
104.875
21
-85.1
0
LINE
8
FCrtYd
62
7
10
83.6
20
-32.975
11
87.8
21
-32.975
0
LINE
8
FCrtYd
62
7
10
87.8
20
-36.425
11
83.6
21
-36.425
0
LINE
8
FCrtYd
62
7
10
83.6
20
-36.425
11
83.6
21
-32.975
0
LINE
8
FCrtYd
62
7
10
87.8
20
-32.975
11
87.8
21
-36.425
0
LINE
8
FFab
62
5
10
86.5
20
-36.15
11
84.9
21
-36.15
0
LINE
8
FFab
62
5
10
84.9
20
-33.9
11
85.55
21
-33.25
0
LINE
8
FFab
62
5
10
86.5
20
-33.25
11
86.5
21
-36.15
0
LINE
8
FFab
62
5
10
84.9
20
-33.25
11
86.5
21
-33.25
0
LINE
8
FFab
62
5
10
84.9
20
-36.15
11
84.9
21
-33.25
0
LINE
8
FCrtYd
62
7
10
108.52
20
-108.38
11
108.52
21
-111.34
0
LINE
8
FCrtYd
62
7
10
108.52
20
-111.34
11
107.06
21
-111.34
0
LINE
8
FCrtYd
62
7
10
107.06
20
-108.38
11
108.52
21
-108.38
0
LINE
8
FCrtYd
62
7
10
107.06
20
-111.34
11
107.06
21
-108.38
0
LINE
8
FFab
62
5
10
107.3775
20
-109.06
11
108.2025
21
-109.06
0
LINE
8
FFab
62
5
10
108.2025
20
-110.66
11
107.3775
21
-110.66
0
LINE
8
FFab
62
5
10
108.2025
20
-109.06
11
108.2025
21
-110.66
0
LINE
8
FFab
62
5
10
107.3775
20
-110.66
11
107.3775
21
-109.06
0
LINE
8
FCrtYd
62
7
10
110.57
20
-155.945
11
110.57
21
-152.645
0
LINE
8
FCrtYd
62
7
10
113.07
20
-152.645
11
110.57
21
-152.645
0
LINE
8
FCrtYd
62
7
10
113.07
20
-152.645
11
113.07
21
-155.945
0
LINE
8
FCrtYd
62
7
10
110.57
20
-155.945
11
113.07
21
-155.945
0
LINE
8
FCrtYd
62
7
10
133.175
20
-75.15
11
136.475
21
-75.15
0
LINE
8
FCrtYd
62
7
10
136.475
20
-77.65
11
133.175
21
-77.65
0
LINE
8
FCrtYd
62
7
10
136.475
20
-77.65
11
136.475
21
-75.15
0
LINE
8
FCrtYd
62
7
10
133.175
20
-75.15
11
133.175
21
-77.65
0
LINE
8
FCrtYd
62
7
10
114.11
20
-109.56
11
112.29
21
-109.56
0
LINE
8
FCrtYd
62
7
10
114.11
20
-108.64
11
114.11
21
-109.56
0
LINE
8
FCrtYd
62
7
10
112.29
20
-109.56
11
112.29
21
-108.64
0
LINE
8
FCrtYd
62
7
10
112.29
20
-108.64
11
114.11
21
-108.64
0
LINE
8
FFab
62
5
10
112.7
20
-108.85
11
113.7
21
-108.85
0
LINE
8
FFab
62
5
10
113.7
20
-108.85
11
113.7
21
-109.35
0
LINE
8
FFab
62
5
10
112.7
20
-109.35
11
112.7
21
-108.85
0
LINE
8
FFab
62
5
10
113.7
20
-109.35
11
112.7
21
-109.35
0
LINE
8
FCrtYd
62
7
10
94.45
20
-105.88
11
94.45
21
-94.02
0
LINE
8
FCrtYd
62
7
10
78.55
20
-105.88
11
94.45
21
-105.88
0
LINE
8
FCrtYd
62
7
10
78.55
20
-94.02
11
78.55
21
-105.88
0
LINE
8
FCrtYd
62
7
10
94.45
20
-94.02
11
78.55
21
-94.02
0
LINE
8
FFab
62
5
10
78.8
20
-96.2
11
93.2
21
-96.2
0
LINE
8
FFab
62
5
10
78.8
20
-103.7
11
78.8
21
-96.2
0
LINE
8
FFab
62
5
10
94.2
20
-103.7
11
78.8
21
-103.7
0
LINE
8
FFab
62
5
10
93.2
20
-96.2
11
94.2
21
-97.2
0
LINE
8
FFab
62
5
10
94.2
20
-97.2
11
94.2
21
-103.7
0
LINE
8
FCrtYd
62
7
10
136.43
20
-122.13
11
133.47
21
-122.13
0
LINE
8
FCrtYd
62
7
10
133.47
20
-120.67
11
136.43
21
-120.67
0
LINE
8
FCrtYd
62
7
10
133.47
20
-122.13
11
133.47
21
-120.67
0
LINE
8
FCrtYd
62
7
10
136.43
20
-120.67
11
136.43
21
-122.13
0
LINE
8
FFab
62
5
10
135.75
20
-121.8125
11
134.15
21
-121.8125
0
LINE
8
FFab
62
5
10
134.15
20
-121.8125
11
134.15
21
-120.9875
0
LINE
8
FFab
62
5
10
135.75
20
-120.9875
11
135.75
21
-121.8125
0
LINE
8
FFab
62
5
10
134.15
20
-120.9875
11
135.75
21
-120.9875
0
LINE
8
FCrtYd
62
7
10
116.48
20
-79.02
11
116.48
21
-80.48
0
LINE
8
FCrtYd
62
7
10
113.52
20
-79.02
11
116.48
21
-79.02
0
LINE
8
FCrtYd
62
7
10
113.52
20
-80.48
11
113.52
21
-79.02
0
LINE
8
FCrtYd
62
7
10
116.48
20
-80.48
11
113.52
21
-80.48
0
LINE
8
FFab
62
5
10
115.8
20
-80.1625
11
114.2
21
-80.1625
0
LINE
8
FFab
62
5
10
115.8
20
-79.3375
11
115.8
21
-80.1625
0
LINE
8
FFab
62
5
10
114.2
20
-79.3375
11
115.8
21
-79.3375
0
LINE
8
FFab
62
5
10
114.2
20
-80.1625
11
114.2
21
-79.3375
0
LINE
8
FCrtYd
62
7
10
113.85
20
-71.35
11
104.05
21
-71.35
0
LINE
8
FCrtYd
62
7
10
104.05
20
-71.35
11
104.05
21
-67.25
0
LINE
8
FCrtYd
62
7
10
113.85
20
-67.25
11
113.85
21
-71.35
0
LINE
8
FCrtYd
62
7
10
104.05
20
-67.25
11
113.85
21
-67.25
0
LINE
8
FFab
62
5
10
107.45
20
-68.5
11
107.45
21
-70.1
0
LINE
8
FFab
62
5
10
111.95
20
-67.5
11
111.95
21
-71.1
0
LINE
8
FFab
62
5
10
107.2
20
-68.3
11
110.7
21
-68.3
0
LINE
8
FFab
62
5
10
110.7
20
-68.3
11
110.7
21
-70.3
0
LINE
8
FFab
62
5
10
105.95
20
-67.5
11
105.95
21
-71.1
0
LINE
8
FFab
62
5
10
105.95
20
-67.5
11
111.95
21
-67.5
0
LINE
8
FFab
62
5
10
107.45
20
-70.1
11
110.45
21
-70.1
0
LINE
8
FFab
62
5
10
110.45
20
-68.5
11
110.45
21
-70.1
0
LINE
8
FFab
62
5
10
107.2
20
-70.3
11
107.2
21
-68.3
0
LINE
8
FFab
62
5
10
110.7
20
-70.3
11
107.2
21
-70.3
0
LINE
8
FFab
62
5
10
105.95
20
-71.1
11
111.95
21
-71.1
0
LINE
8
FFab
62
5
10
107.45
20
-68.5
11
110.45
21
-68.5
0
LINE
8
FCrtYd
62
7
10
141.4725
20
-98.71
11
141.4725
21
-120.07
0
LINE
8
FCrtYd
62
7
10
151.3725
20
-98.71
11
141.4725
21
-98.71
0
LINE
8
FCrtYd
62
7
10
151.3725
20
-120.07
11
151.3725
21
-98.71
0
LINE
8
FCrtYd
62
7
10
141.4725
20
-120.07
11
151.3725
21
-120.07
0
LINE
8
FFab
62
5
10
150.8725
20
-119.57
11
141.9725
21
-119.57
0
LINE
8
FFab
62
5
10
142.9725
20
-99.21
11
150.8725
21
-99.21
0
LINE
8
FFab
62
5
10
141.9725
20
-100.21
11
142.9725
21
-99.21
0
LINE
8
FFab
62
5
10
150.8725
20
-99.21
11
150.8725
21
-119.57
0
LINE
8
FFab
62
5
10
149.6725
20
-100.4
11
149.6725
21
-118.38
0
LINE
8
FFab
62
5
10
149.6725
20
-118.38
11
143.1725
21
-118.38
0
LINE
8
FFab
62
5
10
141.9725
20
-119.57
11
141.9725
21
-100.21
0
LINE
8
FFab
62
5
10
143.1725
20
-111.44
11
141.9725
21
-111.44
0
LINE
8
FFab
62
5
10
143.1725
20
-111.44
11
143.1725
21
-111.44
0
LINE
8
FFab
62
5
10
141.9725
20
-107.34
11
143.1725
21
-107.34
0
LINE
8
FFab
62
5
10
143.1725
20
-118.38
11
143.1725
21
-111.44
0
LINE
8
FFab
62
5
10
143.1725
20
-100.4
11
149.6725
21
-100.4
0
LINE
8
FFab
62
5
10
143.1725
20
-107.34
11
143.1725
21
-100.4
0
LINE
8
FCrtYd
62
7
10
73.47
20
-119.18
11
73.47
21
-117.72
0
LINE
8
FCrtYd
62
7
10
76.43
20
-119.18
11
73.47
21
-119.18
0
LINE
8
FCrtYd
62
7
10
76.43
20
-117.72
11
76.43
21
-119.18
0
LINE
8
FCrtYd
62
7
10
73.47
20
-117.72
11
76.43
21
-117.72
0
LINE
8
FFab
62
5
10
74.15
20
-118.8625
11
74.15
21
-118.0375
0
LINE
8
FFab
62
5
10
74.15
20
-118.0375
11
75.75
21
-118.0375
0
LINE
8
FFab
62
5
10
75.75
20
-118.0375
11
75.75
21
-118.8625
0
LINE
8
FFab
62
5
10
75.75
20
-118.8625
11
74.15
21
-118.8625
0
CIRCLE
8
BFab
62
6
10
80.0
20
-120.0
40
2.5
0
CIRCLE
8
BFab
62
6
10
80.0
20
-120.0
40
11.0
0
CIRCLE
8
BFab
62
6
10
80.0
20
-160.0
40
11.0
0
CIRCLE
8
BFab
62
6
10
80.0
20
-160.0
40
2.5
0
CIRCLE
8
BFab
62
6
10
140.0
20
-160.0
40
2.5
0
CIRCLE
8
BFab
62
6
10
140.0
20
-160.0
40
11.0
0
CIRCLE
8
BFab
62
6
10
110.0
20
-120.0
40
11.0
0
CIRCLE
8
BFab
62
6
10
110.0
20
-120.0
40
2.5
0
CIRCLE
8
BFab
62
6
10
140.0
20
-40.0
40
11.0
0
CIRCLE
8
BFab
62
6
10
140.0
20
-40.0
40
2.5
0
CIRCLE
8
BFab
62
6
10
110.0
20
-160.0
40
2.5
0
CIRCLE
8
BFab
62
6
10
110.0
20
-160.0
40
11.0
0
CIRCLE
8
BFab
62
6
10
110.0
20
-40.0
40
2.5
0
CIRCLE
8
BFab
62
6
10
110.0
20
-40.0
40
11.0
0
CIRCLE
8
BFab
62
6
10
80.0
20
-40.0
40
11.0
0
CIRCLE
8
BFab
62
6
10
80.0
20
-40.0
40
2.5
0
CIRCLE
8
BFab
62
6
10
80.0
20
-80.0
40
2.5
0
CIRCLE
8
BFab
62
6
10
80.0
20
-80.0
40
11.0
0
CIRCLE
8
BFab
62
6
10
140.0
20
-80.0
40
2.5
0
CIRCLE
8
BFab
62
6
10
140.0
20
-80.0
40
11.0
0
CIRCLE
8
BFab
62
6
10
110.0
20
-80.0
40
2.5
0
CIRCLE
8
BFab
62
6
10
110.0
20
-80.0
40
11.0
0
CIRCLE
8
BFab
62
6
10
140.0
20
-120.0
40
11.0
0
CIRCLE
8
BFab
62
6
10
140.0
20
-120.0
40
2.5
0
LINE
8
Edge
62
2
10
148.989953
20
-170.0
11
71.010047
21
-170.0
0
ARC
8
Edge
62
2
10
70.0
20
-31.007107
30
0
40
0.769683
50
-3.709916
51
67.297191
0
ARC
8
Edge
62
2
10
71.010047
20
-170.0
30
0
40
0.766858
50
87.356117
51
157.356117
0
LINE
8
Edge
62
2
10
70.0
20
-169.0
11
70.0
21
-31.007107
0
LINE
8
Edge
62
2
10
150.0
20
-31.010047
11
150.0
21
-168.989953
0
LINE
8
Edge
62
2
10
71.007107
20
-30.0
11
148.989953
21
-30.0
0
ARC
8
Edge
62
2
10
148.989953
20
-30.0
30
0
40
0.771469
50
-172.786364
51
-22.786364
0
ARC
8
Edge
62
2
10
150.0
20
-168.989953
30
0
40
0.771469
50
-261.776317
51
-112.786364
0
ENDSEC
0
EOF
